<svg width="14" height="13" viewBox="0 0 14 13" fill="none" xmlns="http://www.w3.org/2000/svg">
<path d="M9.93477 0.0273438H4.06445C2.15391 0.0273438 0.599609 1.58164 0.599609 3.49219V9.3626C0.599609 11.273 2.15391 12.8273 4.06445 12.8273H9.93486C11.8453 12.8273 13.3996 11.273 13.3996 9.3626V3.49219C13.3996 1.58164 11.8453 0.0273438 9.93477 0.0273438ZM6.99961 9.92725C5.06973 9.92725 3.49971 8.35723 3.49971 6.42734C3.49971 4.49746 5.06973 2.92744 6.99961 2.92744C8.92949 2.92744 10.4995 4.49746 10.4995 6.42734C10.4995 8.35723 8.92949 9.92725 6.99961 9.92725ZM10.5832 3.75283C10.0129 3.75283 9.54902 3.28897 9.54902 2.71865C9.54902 2.14834 10.0129 1.68438 10.5832 1.68438C11.1535 1.68438 11.6175 2.14834 11.6175 2.71865C11.6175 3.28897 11.1535 3.75283 10.5832 3.75283Z" fill="white"/>
</svg>
