<svg width="15" height="11" viewBox="0 0 15 11" fill="none" xmlns="http://www.w3.org/2000/svg">
<path d="M14.1965 4.01225C14.227 3.12395 14.0336 2.24229 13.6343 1.44915C13.3633 1.1237 12.9873 0.904078 12.5717 0.828544C10.8527 0.671857 9.12659 0.607637 7.40077 0.636157C5.68123 0.606342 3.96134 0.668491 2.24838 0.822339C1.90972 0.884223 1.59631 1.0438 1.34641 1.28159C0.790393 1.79669 0.728614 2.67795 0.666835 3.42267C0.577201 4.76167 0.577201 6.1052 0.666835 7.44419C0.684708 7.86335 0.746835 8.27942 0.852172 8.6854C0.926663 8.99885 1.07737 9.28884 1.2908 9.52942C1.54241 9.77981 1.86312 9.94846 2.21131 10.0135C3.54322 10.1786 4.88525 10.2471 6.22696 10.2183C8.38923 10.2493 10.2859 10.2183 12.5284 10.0445C12.8852 9.98349 13.2149 9.81462 13.4737 9.56045C13.6466 9.38663 13.7758 9.17388 13.8505 8.93985C14.0715 8.25881 14.18 7.54604 14.1718 6.82979C14.1965 6.48225 14.1965 4.38461 14.1965 4.01225ZM6.00456 7.20216V3.36061L9.66188 5.29069C8.63635 5.86165 7.28339 6.50708 6.00456 7.20216Z" fill="white"/>
</svg>
