<svg width="24" height="24" viewBox="0 0 24 24" fill="none" xmlns="http://www.w3.org/2000/svg">
<circle cx="12" cy="12" r="12" fill="url(#paint0_linear_1468_7864)"/>
<path d="M15.3307 9.33011L16.4036 6.87185C16.5423 6.55439 16.3921 6.18826 16.0688 6.05199C15.7494 5.9145 15.3714 6.06201 15.2339 6.3807L14.161 8.84019C13.4801 8.62274 12.7547 8.50153 12.0012 8.50153C11.2477 8.50153 10.5223 8.62274 9.84133 8.84019L8.76597 6.3807C8.62852 6.06201 8.25052 5.91327 7.93105 6.05199C7.60775 6.1882 7.45885 6.55562 7.59761 6.87185L8.67052 9.33011C6.48527 10.4949 5 12.7682 5 15.3751C5 15.72 5.28511 16 5.63638 16H18.3636C18.7149 16 19 15.72 19 15.3751C18.9999 12.7682 17.5147 10.4949 15.3307 9.33011ZM9.4545 13.5005C9.10323 13.5005 8.81812 13.2205 8.81812 12.8756C8.81812 12.5307 9.10323 12.2507 9.4545 12.2507C9.80577 12.2507 10.0909 12.5307 10.0909 12.8756C10.0909 13.2205 9.80577 13.5005 9.4545 13.5005ZM14.5454 13.5005C14.1942 13.5005 13.9091 13.2205 13.9091 12.8756C13.9091 12.5307 14.1942 12.2507 14.5454 12.2507C14.8967 12.2507 15.1818 12.5307 15.1818 12.8756C15.1818 13.2205 14.8967 13.5005 14.5454 13.5005Z" fill="white"/>
<defs>
<linearGradient id="paint0_linear_1468_7864" x1="12" y1="0" x2="12" y2="24" gradientUnits="userSpaceOnUse">
<stop stop-color="#DBDBDB"/>
<stop offset="1" stop-color="#B0B0B0"/>
</linearGradient>
</defs>
</svg>
