<svg width="24" height="24" viewBox="0 0 24 24" fill="none" xmlns="http://www.w3.org/2000/svg">
<circle cx="12" cy="12" r="12" fill="url(#paint0_linear_1468_7854)"/>
<path fill-rule="evenodd" clip-rule="evenodd" d="M10 15H5V16C5 16.5523 5.44772 17 6 17H18C18.5523 17 19 16.5523 19 16V15H14C14 15.5523 13.5523 16 13 16H11C10.4477 16 10 15.5523 10 15Z" fill="white"/>
<path fill-rule="evenodd" clip-rule="evenodd" d="M7 7C6.44772 7 6 7.44772 6 8V14H18V8C18 7.44772 17.5523 7 17 7H7ZM11.5 8C11.2239 8 11 8.22386 11 8.5C11 8.77614 11.2239 9 11.5 9H12.5C12.7761 9 13 8.77614 13 8.5C13 8.22386 12.7761 8 12.5 8H11.5Z" fill="white"/>
<defs>
<linearGradient id="paint0_linear_1468_7854" x1="12" y1="0" x2="12" y2="24" gradientUnits="userSpaceOnUse">
<stop stop-color="#DBDBDB"/>
<stop offset="1" stop-color="#B0B0B0"/>
</linearGradient>
</defs>
</svg>
