<svg width="24" height="24" viewBox="0 0 24 24" fill="none" xmlns="http://www.w3.org/2000/svg">
<circle cx="12" cy="12" r="12" fill="url(#paint0_linear_1468_7869)"/>
<path d="M14.8323 3C14.8665 3 14.9008 3 14.937 3C15.021 4.05783 14.6248 4.84824 14.1433 5.42063C13.6708 5.98907 13.0238 6.54038 11.9774 6.45672C11.9076 5.41404 12.3044 4.68226 12.7853 4.11118C13.2313 3.57898 14.0489 3.10539 14.8323 3Z" fill="white"/>
<path d="M18 14.0104C18 14.0209 18 14.0302 18 14.04C17.7059 14.9477 17.2864 15.7256 16.7745 16.4475C16.3072 17.1029 15.7346 17.9848 14.7121 17.9848C13.8285 17.9848 13.2416 17.4059 12.3361 17.3901C11.3782 17.3743 10.8514 17.8742 9.97565 18C9.87547 18 9.77529 18 9.67704 18C9.03393 17.9052 8.51492 17.3861 8.13681 16.9185C7.02187 15.5366 6.16029 13.7515 6 11.4673C6 11.2433 6 11.02 6 10.7961C6.06787 9.16124 6.84736 7.83204 7.88344 7.18785C8.43025 6.84534 9.18195 6.55355 10.019 6.68397C10.3777 6.74061 10.7442 6.86576 11.0654 6.98959C11.3698 7.10881 11.7505 7.32025 12.1112 7.30905C12.3555 7.3018 12.5985 7.17205 12.8448 7.08049C13.5661 6.81504 14.2732 6.51074 15.2052 6.65367C16.3253 6.82624 17.1203 7.33342 17.6115 8.11593C16.664 8.73047 15.9149 9.65657 16.0429 11.238C16.1566 12.6746 16.9762 13.5151 18 14.0104Z" fill="white"/>
<defs>
<linearGradient id="paint0_linear_1468_7869" x1="12" y1="0" x2="12" y2="24" gradientUnits="userSpaceOnUse">
<stop stop-color="#DBDBDB"/>
<stop offset="1" stop-color="#B0B0B0"/>
</linearGradient>
</defs>
</svg>
