<svg width="60" height="60" viewBox="0 0 60 60" fill="none" xmlns="http://www.w3.org/2000/svg">
<path d="M0 16C0 7.16344 7.16344 0 16 0H44C52.8366 0 60 7.16344 60 16V44C60 52.8366 52.8366 60 44 60H16C7.16344 60 0 52.8366 0 44V16Z" fill="#0033AD"/>
<path d="M19.1523 30.8344C19.1031 31.6846 19.3961 32.5193 19.967 33.1553C20.5378 33.7912 21.3398 34.1763 22.1967 34.226H22.3733C23.0044 34.2253 23.6214 34.0413 24.1483 33.6967C24.6752 33.3521 25.0889 32.862 25.3383 32.2869C25.5876 31.7118 25.6618 31.0768 25.5516 30.4604C25.4414 29.8439 25.1517 29.273 24.7182 28.818C24.2847 28.363 23.7264 28.0439 23.1121 27.9C22.4979 27.7562 21.8547 27.7939 21.2619 28.0086C20.669 28.2232 20.1525 28.6053 19.776 29.1078C19.3996 29.6103 19.1797 30.2112 19.1435 30.8362L19.1523 30.8344Z" fill="white"/>
<path d="M7.10195 30.0216C6.89593 30.0102 6.69112 30.0596 6.51339 30.1636C6.33566 30.2676 6.193 30.4215 6.10344 30.6059C6.01387 30.7903 5.98143 30.997 6.01019 31.1997C6.03896 31.4024 6.12765 31.592 6.26506 31.7448C6.40247 31.8975 6.58243 32.0064 6.78219 32.0576C6.98195 32.1089 7.19256 32.1003 7.38739 32.0329C7.58222 31.9654 7.75253 31.8422 7.87679 31.6788C8.00106 31.5154 8.0737 31.3191 8.08555 31.1147C8.09366 30.9788 8.07462 30.8426 8.02952 30.714C7.98442 30.5854 7.91416 30.467 7.82276 30.3654C7.73136 30.2638 7.62063 30.1811 7.49693 30.1221C7.37323 30.0631 7.239 30.029 7.10195 30.0216Z" fill="white"/>
<path d="M18.9475 12.2282C19.131 12.1348 19.2825 11.9895 19.3829 11.8108C19.4834 11.6321 19.5283 11.4279 19.512 11.2239C19.4958 11.0199 19.419 10.8252 19.2915 10.6644C19.1639 10.5036 18.9913 10.3838 18.7953 10.3201C18.5992 10.2564 18.3886 10.2517 18.1899 10.3065C17.9911 10.3613 17.8132 10.4732 17.6784 10.6282C17.5437 10.7831 17.4581 10.9741 17.4326 11.1771C17.407 11.3802 17.4426 11.5862 17.5348 11.7693C17.5967 11.8918 17.6825 12.0009 17.7872 12.0904C17.8919 12.1799 18.0135 12.2479 18.1448 12.2906C18.2761 12.3332 18.4146 12.3497 18.5524 12.339C18.6902 12.3283 18.8244 12.2907 18.9475 12.2282Z" fill="white"/>
<path d="M22.2267 17.9007C22.5117 17.7581 22.7476 17.5348 22.9047 17.2592C23.0618 16.9836 23.133 16.668 23.1093 16.3522C23.0856 16.0365 22.9681 15.7348 22.7716 15.4853C22.5751 15.2358 22.3084 15.0497 22.0053 14.9505C21.7022 14.8513 21.3762 14.8435 21.0687 14.9281C20.7611 15.0127 20.4857 15.1858 20.2773 15.4256C20.0689 15.6654 19.9369 15.9612 19.8979 16.2754C19.8589 16.5897 19.9147 16.9084 20.0582 17.1912C20.1536 17.3791 20.2853 17.5465 20.4459 17.6838C20.6065 17.8212 20.7929 17.9258 20.9943 17.9917C21.1956 18.0576 21.4081 18.0835 21.6196 18.0678C21.8311 18.0522 22.0374 17.9954 22.2267 17.9007Z" fill="white"/>
<path d="M11.1917 21.802C11.4115 21.9454 11.6693 22.0209 11.9323 22.0189C12.1954 22.017 12.452 21.9376 12.6696 21.791C12.8872 21.6443 13.056 21.4369 13.1548 21.195C13.2535 20.9531 13.2778 20.6876 13.2244 20.4321C13.171 20.1765 13.0424 19.9424 12.8548 19.7594C12.6673 19.5764 12.4292 19.4527 12.1708 19.4039C11.9123 19.3552 11.6451 19.3836 11.403 19.4855C11.1608 19.5874 10.9545 19.7583 10.8103 19.9766C10.6171 20.2689 10.5488 20.6253 10.6203 20.9676C10.6918 21.3098 10.8973 21.61 11.1917 21.802Z" fill="white"/>
<path d="M13.1571 29.4382C12.8385 29.4204 12.5217 29.4967 12.2467 29.6574C11.9718 29.8182 11.751 30.0562 11.6124 30.3414C11.4738 30.6266 11.4235 30.9461 11.4679 31.2596C11.5123 31.5732 11.6494 31.8666 11.8619 32.1029C12.0744 32.3391 12.3527 32.5076 12.6616 32.5869C12.9706 32.6663 13.2963 32.653 13.5977 32.5487C13.899 32.4445 14.1625 32.254 14.3547 32.0012C14.5469 31.7485 14.6593 31.4448 14.6776 31.1288C14.7017 30.7046 14.5551 30.2883 14.27 29.9714C13.9849 29.6544 13.5847 29.4626 13.1571 29.4382Z" fill="white"/>
<path d="M11.3683 40.2032C11.1336 40.3209 10.9394 40.5049 10.8101 40.7321C10.6809 40.9593 10.6224 41.2193 10.6421 41.4794C10.6618 41.7396 10.7588 41.988 10.9209 42.1935C11.0829 42.3989 11.3027 42.5521 11.5525 42.6336C11.8022 42.7151 12.0708 42.7214 12.3241 42.6515C12.5774 42.5817 12.8042 42.4389 12.9758 42.2412C13.1473 42.0435 13.256 41.7999 13.2879 41.5409C13.3199 41.282 13.2738 41.0195 13.1554 40.7866C13.0767 40.6318 12.9681 40.494 12.8357 40.3809C12.7033 40.2678 12.5497 40.1817 12.3837 40.1275C12.2177 40.0733 12.0426 40.0521 11.8684 40.0651C11.6942 40.0781 11.5243 40.1251 11.3683 40.2032Z" fill="white"/>
<path d="M17.6425 26.129C17.9568 26.3334 18.3251 26.4407 18.7009 26.4374C19.0766 26.434 19.443 26.3203 19.7535 26.1104C20.0641 25.9006 20.305 25.6041 20.4458 25.2584C20.5865 24.9128 20.6208 24.5335 20.5442 24.1685C20.4677 23.8035 20.2838 23.4693 20.0157 23.208C19.7477 22.9467 19.4076 22.7701 19.0384 22.7006C18.6692 22.631 18.2876 22.6716 17.9417 22.8173C17.5957 22.9629 17.3011 23.2071 17.0951 23.5188C16.958 23.7258 16.8634 23.9575 16.8167 24.2008C16.77 24.4441 16.7722 24.6941 16.823 24.9366C16.8739 25.179 16.9724 25.4091 17.113 25.6138C17.2536 25.8184 17.4336 25.9935 17.6425 26.129Z" fill="white"/>
<path d="M37.5475 17.7745C37.8151 17.9477 38.1284 18.0383 38.4479 18.0348C38.7674 18.0313 39.0787 17.934 39.3424 17.755C39.6061 17.5761 39.8104 17.3236 39.9295 17.0295C40.0486 16.7354 40.0772 16.4128 40.0115 16.1026C39.9459 15.7924 39.789 15.5085 39.5607 15.2867C39.3324 15.065 39.043 14.9153 38.729 14.8567C38.415 14.7981 38.0906 14.8331 37.7966 14.9574C37.5027 15.0817 37.2525 15.2897 37.0777 15.555C36.9613 15.7312 36.8811 15.9285 36.8418 16.1355C36.8024 16.3426 36.8045 16.5553 36.8482 16.7615C36.8918 16.9677 36.9761 17.1633 37.0961 17.3371C37.216 17.511 37.3694 17.6596 37.5475 17.7745Z" fill="white"/>
<path d="M40.8602 12.1196C41.0332 12.2321 41.2359 12.2912 41.4427 12.2893C41.6495 12.2875 41.8512 12.2248 42.0221 12.1093C42.193 11.9937 42.3255 11.8305 42.4029 11.6402C42.4802 11.4499 42.4989 11.2412 42.4567 11.0403C42.4144 10.8395 42.313 10.6556 42.1654 10.5119C42.0177 10.3682 41.8304 10.2712 41.6272 10.2332C41.424 10.1951 41.2139 10.2177 41.0237 10.2981C40.8334 10.3785 40.6714 10.5131 40.5583 10.6849C40.4067 10.9149 40.3534 11.1952 40.41 11.4642C40.4666 11.7333 40.6286 11.969 40.8602 12.1196Z" fill="white"/>
<path d="M37.8017 27.7828C37.3779 27.7586 36.9535 27.8175 36.5527 27.9561C36.1518 28.0946 35.7824 28.3102 35.4655 28.5904C34.8255 29.1563 34.4384 29.9512 34.3892 30.8003C34.34 31.6494 34.6328 32.4831 35.2033 33.1179C35.7737 33.7528 36.575 34.1369 37.4309 34.1857C37.4927 34.1857 37.5563 34.1857 37.6181 34.1857C38.2416 34.1854 38.8517 34.0062 39.3748 33.6696C39.8979 33.3331 40.3117 32.8536 40.5663 32.289C40.8209 31.7244 40.9055 31.0988 40.8097 30.4876C40.714 29.8764 40.4421 29.3057 40.0267 28.8444C39.7455 28.5297 39.4039 28.2738 39.0219 28.0916C38.6399 27.9093 38.2251 27.8043 37.8017 27.7828Z" fill="white"/>
<path d="M23.288 25.9065C23.5563 26.4382 23.9688 26.8851 24.4792 27.1967C24.9896 27.5084 25.5776 27.6725 26.177 27.6706C26.7295 27.6708 27.2729 27.5304 27.7552 27.2629C28.2376 26.9955 28.6428 26.6099 28.9321 26.1429C29.2215 25.6759 29.3854 25.1431 29.4082 24.5954C29.4311 24.0477 29.312 23.5033 29.0624 23.0143C28.7923 22.485 28.3789 22.0408 27.8687 21.7314C27.3584 21.422 26.7714 21.2596 26.1734 21.2624C25.6226 21.2634 25.0811 21.4039 24.6003 21.6707C24.1196 21.9375 23.7155 22.3218 23.4265 22.787C23.1374 23.2522 22.973 23.783 22.9487 24.3289C22.9245 24.8749 23.0413 25.4179 23.288 25.9065Z" fill="white"/>
<path d="M48.6283 21.7985C48.863 21.681 49.0574 21.4971 49.1868 21.2701C49.3162 21.043 49.3748 20.783 49.3553 20.5229C49.3358 20.2628 49.239 20.0143 49.0772 19.8088C48.9153 19.6032 48.6957 19.4499 48.446 19.3682C48.1964 19.2864 47.9279 19.2799 47.6745 19.3495C47.4211 19.4191 47.1942 19.5616 47.0225 19.7591C46.8507 19.9566 46.7419 20.2002 46.7096 20.459C46.6773 20.7178 46.7232 20.9804 46.8413 21.2134C47.0002 21.5259 47.2777 21.7631 47.6128 21.8728C47.9478 21.9825 48.3131 21.9558 48.6283 21.7985Z" fill="white"/>
<path d="M40.4329 22.8198C40.0973 22.9875 39.8193 23.2502 39.6341 23.5746C39.449 23.899 39.3649 24.2706 39.3927 24.6424C39.4204 25.0142 39.5587 25.3695 39.7899 25.6634C40.0212 25.9572 40.3351 26.1764 40.692 26.2933C41.0488 26.4102 41.4326 26.4194 41.7948 26.3199C42.1569 26.2204 42.4812 26.0166 42.7266 25.7342C42.972 25.4519 43.1275 25.1037 43.1734 24.7336C43.2193 24.3636 43.1536 23.9884 42.9846 23.6554C42.8725 23.4342 42.7176 23.237 42.5286 23.0753C42.3397 22.9135 42.1204 22.7903 41.8834 22.7127C41.6464 22.6351 41.3963 22.6046 41.1474 22.623C40.8985 22.6413 40.6557 22.7082 40.4329 22.8198Z" fill="white"/>
<path d="M29.8765 11.6361C30.1391 11.651 30.4002 11.5882 30.6269 11.4558C30.8535 11.3234 31.0355 11.1272 31.1498 10.8922C31.264 10.6571 31.3055 10.3938 31.2688 10.1354C31.2322 9.87697 31.1191 9.63516 30.9439 9.44052C30.7687 9.24588 30.5393 9.10716 30.2846 9.04191C30.0299 8.97666 29.7614 8.9878 29.5132 9.07394C29.2649 9.16008 29.0479 9.31733 28.8897 9.52581C28.7315 9.7343 28.6392 9.98464 28.6245 10.2452C28.6047 10.5943 28.7255 10.9369 28.9603 11.1977C29.195 11.4586 29.5246 11.6162 29.8765 11.6361Z" fill="white"/>
<path d="M29.8624 19.9381C30.2375 19.9589 30.6104 19.869 30.934 19.6797C31.2576 19.4903 31.5173 19.2101 31.6804 18.8743C31.8435 18.5386 31.9026 18.1624 31.8503 17.7933C31.7979 17.4242 31.6364 17.0789 31.3862 16.8008C31.1361 16.5228 30.8084 16.3245 30.4447 16.2312C30.081 16.1378 29.6975 16.1535 29.3428 16.2763C28.9881 16.399 28.678 16.6234 28.4518 16.9209C28.2255 17.2185 28.0933 17.5759 28.0718 17.948C28.0433 18.4474 28.216 18.9376 28.5517 19.3108C28.8875 19.684 29.3589 19.9096 29.8624 19.9381Z" fill="white"/>
<path d="M19.5673 39.1802C19.9029 39.0123 20.1808 38.7495 20.3658 38.425C20.5508 38.1004 20.6347 37.7288 20.6067 37.3569C20.5788 36.9851 20.4403 36.6299 20.2089 36.3361C19.9774 36.0424 19.6633 35.8233 19.3064 35.7067C18.9494 35.59 18.5656 35.581 18.2035 35.6808C17.8413 35.7806 17.5172 35.9846 17.2719 36.2672C17.0267 36.5497 16.8715 36.8981 16.8259 37.2682C16.7802 37.6382 16.8463 38.0134 17.0156 38.3463C17.2426 38.7925 17.6389 39.131 18.1174 39.2874C18.5959 39.4437 19.1174 39.4052 19.5673 39.1802Z" fill="white"/>
<path d="M31.0896 22.6884C30.6956 23.285 30.5133 23.995 30.5717 24.7059C30.6301 25.4169 30.9258 26.0882 31.4121 26.6136C31.8984 27.139 32.5474 27.4886 33.2564 27.6069C33.9655 27.7253 34.6941 27.6057 35.3269 27.267C35.9597 26.9283 36.4606 26.39 36.7502 25.7371C37.0399 25.0843 37.1019 24.3543 36.9263 23.6626C36.7507 22.9709 36.3476 22.357 35.7807 21.9182C35.2139 21.4794 34.5157 21.2406 33.7967 21.2397C33.2597 21.2393 32.7311 21.3715 32.2585 21.6245C31.7859 21.8774 31.3842 22.243 31.0896 22.6884Z" fill="white"/>
<path d="M36.7087 36.0952C36.4498 35.5859 36.0585 35.1543 35.5754 34.845C35.0923 34.5357 34.5347 34.3599 33.9602 34.3357C33.3857 34.3116 32.8151 34.4399 32.3073 34.7075C31.7995 34.9751 31.3729 35.3722 31.0714 35.858C30.7699 36.3437 30.6046 36.9004 30.5924 37.4707C30.5802 38.041 30.7216 38.6042 31.0021 39.1022C31.2825 39.6002 31.6918 40.015 32.1877 40.3037C32.6836 40.5924 33.2482 40.7446 33.8232 40.7446C34.329 40.7411 34.8272 40.6212 35.2783 40.3942C36.0414 40.011 36.6203 39.3435 36.8884 38.5377C37.1565 37.732 37.0919 36.8537 36.7087 36.0952Z" fill="white"/>
<path d="M42.3559 35.871C42.0418 35.6664 41.6735 35.5588 41.2977 35.5618C40.922 35.5649 40.5555 35.6784 40.2448 35.888C39.934 36.0977 39.6929 36.394 39.5519 36.7396C39.4109 37.0852 39.3764 37.4645 39.4527 37.8295C39.529 38.1945 39.7127 38.5289 39.9806 38.7904C40.2485 39.0519 40.5885 39.2287 40.9577 39.2984C41.3268 39.3682 41.7086 39.3278 42.0546 39.1823C42.4006 39.0368 42.6954 38.7928 42.9016 38.4812C43.1772 38.063 43.2745 37.5535 43.1723 37.0643C43.07 36.575 42.7765 36.1459 42.3559 35.871Z" fill="white"/>
<path d="M48.5436 31.0552C48.5616 30.7391 48.4847 30.4248 48.3226 30.152C48.1606 29.8792 47.9207 29.6603 47.6332 29.5227C47.3457 29.3852 47.0236 29.3353 46.7076 29.3794C46.3915 29.4234 46.0957 29.5594 45.8576 29.7702C45.6194 29.981 45.4496 30.2571 45.3696 30.5636C45.2896 30.8701 45.303 31.1933 45.4081 31.4922C45.5132 31.7912 45.7053 32.0525 45.9601 32.2432C46.2148 32.4339 46.5209 32.5453 46.8395 32.5635C47.267 32.5874 47.6867 32.442 48.0062 32.1592C48.3257 31.8764 48.519 31.4793 48.5436 31.0552Z" fill="white"/>
<path d="M53.0148 29.9147C52.8084 29.9029 52.603 29.9522 52.4248 30.0561C52.2466 30.1601 52.1034 30.3142 52.0135 30.4988C51.9235 30.6835 51.8907 30.8905 51.9194 31.0937C51.948 31.2968 52.0367 31.487 52.1742 31.6401C52.3118 31.7932 52.4921 31.9025 52.6922 31.954C52.8923 32.0055 53.1034 31.9969 53.2986 31.9295C53.4939 31.862 53.6646 31.7386 53.7891 31.5748C53.9137 31.4111 53.9865 31.2144 53.9984 31.0096C54.0138 30.7352 53.919 30.4658 53.7346 30.2606C53.5502 30.0554 53.2914 29.931 53.0148 29.9147Z" fill="white"/>
<path d="M48.8049 40.198C48.585 40.0551 48.3272 39.98 48.0643 39.9824C47.8013 39.9848 47.545 40.0644 47.3277 40.2113C47.1104 40.3582 46.9419 40.5656 46.8434 40.8075C46.7449 41.0494 46.721 41.3148 46.7745 41.5702C46.8281 41.8256 46.9568 42.0595 47.1443 42.2423C47.3318 42.4252 47.5698 42.5487 47.8281 42.5974C48.0865 42.6461 48.3535 42.6177 48.5956 42.5159C48.8377 42.414 49.0439 42.2432 49.1881 42.0252C49.284 41.8802 49.3501 41.718 49.3827 41.5477C49.4153 41.3775 49.4138 41.2025 49.3782 41.0328C49.3426 40.8631 49.2737 40.702 49.1753 40.5588C49.0769 40.4156 48.9511 40.293 48.8049 40.198Z" fill="white"/>
<path d="M19.1382 49.8804C18.9653 49.7678 18.7627 49.7087 18.556 49.7104C18.3493 49.7121 18.1477 49.7746 17.9767 49.8899C17.8058 50.0052 17.6732 50.1683 17.5956 50.3584C17.518 50.5485 17.499 50.7571 17.541 50.958C17.583 51.1588 17.684 51.3428 17.8314 51.4866C17.9787 51.6305 18.1658 51.7278 18.3688 51.7662C18.5719 51.8046 18.7819 51.7824 18.9723 51.7024C19.1627 51.6225 19.3249 51.4883 19.4384 51.3169C19.5138 51.203 19.5658 51.0755 19.5915 50.9417C19.6173 50.8079 19.6162 50.6703 19.5883 50.5369C19.5604 50.4035 19.5063 50.2769 19.4291 50.1642C19.3518 50.0516 19.253 49.9551 19.1382 49.8804Z" fill="white"/>
<path d="M41.0492 49.7718C40.8645 49.8641 40.7116 50.0087 40.6098 50.1872C40.508 50.3657 40.4618 50.5702 40.4772 50.7748C40.4925 50.9794 40.5687 51.1748 40.696 51.3364C40.8233 51.4981 40.9961 51.6186 41.1925 51.6828C41.3889 51.747 41.6001 51.752 41.7993 51.6972C41.9985 51.6423 42.1769 51.53 42.3118 51.3746C42.4468 51.2192 42.5322 51.0275 42.5574 50.8239C42.5825 50.6203 42.5462 50.4139 42.4531 50.2307C42.3914 50.109 42.3062 50.0005 42.2022 49.9116C42.0982 49.8226 41.9776 49.7548 41.8471 49.7122C41.7167 49.6695 41.5791 49.6529 41.4422 49.6631C41.3053 49.6733 41.1717 49.7102 41.0492 49.7718Z" fill="white"/>
<path d="M28.907 39.3063C29.3011 38.7096 29.4834 37.9996 29.4249 37.2886C29.3665 36.5776 29.0706 35.9062 28.5842 35.3808C28.0979 34.8554 27.4487 34.5059 26.7396 34.3877C26.0304 34.2695 25.3018 34.3893 24.669 34.7282C24.0362 35.067 23.5355 35.6056 23.246 36.2586C22.9565 36.9116 22.8948 37.6417 23.0707 38.3334C23.2466 39.0251 23.65 39.6389 24.2171 40.0775C24.7842 40.5161 25.4826 40.7545 26.2017 40.7551C26.7387 40.7569 27.2676 40.6253 27.7402 40.3722C28.2127 40.1191 28.6139 39.7527 28.907 39.3063Z" fill="white"/>
<path d="M22.4492 44.2272C22.1821 44.0539 21.8692 43.963 21.5501 43.966C21.231 43.9691 20.9199 44.0659 20.6562 44.2443C20.3925 44.4227 20.1881 44.6746 20.0687 44.9683C19.9494 45.2619 19.9204 45.584 19.9856 45.894C20.0507 46.2039 20.207 46.4878 20.4348 46.7096C20.6625 46.9314 20.9514 47.0813 21.265 47.1403C21.5785 47.1993 21.9027 47.1647 22.1964 47.0409C22.4902 46.9172 22.7404 46.7098 22.9154 46.445C23.1498 46.0895 23.2323 45.6563 23.1449 45.2404C23.0575 44.8246 22.8073 44.4601 22.4492 44.2272Z" fill="white"/>
<path d="M29.9842 50.3639C29.7217 50.3491 29.4606 50.4118 29.234 50.5442C29.0074 50.6765 28.8255 50.8726 28.7112 51.1075C28.5969 51.3424 28.5554 51.6057 28.5919 51.864C28.6284 52.1224 28.7413 52.3642 28.9163 52.5589C29.0913 52.7536 29.3206 52.8924 29.5751 52.9578C29.8297 53.0233 30.0981 53.0124 30.3464 52.9265C30.5947 52.8406 30.8118 52.6836 30.9701 52.4754C31.1285 52.2672 31.2211 52.017 31.2362 51.7566C31.2462 51.5836 31.2218 51.4103 31.1643 51.2466C31.1068 51.083 31.0173 50.9322 30.9011 50.8029C30.7848 50.6735 30.644 50.5682 30.4867 50.4929C30.3293 50.4175 30.1586 50.3737 29.9842 50.3639Z" fill="white"/>
<path d="M29.9983 42.0637C29.6229 42.0411 29.2491 42.1295 28.9244 42.3177C28.5997 42.506 28.3385 42.7856 28.1741 43.1212C28.0097 43.4568 27.9494 43.8333 28.0008 44.2029C28.0522 44.5725 28.2131 44.9187 28.463 45.1976C28.7129 45.4764 29.0406 45.6755 29.4046 45.7694C29.7686 45.8634 30.1525 45.8481 30.5077 45.7254C30.863 45.6027 31.1735 45.3782 31.4 45.0803C31.6265 44.7824 31.7588 44.4246 31.7801 44.052C31.8091 43.5541 31.6377 43.0651 31.3037 42.6923C30.9696 42.3196 30.5002 42.0935 29.9983 42.0637Z" fill="white"/>
<path d="M37.77 44.0993C37.4848 44.2428 37.249 44.4671 37.0924 44.7436C36.9358 45.0201 36.8654 45.3365 36.8901 45.6528C36.9149 45.969 37.0336 46.2709 37.2314 46.5201C37.4291 46.7694 37.697 46.9548 38.001 47.053C38.305 47.1512 38.6316 47.1576 38.9393 47.0716C39.2471 46.9856 39.5222 46.8109 39.7298 46.5697C39.9374 46.3284 40.0683 46.0315 40.1057 45.7165C40.1432 45.4015 40.0856 45.0826 39.9402 44.8001C39.8443 44.6125 39.712 44.4456 39.5509 44.3089C39.3898 44.1721 39.2032 44.0682 39.0016 44.0032C38.8 43.9381 38.5875 43.9131 38.3761 43.9296C38.1648 43.9461 37.9588 44.0037 37.77 44.0993Z" fill="white"/>
</svg>
