<svg xmlns="http://www.w3.org/2000/svg" width="24" height="24" viewBox="0 0 24 24" fill="none">
  <rect width="24" height="24" fill="#FB7C20"/>
  <path fill-rule="evenodd" clip-rule="evenodd" d="M17.6583 13.0748L12.5671 18.166C12.2547 18.4784 11.7481 18.4784 11.4357 18.166L6.34456 13.0748C6.03214 12.7624 6.03214 12.2558 6.34456 11.9434C6.65697 11.631 7.16351 11.631 7.47593 11.9434L11.2014 15.6689L11.2014 7.20027C11.2014 6.75844 11.5596 6.40027 12.0014 6.40027C12.4432 6.40027 12.8014 6.75844 12.8014 7.20027L12.8014 15.6689L16.5269 11.9434C16.8393 11.631 17.3458 11.631 17.6583 11.9434C17.9707 12.2558 17.9707 12.7624 17.6583 13.0748Z" fill="white"/>
</svg>
