<svg width="60" height="60" viewBox="0 0 60 60" fill="none" xmlns="http://www.w3.org/2000/svg">
<path d="M0 16C0 7.16344 7.16344 0 16 0H44C52.8366 0 60 7.16344 60 16V44C60 52.8366 52.8366 60 44 60H16C7.16344 60 0 52.8366 0 44V16Z" fill="#DD5148"/>
<path fill-rule="evenodd" clip-rule="evenodd" d="M20.0449 45.9548H13.3078C12.455 46.0643 11.5879 45.9743 10.7772 45.692C10.5408 45.5427 10.346 45.3379 10.2103 45.096C10.0746 44.854 10.0023 44.5827 10 44.3064C10 43.8286 10.3254 43.2123 11.0152 41.9987L27.6369 13.2645C27.6538 13.2353 27.6706 13.2065 27.6871 13.178C28.3583 12.021 28.7075 11.4193 29.1815 11.1861C29.42 11.0638 29.6849 11 29.9539 11C30.2228 11 30.4877 11.0638 30.7262 11.1861C31.1779 11.4059 31.5276 12.0318 32.2465 13.2454L35.6466 19.1126C36.2076 19.9501 36.6473 20.8602 36.9532 21.8169C37.1379 22.5803 37.1379 23.3756 36.9532 24.1389C36.6407 25.1176 36.1911 26.0487 35.6175 26.9053L26.8743 42.1229C26.4409 43.0326 25.8783 43.8772 25.2034 44.6313C24.62 45.1821 23.9127 45.5897 23.139 45.821C22.1168 45.9871 21.078 46.032 20.0449 45.9548ZM46.6679 45.9548C47.5304 46.0595 48.4058 45.9697 49.2277 45.692C49.4614 45.5403 49.6539 45.3348 49.7885 45.0934C49.923 44.8519 49.9957 44.5817 50 44.3064C50 43.8286 49.6891 43.2409 49.0285 42.1086V41.9987L44.2004 33.8763V33.7951C43.5301 32.6627 43.1755 32.0941 42.7966 31.8839C42.5581 31.7616 42.2932 31.6978 42.0243 31.6978C41.7554 31.6978 41.4904 31.7616 41.252 31.8839C40.8148 32.1037 40.4457 32.6961 39.7462 33.9002L34.8112 42.0226C34.7929 42.0538 34.7748 42.0847 34.757 42.1151C34.0887 43.2573 33.7527 43.8316 33.7668 44.3016C33.7752 44.5778 33.8511 44.8478 33.9881 45.089C34.1251 45.3302 34.3191 45.5354 34.5537 45.6872C35.3479 45.9612 36.1953 46.0527 37.031 45.9548H46.6679Z" fill="white"/>
<path d="M20.0449 45.9548H13.3078C12.455 46.0643 11.5879 45.9743 10.7772 45.692C10.5408 45.5427 10.346 45.3379 10.2103 45.096C10.0746 44.854 10.0023 44.5827 10 44.3064C10 43.8286 10.3254 43.2123 11.0152 41.9987L27.6369 13.2645L27.6871 13.178C28.3583 12.021 28.7075 11.4193 29.1815 11.1861C29.42 11.0638 29.6849 11 29.9539 11C30.2228 11 30.4877 11.0638 30.7262 11.1861C31.1779 11.4059 31.5276 12.0318 32.2465 13.2454L35.6466 19.1126C36.2076 19.9501 36.6473 20.8602 36.9532 21.8169C37.1379 22.5803 37.1379 23.3756 36.9532 24.1389C36.6407 25.1176 36.1911 26.0487 35.6175 26.9053L26.8743 42.1229C26.4409 43.0326 25.8783 43.8772 25.2034 44.6313C24.62 45.1821 23.9127 45.5897 23.139 45.821C22.1168 45.9871 21.078 46.032 20.0449 45.9548Z" fill="white"/>
<path d="M46.6679 45.9548C47.5304 46.0595 48.4058 45.9697 49.2277 45.692C49.4614 45.5403 49.6539 45.3348 49.7885 45.0934C49.923 44.8519 49.9957 44.5817 50 44.3064C50 43.8286 49.6891 43.2409 49.0285 42.1086V41.9987L44.2004 33.8763V33.7951C43.5301 32.6627 43.1755 32.0941 42.7966 31.8839C42.5581 31.7616 42.2932 31.6978 42.0243 31.6978C41.7554 31.6978 41.4904 31.7616 41.252 31.8839C40.8148 32.1037 40.4457 32.6961 39.7462 33.9002L34.8112 42.0226L34.757 42.1151C34.0887 43.2573 33.7527 43.8316 33.7668 44.3016C33.7752 44.5778 33.8511 44.8478 33.9881 45.089C34.1251 45.3302 34.3191 45.5354 34.5537 45.6872C35.3479 45.9612 36.1953 46.0527 37.031 45.9548H46.6679Z" fill="white"/>
</svg>
