<svg width="60" height="60" viewBox="0 0 60 60" fill="none" xmlns="http://www.w3.org/2000/svg">
<path d="M0 16C0 7.16344 7.16344 0 16 0H44C52.8366 0 60 7.16344 60 16V44C60 52.8366 52.8366 60 44 60H16C7.16344 60 0 52.8366 0 44V16Z" fill="#96C060"/>
<path d="M38.3167 18.6518C36.5377 14.9534 32.7556 14.8854 28.4425 16.0563L26.4864 10.7382L23.2493 11.9294L25.1542 17.1073C24.3031 17.4202 23.4395 17.757 22.5815 18.0922L20.6648 12.8796L17.4295 14.0696L19.384 19.3866C18.6886 19.6587 18.005 19.9251 17.3341 20.1722L17.3276 20.1557L12.8623 21.7963L14.1348 25.2534C14.1348 25.2534 16.5086 24.3287 16.485 24.3871C17.7961 23.9052 18.503 24.5095 18.869 25.1206L21.0976 31.179C21.1882 31.1462 21.3076 31.1065 21.4482 31.0758C21.3403 31.1156 21.225 31.1574 21.1064 31.2023L24.2274 39.69C24.3218 40.1236 24.3213 40.871 23.4057 41.2095C23.4607 41.2308 21.0525 42.0745 21.0525 42.0745L21.8311 46.1771L26.0438 44.6275C26.8282 44.3402 27.6045 44.0698 28.3636 43.7957L30.3434 49.1739L33.5772 47.9849L31.6194 42.6631C32.5142 42.3549 33.3758 42.046 34.2146 41.7366L36.1616 47.0344L39.3987 45.8432L37.4246 40.4737C42.7522 38.1597 46.057 35.3877 44.6499 30.1029C43.5181 25.8473 40.907 24.7231 37.545 25.1175C39.0704 23.4713 39.6245 21.3559 38.3179 18.6515L38.3166 18.6515L38.3167 18.6518ZM38.018 31.8185C39.4982 35.8375 32.4476 37.9118 30.2545 38.7209L27.634 31.594C29.8287 30.7875 36.4762 27.6259 38.0181 31.8184L38.018 31.8185ZM32.814 22.3178C34.1582 25.975 28.2614 27.6595 26.4341 28.3318L24.057 21.8684C25.8844 21.1962 31.4109 18.5038 32.8143 22.3176L32.814 22.3178Z" fill="white"/>
</svg>
