<svg width="60" height="60" viewBox="0 0 60 60" fill="none" xmlns="http://www.w3.org/2000/svg">
<path d="M0 16C0 7.16344 7.16344 0 16 0H44C52.8366 0 60 7.16344 60 16V44C60 52.8366 52.8366 60 44 60H16C7.16344 60 0 52.8366 0 44V16Z" fill="#F0B90B"/>
<path fill-rule="evenodd" clip-rule="evenodd" d="M30.0001 11L19.5621 16.9737L23.3996 19.1805L30.0001 15.4137L36.6004 19.1805L40.438 16.9737L30.0001 11ZM36.6004 22.3005L40.438 24.5073V28.921L33.8374 32.6878V40.2215L30.0001 42.4284L26.1626 40.2215V32.6878L19.5621 28.921V24.5073L23.3996 22.3005L30.0001 26.0673L36.6004 22.3005ZM40.438 32.041V36.4547L36.6004 38.6616V34.2478L40.438 32.041ZM36.5621 41.7814L43.1627 38.0146V30.481L47 28.2742V40.2215L36.5621 46.1951V41.7814ZM43.1627 22.9473L39.3251 20.7405L43.1627 18.5337L47 20.7405V25.1542L43.1627 27.361V22.9473ZM26.1626 47.7933V43.3796L30.0001 45.5863L33.8374 43.3796V47.7933L30.0001 50L26.1626 47.7933ZM23.3996 38.6616L19.5621 36.4547V32.041L23.3996 34.2478V38.6616ZM30.0001 22.9473L26.1626 20.7405L30.0001 18.5337L33.8374 20.7405L30.0001 22.9473ZM20.675 20.7405L16.8375 22.9473V27.361L13 25.1542V20.7405L16.8375 18.5337L20.675 20.7405ZM13 28.2742L16.8375 30.481V38.0146L23.4379 41.7814V46.1951L13 40.2215V28.2742Z" fill="white"/>
</svg>
