<svg width="60" height="60" viewBox="0 0 60 60" fill="none" xmlns="http://www.w3.org/2000/svg">
<path d="M0 16C0 7.16344 7.16344 0 16 0H44C52.8366 0 60 7.16344 60 16V44C60 52.8366 52.8366 60 44 60H16C7.16344 60 0 52.8366 0 44V16Z" fill="#F09730"/>
<path d="M42.9528 25.1546C43.5598 21.0957 40.4697 18.9139 36.2441 17.4584L37.6149 11.9603L34.2681 11.1264L32.9336 16.4797C32.0537 16.2603 31.1502 16.0535 30.2521 15.8485L31.5962 10.4598L28.2514 9.62585L26.8799 15.1222C26.1518 14.9564 25.4366 14.7926 24.7428 14.6199L24.7467 14.6026L20.1313 13.4501L19.241 17.0248C19.241 17.0248 21.7241 17.5939 21.6717 17.629C23.027 17.9672 23.2721 18.8644 23.2314 19.5755L21.6699 25.8392C21.7633 25.8629 21.8843 25.8972 22.0179 25.9508C21.9062 25.9231 21.7874 25.8928 21.6641 25.8633L19.4755 34.6378C19.3098 35.0496 18.8894 35.6675 17.9419 35.4328C17.9754 35.4814 15.5093 34.8258 15.5093 34.8258L13.8477 38.6569L18.2031 39.7426C19.0133 39.9458 19.8073 40.1584 20.5893 40.3583L19.2043 45.9195L22.5473 46.7535L23.9188 41.2513C24.8321 41.4993 25.7184 41.7279 26.586 41.9435L25.2191 47.4197L28.5661 48.2537L29.951 42.7029C35.6581 43.783 39.9494 43.3476 41.7557 38.1855C43.2111 34.0294 41.6832 31.6322 38.6807 30.0689C40.8676 29.5646 42.5148 28.1262 42.954 25.155L42.9529 25.1543L42.9528 25.1546ZM35.306 35.8774C34.2716 40.0335 27.2741 37.7868 25.0053 37.2235L26.8432 29.8559C29.1118 30.4222 36.3869 31.543 35.3061 35.8774H35.306ZM36.341 25.0944C35.3975 28.8748 29.5733 26.9542 27.684 26.4832L29.3503 19.8012C31.2396 20.2722 37.3239 21.1512 36.3413 25.0944H36.341Z" fill="white"/>
</svg>
