<svg width="60" height="60" viewBox="0 0 60 60" fill="none" xmlns="http://www.w3.org/2000/svg">
<path d="M0 18C0 8.05888 8.05888 0 18 0H42C51.9411 0 60 8.05888 60 18V42C60 51.9411 51.9411 60 42 60H18C8.05888 60 0 51.9411 0 42V18Z" fill="#F0B90B"/>
<path d="M30 11L34.7075 15.8065L22.8537 27.625L18.1463 22.9315L30 11Z" fill="white"/>
<path d="M37.1463 18.125L41.8537 22.9315L22.8537 41.875L18.1463 37.1815L37.1463 18.125Z" fill="white"/>
<path d="M15.7075 25.25L20.4149 30.0565L15.7075 34.75L11 30.0565L15.7075 25.25Z" fill="white"/>
<path d="M44.2925 25.25L49 30.0565L30 49L25.2925 44.3065L44.2925 25.25Z" fill="white"/>
</svg>
