<svg width="30" height="36" viewBox="0 0 30 36" fill="none" xmlns="http://www.w3.org/2000/svg">
<path d="M25.905 10.7116L28.0605 8.55709L25.9395 6.43628L23.6336 8.74113C21.5271 7.24898 19.069 6.32934 16.5 6.07231V2.99867H19.5V0H10.5V2.99867H13.5V6.07231C10.931 6.32934 8.47288 7.24898 6.36638 8.74113L4.06051 6.43628L1.93951 8.55709L4.09501 10.7116C2.08298 12.841 0.738969 15.5128 0.228956 18.397C-0.281057 21.2813 0.065264 24.2517 1.22515 26.9415C2.38504 29.6312 4.30769 31.9225 6.75567 33.5323C9.20365 35.1421 12.0697 36 15 36C17.9303 36 20.7964 35.1421 23.2443 33.5323C25.6923 31.9225 27.615 29.6312 28.7749 26.9415C29.9347 24.2517 30.2811 21.2813 29.7711 18.397C29.261 15.5128 27.917 12.841 25.905 10.7116ZM15 32.9854C12.6266 32.9854 10.3066 32.2819 8.33316 30.9639C6.35977 29.6459 4.8217 27.7726 3.91345 25.5809C3.0052 23.3891 2.76756 20.9774 3.23058 18.6507C3.69361 16.3239 4.83649 14.1867 6.51472 12.5092C8.19295 10.8317 10.3312 9.68931 12.6589 9.22649C14.9867 8.76368 17.3995 9.00121 19.5922 9.90906C21.7849 10.8169 23.6591 12.3543 24.9776 14.3268C26.2962 16.2993 27 18.6184 27 20.9907C26.9964 24.1708 25.731 27.2196 23.4813 29.4683C21.2317 31.717 18.1815 32.9818 15 32.9854Z" fill="#FBC920"/>
<path d="M15 11.9947V20.9907H6.00001C6.00001 22.77 6.52785 24.5092 7.51678 25.9886C8.50571 27.468 9.91132 28.6211 11.5559 29.3019C13.2004 29.9828 15.01 30.161 16.7558 29.8139C18.5016 29.4668 20.1053 28.61 21.364 27.3519C22.6226 26.0937 23.4798 24.4908 23.8271 22.7457C24.1743 21.0007 23.9961 19.1919 23.3149 17.5481C22.6337 15.9043 21.4802 14.4993 20.0001 13.5108C18.5201 12.5223 16.78 11.9947 15 11.9947Z" fill="#FBC920"/>
</svg>
