<svg width="60" height="60" viewBox="0 0 60 60" fill="none" xmlns="http://www.w3.org/2000/svg">
<path d="M0 18C0 8.05888 8.05888 0 18 0H42C51.9411 0 60 8.05888 60 18V42C60 51.9411 51.9411 60 42 60H18C8.05888 60 0 51.9411 0 42V18Z" fill="#F5AC37"/>
<path d="M31.3582 31.6547H40.0771C40.263 31.6547 40.3508 31.6547 40.3642 31.4064C40.4354 30.5026 40.4354 29.5935 40.3642 28.6886C40.3642 28.5129 40.2785 28.4403 40.0916 28.4403H22.7395C22.5247 28.4403 22.4669 28.5129 22.4669 28.7181V31.3191C22.4669 31.6547 22.4669 31.6547 22.8107 31.6547H31.3582ZM39.3905 25.4006C39.4153 25.3343 39.4153 25.2617 39.3905 25.1965C39.2449 24.8734 39.0725 24.5652 38.8722 24.2758C38.5706 23.7813 38.2154 23.3257 37.8107 22.9164C37.6197 22.6691 37.3987 22.4471 37.1509 22.2588C35.9097 21.1824 34.4342 20.4206 32.8482 20.0376C32.048 19.8546 31.2302 19.7672 30.4104 19.7746H22.7095C22.4948 19.7746 22.4659 19.8619 22.4659 20.0524V25.2396C22.4659 25.4585 22.4659 25.5174 22.7385 25.5174H39.2872C39.2872 25.5174 39.4308 25.4879 39.4597 25.4006H39.3895H39.3905ZM39.3905 34.6945C39.1468 34.6671 38.9011 34.6671 38.6574 34.6945H22.754C22.5392 34.6945 22.4669 34.6945 22.4669 34.987V40.0585C22.4669 40.2921 22.4669 40.351 22.754 40.351H30.0965C30.4475 40.3783 30.7986 40.3531 31.1424 40.2784C32.208 40.2005 33.2561 39.9648 34.2556 39.5766C34.6191 39.4482 34.9701 39.2809 35.3016 39.08H35.4017C37.123 38.1677 38.5211 36.7346 39.4029 34.9754C39.4029 34.9754 39.503 34.7544 39.3905 34.6966V34.6945ZM19.585 42.9804V42.893V39.4882V38.334V34.8996C19.585 34.7092 19.585 34.6808 19.3558 34.6808H16.2437C16.0712 34.6808 16 34.6808 16 34.4472V31.6705H19.3269C19.5128 31.6705 19.585 31.6705 19.585 31.4222V28.675C19.585 28.4993 19.585 28.4561 19.3558 28.4561H16.2437C16.0712 28.4561 16 28.4561 16 28.2225V25.651C16 25.49 16 25.4469 16.2292 25.4469H19.3124C19.5272 25.4469 19.585 25.4469 19.585 25.1691V17.2925C19.585 17.0589 19.585 17 19.8721 17H30.6272C31.4078 17.0316 32.1833 17.1189 32.9504 17.263C34.5313 17.5608 36.0502 18.1364 37.439 18.9581C38.36 19.5105 39.2077 20.1776 39.9625 20.9457C40.5304 21.5465 41.0426 22.1967 41.4969 22.889C41.9481 23.5908 42.323 24.341 42.6172 25.1249C42.6534 25.329 42.8454 25.4669 43.0457 25.4322H45.6127C45.9421 25.4322 45.9421 25.4322 45.9565 25.7541V28.151C45.9565 28.3846 45.8708 28.4435 45.6406 28.4435H43.6611C43.4608 28.4435 43.403 28.4435 43.4175 28.7065C43.4959 29.5967 43.4959 30.49 43.4175 31.3801C43.4175 31.6284 43.4175 31.6579 43.6911 31.6579H45.9555C46.0556 31.7894 45.9555 31.9209 45.9555 32.0535C45.9699 32.2229 45.9699 32.3944 45.9555 32.5638V34.3325C45.9555 34.5808 45.8842 34.6545 45.6684 34.6545H42.958C42.769 34.6177 42.5852 34.7408 42.5419 34.9323C41.8965 36.6421 40.864 38.1751 39.5299 39.404C39.0425 39.8512 38.5304 40.2721 37.9955 40.6603C37.4214 40.997 36.8628 41.3474 36.2742 41.6252C35.1911 42.1218 34.0553 42.488 32.8895 42.7205C31.7826 42.9225 30.6602 43.014 29.5337 42.9983H19.5809V42.9835L19.585 42.9804Z" fill="white"/>
</svg>
