<svg width="60" height="60" viewBox="0 0 60 60" fill="none" xmlns="http://www.w3.org/2000/svg">
<path d="M0 16C0 7.16344 7.16344 0 16 0H44C52.8366 0 60 7.16344 60 16V44C60 52.8366 52.8366 60 44 60H16C7.16344 60 0 52.8366 0 44V16Z" fill="#C1A648"/>
<path fill-rule="evenodd" clip-rule="evenodd" d="M18 32.0001H15V27.0001H18V14.0001H30.944C40.175 13.7861 44.999 21.7261 44.999 30.0001C45.059 38.4901 40.216 46.2151 30.944 46.0001H18V32.0001ZM32 27.0001H23V19.0001H28.806C36.121 18.7611 40 23.4561 40 30.0001C40 37.0241 36.222 41.0001 28.806 41.0001H23V32.0001H32V27.0001Z" fill="white"/>
</svg>
