<svg width="60" height="60" viewBox="0 0 60 60" fill="none" xmlns="http://www.w3.org/2000/svg">
<path d="M0 16C0 7.16344 7.16344 0 16 0H44C52.8366 0 60 7.16344 60 16V44C60 52.8366 52.8366 60 44 60H16C7.16344 60 0 52.8366 0 44V16Z" fill="#E6007A"/>
<path d="M36.7401 14.9118C36.7401 17.0688 33.7139 18.8235 29.9902 18.8235C26.2664 18.8235 23.2402 17.0688 23.2402 14.9118C23.2402 12.7547 26.2777 11 29.9902 11C33.7027 11 36.7401 12.7547 36.7401 14.9118ZM36.7401 45.0882C36.7401 47.2453 33.7139 49 29.9902 49C26.2664 49 23.2402 47.2453 23.2402 45.0882C23.2402 42.9312 26.2777 41.1765 29.9902 41.1765C33.7027 41.1765 36.7401 42.9312 36.7401 45.0882ZM20.2589 24.5794C22.1714 21.3047 22.1827 17.7618 20.3039 16.6888C18.4139 15.6047 15.3539 17.3929 13.4414 20.6676C11.5289 23.9424 11.5289 27.4853 13.3964 28.5582C15.2864 29.6312 18.3464 27.8541 20.2589 24.5794ZM46.5614 31.4306C48.4514 32.4924 48.4401 35.9682 46.5389 39.1871C44.6264 42.4059 41.5551 44.1494 39.6764 43.0876C37.7751 42.0259 37.7864 38.55 39.6876 35.3312C41.6001 32.1124 44.6714 30.3688 46.5614 31.4306ZM20.3152 43.11C22.2052 42.0482 22.1939 38.5724 20.2814 35.3535C18.3802 32.1347 15.3089 30.3912 13.4189 31.4529C11.5177 32.5259 11.5289 35.9906 13.4414 39.2094C15.3427 42.4282 18.4139 44.1829 20.3039 43.1212L20.3152 43.11ZM46.5614 20.6788C48.4739 23.9535 48.4739 27.4853 46.5951 28.5582C44.7164 29.6424 41.6451 27.8653 39.7326 24.5794C37.8426 21.3047 37.8201 17.7729 39.6989 16.7C41.5889 15.6159 44.6489 17.3929 46.5614 20.6788Z" fill="white"/>
</svg>
