<svg width="60" height="60" viewBox="0 0 60 60" fill="none" xmlns="http://www.w3.org/2000/svg">
<path d="M0 18C0 8.05888 8.05888 0 18 0H42C51.9411 0 60 8.05888 60 18V42C60 51.9411 51.9411 60 42 60H18C8.05888 60 0 51.9411 0 42V18Z" fill="#BDBDBD"/>
<path d="M30.4936 8L30.2051 8.97991V37.4122L30.4936 37.7L43.6912 29.8987L30.4936 8Z" fill="#E0E0E0"/>
<path d="M30.491 8L17.293 29.8987L30.491 37.7V23.8998V8Z" fill="white"/>
<path d="M30.4936 40.1999L30.3311 40.3982V50.5262L30.4936 51.0008L43.6994 32.4027L30.4936 40.1999Z" fill="#E0E0E0"/>
<path d="M30.491 51.0008V40.1999L17.293 32.4027L30.491 51.0008Z" fill="white"/>
<path d="M30.4893 37.6995L43.6869 29.8983L30.4893 23.8993V37.6995Z" fill="white"/>
<path d="M17.293 29.8983L30.491 37.6995V23.8993L17.293 29.8983Z" fill="#E0E0E0"/>
</svg>
