<svg width="60" height="60" viewBox="0 0 60 60" fill="none" xmlns="http://www.w3.org/2000/svg">
<path d="M0 18C0 8.05888 8.05888 0 18 0H42C51.9411 0 60 8.05888 60 18V42C60 51.9411 51.9411 60 42 60H18C8.05888 60 0 51.9411 0 42V18Z" fill="#2454FF"/>
<path d="M37.459 18.0723L36.4219 22.9414C35.4258 21.9453 33.9727 21.4473 32.0625 21.4473C30.1523 21.4473 28.6055 22.1328 27.4219 23.5039C26.7539 24.2773 26.2793 25.2441 25.998 26.4043H35.666L35.1035 29.1289H25.6465C25.6348 29.3984 25.6289 29.7441 25.6289 30.166C25.6289 30.5762 25.6406 31.0039 25.6641 31.4492H34.6113L34.0488 34.1738H26.0332C26.3262 35.4277 26.7773 36.4121 27.3867 37.127C28.5586 38.5098 30.082 39.2012 31.957 39.2012C34.207 39.2012 36 38.5098 37.3359 37.127V42.5059C35.8125 43.2676 34.0371 43.6484 32.0098 43.6484C28.5879 43.6484 25.7754 42.4766 23.5723 40.1328C22.0723 38.5391 21.082 36.5527 20.6016 34.1738H18L18.5625 31.4492H20.2852C20.2734 31.168 20.2676 30.8691 20.2676 30.5527C20.2676 30.0137 20.2793 29.5391 20.3027 29.1289H18L18.5625 26.4043H20.6543C21.1465 24.0723 22.125 22.1211 23.5898 20.5508C25.8047 18.1836 28.7168 17 32.3262 17C34.2949 17 36.0059 17.3574 37.459 18.0723Z" fill="white"/>
</svg>
