<svg width="60" height="60" viewBox="0 0 60 60" fill="none" xmlns="http://www.w3.org/2000/svg">
<path d="M16 0H20.8697V15.312L7.8431 2.28422C10.2669 0.82938 13.0742 0 16 0Z" fill="#0052B4"/>
<path d="M0 16V20.8695H12.314L1.25743 9.81291C0.451104 11.7058 0 13.7928 0 16Z" fill="#0052B4"/>
<path d="M39.1304 18.2157V0.000366211H44.1065C47.714 0.0251791 51.1362 1.30965 53.8745 3.47038L39.1304 18.2157Z" fill="#0052B4"/>
<path d="M59.4831 11.9757L50.5893 20.8695H59.9996V15.8911C59.9905 14.5341 59.8109 13.2233 59.4831 11.9757Z" fill="#0052B4"/>
<path d="M60 44.0193V39.1303H47.686L58.7426 50.1869C59.5466 48.2996 59.9974 46.2193 60 44.0193Z" fill="#0052B4"/>
<path d="M52.157 57.7157C49.7561 59.1569 46.9788 59.9843 44.0828 59.9998H39.1302V44.6876L52.157 57.7157Z" fill="#0052B4"/>
<path d="M20.8692 41.7841V59.9994H15.8647C12.2676 59.968 8.85619 58.6845 6.12507 56.5293L20.8692 41.7841Z" fill="#0052B4"/>
<path d="M0 44V39.1303H9.41035L0.516782 48.0238C0.180339 46.7431 0 45.3956 0 44Z" fill="#0052B4"/>
<path d="M2.14458 8.04596L14.9682 20.8695H20.8697L4.71833 4.71816C3.72536 5.70587 2.85674 6.82337 2.14458 8.04596Z" fill="#D80027"/>
<path d="M57.8556 8.04558L45.0321 20.8692H39.1306L55.2819 4.71802C56.2749 5.70566 57.1435 6.82308 57.8556 8.04558Z" fill="#D80027"/>
<path d="M55.2821 55.2819C56.2751 54.2942 57.1437 53.1767 57.8558 51.9541L45.0321 39.1303H39.1305L55.2821 55.2819Z" fill="#D80027"/>
<path d="M4.71821 55.2818L20.8693 39.1307H14.9678L2.14453 51.954C2.85667 53.1766 3.72527 54.2941 4.71821 55.2818Z" fill="#D80027"/>
<path d="M35.6249 0H24.3749V24.3749H0V35.6249H24.3749V59.9998H35.6249V35.6249H59.9998V24.3749H35.6249V0Z" fill="#D80027"/>
<path d="M7.8431 2.28422C6.70828 2.96539 5.65755 3.78366 4.71812 4.71812L20.8695 20.8695H14.968L2.14438 8.04591C1.81398 8.61312 1.51726 9.20294 1.25743 9.81291L12.314 20.8695H0V24.3749H24.3749V0H20.8697V15.312L7.8431 2.28422Z" fill="white"/>
<path d="M35.6249 0H44C44.0355 0 44.071 0.000122192 44.1065 0.000366211H39.1304V18.2157L53.8745 3.47038C54.3667 3.85869 54.8367 4.27529 55.2817 4.71798L39.1304 20.8691H45.0319L57.8554 8.04554C58.5629 9.25997 59.1159 10.5781 59.4831 11.9757L50.5893 20.8695H59.9996V15.8911C59.9997 15.8987 59.9997 15.9063 59.9998 15.9139V24.3749H35.6249V0Z" fill="white"/>
<path d="M60 39.1303L59.9998 35.6249H35.6249V59.9998L39.1302 59.9998V44.6876L52.157 57.7157C53.2918 57.0346 54.3425 56.2163 55.2819 55.2819L39.1303 39.1303H45.0318L57.8556 51.9541C58.1861 51.3868 58.4828 50.797 58.7426 50.187L47.686 39.1303H60Z" fill="white"/>
<path d="M4.718 55.2818L20.8691 39.1306H14.9676L2.14433 51.954C1.43692 50.7396 0.883913 49.4214 0.516782 48.0238L9.41035 39.1303H0V35.6249H24.3749V59.9998H15.9151C15.8983 59.9997 15.8815 59.9996 15.8647 59.9994H20.8692V41.7841L6.12507 56.5293C5.633 56.141 5.16302 55.7244 4.718 55.2818Z" fill="white"/>
</svg>
