<svg width="26" height="26" viewBox="0 0 26 26" fill="none" xmlns="http://www.w3.org/2000/svg">
<path d="M3.82352 14.1402V22.9116C3.82352 24.065 4.77161 25 5.94114 25H12.0124C12.1683 25 12.2948 24.8753 12.2948 24.7216V15.9501C12.2948 15.5653 12.6105 15.254 13.0007 15.254C13.3908 15.254 13.7065 15.5653 13.7065 15.9501V24.7215C13.7065 24.8753 13.833 25 13.9889 25H20.0588C21.2283 25 22.1764 24.0649 22.1764 22.9115V14.1402C22.1764 13.9864 22.05 13.8618 21.8941 13.8618H4.10589C3.94994 13.8617 3.82352 13.9864 3.82352 14.1402Z" fill="#D1EAFF"/>
<path d="M24.2941 6.90032H21.6401C21.9786 6.3993 22.1764 5.78678 22.1764 5.14638C22.1764 3.85129 21.4282 2.73706 20.2139 2.25032C19 1.7486 17.6589 2.01372 16.741 2.93214L13 6.62156L9.25895 2.93214C8.34109 2.01372 7 1.7486 5.78608 2.25032C4.57183 2.73706 3.82352 3.85129 3.82352 5.14638C3.82352 5.78678 4.02138 6.3993 4.35981 6.90032H1.70589C1.31055 6.90032 1 7.20621 1 7.59647V11.7733C1 12.1635 1.31055 12.4695 1.70589 12.4695H12.3083V8.98877C12.3083 8.59856 12.6047 8.30621 13 8.29262H13.0141C13.4095 8.29262 13.72 8.59856 13.72 8.98877V12.4695H24.2941C24.6895 12.4695 25 12.1635 25 11.7733V7.59647C25 7.20621 24.6895 6.90032 24.2941 6.90032ZM7.01411 6.90032C6.02594 6.90032 5.2353 6.12054 5.2353 5.14638C5.2353 4.28302 5.79986 3.75408 6.33653 3.53112C6.53402 3.44749 6.77425 3.39174 7.02827 3.39174C7.43772 3.39174 7.88927 3.53112 8.27045 3.90704L11.2918 6.90032H7.01411ZM18.9859 6.90032H14.7082L17.7296 3.90704C18.3507 3.30811 19.1414 3.3224 19.6635 3.53112C20.2001 3.75408 20.7648 4.28302 20.7648 5.14638C20.7647 6.12054 19.974 6.90032 18.9859 6.90032Z" fill="#D1EAFF"/>
</svg>
