<svg width="40" height="40" viewBox="0 0 40 40" fill="none" xmlns="http://www.w3.org/2000/svg">
  <path
    d="M5.83333 23.1111V35.6111C5.83347 36.3781 6.46758 36.9999 7.25 37H18.5833V35.3046V23.1111H16.854H5.83333ZM21.4167 23.1111V34.9872V37H32.75C33.5324 36.9999 34.1665 36.3781 34.1667 35.6111V23.1111H24.8283H23.2566H21.4167Z"
    fill="#4785EF"
  />
  <path
    d="M10.8774 12H4.41667C3.63424 12.0001 3.00014 12.6219 3 13.3889V18.9444C3.00014 19.7115 3.63424 20.3333 4.41667 20.3333H5.83333H16.5303H19.5739H23.2566H24.7508H34.1667H35.5833C36.3658 20.3333 36.9999 19.7115 37 18.9444V13.3889C36.9999 12.6219 36.3658 12.0001 35.5833 12H29.1225H10.8774Z"
    fill="#4785EF"
  />
  <path
    d="M15.1108 2C11.9927 2 9.43459 4.7041 9.43459 8C9.43459 9.09599 9.73771 10.1126 10.23 11C-14.6346 11 58.9021 11 28.506 11C28.9982 10.1126 29.3015 9.09602 29.3015 8C29.3015 4.7041 26.7433 2 23.6252 2C21.9265 2 20.4113 2.8193 19.368 4.083C18.3249 2.8193 16.8097 2 15.1108 2ZM15.1108 5C16.6952 5 17.949 6.32536 17.949 8V11H15.1108C13.5265 11 12.2727 9.67465 12.2727 8C12.2727 6.32536 13.5265 5 15.1108 5ZM23.6252 5C25.2096 5 26.4634 6.32536 26.4634 8C26.4634 9.67457 25.2095 11 23.6252 11H20.7871V8C20.7871 6.32536 22.0408 5 23.6252 5Z"
    fill="#FB7C20"
  />
</svg>
