<svg width="26" height="26" viewBox="0 0 26 26" fill="none" xmlns="http://www.w3.org/2000/svg">
<g clip-path="url(#clip0_4843_36698)">
<path d="M23.5693 8.56118C23.4016 8.21779 23.0529 8 22.6707 8H3.33132C2.9493 8 2.60065 8.21766 2.43289 8.56088L0 13.5385H10.3094L12.3094 10.0769C12.3094 10.0769 12.6261 9.38463 13.0011 9.38463C13.3412 9.38463 13.5926 9.80985 13.7211 10.0769L15.7211 13.5385H26L23.5693 8.56118Z" fill="#FBC920"/>
<path d="M3.82466 15.2V23.9231C3.82466 25.0701 4.77275 26 5.94228 26H12.0135C12.1695 26 12.2959 25.876 12.2959 25.7231V17C12.2959 16.6173 12.6116 16.3077 13.0018 16.3077C13.392 16.3077 13.7077 16.6173 13.7077 17V25.7231C13.7077 25.876 13.8341 26 13.9901 26H20.06C21.2295 26 22.1776 25.0701 22.1776 23.923V15.2C22.1776 15.0471 22.0512 14.9231 21.8952 14.9231H15.1261L13.0011 11.0827L10.9074 14.9231H4.10703C3.95108 14.9231 3.82466 15.0471 3.82466 15.2Z" fill="#FBC920"/>
<path fill-rule="evenodd" clip-rule="evenodd" d="M13 2.65C13.359 2.65 13.65 2.35899 13.65 2C13.65 1.64101 13.359 1.35 13 1.35C12.641 1.35 12.35 1.64101 12.35 2C12.35 2.35899 12.641 2.65 13 2.65ZM13 4C14.1046 4 15 3.10457 15 2C15 0.895431 14.1046 0 13 0C11.8954 0 11 0.895431 11 2C11 3.10457 11.8954 4 13 4Z" fill="#FBC920"/>
<path fill-rule="evenodd" clip-rule="evenodd" d="M13.0227 4.32504C13.3955 4.32504 13.6977 4.62724 13.6977 5.00004L13.6977 7.00004C13.6977 7.37283 13.3955 7.67504 13.0227 7.67504C12.6499 7.67504 12.3477 7.37283 12.3477 7.00004L12.3477 5.00004C12.3477 4.62724 12.65 4.32504 13.0227 4.32504Z" fill="#FBC920"/>
<path fill-rule="evenodd" clip-rule="evenodd" d="M7.33109 2.90458C7.27837 3.27362 7.5348 3.61553 7.90385 3.66825C8.66186 3.77654 9.15772 4.03891 9.49112 4.33824C9.8283 4.64097 10.0363 5.01505 10.1624 5.39848C10.2895 5.78475 10.3286 6.16684 10.3341 6.45797C10.3368 6.60189 10.3312 6.71923 10.3252 6.79797C10.3223 6.83722 10.3193 6.86654 10.3172 6.88439L10.3151 6.90225C10.261 7.27081 10.5159 7.61343 10.8845 7.66781C11.2533 7.72222 11.5963 7.46735 11.6508 7.09855L10.983 7.00004C11.6508 7.09855 11.6507 7.0989 11.6508 7.09855L11.651 7.09708L11.6512 7.09528L11.6519 7.09071L11.6536 7.07772C11.655 7.06737 11.6567 7.05367 11.6586 7.03683C11.6624 7.00316 11.6671 6.95679 11.6714 6.89937C11.6801 6.78475 11.6874 6.62474 11.6838 6.43273C11.6767 6.05198 11.6262 5.52782 11.4448 4.9766C11.2626 4.42253 10.9434 3.82785 10.393 3.33371C9.83885 2.83617 9.08675 2.47353 8.09476 2.33182C7.72572 2.2791 7.38381 2.53553 7.33109 2.90458ZM10.3151 6.90225L10.3149 6.90352C10.3149 6.90363 10.3149 6.90371 10.3151 6.90225Z" fill="#FBC920"/>
<path fill-rule="evenodd" clip-rule="evenodd" d="M18.6792 2.90458C18.732 3.27362 18.4755 3.61553 18.1065 3.66825C17.3485 3.77654 16.8526 4.03891 16.5192 4.33824C16.182 4.64097 15.974 5.01505 15.8479 5.39848C15.7208 5.78475 15.6817 6.16684 15.6762 6.45797C15.6736 6.60189 15.6792 6.71923 15.6851 6.79797C15.688 6.83722 15.6911 6.86654 15.6931 6.88439L15.6952 6.90225C15.7493 7.27081 15.4945 7.61343 15.1259 7.66781C14.7571 7.72222 14.414 7.46735 14.3596 7.09855L15.0273 7.00004C14.3596 7.09855 14.3596 7.0989 14.3596 7.09855L14.3594 7.09708L14.3591 7.09528L14.3585 7.09071L14.3567 7.07772C14.3553 7.06737 14.3536 7.05367 14.3517 7.03683C14.3479 7.00316 14.3432 6.95679 14.3389 6.89937C14.3303 6.78475 14.3229 6.62474 14.3265 6.43273C14.3336 6.05198 14.3842 5.52782 14.5655 4.9766C14.7478 4.42253 15.0669 3.82785 15.6173 3.33371C16.1715 2.83617 16.9236 2.47353 17.9156 2.33182C18.2846 2.2791 18.6265 2.53553 18.6792 2.90458ZM15.6952 6.90225L15.6954 6.90352C15.6954 6.90363 15.6954 6.90371 15.6952 6.90225Z" fill="#FBC920"/>
</g>
<defs>
<clipPath id="clip0_4843_36698">
<rect width="26" height="26" fill="white"/>
</clipPath>
</defs>
</svg>
