<svg xmlns="http://www.w3.org/2000/svg" width="40" height="40" viewBox="0 0 40 40" fill="none">
  <path fill-rule="evenodd" clip-rule="evenodd" d="M35.9136 7.96988C36.3612 7.96988 36.728 8.31315 36.7418 8.74515C36.8415 11.8609 36.9357 14.8038 35.8796 16.9867C34.8106 19.1967 32.6864 20.5359 29.0198 21.3002C27.6527 23.8457 25.3815 25.8912 22.5749 27.0054V27.4029C22.5749 30.2907 24.8181 32.6954 27.7928 32.9965C27.9085 33.0082 28.0247 33.0189 28.1417 33.0287C28.5702 33.0643 28.8993 33.4105 28.8993 33.8257V35.9999C28.8993 36.4417 28.5284 36.7999 28.0707 36.7999H11.9276C11.4699 36.7999 11.099 36.4417 11.099 35.9999V33.8257C11.099 33.4105 11.4281 33.0642 11.8566 33.0286C11.9736 33.0189 12.0898 33.0082 12.2051 32.9965C15.1802 32.6954 17.4234 30.2906 17.4234 27.4029V27.0053C14.6168 25.8911 12.3456 23.8457 10.9785 21.3001C7.31194 20.5358 5.18768 19.1965 4.11871 16.9867C3.06279 14.804 3.15695 11.8616 3.25664 8.7463L3.25668 8.74508C3.27049 8.31308 3.63722 7.96982 4.08487 7.96982H9.55919V3.99995C9.55919 3.55815 9.93013 3.19995 10.3878 3.19995H29.6107C30.0683 3.19995 30.4393 3.55815 30.4393 3.99995V7.96988H35.9136ZM9.55919 9.56982H4.88979C4.73146 15.3533 5.07312 18.0818 10.1822 19.4647C9.77739 18.2669 9.55919 16.9937 9.55919 15.6798V9.56982ZM27.2422 35.1999V34.5403C23.6558 34.0019 20.9852 31.0633 20.9192 27.5363C20.6679 27.5987 20.4136 27.6545 20.1559 27.7025C20.1041 27.7121 20.0516 27.7169 19.9991 27.7169C19.9466 27.7169 19.8941 27.7121 19.8423 27.7025C19.5847 27.6545 19.3303 27.5987 19.079 27.5363C19.0132 31.0631 16.3424 34.0016 12.7562 34.5403V35.1999H27.2422ZM11.2164 15.6799C11.2164 20.7203 14.9004 25.0784 19.9992 26.1011C25.098 25.0784 28.782 20.7203 28.7821 15.6798V4.79995H11.2164V15.6799ZM30.4392 15.6798C30.4392 16.9937 30.221 18.2669 29.8162 19.4647C34.9253 18.0818 35.2669 15.3533 35.1086 9.56982H30.4392V15.6798Z" fill="#5D94F1"/>
  <path d="M23.4545 16.2603C23.4545 17.5973 22.3342 18.7223 20.8278 19.0294V19.5416C20.8278 19.9834 20.4569 20.3416 19.9992 20.3416C19.5415 20.3416 19.1706 19.9834 19.1706 19.5416V19.0311C18.0944 18.8159 17.2005 18.1867 16.783 17.3083C16.5921 16.9067 16.7746 16.4318 17.1905 16.2476C17.6065 16.0632 18.0984 16.2394 18.2892 16.641C18.533 17.154 19.2362 17.5124 19.9992 17.5124C20.9738 17.5124 21.7973 16.939 21.7973 16.2603C21.7973 15.5817 20.9738 15.0083 19.9992 15.0083C18.094 15.0083 16.5439 13.7289 16.5439 12.1563C16.5439 10.8193 17.6642 9.69428 19.1706 9.38715V8.87495C19.1706 8.43315 19.5415 8.07495 19.9992 8.07495C20.4569 8.07495 20.8278 8.43315 20.8278 8.87495V9.38728C22.0261 9.63155 23.0039 10.3942 23.3347 11.4066C23.4723 11.8279 23.2301 12.2772 22.7937 12.4102C22.3571 12.5433 21.8919 12.3092 21.7542 11.8879C21.568 11.318 20.8299 10.9043 19.9992 10.9043C19.0245 10.9043 18.2011 11.4777 18.2011 12.1563C18.2011 12.8349 19.0245 13.4083 19.9992 13.4083C21.9044 13.4082 23.4545 14.6876 23.4545 16.2603Z" fill="#FBC920"/>
</svg>
