<svg width="36" height="36" viewBox="0 0 36 36" fill="none" xmlns="http://www.w3.org/2000/svg">
<circle cx="18" cy="18" r="18" fill="#4785EF"/>
<path d="M18.0002 7.19995C17.0061 7.19995 16.2002 8.00584 16.2002 8.99995V22.275C16.2002 23.2691 17.0061 24.075 18.0002 24.075C18.9943 24.075 19.8002 23.2691 19.8002 22.275V8.99995C19.8002 8.00584 18.9943 7.19995 18.0002 7.19995ZM17.9346 26.2312C16.9767 26.2312 16.2002 27.0077 16.2002 27.9656C16.2002 28.9234 16.9767 29.7 17.9346 29.7H18.0658C19.0237 29.7 19.8002 28.9234 19.8002 27.9656C19.8002 27.0077 19.0237 26.2312 18.0658 26.2312H17.9346Z" fill="white"/>
</svg>
