<svg width="60" height="60" viewBox="0 0 60 60" fill="none" xmlns="http://www.w3.org/2000/svg">
<path d="M0 16C0 7.16344 7.16344 0 16 0H44C52.8366 0 60 7.16344 60 16V44C60 52.8366 52.8366 60 44 60H16C7.16344 60 0 52.8366 0 44V16Z" fill="#FD1818"/>
<path d="M24.5402 13L31.7237 30.6367L26.7479 34.4307L17 13H24.5402ZM28.3612 30.4658L35.4598 13H43L33.2012 34.4307L28.3612 30.4658ZM33.5408 29.5772V48H26.2724V29.5772H33.5408ZM40.4017 29.9531V34.1743H18.8681V29.9531H40.4017ZM40.4017 36.7207V40.9419H18.8681V36.7207H40.4017Z" fill="white"/>
</svg>
