<svg width="60" height="60" viewBox="0 0 60 60" fill="none" xmlns="http://www.w3.org/2000/svg">
<path d="M0 18C0 8.05888 8.05888 0 18 0H42C51.9411 0 60 8.05888 60 18V42C60 51.9411 51.9411 60 42 60H18C8.05888 60 0 51.9411 0 42V18Z" fill="#4374C1"/>
<path d="M30.3832 30.7775L27.8731 39.3698H41.2995C41.3884 39.3667 41.4771 39.3813 41.5605 39.413C41.6438 39.4446 41.7202 39.4926 41.7853 39.5543C41.8503 39.6159 41.9028 39.69 41.9396 39.7722C41.9765 39.8544 41.997 39.9432 42 40.0335V40.2587L40.8325 44.3474C40.781 44.5408 40.6663 44.7106 40.5072 44.8291C40.3481 44.9475 40.154 45.0075 39.9569 44.9992H19.4086L22.8528 33.0886L19 34.2737L19.8756 31.5479L23.7284 30.3627L28.5736 13.6523C28.6269 13.46 28.7421 13.2914 28.9008 13.1732C29.0595 13.0551 29.2526 12.9943 29.4492 13.0004H34.6447C34.7336 12.9973 34.8223 13.0119 34.9056 13.0436C34.989 13.0752 35.0654 13.1232 35.1304 13.1849C35.1955 13.2465 35.248 13.3206 35.2848 13.4028C35.3216 13.485 35.3422 13.5738 35.3452 13.6641V13.8893L31.2589 27.9925L35.1117 26.8073L34.2944 29.6517L30.3832 30.7775Z" fill="white"/>
</svg>
