<svg width="60" height="60" viewBox="0 0 60 60" fill="none" xmlns="http://www.w3.org/2000/svg">
<path d="M0 16C0 7.16344 7.16344 0 16 0H44C52.8366 0 60 7.16344 60 16V44C60 52.8366 52.8366 60 44 60H16C7.16344 60 0 52.8366 0 44V16Z" fill="#EBC331"/>
<path d="M48.9922 36.8347C45.4876 37.7444 41.8328 37.8875 38.2697 37.2546C34.7066 36.6216 31.3163 35.2271 28.323 33.1631C25.3297 31.0991 22.8017 28.4127 20.9061 25.2816C19.0105 22.1505 17.7906 18.646 17.327 15C14.9201 17.0003 13.0061 19.5443 11.7375 22.4292C10.4689 25.3142 9.8808 28.4605 10.02 31.6173C10.1593 34.7741 11.022 37.8543 12.5395 40.6123C14.0569 43.3704 16.1872 45.7301 18.7606 47.5035C21.3339 49.2768 24.2792 50.4149 27.3618 50.8268C30.4444 51.2388 33.579 50.9133 36.5159 49.8764C39.4529 48.8394 42.1109 47.1196 44.2783 44.8541C46.4457 42.5885 48.0626 39.8397 49 36.8268H48.9883L48.9922 36.8347Z" fill="white"/>
<path d="M49.9516 32C46.0971 30.1164 42.7927 27.2908 40.3512 23.7909C37.9097 20.2909 36.412 16.2325 36 12C40.268 13.2852 43.9704 15.9614 46.5044 19.593C49.0384 23.2246 50.2548 27.5976 49.9555 32H49.9516Z" fill="#EF7730"/>
<path d="M49 25C47.9969 24.6995 46.8666 24.3322 45.5903 23.9092C43.0452 23.093 39.9124 22.069 35.9413 20.9783C29.9603 19.3459 24.8326 16.8935 21 13.458C23.5457 12.0355 26.3848 11.2065 29.3019 11.0339C32.2191 10.8613 35.1375 11.3495 37.8359 12.4616C40.5343 13.5737 42.9416 15.2804 44.8754 17.4523C46.8091 19.6241 48.2184 22.2041 48.9963 24.9963L49 25Z" fill="white"/>
</svg>
