<svg width="60" height="60" viewBox="0 0 60 60" fill="none" xmlns="http://www.w3.org/2000/svg">
<path d="M0 16C0 7.16344 7.16344 0 16 0H44C52.8366 0 60 7.16344 60 16V44C60 52.8366 52.8366 60 44 60H16C7.16344 60 0 52.8366 0 44V16Z" fill="#7950DD"/>
<path d="M39.6752 23.3869C38.9742 22.9556 38.0627 22.9556 37.2915 23.3869L31.8228 26.6934L28.107 28.8498L22.6384 32.1564C21.9373 32.5877 21.0258 32.5877 20.2546 32.1564L15.9077 29.5687C15.2066 29.1374 14.7159 28.3467 14.7159 27.4841V22.3805C14.7159 21.518 15.1365 20.7273 15.9077 20.296L20.1845 17.7801C20.8856 17.3488 21.797 17.3488 22.5683 17.7801L26.845 20.296C27.5461 20.7273 28.0369 21.518 28.0369 22.3805V25.6871L31.7527 23.4588V20.1522C31.7527 19.2896 31.3322 18.4989 30.5609 18.0677L22.6384 13.3235C21.9373 12.8922 21.0258 12.8922 20.2546 13.3235L12.1919 18.0677C11.4207 18.4989 11 19.2896 11 20.1522V29.7125C11 30.575 11.4207 31.3657 12.1919 31.797L20.2546 36.5412C20.9557 36.9725 21.8672 36.9725 22.6384 36.5412L28.107 33.3065L31.8228 31.0782L37.2915 27.8435C37.9926 27.4123 38.9041 27.4123 39.6752 27.8435L43.952 30.3594C44.6532 30.7907 45.1439 31.5814 45.1439 32.4439V37.5476C45.1439 38.4101 44.7233 39.2008 43.952 39.6321L39.6752 42.2199C38.9742 42.6512 38.0627 42.6512 37.2915 42.2199L33.0148 39.704C32.3136 39.2727 31.8228 38.482 31.8228 37.6194V34.3129L28.107 36.5412V39.8478C28.107 40.7103 28.5277 41.501 29.2989 41.9323L37.3616 46.6765C38.0627 47.1078 38.9742 47.1078 39.7453 46.6765L47.8081 41.9323C48.5092 41.501 49 40.7103 49 39.8478V30.2875C49 29.425 48.5793 28.6342 47.8081 28.203L39.6752 23.3869Z" fill="white"/>
</svg>
