<svg width="60" height="60" viewBox="0 0 60 60" fill="none" xmlns="http://www.w3.org/2000/svg">
<path d="M0 16C0 7.16344 7.16344 0 16 0H44C52.8366 0 60 7.16344 60 16V44C60 52.8366 52.8366 60 44 60H16C7.16344 60 0 52.8366 0 44V16Z" fill="#E0F1FF"/>
<path d="M13.7503 40.5934C12.1882 42.1555 12.1882 44.6882 13.7503 46.2503C15.3124 47.8124 17.8451 47.8124 19.4072 46.2503L43.3645 22.293L37.7076 16.6361L13.7503 40.5934Z" fill="#FBC920"/>
<path d="M48.6071 11.3934L32.7578 11.6863L48.3142 27.2426L48.6071 11.3934Z" fill="#FBC920"/>
<path fill-rule="evenodd" clip-rule="evenodd" d="M41 45.2C43.3196 45.2 45.2 43.3196 45.2 41C45.2 38.6804 43.3196 36.8 41 36.8C38.6804 36.8 36.8 38.6804 36.8 41C36.8 43.3196 38.6804 45.2 41 45.2ZM41 48C44.866 48 48 44.866 48 41C48 37.134 44.866 34 41 34C37.134 34 34 37.134 34 41C34 44.866 37.134 48 41 48Z" fill="#FB7C20"/>
<path fill-rule="evenodd" clip-rule="evenodd" d="M19 22.2C21.3196 22.2 23.2 20.3196 23.2 18C23.2 15.6804 21.3196 13.8 19 13.8C16.6804 13.8 14.8 15.6804 14.8 18C14.8 20.3196 16.6804 22.2 19 22.2ZM19 25C22.866 25 26 21.866 26 18C26 14.134 22.866 11 19 11C15.134 11 12 14.134 12 18C12 21.866 15.134 25 19 25Z" fill="#FB7C20"/>
</svg>
