<svg width="60" height="60" viewBox="0 0 60 60" fill="none" xmlns="http://www.w3.org/2000/svg">
<path d="M0 16C0 7.16344 7.16344 0 16 0H44C52.8366 0 60 7.16344 60 16V44C60 52.8366 52.8366 60 44 60H16C7.16344 60 0 52.8366 0 44V16Z" fill="#E0F1FF"/>
<path d="M36 19C36 16.7909 37.7909 15 40 15C42.2091 15 44 16.7909 44 19V36H36V19Z" fill="#FB7C20"/>
<path d="M16 42C16 44.2091 17.7909 46 20 46C22.2091 46 24 44.2091 24 42V25H16V42Z" fill="#51DA88"/>
<path d="M40 46L29 36L51 36L40 46Z" fill="#FB7C20"/>
<path d="M20 15L9 25L31 25L20 15Z" fill="#51DA88"/>
</svg>
