<svg width="60" height="60" viewBox="0 0 60 60" fill="none" xmlns="http://www.w3.org/2000/svg">
<path d="M0 18C0 8.05888 8.05888 0 18 0H42C51.9411 0 60 8.05888 60 18V42C60 51.9411 51.9411 60 42 60H18C8.05888 60 0 51.9411 0 42V18Z" fill="#78B650"/>
<path d="M19.7188 43.5895C20.8564 44.8856 22.2401 45.9428 23.7895 46.6999C25.3389 47.457 27.0233 47.8989 28.7448 48C30.8016 47.8908 32.7421 47.0121 34.181 45.5383C37.0191 43.1075 39.9988 40.847 43.1045 38.7688L44.8482 38.0508C45.5661 37.7431 46.797 37.0251 47.9252 35.6917C49.1561 34.0506 49.3612 32.3069 49.3612 31.6915C49.2248 29.7506 48.5888 27.8779 47.515 26.2554C44.7127 31.2486 40.6966 35.4546 35.8382 38.4844C30.9797 41.5143 25.4356 43.2701 19.7188 43.5895Z" fill="#0293D6"/>
<path d="M23.6162 14.4599C24.3819 13.6512 25.3042 13.0067 26.327 12.5659C27.3497 12.1251 28.4515 11.897 29.5652 11.8957C30.2708 11.8485 30.9788 11.942 31.648 12.1709C32.3171 12.3998 32.934 12.7595 33.4628 13.2291C36.4049 15.3134 39.9094 16.4577 43.5146 16.5113C44.4377 16.6139 46.284 16.9216 47.5148 18.4601C48.4379 19.691 48.5405 21.0243 48.5405 21.6398C48.4579 23.2247 48.1112 24.7846 47.5148 26.2554L23.6162 14.4599Z" fill="#EBE638"/>
<path d="M19.7184 43.5896C18.7952 43.487 17.5644 43.1793 16.1285 42.5639C14.6925 41.9485 12.9488 41.2305 11.8206 39.2817C11.1026 38.0509 11 36.82 11 35.9995C11.025 33.8234 11.5515 31.6823 12.5385 29.7428C13.5205 27.3455 14.176 24.8271 14.4873 22.2552L15.0002 20.2038C15.3079 19.1782 15.513 18.1525 16.231 17.1268L17.3593 15.8959C19.2228 14.7243 21.4281 14.2182 23.616 14.46C20.6864 18.6508 18.8036 23.4827 18.1255 28.5509C17.4473 33.6191 17.9936 38.7759 19.7184 43.5896Z" fill="#BAD147"/>
<path d="M23.6156 14.46C23.513 14.46 29.1543 14.7677 32.6417 15.9985L35.5136 17.2293C34.3853 17.1268 27.2055 16.819 21.7693 22.2552C14.8972 29.2299 17.1537 38.7688 17.2563 39.2817C15.6638 37.278 14.8609 34.7601 14.9998 32.2044C15.1348 28.8125 15.9699 25.4851 17.4526 22.4315C18.9353 19.3778 21.0336 16.6638 23.6156 14.46Z" fill="#78B650"/>
<path d="M37.3599 39.7944C39.3004 36.267 40.16 32.2466 39.8317 28.2341C39.5034 24.2215 38.0017 20.3943 35.5137 17.2292C38.4847 17.726 41.2174 19.1643 43.3089 21.332C44.5397 22.3577 46.0783 23.8962 47.5142 26.2553C45.4862 31.6423 41.9636 36.3391 37.3599 39.7944Z" fill="#2F8260"/>
<path d="M40.6429 21.7424C39.0018 18.973 36.6427 17.7422 35.617 17.2293C34.7964 17.0242 27.1038 15.7933 21.2573 21.4346C16.5392 25.9477 16.2314 31.7941 16.2314 32.9224C16.2532 36.7878 17.5512 40.5379 19.9239 43.5896C22.973 44.1766 26.1061 44.1766 29.1551 43.5896C30.6937 43.2818 34.2836 42.6664 37.3607 39.9996C37.7709 39.5894 42.284 35.384 42.5917 28.717C42.5917 27.5888 42.5917 24.7169 40.6429 21.7424ZM36.9504 36.6149C35.9979 37.651 34.8405 38.4778 33.5515 39.0428C32.2626 39.6078 30.8702 39.8987 29.4628 39.8971C28.8474 39.8971 24.7447 39.7945 21.8727 36.4097C21.4625 35.8969 19.4111 33.4352 19.5137 29.7427C19.7188 24.8194 23.6164 21.9475 24.437 21.3321C25.1549 20.8192 26.8986 19.691 29.4628 19.5884C30.0783 19.4858 32.2322 19.3833 34.3862 20.6141C39.1043 23.1783 39.3095 29.3325 39.3095 29.7427C39.3095 30.871 39.3095 33.9481 36.9504 36.6149Z" fill="#085229"/>
</svg>
