<svg width="16" height="16" viewBox="0 0 16 16" fill="none" xmlns="http://www.w3.org/2000/svg">
<g id="robot" clip-path="url(#clip0_6322_35193)">
<path id="Vector" d="M15.4272 6.77073H14.6253V4.17561C14.6062 3.86341 14.358 3.60976 14.0525 3.59024H8.57279V0H7.42721V3.59024H1.94749C1.642 3.60976 1.39379 3.86341 1.3747 4.17561V6.77073H0.572792C0.24821 6.77073 0 7.02439 0 7.3561V11.2195C0 11.5512 0.24821 11.8049 0.572792 11.8049H1.3747V15.4146C1.39379 15.7268 1.642 15.9805 1.94749 16H14.0525C14.358 15.9805 14.6062 15.7268 14.6253 15.4146V11.8049H15.4272C15.7518 11.8049 16 11.5512 16 11.2195V7.3561C16 7.02439 15.7518 6.77073 15.4272 6.77073ZM3.74224 8.1561C3.74224 7.21951 4.48687 6.45854 5.40334 6.45854C6.31981 6.45854 7.06444 7.21951 7.06444 8.1561C7.06444 9.09268 6.31981 9.85366 5.40334 9.85366C4.48687 9.85366 3.74224 9.09268 3.74224 8.1561ZM10.5203 13.2488H5.47971V12.078H10.5203V13.2488ZM12.2578 8.1561C12.2578 9.09268 11.5131 9.85366 10.5967 9.85366C9.6611 9.85366 8.91647 9.09268 8.89737 8.1561C8.89737 7.2 9.642 6.43902 10.5585 6.41951C11.4749 6.4 12.2387 7.18049 12.2578 8.11707V8.1561Z" fill="#5D94F1"/>
</g>
<defs>
<clipPath id="clip0_6322_35193">
<rect width="16" height="16" fill="white"/>
</clipPath>
</defs>
</svg>
