<svg width="60" height="60" viewBox="0 0 60 60" fill="none" xmlns="http://www.w3.org/2000/svg">
<path d="M0 18C0 8.05888 8.05888 0 18 0H42C51.9411 0 60 8.05888 60 18V42C60 51.9411 51.9411 60 42 60H18C8.05888 60 0 51.9411 0 42V18Z" fill="#2E93F0"/>
<path d="M34.2734 34.3516V38.2363H27.2949V43H22.0918V38.2363H20.3516V34.3516H22.0918V32.2422H20.3516V28.1289H22.0918V17.2305H29.5098C32.2754 17.2305 34.2734 17.4648 35.5039 17.9336C36.7461 18.3906 37.748 19.2109 38.5098 20.3945C39.2598 21.5664 39.6348 22.9199 39.6348 24.4551C39.6348 25.709 39.4766 26.7754 39.1602 27.6543C38.8555 28.5215 38.4336 29.2422 37.8945 29.8164C37.3555 30.3906 36.7168 30.8418 35.9785 31.1699C35.2402 31.498 34.4375 31.7441 33.5703 31.9082C32.7031 32.0605 31.7949 32.1543 30.8457 32.1895C29.9082 32.2246 28.959 32.2422 27.998 32.2422H27.2949V34.3516H34.2734ZM27.2949 28.1289H27.6113C30.1074 28.1289 31.666 28.0234 32.2871 27.8125C32.9199 27.6016 33.4062 27.2383 33.7461 26.7227C34.0977 26.207 34.2734 25.5625 34.2734 24.7891C34.2734 23.9102 34.0508 23.207 33.6055 22.6797C33.1602 22.1406 32.498 21.8066 31.6191 21.6777C31.4082 21.6543 30.9863 21.6367 30.3535 21.625C29.7324 21.6016 28.8887 21.5898 27.8223 21.5898H27.2949V28.1289Z" fill="white"/>
</svg>
