<svg width="60" height="60" viewBox="0 0 60 60" fill="none" xmlns="http://www.w3.org/2000/svg">
<path d="M0 16C0 7.16344 7.16344 0 16 0H44C52.8366 0 60 7.16344 60 16V44C60 52.8366 52.8366 60 44 60H16C7.16344 60 0 52.8366 0 44V16Z" fill="#E6007A"/>
<path d="M0 16C0 7.16344 7.16344 0 16 0H44C52.8366 0 60 7.16344 60 16V44C60 52.8366 52.8366 60 44 60H16C7.16344 60 0 52.8366 0 44V16Z" fill="url(#paint0_linear_1043_31031)"/>
<path d="M47.8115 39.23L41.8685 45.5633C41.74 45.7009 41.5843 45.8107 41.4112 45.8858C41.2381 45.9609 41.0513 45.9998 40.8624 46H12.6905C12.5561 45.9999 12.4247 45.9609 12.3123 45.8877C12.1999 45.8146 12.1114 45.7104 12.0577 45.588C12.0039 45.4656 11.9873 45.3303 12.0097 45.1986C12.0322 45.067 12.0928 44.9446 12.1841 44.8467L18.1203 38.5134C18.2488 38.3758 18.4045 38.266 18.5776 38.1909C18.7507 38.1158 18.9375 38.0769 19.1264 38.0767H47.2983C47.4338 38.0739 47.5673 38.1111 47.6817 38.1835C47.796 38.2559 47.8866 38.3603 47.9413 38.4835C47.9963 38.6068 48.013 38.7435 47.9899 38.8763C47.9668 39.0092 47.9047 39.1322 47.8115 39.23ZM41.8685 26.4734C41.7395 26.3365 41.5837 26.2271 41.4107 26.152C41.2378 26.077 41.0512 26.0377 40.8624 26.0368H12.6905C12.5561 26.0368 12.4247 26.0758 12.3123 26.149C12.1999 26.2222 12.1114 26.3264 12.0577 26.4488C12.0039 26.5712 11.9873 26.7065 12.0097 26.8381C12.0322 26.9698 12.0928 27.0921 12.1841 27.1901L18.1203 33.5268C18.2493 33.6637 18.4051 33.773 18.5781 33.8481C18.7511 33.9232 18.9377 33.9624 19.1264 33.9634H47.2983C47.4325 33.9627 47.5633 33.9232 47.6753 33.8498C47.7873 33.7763 47.8752 33.6721 47.9285 33.5499C47.9818 33.4276 47.9983 33.2926 47.9755 33.1612C47.953 33.0298 47.8926 32.9078 47.8014 32.8101L41.8685 26.4734ZM12.6905 21.9234H40.8624C41.0513 21.9233 41.2381 21.8844 41.4112 21.8092C41.5843 21.7341 41.74 21.6243 41.8685 21.4868L47.8115 15.1535C47.9047 15.0556 47.9668 14.9326 47.9899 14.7997C48.013 14.6669 47.9963 14.5303 47.9413 14.407C47.8866 14.2837 47.796 14.1793 47.6817 14.1069C47.5673 14.0345 47.4338 13.9974 47.2983 14.0001H19.1264C18.9375 14.0003 18.7507 14.0392 18.5776 14.1143C18.4045 14.1895 18.2488 14.2992 18.1203 14.4368L12.1841 20.7701C12.0928 20.8681 12.0322 20.9904 12.0097 21.1221C11.9873 21.2537 12.0039 21.389 12.0577 21.5114C12.1114 21.6338 12.1999 21.738 12.3123 21.8112C12.4247 21.8844 12.5561 21.9234 12.6905 21.9234Z" fill="white"/>
<defs>
<linearGradient id="paint0_linear_1043_31031" x1="5.06359" y1="61.4313" x2="60.5077" y2="5.52835" gradientUnits="userSpaceOnUse">
<stop offset="0.08" stop-color="#9945FF"/>
<stop offset="0.3" stop-color="#8752F3"/>
<stop offset="0.5" stop-color="#5497D5"/>
<stop offset="0.6" stop-color="#43B4CA"/>
<stop offset="0.72" stop-color="#28E0B9"/>
<stop offset="0.97" stop-color="#19FB9B"/>
</linearGradient>
</defs>
</svg>
