<svg width="40" height="40" viewBox="0 0 40 32" fill="none" xmlns="http://www.w3.org/2000/svg">
  <path
    d="M10.625 14.3995V23.9175H29.375V14.3995C26.5014 12.9667 23.2593 12.2091 20 12.2091C16.7407 12.2091 13.4998 12.9667 10.625 14.3995Z"
    fill="#4785EF"
  />
  <path
    d="M32.8125 27.6644L35.2344 22.4687V15.6875L37.5781 14.5V22.4687L40 27.6644L36.4062 31.434L32.8125 27.6644Z"
    fill="#FB7C20"
  />
  <path
    d="M40 11.0269L37.5781 12.3479L35.2344 13.5665L31.7188 15.3946V12.9496C31.6168 12.9107 31.4408 12.8194 31.1944 12.6915C29.7252 11.9288 25.7502 9.86537 20 9.86537C14.2956 9.86537 10.2129 11.9665 8.76909 12.7096L8.72631 12.7316C8.51648 12.8396 8.36696 12.9158 8.28125 12.9484V15.3946L0 11.0269L20 0.565918L40 11.0269Z"
    fill="#4785EF"
  />
</svg>
