<svg width="60" height="60" viewBox="0 0 60 60" fill="none" xmlns="http://www.w3.org/2000/svg">
<path d="M0 16C0 7.16344 7.16344 0 16 0H44C52.8366 0 60 7.16344 60 16V44C60 52.8366 52.8366 60 44 60H16C7.16344 60 0 52.8366 0 44V16Z" fill="#C4342B"/>
<path fill-rule="evenodd" clip-rule="evenodd" d="M14.3199 12.4133C14.4701 12.2454 14.6624 12.1217 14.8766 12.0553C15.0907 11.9888 15.3187 11.9822 15.5363 12.036L41.7253 18.5125C41.8829 18.5513 42.0306 18.6215 42.1622 18.7168L47.4906 22.6408C47.7511 22.8329 47.9274 23.1198 47.982 23.4409C48.0367 23.7619 47.9655 24.0919 47.7835 24.3608L29.4512 51.4526C29.322 51.644 29.1428 51.7955 28.9336 51.8903C28.7243 51.985 28.4931 52.0194 28.2657 51.9895C28.0383 51.9597 27.8235 51.8667 27.6452 51.7211C27.4669 51.5754 27.332 51.3827 27.2555 51.1643L14.0717 13.6745C13.9967 13.4614 13.9802 13.2318 14.0239 13.01C14.0676 12.7882 14.1699 12.5825 14.3199 12.4146V12.4133ZM18.6417 19.1794L27.7942 45.2056L29.2998 31.7173L18.6417 19.1794ZM31.7486 32.1524L30.2195 45.875L43.1651 26.7403L31.7474 32.1524H31.7486ZM44.333 23.4181L35.9885 27.3734L41.5825 21.3934L44.333 23.4181ZM39.0629 20.4356L18.7013 15.3996L30.639 29.4432L39.0642 20.4356H39.0629Z" fill="white"/>
</svg>
