<svg width="60" height="60" viewBox="0 0 60 60" fill="none" xmlns="http://www.w3.org/2000/svg">
<path d="M0 18C0 8.05888 8.05888 0 18 0H42C51.9411 0 60 8.05888 60 18V42C60 51.9411 51.9411 60 42 60H18C8.05888 60 0 51.9411 0 42V18Z" fill="#0062FF"/>
<path d="M39.5347 39.276C39.5347 40.222 38.8597 40.906 37.9927 40.906L37.0867 40.905C37.0077 40.905 36.9437 40.841 36.9437 40.762V37.797C36.9437 37.717 37.0077 37.646 37.0867 37.646H37.9847C38.8587 37.646 39.5347 38.33 39.5347 39.276Z" fill="white"/>
<path fill-rule="evenodd" clip-rule="evenodd" d="M42.6 45H17.4C16.08 45 15 43.92 15 42.6V17.4C15 16.08 16.08 15 17.4 15H42.6C43.92 15 45 16.08 45 17.4V42.6C45 43.92 43.92 45 42.6 45ZM44.2 33.6H15.8C15.58 33.6 15.4 33.42 15.4 33.2V17.4C15.4 16.3 16.3 15.4 17.4 15.4H42.6C43.7 15.4 44.6 16.3 44.6 17.4V33.2C44.6 33.42 44.42 33.6 44.2 33.6ZM33.6769 38.339C33.5499 38.339 33.5099 38.291 33.4619 38.196C33.2949 37.806 32.9289 37.56 32.3729 37.56C31.8719 37.56 31.4509 37.735 31.4509 38.069C31.4509 38.435 31.8409 38.586 32.6989 38.689C34.0029 38.84 34.7499 39.238 34.7499 40.271C34.7499 41.432 33.7319 42.044 32.4289 42.044C31.2999 42.044 30.3299 41.495 30.1789 40.343C30.1629 40.232 30.2189 40.192 30.3299 40.192H31.2049C31.3159 40.192 31.3799 40.24 31.4119 40.327C31.5309 40.709 31.9369 41.003 32.5249 41.003C33.0419 41.003 33.4949 40.812 33.4949 40.407C33.4949 39.922 33.0179 39.835 32.0639 39.715C30.9669 39.572 30.2039 39.254 30.2039 38.244C30.2039 37.234 31.0709 36.511 32.4299 36.511C33.6539 36.511 34.5049 37.171 34.6799 38.157C34.7039 38.268 34.6719 38.34 34.5529 38.34L33.6769 38.339ZM20.7109 41.829C20.7109 41.908 20.7749 41.98 20.8539 41.98H21.8159C21.8949 41.98 21.9589 41.908 21.9589 41.829V37.798C21.9589 37.718 22.0309 37.647 22.1099 37.647H23.5249C23.6039 37.647 23.6759 37.583 23.6759 37.504V36.725C23.6759 36.645 23.6039 36.574 23.5249 36.574H19.1449C19.0659 36.574 18.9939 36.646 18.9939 36.725V37.504C18.9939 37.583 19.0649 37.647 19.1449 37.647H20.5679C20.6469 37.647 20.7109 37.719 20.7109 37.798V41.829ZM28.1909 36.574C28.1119 36.574 28.0479 36.646 28.0479 36.725V39.515C28.0479 40.318 27.6349 40.89 26.9189 40.89C26.2029 40.89 25.7899 40.318 25.7899 39.515V36.725C25.7899 36.645 25.7179 36.574 25.6389 36.574H24.6849C24.6059 36.574 24.5419 36.646 24.5419 36.725V39.476C24.5419 41.106 25.4559 42.052 26.9109 42.052C28.3739 42.052 29.2959 41.106 29.2959 39.476V36.725C29.2959 36.645 29.2239 36.574 29.1449 36.574H28.1909ZM35.6877 41.829C35.6877 41.908 35.7517 41.98 35.8307 41.98H37.9927C39.6147 41.98 40.8467 40.883 40.8467 39.293C40.8467 37.679 39.5987 36.574 37.9927 36.574H35.8307C35.7517 36.574 35.6877 36.646 35.6877 36.725V41.829Z" fill="white"/>
<path d="M31.473 30.356H28.873C28.708 30.356 28.573 30.221 28.573 30.056V21.956H24.1C23.935 21.956 23.8 21.821 23.8 21.656V19.056C23.8 18.891 23.935 18.756 24.1 18.756H35.9C36.065 18.756 36.2 18.891 36.2 19.056V21.656C36.2 21.821 36.065 21.956 35.9 21.956H31.773V30.056C31.773 30.221 31.638 30.356 31.473 30.356Z" fill="white"/>
</svg>
