<svg width="60" height="60" viewBox="0 0 60 60" fill="none" xmlns="http://www.w3.org/2000/svg">
<path d="M0 18C0 8.05888 8.05888 0 18 0H42C51.9411 0 60 8.05888 60 18V42C60 51.9411 51.9411 60 42 60H18C8.05888 60 0 51.9411 0 42V18Z" fill="#567223"/>
<path d="M38.0781 31.6737C36.3823 29.9719 34.725 29.4169 30.7167 27.7151C29.3292 27.1231 28.0958 26.6052 27.5563 25.6432C27.2865 25.1993 27.2479 24.6443 27.2479 24.2744C27.2479 23.5714 27.4792 22.9055 27.9802 22.4245C28.5969 21.7216 29.599 21.3146 30.601 21.3146C31.95 21.3146 32.9135 22.0546 33.5688 22.9795C33.9542 23.7194 34.0698 24.2744 34.0698 24.8663L39.6198 24.8293C39.5427 23.0165 39.0417 21.5736 38.001 20.0937C36.8833 18.5399 35.226 17.467 33.3375 16.912V13.4343H28.0958V16.838C26.6313 17.171 25.3208 17.7999 24.2417 18.7249C22.7 20.0937 21.6979 22.3135 21.6979 24.3484C21.6979 25.8282 22.276 27.4561 23.0083 28.455C24.0875 29.9719 25.5135 30.8968 26.7854 31.5627C28.751 32.6726 31.2177 33.1166 33.1833 34.3745C34.3396 35.1144 34.5708 35.7064 34.5708 36.5573C34.5708 37.5562 34.224 38.2221 33.376 38.7771C32.6052 39.332 31.449 39.517 30.6396 39.517C29.2135 39.517 28.0188 38.7401 27.2094 37.5192C26.824 36.9643 26.6313 36.0023 26.6313 35.5214H21.3125C21.3125 37.2232 21.775 38.7771 22.7 40.183C23.8563 42.1068 25.8219 43.4017 28.0958 43.9566V47.4343H33.3375V44.0306C34.301 43.8456 35.2646 43.5497 35.9969 43.1797C38.6177 41.8848 40.1208 39.1471 40.1208 36.7053C40.1208 34.7444 39.5042 33.0796 38.0781 31.6737Z" fill="white"/>
</svg>
