<svg width="60" height="60" viewBox="0 0 60 60" fill="none" xmlns="http://www.w3.org/2000/svg">
<path d="M0 18C0 8.05888 8.05888 0 18 0H42C51.9411 0 60 8.05888 60 18V42C60 51.9411 51.9411 60 42 60H18C8.05888 60 0 51.9411 0 42V18Z" fill="#2774C9"/>
<path d="M36.2165 33.8381C36.2165 30.5 34.2385 29.3555 30.2826 28.8787C27.4569 28.4971 26.8918 27.7342 26.8918 26.3988C26.8918 25.0633 27.8337 24.2052 29.7174 24.2052C31.4128 24.2052 32.3548 24.7774 32.8257 26.2081C32.9199 26.4942 33.2025 26.6849 33.4851 26.6849H34.9919C35.3688 26.6849 35.6513 26.3988 35.6513 26.0174V25.9219C35.2745 23.8236 33.5791 22.2023 31.4128 22.0116V19.7226C31.4128 19.341 31.1303 19.0549 30.6594 18.9594H29.2466C28.8697 18.9594 28.5872 19.2455 28.4929 19.7226V21.9162C25.6672 22.2977 23.8778 24.2052 23.8778 26.5897C23.8778 29.7371 25.7615 30.9768 29.7174 31.4538C32.3548 31.9307 33.2025 32.5029 33.2025 34.029C33.2025 35.5551 31.8837 36.6042 30.0943 36.6042C27.6452 36.6042 26.7975 35.5549 26.5149 34.1242C26.4209 33.7429 26.1383 33.552 25.8558 33.552H24.2544C23.8778 33.552 23.5952 33.8381 23.5952 34.2197V34.3151C23.9718 36.6994 25.4789 38.4162 28.5872 38.8932V41.1822C28.5872 41.5636 28.8697 41.8497 29.3406 41.9451H30.7534C31.1303 41.9451 31.4128 41.659 31.5071 41.1822V38.8932C34.3328 38.4162 36.2165 36.4133 36.2165 33.8381Z" fill="white"/>
<path d="M25.1964 43.8526C17.8496 41.1822 14.082 32.8845 16.8136 25.5404C18.2265 21.5346 21.3347 18.4826 25.1964 17.052C25.5732 16.8613 25.7615 16.5752 25.7615 16.0981V14.7629C25.7615 14.3814 25.5732 14.0952 25.1964 14C25.1021 14 24.9138 14 24.8195 14.0952C15.8717 16.9565 10.9738 26.5897 13.7994 35.6503C15.4948 40.9913 19.545 45.0926 24.8195 46.8093C25.1964 47 25.5732 46.8093 25.6672 46.4277C25.7615 46.3325 25.7615 46.2371 25.7615 46.0464V44.711C25.7615 44.4248 25.4789 44.0435 25.1964 43.8526ZM35.1805 14.0952C34.8036 13.9045 34.4268 14.0952 34.3328 14.4768C34.2385 14.5723 34.2385 14.6675 34.2385 14.8584V16.1936C34.2385 16.5752 34.5211 16.9565 34.8036 17.1474C42.1504 19.8178 45.918 28.1155 43.1864 35.4596C41.7735 39.4654 38.6653 42.5174 34.8036 43.948C34.4268 44.1387 34.2385 44.4248 34.2385 44.9019V46.2371C34.2385 46.6186 34.4268 46.9048 34.8036 47C34.8979 47 35.0862 47 35.1805 46.9048C44.1283 44.0435 49.0262 34.4103 46.2006 25.3497C44.5052 19.9132 40.3607 15.812 35.1805 14.0952Z" fill="white"/>
</svg>
