<svg width="60" height="60" viewBox="0 0 60 60" fill="none" xmlns="http://www.w3.org/2000/svg">
<path d="M0 18C0 8.05888 8.05888 0 18 0H42C51.9411 0 60 8.05888 60 18V42C60 51.9411 51.9411 60 42 60H18C8.05888 60 0 51.9411 0 42V18Z" fill="#50AF95"/>
<path d="M30.0275 31.2346C31.5758 31.2346 32.2699 31.1932 32.4043 31.1832L32.3998 31.1821C37.1501 30.9719 40.6935 30.1449 40.6935 29.1569C40.6935 28.1689 37.149 27.3419 32.3998 27.1307V30.3606C32.2666 30.3729 31.5265 30.4344 30.0487 30.4344C28.8172 30.4344 27.926 30.3818 27.6148 30.3595V27.1284C22.8555 27.3408 19.3032 28.1667 19.3032 29.1569C19.3032 30.1471 22.8555 30.9742 27.6148 31.1832C27.9216 31.1977 28.7959 31.2346 30.0275 31.2346Z" fill="white"/>
<path d="M32.4043 26.7954V26.7965L32.4032 26.7954L32.4043 26.7954Z" fill="white"/>
<path fill-rule="evenodd" clip-rule="evenodd" d="M11.0285 29.6912L17.9574 15.1621C17.9801 15.1131 18.0165 15.0718 18.0622 15.043C18.1079 15.0143 18.1609 14.9994 18.2149 15H41.7873C41.841 14.9999 41.8937 15.0152 41.939 15.0441C41.9842 15.0731 42.0202 15.1144 42.0426 15.1632L48.9715 29.6923C48.9979 29.7463 49.0062 29.8074 48.9954 29.8665C48.9845 29.9256 48.9549 29.9797 48.9111 30.0209L30.1976 47.9207C30.1444 47.9716 30.0736 48 30 48C29.9264 48 29.8556 47.9716 29.8024 47.9207L11.0889 30.0197C11.0451 29.9786 11.0155 29.9245 11.0046 29.8654C10.9938 29.8063 11.0021 29.7452 11.0285 29.6912ZM32.4043 23.9052V26.7954C37.781 27.0436 41.8209 28.1076 41.8209 29.3827C41.8209 30.6579 37.777 31.7219 32.4032 31.9689V41.2373H27.6137V31.9722C22.2275 31.7241 18.1769 30.6601 18.1769 29.3838C18.1769 28.1075 22.2275 27.0424 27.6137 26.7954V23.9052H20.987V19.4962H39.0321V23.9052H32.4043Z" fill="white"/>
</svg>
