<svg width="60" height="60" viewBox="0 0 60 60" fill="none" xmlns="http://www.w3.org/2000/svg">
<path d="M0 16C0 7.16344 7.16344 0 16 0H44C52.8366 0 60 7.16344 60 16V44C60 52.8366 52.8366 60 44 60H16C7.16344 60 0 52.8366 0 44V16Z" fill="#5493F7"/>
<path fill-rule="evenodd" clip-rule="evenodd" d="M27.4639 40.6737C28.3927 44.2164 31.7259 46.9198 33.4085 46.809C33.4672 46.805 39.7933 45.5894 43.256 39.6249C45.9514 34.984 45.0333 30.5033 41.3679 30.4059C40.0495 30.5046 25.6933 33.9232 27.4639 40.6737ZM30.6477 14C28.2606 14 25.9948 14.5124 23.9453 15.4265C23.5867 15.5768 23.2373 15.7483 22.8991 15.9402C22.667 16.0643 22.4348 16.187 22.2106 16.3205L22.264 16.3378C21.5848 16.8088 21.0004 17.3573 20.5213 17.9924C15.7804 24.2692 31.6698 28.8313 40.1643 28.8473C44.0739 31.6588 45.1708 20.9293 41.3519 17.951C38.3724 15.3942 34.5739 13.9921 30.6477 14Z" fill="#0E3CA5"/>
<path fill-rule="evenodd" clip-rule="evenodd" d="M24.676 17.6801C22.5277 20.8358 15.3702 23.0602 14.1933 22.7133L14.188 22.6999L14.3348 22.4157C15.5645 20.1083 17.3107 18.1164 19.4373 16.5953C19.8777 16.279 20.334 15.9841 20.805 15.7093C21.8045 15.1422 22.8319 15.1075 23.1695 15.0941C26.3559 15.1528 24.692 17.6547 24.6746 17.6801" fill="white"/>
<mask id="mask0_1043_30986" style="mask-type:alpha" maskUnits="userSpaceOnUse" x="12" y="24" width="11" height="23">
<path d="M12 24.9376H22.9377V46.8116H12V24.9376Z" fill="white"/>
</mask>
<g mask="url(#mask0_1043_30986)">
<path fill-rule="evenodd" clip-rule="evenodd" d="M22.8736 41.3288C23.0338 42.3656 22.8696 46.4634 22.6535 46.8089C22.4693 46.8196 22.0824 46.8436 20.9655 46.2245C18.7984 45.0035 16.9115 43.3416 15.4266 41.3461C14.3404 39.8844 13.4895 38.2618 12.9047 36.5371C12.3028 34.7531 11.9972 32.8824 12 30.9996C11.9967 28.9298 12.3664 26.8763 13.0915 24.9376H13.0942C14.3752 26.6176 15.8563 28.1374 17.1146 29.8347C18.3142 31.4492 19.9634 34.0819 20.2983 34.645C22.3826 38.137 22.7148 40.292 22.8736 41.3288Z" fill="white"/>
</g>
<path fill-rule="evenodd" clip-rule="evenodd" d="M47.0002 31.1931C47.0002 33.4334 46.5732 35.5751 45.8007 37.5392C43.7724 39.7276 30.0927 34.3421 29.9579 34.2834C28.0872 33.4615 22.3922 30.9582 21.8784 27.0272C21.1392 21.3722 32.5772 17.4306 37.6037 17.2811C38.2055 17.2878 40.0403 17.3091 41.1091 18.1818C42.9624 19.8045 44.447 21.805 45.4632 24.049C46.4793 26.2929 47.0034 28.7284 47.0002 31.1917V31.1931ZM35.0378 45.181C35.8557 42.2855 43.0079 39.3179 44.5864 39.1578C44.7812 39.1378 44.8639 39.2752 44.7785 39.4327C43.132 42.4269 40.6941 44.8928 37.7438 46.4914C36.252 47.2146 34.6108 46.6875 35.0378 45.181Z" fill="white"/>
</svg>
