<svg width="60" height="60" viewBox="0 0 60 60" fill="none" xmlns="http://www.w3.org/2000/svg">
<path d="M0 18C0 8.05888 8.05888 0 18 0H42C51.9411 0 60 8.05888 60 18V42C60 51.9411 51.9411 60 42 60H18C8.05888 60 0 51.9411 0 42V18Z" fill="#F0962D"/>
<path d="M41.985 18.9749L40.9416 20.0183C43.4313 22.741 44.812 26.2967 44.812 29.9861C44.812 33.6754 43.4313 37.2312 40.9416 39.9539L41.985 40.9973C44.7538 37.994 46.291 34.0588 46.291 29.9739C46.291 25.8891 44.7538 21.9539 41.985 18.9506V18.9749Z" fill="white"/>
<path d="M20.0426 19.0654C22.7653 16.5757 26.3211 15.195 30.0104 15.195C33.6998 15.195 37.2556 16.5757 39.9782 19.0654L41.0216 18.022C38.0183 15.2532 34.0831 13.716 29.9983 13.716C25.9134 13.716 21.9782 15.2532 18.9749 18.022L20.0426 19.0654Z" fill="white"/>
<path d="M19.0653 39.9643C16.5786 37.2423 15.1998 33.6887 15.1998 30.0017C15.1998 26.3148 16.5786 22.7612 19.0653 20.0392L18.022 18.9958C15.2532 21.9991 13.716 25.9343 13.716 30.0191C13.716 34.104 15.2532 38.0392 18.022 41.0425L19.0653 39.9643Z" fill="white"/>
<path d="M39.9643 40.9277C37.2417 43.4174 33.6859 44.798 29.9965 44.798C26.3072 44.798 22.7514 43.4174 20.0287 40.9277L18.9854 41.9711C21.9886 44.7399 25.9239 46.2771 30.0087 46.2771C34.0935 46.2771 38.0288 44.7399 41.032 41.9711L39.9643 40.9277Z" fill="white"/>
<path d="M29.9965 49C26.239 48.9993 22.566 47.8845 19.442 45.7965C16.318 43.7085 13.8833 40.741 12.4456 37.2694C11.008 33.7977 10.632 29.9777 11.3653 26.2924C12.0985 22.6071 13.908 19.222 16.565 16.565C19.222 13.908 22.6071 12.0985 26.2924 11.3653C29.9777 10.632 33.7977 11.008 37.2694 12.4456C40.741 13.8833 43.7085 16.318 45.7965 19.442C47.8845 22.566 48.9993 26.239 49 29.9965C49.0005 32.4922 48.5092 34.9636 47.5544 37.2694C46.5995 39.5752 45.1998 41.6703 43.435 43.435C41.6703 45.1998 39.5752 46.5995 37.2694 47.5544C34.9636 48.5092 32.4922 49.0005 29.9965 49ZM29.9965 12.4816C26.5347 12.4844 23.1513 13.5133 20.2741 15.4385C17.397 17.3637 15.1551 20.0986 13.8319 23.2976C12.5087 26.4966 12.1635 30.0161 12.8401 33.4112C13.5166 36.8063 15.1845 39.9246 17.6329 42.372C20.0813 44.8194 23.2003 46.4861 26.5957 47.1613C29.991 47.8365 33.5104 47.49 36.7088 46.1655C39.9073 44.841 42.6413 42.598 44.5654 39.7201C46.4894 36.8421 47.517 33.4584 47.5184 29.9965C47.5193 27.6956 47.0667 25.417 46.1863 23.2912C45.306 21.1653 44.0153 19.2338 42.388 17.6071C40.7606 15.9804 38.8286 14.6905 36.7024 13.811C34.5762 12.9315 32.2975 12.4798 29.9965 12.4816Z" fill="white"/>
<path d="M36.5873 26.5186C36.3786 24.3414 34.5005 23.611 32.1251 23.3884V20.3904H30.2887V23.3328C29.8053 23.3328 29.3114 23.3328 28.821 23.3328V20.3904H26.9986V23.4093H23.2737V25.3743C23.2737 25.3743 24.6301 25.35 24.6093 25.3743C24.8538 25.3474 25.0993 25.4165 25.2939 25.567C25.4886 25.7176 25.6172 25.9377 25.6526 26.1812V34.4448C25.6474 34.5307 25.625 34.6146 25.5868 34.6917C25.5486 34.7687 25.4953 34.8374 25.43 34.8935C25.3661 34.9506 25.2912 34.9943 25.2099 35.0218C25.1286 35.0493 25.0426 35.06 24.957 35.0534C24.9814 35.0743 23.6215 35.0534 23.6215 35.0534L23.2737 37.248H26.9638V40.3156H28.8002V37.2932H30.2679V40.3017H32.1077V37.2689C35.21 37.0811 37.3733 36.3159 37.6446 33.4119C37.8637 31.0747 36.7647 30.0313 35.0083 29.6105C36.076 29.0853 36.7368 28.1115 36.5873 26.5186ZM34.0136 33.0502C34.0136 35.3317 30.1044 35.0708 28.8593 35.0708V31.0225C30.1044 31.026 34.0136 30.6678 34.0136 33.0502ZM33.1615 27.3463C33.1615 29.4331 29.8992 29.1792 28.8628 29.1792V25.4995C29.8992 25.4995 33.1615 25.1726 33.1615 27.3463Z" fill="white"/>
</svg>
