<svg width="60" height="60" viewBox="0 0 60 60" fill="none" xmlns="http://www.w3.org/2000/svg">
<path d="M0 18C0 8.05888 8.05888 0 18 0H42C51.9411 0 60 8.05888 60 18V42C60 51.9411 51.9411 60 42 60H18C8.05888 60 0 51.9411 0 42V18Z" fill="#F26822"/>
<path d="M46.7153 29.8582C46.7153 39.1684 39.1685 46.7163 29.8577 46.7163C20.5468 46.7163 13 39.1684 13 29.8582C13 20.548 20.547 13 29.8577 13C39.1683 13 46.7153 20.5473 46.7153 29.8582Z" fill="#F26822"/>
<path d="M29.8578 13C20.5503 13 12.9901 20.5587 13.002 29.8577C13.0043 31.7181 13.301 33.5077 13.8578 35.1817H18.9014V21.0002L29.8578 31.9565L40.8137 21.0002V35.182H45.8584C46.416 33.5081 46.7112 31.7185 46.7145 29.8579C46.7304 20.5492 39.1663 13.0022 29.8578 13.0022V13Z" fill="white"/>
<path d="M22.5566 29.6936V38.6174L15.4514 38.618C18.4103 43.4724 23.7577 46.7197 29.8577 46.7197C35.9577 46.7197 41.3054 43.4717 44.2648 38.6173H37.1577V29.6936L29.8571 36.9942L22.5566 29.6936Z" fill="white"/>
</svg>
