<svg width="60" height="60" viewBox="0 0 60 60" fill="none" xmlns="http://www.w3.org/2000/svg">
<path d="M0 16C0 7.16344 7.16344 0 16 0H44C52.8366 0 60 7.16344 60 16V44C60 52.8366 52.8366 60 44 60H16C7.16344 60 0 52.8366 0 44V16Z" fill="#777777"/>
<path d="M43.4336 14H48.9298L37.495 25.8671C33.3559 30.1628 26.6449 30.1628 22.5057 25.8671L11.0711 14H16.5672L25.2538 23.0151C27.8753 25.7357 32.1254 25.7357 34.747 23.0151L43.4336 14Z" fill="white"/>
<path d="M16.4961 47H11L22.5053 35.0596C26.6445 30.7639 33.3555 30.7639 37.4948 35.0596L49 47H43.5038L34.7466 37.9115C32.125 35.1909 27.8748 35.1909 25.2534 37.9115L16.4961 47Z" fill="white"/>
</svg>
