<svg id="Icons" xmlns="http://www.w3.org/2000/svg" viewBox="0 0 182.13 218.56"><defs><style>.cls-1{fill:#fee761;}.cls-2{fill:#feae34;}.cls-3{fill:#be4a2f;}.cls-4{fill:#fed451;}</style></defs><title>bitcourier</title><rect class="cls-1" x="48.58" y="169.99" width="12.14" height="12.15"/><rect class="cls-1" x="60.72" y="97.15" width="12.14" height="72.84"/><rect class="cls-1" x="60.72" y="12.14" width="12.14" height="60.71"/><rect class="cls-1" x="72.86" width="12.14" height="12.14"/><polygon class="cls-2" points="145.71 157.85 145.71 182.14 97.14 182.14 97.14 97.15 133.57 97.15 133.57 72.85 97.14 72.85 97.14 24.29 145.71 24.29 145.71 36.43 169.99 36.43 169.99 12.14 157.85 12.14 157.85 0 85 0 85 12.14 72.86 12.14 72.86 72.85 36.43 72.85 36.43 97.15 72.86 97.15 72.86 169.99 60.72 169.99 60.72 182.14 48.58 182.14 48.58 218.56 169.99 218.56 169.99 206.42 182.13 206.42 182.13 157.85 145.71 157.85"/><rect class="cls-3" x="121.42" y="157.85" width="24.29" height="24.29"/><polygon class="cls-3" points="36.43 97.15 36.43 169.99 24.29 169.99 24.29 182.14 12.14 182.14 12.14 218.56 36.43 218.56 36.43 182.14 48.58 182.14 48.58 169.99 60.72 169.99 60.72 97.15 36.43 97.15"/><rect class="cls-3" y="72.85" width="24.29" height="24.3"/><rect class="cls-3" x="121.42" y="24.29" width="24.29" height="12.14"/><polygon class="cls-3" points="48.58 0 48.58 12.14 36.43 12.14 36.43 72.85 60.72 72.85 60.72 12.14 72.86 12.14 72.86 0 48.58 0"/><rect class="cls-4" x="36.43" y="182.14" width="12.14" height="36.43"/><rect class="cls-4" x="24.29" y="72.85" width="12.15" height="24.3"/></svg>