<svg xmlns="http://www.w3.org/2000/svg" viewBox="0 0 478.4 93.5">
  <path fill="#339" d="M0,61.2V31.8L10.1,21.6H37.5L47.8,32v9.2H34.6V36.3l-3.5-3.5H16.7l-3.5,3.5V56.7l3.5,3.5H31.1l3.5-3.5V51.8H47.8V61L37.5,71.4H10.1Z"></path>
  <path fill="#339" d="M56.8,21.6H69v8.3l8-8.3H91.2V32.8H79.7L70,42.8V71.4H56.8Z"></path>
  <path fill="#339" d="M145,21.6V82.8L134.2,93.5H108l-9.3-9.2V77.5h13.2v3l1.9,2h14.6l3.4-3.5V64l-7.4,7.4H107.9L97.2,60.6v-39h13.2V56.7l3.4,3.5h8.7l9.3-9.9V21.6Z"></path>
  <path fill="#339" d="M157,21.6h12.2v7.3l7.3-7.3h19.4L206.2,32V61L195.9,71.4H176.6l-6.4-5.3V92.6H157Zm32.5,38.6,3.5-3.5V36.3l-3.5-3.5H178.2l-8,8.1V53.1l7.9,7.1Z"></path>
  <path fill="#339" d="M220.2,61.2V32.7h-9V21.6h9.2V5.4h13V21.6h15.2V32.8H233.4V56.9l3.4,3.3h11.8V71.4H230.5Z"></path>
  <path fill="#339" d="M253.1,21.6h13.4L272.2,53h.4l9-31.4h12L301.9,53h.4l6.3-31.4H322L309.1,71.4H296.8l-9.2-33.6h-.4l-9.8,33.6H265.1Z"></path>
  <path fill="#339" d="M328,61.2V32l10.3-10.4h28.1L376.8,32V50.9H341.2v6.4l3.2,3.3h16.3l3-3.1V54.9h13v6.5l-9.9,10H338.1Zm35.6-19.5V35.9l-3.4-3.5H344.6l-3.4,3.5v5.8Z"></path>
  <path fill="#339" d="M387.29,21.6h12.2v8.3l8-8.3h14.2V32.8h-11.5l-9.7,10V71.4h-13.2Z"></path>
  <path fill="#339" d="M428.19,0h13.2V39.9h8.7l12.7-18.3h14.6l-16.6,24,17.6,25.8h-14.6l-14-20.3h-8.4V71.4h-13.2Z"></path>
</svg>
