<?xml version="1.0" encoding="UTF-8"?>
<svg enable-background="new 0 0 199.9 53.3" version="1.1" viewBox="0 0 199.9 53.3" xml:space="preserve" xmlns="http://www.w3.org/2000/svg">
<style type="text/css">
	.st0{fill:#373536;}
	.st1{fill:#1F8ACA;}
	.st2{fill:#168ACB;}
	.st3{fill:#214A9C;}
	.st4{fill:#30C5F4;}
</style>



  <path class="st0" d="M73.3,16.6V5.1h-7V2.5h17v2.7h-7v11.4H73.3z"/>


  <path class="st0" d="m86.3 2.5h12.3c3.5 0 5.6 1.6 5.6 4.4 0 2-1.1 3.2-2.9 3.7 1.8 0.6 2.6 1.7 2.6 3.2v2.8h-3.1v-2.8c0-0.8-0.4-1.8-2.3-1.8h-9.2v4.6h-2.9v-14.1zm12.5 6.8c1.8 0 2.4-1.2 2.4-2.1s-0.6-2.1-2.4-2.1h-9.5v4.2h9.5z"/>


  <path class="st0" d="m127 16.6h-3.2l-1.8-3.5h-10.4l-1.8 3.5h-3.2l5.8-11.3c0.9-1.8 2-3 4.4-3s3.5 1.2 4.4 3l5.8 11.3zm-8.7-10.7c-0.3-0.6-0.7-1-1.5-1s-1.2 0.4-1.5 1l-2.4 4.6h7.7l-2.3-4.6z"/>


  <path class="st0" d="m130.1 2.5h11.6c5.1 0 6.8 2.4 6.8 7.1s-1.7 7.1-6.8 7.1h-11.6v-14.2zm11.6 2.9h-8.6v8.4h8.6c3.4 0 3.8-1.5 3.8-4.2s-0.4-4.2-3.8-4.2z"/>


  <path class="st0" d="m155.2 2.5v14.1h-2.9v-14.1h2.9z"/>


  <path class="st0" d="m162.6 16.6h-2.9v-14.1h2.1c3.8 0 4.8 1.2 8.4 6.1 3.4 4.6 3.6 5 5.1 5v-11.1h2.9v14.1h-2.1c-3.5 0-4.5-1.1-8.4-6.2-3.6-4.7-3.7-5-5.1-5v11.2z"/>


  <path class="st0" d="m200 8.9v7.7h-11.2c-5.1 0-6.8-2.4-6.8-7.1 0-4.6 1.7-7 6.8-7h11v2.9h-11c-3.4 0-3.8 1.5-3.8 4.2s0.4 4.2 3.8 4.2h8.2v-4.9h3z"/>


  <path class="st1" d="m66.6 29c0 4.9 1.6 7 5.4 7h8.7v-3.1h-8.7c-2 0-2.6-1-2.7-2.5h11.2v-2.9h-11.3c0.2-1.6 0.7-2.5 2.7-2.5h8.7v-3h-8.7c-3.7 0-5.3 2.1-5.3 7z"/>
  <path class="st1" d="m92.4 22h-9v14h9c3.7 0 5.3-2.1 5.3-7s-1.6-7-5.3-7zm2.7 7c0 2.7-0.4 3.9-2.7 3.9h-6.4v-7.8h6.4c2.3 0 2.7 1.1 2.7 3.9z"/>
  <path class="st1" d="m111.2 29.2c0 3.2-0.8 3.9-4.3 3.9s-4.3-0.7-4.3-3.9v-7.2h-2.6v7.2c0 5 1.9 7 6.8 7s6.8-2 6.8-7v-7.2h-2.6v7.2z"/>
  <path class="st1" d="m116.2 29c0 4.9 1.6 7 5.4 7h8.7v-3.1h-8.7c-2.4 0-2.7-1.1-2.7-3.9s0.4-3.9 2.7-3.9h8.7v-3.1h-8.7c-3.8 0-5.4 2.1-5.4 7z"/>
  <path class="st1" d="m139.7 21.8c-1.9 0-2.8 1.2-3.5 3l-4.5 11.2h2.8l1.4-3.4h7.7l1.4 3.4h2.8l-4.5-11.2c-0.9-1.8-1.7-3-3.6-3zm2.7 7.9h-5.4l1.7-4.3c0.2-0.6 0.5-0.8 1-0.8s0.7 0.2 1 0.8l1.7 4.3z"/>
  <polygon class="st1" points="147.1 24.9 152.4 24.9 152.4 36 155 36 155 24.9 160.4 24.9 160.4 22 147.1 22"/>
  <rect class="st1" x="162.4" y="22" width="2.6" height="14"/>
  <path class="st1" d="m175.2 21.8c-5.5 0-7.7 2.1-7.7 7.2s2.2 7.2 7.7 7.2 7.7-2.1 7.7-7.2c0.1-5.1-2.2-7.2-7.7-7.2zm5.1 7.2c0 3.6-1.5 4.2-5.1 4.2s-5.1-0.6-5.1-4.2 1.5-4.2 5.1-4.2 5.1 0.6 5.1 4.2z"/>
  <path class="st1" d="m197.4 22v10.8c-0.9 0-1.2-0.4-3.6-4.7-2.7-4.8-3.6-6-6.6-6h-1.8v14h2.6v-10.9c0.8 0 1 0.3 3.3 4.1l0.4 0.6c2.9 4.8 3.8 6.1 6.5 6.1h1.8v-14h-2.6z"/>




  <path class="st0" d="m71.3 45.6-0.2 1h-0.1c-0.7-0.4-1.2-0.6-1.8-0.6-1.4 0-2 0.8-2 2.6 0 1.7 0.6 2.4 2 2.4 0.3 0 0.6-0.1 1.1-0.2v-0.7-1l1-0.1v0.9 1.5c-0.9 0.3-1.6 0.4-2.2 0.4-2.1 0-3-1.2-3-3.3 0-2.3 1.2-3.5 3.3-3.5 0.6 0.1 1.2 0.2 1.9 0.6z"/>


  <path class="st0" d="m76.2 51.8h-3.4l0.1-2-0.1-4.6h1.1l-0.1 4.5v1.2h2.4l0.1 0.1-0.1 0.8z"/>


  <path class="st0" d="m82.2 48.4c0 2.3-1.1 3.5-3 3.5-1.8 0-2.8-1.2-2.8-3.3 0-2.2 1.1-3.5 3-3.5 1.8 0 2.8 1.2 2.8 3.3zm-4.8 0c0 1.8 0.6 2.6 1.8 2.6s1.9-0.8 1.9-2.5c0-1.8-0.6-2.6-1.8-2.6-1.3 0.1-1.9 0.8-1.9 2.5z"/>


  <path class="st0" d="m88 50c0 1.3-1 1.9-2.8 1.9h-1.6l0.1-2-0.1-4.6h2.1c1.3 0 2 0.6 2 1.6 0 0.7-0.4 1.3-1 1.6 0.9 0.1 1.3 0.6 1.3 1.5zm-1.1-0.1c0-0.6-0.4-0.9-1.1-1h-1.2v0.9 1.3h0.7c1-0.1 1.6-0.5 1.6-1.2zm-1.6-3.9h-0.7v2h1.1c0.6-0.1 0.9-0.5 0.9-1.1-0.1-0.6-0.4-0.9-1.3-0.9z"/>


  <path class="st0" d="m93.2 51.8-0.2-0.7-0.3-0.9h-1.4-1.3l-0.4 1.6h-1.1l2.4-6.6h1.2l2.1 6.6h-1zm-1.7-5.6-1.2 3.1h1 1.1l-0.9-3.1z"/>


  <path class="st0" d="m98.8 51.8h-3.4l0.1-2-0.1-4.6h1.1l-0.1 4.5v1.2h2.4l0.1 0.1-0.1 0.8z"/>


  <path class="st0" d="m102.7 48.1h1 1.1l0.1 0.1-0.1 0.8h-1.2-1v0.7l0.1 2.1h-1.1l0.1-2-0.1-4.6h3.7l0.1 0.1-0.1 0.8-1.5-0.1h-1.1v2.1z"/>


  <path class="st0" d="m107.4 51.8h-1.1l0.1-2-0.1-4.6h1.1l-0.1 4.5 0.1 2.1z"/>


  <path class="st0" d="m114.5 51.8h-1.1l-3.1-5h-0.1v2.7l0.1 2.2h-1l0.1-2-0.1-4.7h1.1l3.1 5h0.1v-4.9l1-0.1-0.1 4.7v2.1z"/>


  <path class="st0" d="m120.2 51.8-0.2-0.7-0.3-0.9h-1.4-1.3l-0.3 0.9-0.2 0.8h-1.1l2.4-6.6h1.2l2.1 6.6h-0.9zm-1.6-5.6-1.2 3.1h1 1.1l-0.9-3.1z"/>


  <path class="st0" d="m127.8 51.8h-1.1l-3.1-5h-0.1v2.7l0.1 2.2h-1l0.1-2-0.1-4.7h1.1l3.1 5h0.1v-4.9l1-0.1-0.1 4.7v2.1z"/>


  <path class="st0" d="m133.9 45.6-0.2 0.9h-0.1c-0.4-0.3-0.9-0.5-1.5-0.5-1.2 0-1.9 0.8-1.9 2.4 0 1.7 0.7 2.5 1.9 2.5 0.6 0 1.2-0.2 1.7-0.6l0.1 0.1-0.1 1c-0.6 0.3-1.1 0.4-1.8 0.4-1.9 0-2.9-1.2-2.9-3.3 0-2.2 1.1-3.4 3-3.4 0.7 0 1.3 0.2 1.8 0.5z"/>


  <path class="st0" d="m136.2 51.8h-1.1l0.1-2-0.1-4.6h1.1l-0.1 4.5 0.1 2.1z"/>


  <path class="st0" d="m141.9 51.8-0.2-0.7-0.3-0.9h-1.4-1.3l-0.3 0.9-0.2 0.8h-1.1l2.4-6.6h1.2l2.1 6.6h-0.9zm-1.7-5.6-1.2 3.1h1 1.1l-0.9-3.1z"/>


  <path class="st0" d="m147.5 51.8h-3.4l0.1-2-0.1-4.6h1.1l-0.1 4.5v1.2h2.4l0.1 0.1-0.1 0.8z"/>


  <path class="st0" d="m154.3 51-0.1 0.8h-3.9l0.1-2-0.1-4.6h3.9l0.1 0.1-0.1 0.8h-1.6-1.3v1.9h1.2 1.1l0.1 0.1-0.1 0.8h-1.2-1.1v0.9 1.2h1.3 1.7z"/>


  <path class="st0" d="m158 45.1c1.9 0 3 1.1 3 3.1 0 2.3-1.2 3.6-3.2 3.6-0.4 0-1.6 0-2.2-0.1l0.1-2-0.1-4.6h2.4zm1.8 3.4c0-1.7-0.6-2.5-1.9-2.5h-1.4l-0.1 3.7v1.2c0.5 0 1.1 0.1 1.4 0.1 1.3 0 2-0.8 2-2.5z"/>


  <path class="st0" d="m167.1 49.3c0 1.6-0.9 2.6-2.6 2.6-1.6 0-2.5-0.9-2.5-2.5v-0.9-3.3h1.1v4.1c0 1.2 0.5 1.7 1.5 1.7s1.5-0.5 1.5-1.6l-0.1-4.2h1.1v3.4 0.7z"/>


  <path class="st0" d="m173.1 45.6-0.2 0.9h-0.1c-0.4-0.3-0.9-0.5-1.5-0.5-1.2 0-1.9 0.8-1.9 2.4 0 1.7 0.7 2.5 1.9 2.5 0.6 0 1.2-0.2 1.7-0.6l0.1 0.1-0.1 1c-0.6 0.3-1.1 0.4-1.8 0.4-1.9 0-2.9-1.2-2.9-3.3 0-2.2 1.1-3.4 3-3.4 0.7 0 1.3 0.2 1.8 0.5z"/>


  <path class="st0" d="m178.1 51.8-0.2-0.7-0.3-0.9h-1.4-1.3l-0.3 0.9-0.2 0.8h-1.1l2.4-6.6h1.2l2.1 6.6h-0.9zm-1.6-5.6-1.2 3.1h1 1.1l-0.9-3.1z"/>


  <path class="st0" d="m183.8 46.1-1.2-0.1h-0.6l-0.1 3.7 0.1 2.1h-1l0.1-2-0.1-3.8h-0.6l-1.2 0.1-0.1-0.1 0.1-0.8h4.6l0.1 0.1-0.1 0.8z"/>


  <path class="st0" d="m186.1 51.8h-1.1l0.1-2-0.1-4.6h1.1l-0.1 4.5 0.1 2.1z"/>


  <path class="st0" d="m193.3 48.4c0 2.3-1.1 3.5-3 3.5-1.8 0-2.8-1.2-2.8-3.3 0-2.2 1.1-3.5 3-3.5 1.8 0 2.8 1.2 2.8 3.3zm-4.8 0c0 1.8 0.6 2.6 1.8 2.6s1.9-0.8 1.9-2.5c0-1.8-0.6-2.6-1.8-2.6-1.3 0.1-1.9 0.8-1.9 2.5z"/>


  <path class="st0" d="m199.9 51.8h-1.1l-3.1-5h-0.1v2.7l0.1 2.2h-1l0.1-2-0.1-4.7h1.1l3.1 5h0.1v-4.9l1-0.1-0.1 4.7v2.1z"/>



  <polygon class="st2" points="10.1 24.4 10.1 39.1 14.5 43.4 14.5 20.1"/>
  <polygon class="st3" points="18.8 24.4 18.8 39.1 14.5 43.4 14.5 20.1"/>
  <polygon class="st3" points="30.6 24.4 30.6 39.1 35 43.4 35 20.1"/>
  <polygon class="st4" points="39.3 24.4 39.3 39.1 35 43.4 35 20.1"/>

  <polygon class="st0" points="45.8 28.4 49.5 24.7 24.7 0 0 24.7 8.2 32.9 8.2 27 5.9 24.7 24.7 5.9 43.6 24.7 41.3 27 41.3 32.9 44.5 29.8"/>

  <polygon class="st2" points="16.6 17.5 16.6 45.2 24.7 53.3 24.7 9.3"/>
  <polygon class="st4" points="32.9 17.5 32.9 45.2 24.7 53.3 24.7 9.3"/>

  <polygon class="st0" points="44.8 32.9 48 29.7 50.1 48.7 46.9 43.2 43.7 48.7"/>



</svg>
