<svg width="36" height="36" viewBox="0 0 36 36" fill="none" xmlns="http://www.w3.org/2000/svg">
<path d="M36 4.12509C36 1.84955 34.1505 0 31.8749 0H4.12509C1.84955 0 0 1.84955 0 4.12509V31.8749C0 34.1505 1.84955 36 4.12509 36H31.8749C34.1505 36 36 34.1505 36 31.8749V4.12509Z" fill="#4CAF50"/>
<path d="M27.1224 12.0674C27.7088 12.6538 27.7088 13.6017 27.1224 14.1884L17.3723 23.9382C17.0798 24.2307 16.6959 24.3779 16.3119 24.3779C15.9279 24.3779 15.5439 24.2307 15.2514 23.9382L10.3765 19.0633C9.78986 18.4769 9.78986 17.5287 10.3765 16.9424C10.9629 16.3557 11.9108 16.3557 12.4974 16.9424L16.3119 20.7568L25.0015 12.0674C25.5879 11.4808 26.5358 11.4808 27.1224 12.0674Z" fill="#FAFAFA"/>
</svg>
