<?xml version="1.0" standalone="no"?>
<!DOCTYPE svg PUBLIC "-//W3C//DTD SVG 20010904//EN"
 "http://www.w3.org/TR/2001/REC-SVG-20010904/DTD/svg10.dtd">
<svg version="1.0" xmlns="http://www.w3.org/2000/svg"
 width="400.000000pt" height="140.000000pt" viewBox="0 0 400.000000 140.000000"
 preserveAspectRatio="xMidYMid meet">

<g transform="translate(0.000000,140.000000) scale(0.100000,-0.100000)"
fill="#000000" stroke="none">
<path d="M0 695 l0 -305 320 0 320 0 0 305 0 305 -320 0 -320 0 0 -305z m403
17 c42 -70 77 -131 77 -135 0 -4 -72 -7 -160 -7 -88 0 -160 3 -160 8 0 10 153
262 160 262 3 0 40 -57 83 -128z"/>
<path d="M1280 905 c-19 -23 -4 -64 27 -71 14 -4 33 -2 42 3 20 13 26 50 11
69 -16 18 -64 18 -80 -1z"/>
<path d="M2470 700 l0 -200 45 0 45 0 0 200 0 200 -45 0 -45 0 0 -200z"/>
<path d="M3390 701 l0 -201 40 0 c40 0 40 0 40 38 0 34 22 72 42 72 2 0 22
-25 44 -55 38 -53 40 -55 87 -55 55 0 57 -6 -22 98 l-54 73 59 60 58 59 -45 0
c-41 0 -51 -5 -107 -56 l-61 -55 -3 108 -3 108 -37 3 -38 3 0 -200z"/>
<path d="M920 690 l0 -190 40 0 39 0 3 68 3 67 88 3 88 3 -3 32 -3 32 -87 3
-88 3 0 44 0 45 101 0 100 0 -3 38 -3 37 -137 3 -138 3 0 -191z"/>
<path d="M2094 867 c-2 -7 -3 -91 -2 -187 l3 -175 43 -3 c34 -3 42 0 42 14 0
16 1 16 18 1 26 -24 75 -31 116 -17 99 32 128 170 52 246 -44 44 -93 53 -146
26 l-40 -19 0 63 0 64 -40 0 c-24 0 -43 -5 -46 -13z m210 -169 c25 -35 20 -94
-9 -123 -30 -30 -54 -31 -89 -4 -21 16 -26 29 -26 63 0 59 22 86 70 86 29 0
43 -6 54 -22z"/>
<path d="M2747 786 c-51 -19 -73 -40 -92 -91 -38 -98 38 -195 153 -195 163 0
208 204 62 278 -51 25 -70 27 -123 8z m112 -92 c28 -35 26 -69 -4 -99 -49 -50
-125 -20 -125 50 0 72 86 104 129 49z"/>
<path d="M3126 790 c-89 -28 -133 -140 -86 -218 52 -85 186 -99 253 -25 17 19
16 20 -17 38 -33 18 -36 18 -54 2 -29 -26 -77 -22 -101 9 -12 15 -21 37 -21
49 0 12 9 34 21 49 24 30 71 35 107 11 19 -14 24 -14 51 0 36 18 32 36 -13 64
-39 24 -101 33 -140 21z"/>
<path d="M1280 646 l0 -146 45 0 46 0 -3 143 -3 142 -42 3 -43 3 0 -145z"/>
<path d="M1470 645 l0 -145 40 0 40 0 0 79 c0 89 19 127 68 133 23 3 27 8 30
41 3 34 1 37 -23 37 -14 0 -37 -7 -50 -16 -23 -15 -25 -15 -25 0 0 12 -10 16
-40 16 l-40 0 0 -145z"/>
<path d="M1776 770 c-89 -58 -86 -203 5 -252 42 -23 129 -24 175 -2 40 19 41
24 12 52 -21 18 -26 19 -48 7 -14 -8 -37 -14 -51 -15 -27 0 -79 34 -79 51 0 5
50 9 111 9 l112 0 -7 41 c-9 58 -31 96 -66 114 -42 22 -128 19 -164 -5z m134
-60 c33 -33 24 -40 -50 -40 -38 0 -70 3 -70 7 0 4 10 17 22 30 27 29 71 30 98
3z"/>
<path d="M3804 780 c-28 -11 -64 -58 -64 -82 0 -33 51 -75 101 -83 66 -10 79
-15 79 -30 0 -27 -63 -31 -136 -10 -15 5 -23 0 -32 -20 -16 -34 -17 -31 19
-44 46 -16 145 -14 179 4 90 47 53 144 -60 160 -53 7 -75 29 -49 46 14 10 70
7 101 -6 12 -5 21 1 32 23 14 28 14 30 -10 41 -29 13 -129 14 -160 1z"/>
</g>
</svg>
