<?xml version="1.0" standalone="no"?>
<!DOCTYPE svg PUBLIC "-//W3C//DTD SVG 20010904//EN"
 "http://www.w3.org/TR/2001/REC-SVG-20010904/DTD/svg10.dtd">
<svg version="1.0" xmlns="http://www.w3.org/2000/svg"
 width="400.000000pt" height="400.000000pt" viewBox="0 0 400.000000 400.000000"
 preserveAspectRatio="xMidYMid meet">

<g transform="translate(0.000000,400.000000) scale(0.100000,-0.100000)"
fill="#000000" stroke="none">
<path d="M0 2000 l0 -2000 2000 0 2000 0 0 2000 0 2000 -2000 0 -2000 0 0
-2000z m3217 1167 l28 -27 3 -1123 c2 -1054 1 -1124 -15 -1157 -10 -19 -29
-40 -43 -47 -20 -10 -274 -12 -1202 -10 l-1178 2 -27 28 -28 27 0 1139 c0
1125 0 1139 20 1161 11 12 29 26 40 31 11 4 550 7 1197 6 l1178 -2 27 -28z"/>
<path d="M1653 2001 l-341 -526 344 -3 c189 -1 499 -1 688 0 l343 3 -336 517
c-185 284 -340 521 -346 526 -7 7 -129 -174 -352 -517z"/>
</g>
</svg>
