<svg width="20" height="20" viewBox="0 0 20 20" fill="none" xmlns="http://www.w3.org/2000/svg">
<g clip-path="url(#clip0_6494_24970)">
<circle cx="9.99935" cy="9.9974" r="9.33333" fill="url(#paint0_linear_6494_24970)"/>
<circle cx="10.0004" cy="9.99653" r="7.27778" stroke="white" stroke-opacity="0.37"/>
<path d="M9.1161 8.8533H10.0059C10.2337 8.8533 10.42 8.81351 10.5647 8.73394C10.713 8.65075 10.8233 8.53501 10.8956 8.38672C10.968 8.23481 11.0041 8.05577 11.0041 7.84961C11.0041 7.69047 10.9698 7.54398 10.901 7.41016C10.8359 7.27633 10.7347 7.16963 10.5972 7.09006C10.4598 7.00687 10.2844 6.96528 10.071 6.96528C9.92629 6.96528 9.78523 6.99602 9.64779 7.05751C9.51034 7.11538 9.39641 7.19857 9.30599 7.30707C9.21918 7.41558 9.17578 7.5476 9.17578 7.70312H7.34201C7.34201 7.25463 7.46499 6.87124 7.71094 6.55295C7.9605 6.23105 8.28783 5.9851 8.69293 5.8151C9.10163 5.64149 9.54109 5.55469 10.0113 5.55469C10.5719 5.55469 11.0638 5.64149 11.487 5.8151C11.9102 5.9851 12.2393 6.23828 12.4744 6.57465C12.7131 6.90741 12.8325 7.31973 12.8325 7.81163C12.8325 8.0829 12.7692 8.33789 12.6426 8.57661C12.516 8.81532 12.3388 9.0251 12.1109 9.20595C11.883 9.38679 11.6154 9.52966 11.3079 9.63455C11.0041 9.73582 10.6714 9.78646 10.3097 9.78646H9.1161V8.8533ZM9.1161 10.2151V9.3036H10.3097C10.7039 9.3036 11.0638 9.34881 11.3893 9.43924C11.7148 9.52604 11.9952 9.65625 12.2303 9.82986C12.4654 10.0035 12.6462 10.2187 12.7728 10.4755C12.8994 10.7287 12.9627 11.0198 12.9627 11.349C12.9627 11.7179 12.8885 12.047 12.7402 12.3364C12.5919 12.6257 12.384 12.8699 12.1163 13.0688C11.8487 13.2677 11.5358 13.4196 11.1777 13.5245C10.8197 13.6258 10.4308 13.6764 10.0113 13.6764C9.68215 13.6764 9.35301 13.633 9.02387 13.5462C8.69473 13.4558 8.39453 13.3184 8.12326 13.1339C7.852 12.9458 7.63317 12.7071 7.4668 12.4178C7.30404 12.1248 7.22266 11.7758 7.22266 11.3707H9.05642C9.05642 11.537 9.10163 11.6889 9.19206 11.8264C9.2861 11.9602 9.41088 12.0669 9.56641 12.1465C9.72193 12.2261 9.89012 12.2658 10.071 12.2658C10.2952 12.2658 10.4851 12.2242 10.6406 12.1411C10.7998 12.0543 10.9209 11.9385 11.0041 11.7938C11.0873 11.6492 11.1289 11.4882 11.1289 11.311C11.1289 11.0433 11.0837 10.8299 10.9933 10.6708C10.9065 10.5116 10.7781 10.3959 10.6081 10.3236C10.4417 10.2512 10.241 10.2151 10.0059 10.2151H9.1161Z" fill="white"/>
</g>
<defs>
<linearGradient id="paint0_linear_6494_24970" x1="9.99935" y1="0.664062" x2="9.99935" y2="19.3307" gradientUnits="userSpaceOnUse">
<stop stop-color="#AA7A64"/>
<stop offset="1" stop-color="#E2D2CA"/>
</linearGradient>
<clipPath id="clip0_6494_24970">
<rect width="20" height="20" fill="white"/>
</clipPath>
</defs>
</svg>
