<svg width="20" height="20" viewBox="0 0 20 20" fill="none" xmlns="http://www.w3.org/2000/svg">
<g clip-path="url(#clip0_6494_33477)">
<path d="M10.0056 10.6196C9.26719 10.6196 8.54539 10.4007 7.93145 9.99044C7.3175 9.58022 6.83899 8.99715 6.55643 8.31497C6.27386 7.6328 6.19993 6.88215 6.34398 6.15795C6.48803 5.43376 6.8436 4.76854 7.36571 4.24642C7.88783 3.72431 8.55304 3.36874 9.27724 3.22469C10.0014 3.08064 10.7521 3.15457 11.4343 3.43714C12.1164 3.71971 12.6995 4.19822 13.1097 4.81216C13.52 5.4261 13.7389 6.14791 13.7389 6.88629C13.7389 7.87643 13.3456 8.82602 12.6454 9.52615C11.9453 10.2263 10.9957 10.6196 10.0056 10.6196ZM10.0056 4.3974C9.51332 4.3974 9.03212 4.54337 8.62282 4.81685C8.21353 5.09034 7.89452 5.47905 7.70614 5.93383C7.51777 6.38862 7.46848 6.88905 7.56451 7.37185C7.66055 7.85464 7.89759 8.29812 8.24567 8.6462C8.59374 8.99428 9.03722 9.23132 9.52002 9.32735C10.0028 9.42339 10.5032 9.3741 10.958 9.18572C11.4128 8.99734 11.8015 8.67834 12.075 8.26904C12.3485 7.85975 12.4945 7.37854 12.4945 6.88629C12.4945 6.22619 12.2322 5.59314 11.7655 5.12638C11.2987 4.65962 10.6657 4.3974 10.0056 4.3974Z" fill="#4785EF"/>
<path d="M10.0056 19.3307C8.62576 19.3298 7.26332 19.023 6.01633 18.4323C4.76934 17.8416 3.66883 16.9818 2.79402 15.9147L2.47047 15.5165L2.79402 15.1245C3.66956 14.0588 4.7704 13.2005 6.01735 12.6111C7.2643 12.0218 8.62637 11.7161 10.0056 11.7161C11.3848 11.7161 12.7469 12.0218 13.9938 12.6111C15.2408 13.2005 16.3416 14.0588 17.2171 15.1245L17.5407 15.5165L17.2171 15.9147C16.3423 16.9818 15.2418 17.8416 13.9948 18.4323C12.7478 19.023 11.3854 19.3298 10.0056 19.3307ZM4.10069 15.5227C4.85746 16.3329 5.77268 16.9788 6.78954 17.4204C7.8064 17.8621 8.90318 18.0899 10.0118 18.0899C11.1204 18.0899 12.2172 17.8621 13.2341 17.4204C14.2509 16.9788 15.1661 16.3329 15.9229 15.5227C15.1661 14.7126 14.2509 14.0667 13.2341 13.625C12.2172 13.1834 11.1204 12.9555 10.0118 12.9555C8.90318 12.9555 7.8064 13.1834 6.78954 13.625C5.77268 14.0667 4.85746 14.7126 4.10069 15.5227Z" fill="#4785EF"/>
<path d="M10.0056 19.3307C7.88551 19.3321 5.82812 18.6117 4.17205 17.288C2.51598 15.9644 1.3599 14.1163 0.89409 12.0481C0.428283 9.97979 0.680505 7.81456 1.60924 5.90875C2.53798 4.00293 4.0879 2.47009 6.00388 1.56252C7.91987 0.654944 10.0878 0.42672 12.1507 0.915408C14.2137 1.4041 16.0488 2.58057 17.3541 4.25121C18.6593 5.92184 19.3569 7.98708 19.332 10.107C19.3071 12.2269 18.5613 14.2752 17.2171 15.9147C16.3423 16.9818 15.2418 17.8416 13.9948 18.4323C12.7478 19.023 11.3854 19.3298 10.0056 19.3307ZM10.0056 1.90851C8.40575 1.90851 6.84184 2.38292 5.51163 3.27174C4.18142 4.16055 3.14465 5.42387 2.53242 6.90192C1.92019 8.37997 1.76 10.0064 2.07212 11.5755C2.38423 13.1446 3.15462 14.5859 4.28587 15.7171C5.41712 16.8484 6.85842 17.6187 8.42751 17.9309C9.9966 18.243 11.623 18.0828 13.1011 17.4706C14.5791 16.8583 15.8424 15.8216 16.7312 14.4913C17.6201 13.1611 18.0945 11.5972 18.0945 9.9974C18.0945 7.85209 17.2422 5.79465 15.7253 4.27769C14.2083 2.76073 12.1509 1.90851 10.0056 1.90851Z" fill="#4785EF"/>
<path d="M3.27313 15.5227C3.27313 15.5227 9.53891 22.5227 15.9167 16.2196L16.738 15.5227C16.738 15.5227 11.4118 9.9974 6.00469 13.3138L3.27313 15.5227Z" fill="#4785EF"/>
<path d="M10.0056 9.9974C11.7238 9.9974 13.1167 8.60451 13.1167 6.88629C13.1167 5.16807 11.7238 3.77518 10.0056 3.77518C8.28736 3.77518 6.89447 5.16807 6.89447 6.88629C6.89447 8.60451 8.28736 9.9974 10.0056 9.9974Z" fill="#4785EF"/>
</g>
<defs>
<clipPath id="clip0_6494_33477">
<rect width="20" height="20" fill="white"/>
</clipPath>
</defs>
</svg>
