<svg width="20" height="20" viewBox="0 0 20 20" fill="none" xmlns="http://www.w3.org/2000/svg">
<g clip-path="url(#clip0_6494_3225)">
<circle cx="9.99935" cy="9.9974" r="9.33333" fill="url(#paint0_linear_6494_3225)"/>
<circle cx="10.0004" cy="9.99653" r="7.27778" stroke="white" stroke-opacity="0.37"/>
<path d="M12.6671 12.1573V13.5679H7.15495V12.3743L9.69401 9.70508C9.91826 9.44828 10.0991 9.21861 10.2365 9.01606C10.374 8.8099 10.4735 8.62363 10.5349 8.45725C10.6 8.29087 10.6326 8.14077 10.6326 8.00694C10.6326 7.77908 10.5982 7.58919 10.5295 7.43728C10.4644 7.28176 10.3668 7.16421 10.2365 7.08464C10.11 7.00506 9.95262 6.96528 9.76454 6.96528C9.57646 6.96528 9.41189 7.01953 9.27083 7.12804C9.12977 7.23655 9.01946 7.38484 8.93989 7.57292C8.86393 7.761 8.82595 7.97258 8.82595 8.20768H6.99219C6.99219 7.72302 7.10974 7.27995 7.34484 6.87847C7.58355 6.477 7.9145 6.1569 8.33767 5.91819C8.76085 5.67585 9.25094 5.55469 9.80794 5.55469C10.3903 5.55469 10.8785 5.64511 11.2728 5.82595C11.667 6.0068 11.9636 6.26902 12.1625 6.61263C12.3651 6.95262 12.4664 7.36314 12.4664 7.84418C12.4664 8.11907 12.423 8.3831 12.3362 8.63628C12.2493 8.88947 12.1246 9.14084 11.9618 9.39041C11.799 9.63636 11.6001 9.88954 11.365 10.15C11.1335 10.4104 10.8695 10.6871 10.5729 10.98L9.55295 12.1573H12.6671Z" fill="white"/>
</g>
<defs>
<linearGradient id="paint0_linear_6494_3225" x1="9.99935" y1="0.664062" x2="9.99935" y2="19.3307" gradientUnits="userSpaceOnUse">
<stop stop-color="#96A4BE"/>
<stop offset="1" stop-color="#E8E8E8"/>
</linearGradient>
<clipPath id="clip0_6494_3225">
<rect width="20" height="20" fill="white"/>
</clipPath>
</defs>
</svg>
