<svg width="30" height="30" viewBox="0 0 30 30" fill="none" xmlns="http://www.w3.org/2000/svg">
<g clip-path="url(#clip0_3928_6994)">
<path d="M10 15.3333C10 12.3878 12.3878 10 15.3333 10H24.6667C27.6122 10 30 12.3878 30 15.3333V24.6667C30 27.6122 27.6122 30 24.6667 30H15.3333C12.3878 30 10 27.6122 10 24.6667V15.3333Z" fill="#012169"/>
<mask id="mask0_3928_6994" style="mask-type:alpha" maskUnits="userSpaceOnUse" x="9" y="10" width="25" height="24">
<path d="M9.66669 16.3111C9.66669 12.8256 12.4923 10 15.9778 10H27.0222C30.5078 10 33.3334 12.8256 33.3334 16.3111V27.3556C33.3334 30.8411 30.5078 33.6667 27.0222 33.6667H15.9778C12.4923 33.6667 9.66669 30.8411 9.66669 27.3556V16.3111Z" fill="#2055AE"/>
</mask>
<g mask="url(#mask0_3928_6994)">
<rect x="8.48334" y="10" width="33.1333" height="23.6667" fill="white"/>
<path d="M8.48334 10H41.6167V11.5778H8.48334V10Z" fill="#D02F44"/>
<path d="M8.48334 13.1556H41.6167V14.7333H8.48334V13.1556Z" fill="#D02F44"/>
<path d="M8.48334 16.3111H41.6167V17.8889H8.48334V16.3111Z" fill="#D02F44"/>
<path d="M8.48334 19.4667H41.6167V21.0444H8.48334V19.4667Z" fill="#D02F44"/>
<path d="M8.48334 22.6222H41.6167V24.2H8.48334V22.6222Z" fill="#D02F44"/>
<path d="M8.48334 25.7778H41.6167V27.3556H8.48334V25.7778Z" fill="#D02F44"/>
<path d="M8.48334 28.9333H41.6167V30.5111H8.48334V28.9333Z" fill="#D02F44"/>
<path d="M8.48334 32.0889H41.6167V33.6667H8.48334V32.0889Z" fill="#D02F44"/>
<rect x="8.48334" y="10" width="14.2" height="11.0444" fill="#46467F"/>
<path fill-rule="evenodd" clip-rule="evenodd" d="M10.85 13.1555C11.2857 13.1555 11.6389 12.8023 11.6389 12.3666C11.6389 11.931 11.2857 11.5778 10.85 11.5778C10.4143 11.5778 10.0611 11.931 10.0611 12.3666C10.0611 12.8023 10.4143 13.1555 10.85 13.1555Z" fill="#DADADA"/>
<path fill-rule="evenodd" clip-rule="evenodd" d="M14.0055 13.1555C14.4412 13.1555 14.7944 12.8023 14.7944 12.3666C14.7944 11.931 14.4412 11.5778 14.0055 11.5778C13.5699 11.5778 13.2167 11.931 13.2167 12.3666C13.2167 12.8023 13.5699 13.1555 14.0055 13.1555Z" fill="#DADADA"/>
<path fill-rule="evenodd" clip-rule="evenodd" d="M17.1611 13.1555C17.5968 13.1555 17.95 12.8023 17.95 12.3666C17.95 11.931 17.5968 11.5778 17.1611 11.5778C16.7254 11.5778 16.3722 11.931 16.3722 12.3666C16.3722 12.8023 16.7254 13.1555 17.1611 13.1555Z" fill="#DADADA"/>
<path fill-rule="evenodd" clip-rule="evenodd" d="M20.3167 13.1555C20.7523 13.1555 21.1055 12.8023 21.1055 12.3666C21.1055 11.931 20.7523 11.5778 20.3167 11.5778C19.881 11.5778 19.5278 11.931 19.5278 12.3666C19.5278 12.8023 19.881 13.1555 20.3167 13.1555Z" fill="#DADADA"/>
<path fill-rule="evenodd" clip-rule="evenodd" d="M12.4278 14.7333C12.8635 14.7333 13.2167 14.3801 13.2167 13.9444C13.2167 13.5087 12.8635 13.1555 12.4278 13.1555C11.9921 13.1555 11.6389 13.5087 11.6389 13.9444C11.6389 14.3801 11.9921 14.7333 12.4278 14.7333Z" fill="#DADADA"/>
<path fill-rule="evenodd" clip-rule="evenodd" d="M15.5833 14.7334C16.019 14.7334 16.3722 14.3802 16.3722 13.9445C16.3722 13.5088 16.019 13.1556 15.5833 13.1556C15.1476 13.1556 14.7944 13.5088 14.7944 13.9445C14.7944 14.3802 15.1476 14.7334 15.5833 14.7334Z" fill="#DADADA"/>
<path fill-rule="evenodd" clip-rule="evenodd" d="M18.7389 14.7334C19.1746 14.7334 19.5278 14.3802 19.5278 13.9445C19.5278 13.5088 19.1746 13.1556 18.7389 13.1556C18.3032 13.1556 17.95 13.5088 17.95 13.9445C17.95 14.3802 18.3032 14.7334 18.7389 14.7334Z" fill="#DADADA"/>
<path fill-rule="evenodd" clip-rule="evenodd" d="M20.3167 16.311C20.7523 16.311 21.1055 15.9578 21.1055 15.5222C21.1055 15.0865 20.7523 14.7333 20.3167 14.7333C19.881 14.7333 19.5278 15.0865 19.5278 15.5222C19.5278 15.9578 19.881 16.311 20.3167 16.311Z" fill="#DADADA"/>
<path fill-rule="evenodd" clip-rule="evenodd" d="M17.1611 16.311C17.5968 16.311 17.95 15.9578 17.95 15.5222C17.95 15.0865 17.5968 14.7333 17.1611 14.7333C16.7254 14.7333 16.3722 15.0865 16.3722 15.5222C16.3722 15.9578 16.7254 16.311 17.1611 16.311Z" fill="#DADADA"/>
<path fill-rule="evenodd" clip-rule="evenodd" d="M14.0055 16.311C14.4412 16.311 14.7944 15.9578 14.7944 15.5222C14.7944 15.0865 14.4412 14.7333 14.0055 14.7333C13.5699 14.7333 13.2167 15.0865 13.2167 15.5222C13.2167 15.9578 13.5699 16.311 14.0055 16.311Z" fill="#DADADA"/>
<path fill-rule="evenodd" clip-rule="evenodd" d="M10.85 16.311C11.2857 16.311 11.6389 15.9578 11.6389 15.5222C11.6389 15.0865 11.2857 14.7333 10.85 14.7333C10.4143 14.7333 10.0611 15.0865 10.0611 15.5222C10.0611 15.9578 10.4143 16.311 10.85 16.311Z" fill="#DADADA"/>
<path fill-rule="evenodd" clip-rule="evenodd" d="M12.4278 17.8889C12.8634 17.8889 13.2166 17.5357 13.2166 17.1C13.2166 16.6643 12.8634 16.3111 12.4278 16.3111C11.9921 16.3111 11.6389 16.6643 11.6389 17.1C11.6389 17.5357 11.9921 17.8889 12.4278 17.8889Z" fill="#DADADA"/>
<path fill-rule="evenodd" clip-rule="evenodd" d="M15.5833 17.8889C16.019 17.8889 16.3722 17.5357 16.3722 17.1C16.3722 16.6643 16.019 16.3111 15.5833 16.3111C15.1476 16.3111 14.7944 16.6643 14.7944 17.1C14.7944 17.5357 15.1476 17.8889 15.5833 17.8889Z" fill="#DADADA"/>
<path fill-rule="evenodd" clip-rule="evenodd" d="M18.7389 17.8889C19.1746 17.8889 19.5278 17.5357 19.5278 17.1C19.5278 16.6643 19.1746 16.3111 18.7389 16.3111C18.3032 16.3111 17.95 16.6643 17.95 17.1C17.95 17.5357 18.3032 17.8889 18.7389 17.8889Z" fill="#DADADA"/>
<path fill-rule="evenodd" clip-rule="evenodd" d="M20.3167 19.4667C20.7523 19.4667 21.1055 19.1135 21.1055 18.6778C21.1055 18.2421 20.7523 17.8889 20.3167 17.8889C19.881 17.8889 19.5278 18.2421 19.5278 18.6778C19.5278 19.1135 19.881 19.4667 20.3167 19.4667Z" fill="#DADADA"/>
<path fill-rule="evenodd" clip-rule="evenodd" d="M17.1611 19.4667C17.5968 19.4667 17.95 19.1135 17.95 18.6778C17.95 18.2421 17.5968 17.8889 17.1611 17.8889C16.7254 17.8889 16.3722 18.2421 16.3722 18.6778C16.3722 19.1135 16.7254 19.4667 17.1611 19.4667Z" fill="#DADADA"/>
<path fill-rule="evenodd" clip-rule="evenodd" d="M14.0055 19.4667C14.4412 19.4667 14.7944 19.1135 14.7944 18.6778C14.7944 18.2421 14.4412 17.8889 14.0055 17.8889C13.5699 17.8889 13.2167 18.2421 13.2167 18.6778C13.2167 19.1135 13.5699 19.4667 14.0055 19.4667Z" fill="#DADADA"/>
<path fill-rule="evenodd" clip-rule="evenodd" d="M10.85 19.4667C11.2857 19.4667 11.6389 19.1135 11.6389 18.6778C11.6389 18.2421 11.2857 17.8889 10.85 17.8889C10.4143 17.8889 10.0611 18.2421 10.0611 18.6778C10.0611 19.1135 10.4143 19.4667 10.85 19.4667Z" fill="#DADADA"/>
</g>
</g>
<g clip-path="url(#clip1_3928_6994)">
<path d="M0 5.33333C0 2.38781 2.38781 0 5.33333 0H14.6667C17.6122 0 20 2.38781 20 5.33333V14.6667C20 17.6122 17.6122 20 14.6667 20H5.33333C2.38781 20 0 17.6122 0 14.6667V5.33333Z" fill="#0033AD"/>
<path d="M6.3841 10.2781C6.3677 10.5615 6.46537 10.8398 6.65565 11.0518C6.84593 11.2637 7.11326 11.3921 7.39889 11.4087H7.45776C7.66812 11.4084 7.87381 11.3471 8.04945 11.2322C8.22508 11.1174 8.36297 10.954 8.44609 10.7623C8.52922 10.5706 8.55394 10.3589 8.51721 10.1535C8.48047 9.94797 8.3839 9.75765 8.23939 9.60599C8.09489 9.45433 7.90879 9.34796 7.70405 9.30002C7.49931 9.25207 7.2849 9.26464 7.08729 9.33619C6.88967 9.40773 6.7175 9.53511 6.59201 9.70261C6.46653 9.87011 6.39323 10.0704 6.38116 10.2787L6.3841 10.2781Z" fill="white"/>
<path d="M2.36732 10.0072C2.29864 10.0034 2.23037 10.0199 2.17113 10.0545C2.11189 10.0892 2.06433 10.1405 2.03448 10.202C2.00462 10.2634 1.99381 10.3323 2.0034 10.3999C2.01299 10.4675 2.04255 10.5307 2.08835 10.5816C2.13416 10.6325 2.19414 10.6688 2.26073 10.6859C2.32732 10.703 2.39752 10.7001 2.46246 10.6776C2.52741 10.6551 2.58418 10.6141 2.6256 10.5596C2.66702 10.5051 2.69123 10.4397 2.69518 10.3716C2.69789 10.3263 2.69154 10.2809 2.67651 10.238C2.66147 10.1951 2.63805 10.1557 2.60759 10.1218C2.57712 10.0879 2.54021 10.0604 2.49898 10.0407C2.45774 10.021 2.413 10.0097 2.36732 10.0072Z" fill="white"/>
<path d="M6.31582 4.07608C6.37698 4.04492 6.42749 3.99651 6.46098 3.93694C6.49446 3.87736 6.50944 3.80929 6.50402 3.7413C6.49859 3.6733 6.47301 3.60841 6.4305 3.55481C6.38798 3.5012 6.33043 3.46127 6.26509 3.44004C6.19975 3.41881 6.12954 3.41723 6.06329 3.4355C5.99705 3.45377 5.93773 3.49108 5.89281 3.54272C5.84789 3.59436 5.81938 3.65803 5.81086 3.72572C5.80233 3.7934 5.81419 3.86207 5.84492 3.92309C5.86558 3.96393 5.89418 4.00031 5.92908 4.03013C5.96398 4.05996 6.00448 4.08263 6.04826 4.09686C6.09203 4.11108 6.13821 4.11656 6.18413 4.113C6.23005 4.10943 6.27481 4.09689 6.31582 4.07608Z" fill="white"/>
<path d="M7.4089 5.96689C7.50389 5.91936 7.58254 5.84495 7.63491 5.75308C7.68728 5.6612 7.71101 5.55599 7.70311 5.45074C7.69521 5.34548 7.65604 5.24492 7.59053 5.16175C7.52503 5.07858 7.43614 5.01655 7.3351 4.98349C7.23406 4.95044 7.12541 4.94784 7.02289 4.97603C6.92036 5.00422 6.82857 5.06193 6.7591 5.14188C6.68963 5.22182 6.64562 5.32039 6.63262 5.42515C6.61962 5.5299 6.63822 5.63613 6.68607 5.73039C6.71786 5.79303 6.76177 5.84883 6.81531 5.89461C6.86885 5.9404 6.93096 5.97527 6.99808 5.99723C7.06521 6.0192 7.13604 6.02782 7.20653 6.02261C7.27702 6.01741 7.34579 5.99847 7.4089 5.96689Z" fill="white"/>
<path d="M3.73058 7.26733C3.80384 7.31513 3.88976 7.3403 3.97744 7.33964C4.06513 7.33899 4.15065 7.31255 4.22319 7.26366C4.29572 7.21477 4.35201 7.14564 4.38493 7.06501C4.41785 6.98438 4.42592 6.89588 4.40812 6.81069C4.39032 6.72551 4.34745 6.64748 4.28494 6.58648C4.22242 6.52547 4.14307 6.48423 4.05693 6.46798C3.97078 6.45172 3.88171 6.46119 3.80099 6.49516C3.72026 6.52914 3.65151 6.58611 3.60343 6.65887C3.53904 6.7563 3.51626 6.87511 3.5401 6.9892C3.56394 7.10328 3.63245 7.20332 3.73058 7.26733Z" fill="white"/>
<path d="M4.38572 9.81275C4.2795 9.8068 4.1739 9.83223 4.08224 9.88581C3.99059 9.93939 3.91701 10.0187 3.8708 10.1138C3.8246 10.2089 3.80783 10.3154 3.82263 10.4199C3.83744 10.5244 3.88314 10.6222 3.95396 10.701C4.02479 10.7797 4.11756 10.8359 4.22054 10.8623C4.32353 10.8888 4.43211 10.8843 4.53256 10.8496C4.63301 10.8148 4.72082 10.7513 4.78489 10.6671C4.84896 10.5828 4.88642 10.4816 4.89252 10.3763C4.90056 10.2349 4.85169 10.0961 4.75667 9.99045C4.66164 9.8848 4.52822 9.82088 4.38572 9.81275Z" fill="white"/>
<path d="M3.78944 13.4011C3.71121 13.4403 3.64647 13.5016 3.60338 13.5774C3.5603 13.6531 3.54081 13.7398 3.54738 13.8265C3.55395 13.9132 3.58628 13.996 3.64029 14.0645C3.6943 14.133 3.76757 14.184 3.85082 14.2112C3.93408 14.2384 4.02359 14.2405 4.10804 14.2172C4.19248 14.1939 4.26808 14.1463 4.32526 14.0804C4.38245 14.0145 4.41866 13.9333 4.42931 13.847C4.43997 13.7607 4.42459 13.6732 4.38513 13.5955C4.3589 13.5439 4.32269 13.498 4.27855 13.4603C4.23442 13.4226 4.18323 13.3939 4.1279 13.3758C4.07258 13.3578 4.01422 13.3507 3.95614 13.355C3.89806 13.3594 3.84142 13.375 3.78944 13.4011Z" fill="white"/>
<path d="M5.88083 8.70968C5.98559 8.77779 6.10836 8.81355 6.23362 8.81245C6.35887 8.81135 6.48099 8.77342 6.58452 8.70347C6.68805 8.63353 6.76834 8.53469 6.81526 8.41948C6.86217 8.30426 6.87359 8.17783 6.84808 8.05617C6.82256 7.93451 6.76126 7.82309 6.67191 7.73599C6.58257 7.6489 6.4692 7.59004 6.34614 7.56686C6.22308 7.54368 6.09585 7.55722 5.98055 7.60576C5.86525 7.65431 5.76704 7.73569 5.69835 7.8396C5.65266 7.90859 5.62113 7.98584 5.60557 8.06693C5.59001 8.14803 5.59072 8.23137 5.60767 8.31219C5.62462 8.393 5.65747 8.46971 5.70434 8.53792C5.75121 8.60613 5.81119 8.66449 5.88083 8.70968Z" fill="white"/>
<path d="M12.5158 5.92485C12.605 5.98257 12.7095 6.01276 12.816 6.01161C12.9225 6.01045 13.0262 5.978 13.1141 5.91835C13.202 5.8587 13.2701 5.77454 13.3098 5.6765C13.3495 5.57846 13.3591 5.47095 13.3372 5.36755C13.3153 5.26415 13.263 5.1695 13.1869 5.09558C13.1108 5.02166 13.0143 4.97177 12.9097 4.95224C12.805 4.9327 12.6969 4.94438 12.5989 4.98581C12.5009 5.02724 12.4175 5.09655 12.3592 5.18499C12.3204 5.24373 12.2937 5.3095 12.2806 5.37851C12.2675 5.44752 12.2682 5.51843 12.2827 5.58716C12.2973 5.65589 12.3254 5.7211 12.3653 5.77905C12.4053 5.837 12.4565 5.88654 12.5158 5.92485Z" fill="white"/>
<path d="M13.6201 4.03988C13.6777 4.07737 13.7453 4.09705 13.8142 4.09644C13.8832 4.09582 13.9504 4.07494 14.0074 4.03642C14.0643 3.99791 14.1085 3.94349 14.1343 3.88007C14.1601 3.81664 14.1663 3.74705 14.1522 3.6801C14.1381 3.61316 14.1043 3.55186 14.0551 3.50397C14.0059 3.45608 13.9435 3.42374 13.8757 3.41106C13.808 3.39838 13.738 3.40591 13.6746 3.43271C13.6111 3.45952 13.5571 3.50438 13.5194 3.56163C13.4689 3.63831 13.4511 3.73174 13.47 3.82141C13.4889 3.91108 13.5429 3.98966 13.6201 4.03988Z" fill="white"/>
<path d="M12.6006 9.26092C12.4593 9.25287 12.3178 9.2725 12.1842 9.31869C12.0506 9.36488 11.9275 9.43673 11.8218 9.53013C11.6085 9.71876 11.4795 9.98373 11.4631 10.2668C11.4467 10.5498 11.5443 10.8277 11.7344 11.0393C11.9246 11.2509 12.1917 11.379 12.477 11.3952C12.4976 11.3952 12.5188 11.3952 12.5394 11.3952C12.7472 11.3951 12.9506 11.3354 13.1249 11.2232C13.2993 11.111 13.4372 10.9512 13.5221 10.763C13.607 10.5748 13.6352 10.3663 13.6032 10.1625C13.5713 9.95879 13.4807 9.76857 13.3422 9.61479C13.2485 9.50991 13.1346 9.42461 13.0073 9.36385C12.88 9.3031 12.7417 9.26811 12.6006 9.26092Z" fill="white"/>
<path d="M7.76266 8.63552C7.85209 8.81275 7.98961 8.96169 8.15975 9.06558C8.32988 9.16947 8.52587 9.22418 8.72565 9.22355C8.90984 9.22359 9.09097 9.1768 9.25175 9.08765C9.41253 8.99849 9.54759 8.86995 9.64405 8.71429C9.74051 8.55863 9.79515 8.38104 9.80275 8.19847C9.81035 8.0159 9.77066 7.83445 9.68747 7.67142C9.59742 7.495 9.45964 7.34693 9.28956 7.24379C9.11948 7.14066 8.92381 7.08653 8.72448 7.08748C8.54086 7.08779 8.36036 7.13464 8.20011 7.22357C8.03986 7.31251 7.90517 7.44059 7.80882 7.59566C7.71247 7.75073 7.65766 7.92765 7.64958 8.10964C7.6415 8.29163 7.68043 8.47264 7.76266 8.63552Z" fill="white"/>
<path d="M16.2094 7.26617C16.2877 7.227 16.3525 7.1657 16.3956 7.09002C16.4387 7.01434 16.4583 6.92767 16.4518 6.84098C16.4453 6.75428 16.413 6.67144 16.3591 6.60292C16.3051 6.53441 16.2319 6.4833 16.1487 6.45605C16.0655 6.42881 15.976 6.42664 15.8915 6.44984C15.807 6.47304 15.7314 6.52055 15.6742 6.58638C15.6169 6.6522 15.5806 6.73339 15.5699 6.81967C15.5591 6.90595 15.5744 6.99346 15.6138 7.07113C15.6667 7.17531 15.7592 7.25437 15.8709 7.29094C15.9826 7.32751 16.1044 7.3186 16.2094 7.26617Z" fill="white"/>
<path d="M13.4776 7.60661C13.3658 7.6625 13.2731 7.75006 13.2114 7.8582C13.1497 7.96634 13.1216 8.09021 13.1309 8.21414C13.1401 8.33807 13.1862 8.4565 13.2633 8.55445C13.3404 8.6524 13.445 8.72548 13.564 8.76443C13.6829 8.80339 13.8109 8.80647 13.9316 8.7733C14.0523 8.74013 14.1604 8.67219 14.2422 8.57807C14.324 8.48395 14.3758 8.36789 14.3911 8.24455C14.4064 8.12121 14.3845 7.99614 14.3282 7.88515C14.2908 7.8114 14.2392 7.74568 14.1762 7.69176C14.1132 7.63784 14.0401 7.59676 13.9611 7.57089C13.8821 7.54502 13.7988 7.53486 13.7158 7.54098C13.6328 7.54711 13.5519 7.56941 13.4776 7.60661Z" fill="white"/>
<path d="M9.95883 3.87871C10.0464 3.88365 10.1334 3.86273 10.209 3.81859C10.2845 3.77445 10.3452 3.70907 10.3833 3.63073C10.4213 3.55238 10.4352 3.46459 10.4229 3.37846C10.4107 3.29232 10.373 3.21172 10.3146 3.14684C10.2562 3.08196 10.1798 3.03572 10.0949 3.01397C10.01 2.99222 9.92048 2.99593 9.83772 3.02465C9.75496 3.05336 9.68263 3.10578 9.6299 3.17527C9.57718 3.24477 9.54641 3.32821 9.54149 3.41506C9.5349 3.53143 9.57516 3.64564 9.65342 3.73258C9.73167 3.81952 9.84152 3.87208 9.95883 3.87871Z" fill="white"/>
<path d="M9.95412 6.64602C10.0792 6.65297 10.2035 6.623 10.3113 6.55989C10.4192 6.49677 10.5058 6.40336 10.5601 6.29144C10.6145 6.17952 10.6342 6.05413 10.6168 5.9311C10.5993 5.80808 10.5455 5.69295 10.4621 5.60027C10.3787 5.50759 10.2695 5.44151 10.1482 5.41039C10.027 5.37927 9.89918 5.3845 9.78094 5.42542C9.6627 5.46635 9.55934 5.54113 9.48392 5.64031C9.40851 5.73949 9.36443 5.85863 9.35725 5.98266C9.34777 6.14913 9.40532 6.31253 9.51725 6.43693C9.62917 6.56132 9.78631 6.63653 9.95412 6.64602Z" fill="white"/>
<path d="M6.52243 13.0601C6.63429 13.0041 6.72692 12.9165 6.78859 12.8083C6.85027 12.7001 6.87822 12.5763 6.86891 12.4523C6.8596 12.3284 6.81345 12.21 6.73629 12.112C6.65914 12.0141 6.55445 11.9411 6.43546 11.9022C6.31647 11.8633 6.18853 11.8603 6.06782 11.8936C5.94711 11.9269 5.83905 11.9949 5.75732 12.0891C5.67558 12.1832 5.62383 12.2994 5.60862 12.4227C5.59341 12.5461 5.61542 12.6711 5.67186 12.7821C5.74753 12.9308 5.87963 13.0437 6.03913 13.0958C6.19864 13.1479 6.37248 13.1351 6.52243 13.0601Z" fill="white"/>
<path d="M10.3632 7.56281C10.2319 7.76168 10.1711 7.99833 10.1906 8.23531C10.21 8.47229 10.3086 8.69606 10.4707 8.8712C10.6328 9.04635 10.8491 9.16287 11.0855 9.20231C11.3218 9.24176 11.5647 9.20188 11.7756 9.089C11.9866 8.97611 12.1535 8.79666 12.2501 8.57905C12.3466 8.36143 12.3673 8.11809 12.3088 7.88752C12.2502 7.65696 12.1159 7.45235 11.9269 7.30607C11.738 7.15978 11.5052 7.08019 11.2656 7.07989C11.0866 7.07977 10.9104 7.12385 10.7528 7.20815C10.5953 7.29246 10.4614 7.41434 10.3632 7.56281Z" fill="white"/>
<path d="M12.2362 12.0317C12.1499 11.862 12.0195 11.7181 11.8585 11.615C11.6974 11.5119 11.5116 11.4533 11.3201 11.4452C11.1286 11.4372 10.9384 11.48 10.7691 11.5692C10.5998 11.6584 10.4576 11.7907 10.3571 11.9527C10.2566 12.1146 10.2015 12.3001 10.1975 12.4902C10.1934 12.6803 10.2405 12.8681 10.334 13.0341C10.4275 13.2001 10.5639 13.3383 10.7292 13.4346C10.8945 13.5308 11.0827 13.5815 11.2744 13.5815C11.443 13.5804 11.6091 13.5404 11.7594 13.4647C12.0138 13.337 12.2068 13.1145 12.2961 12.8459C12.3855 12.5773 12.364 12.2846 12.2362 12.0317Z" fill="white"/>
<path d="M14.1186 11.957C14.0139 11.8888 13.8912 11.8529 13.7659 11.8539C13.6407 11.855 13.5185 11.8928 13.4149 11.9627C13.3113 12.0325 13.231 12.1313 13.184 12.2465C13.137 12.3617 13.1255 12.4882 13.1509 12.6098C13.1763 12.7315 13.2376 12.843 13.3269 12.9301C13.4162 13.0173 13.5295 13.0762 13.6526 13.0995C13.7756 13.1227 13.9029 13.1093 14.0182 13.0608C14.1335 13.0123 14.2318 12.9309 14.3005 12.8271C14.3924 12.6877 14.4248 12.5178 14.3908 12.3548C14.3567 12.1917 14.2588 12.0486 14.1186 11.957Z" fill="white"/>
<path d="M16.1812 10.3517C16.1872 10.2464 16.1616 10.1416 16.1075 10.0507C16.0535 9.95975 15.9736 9.88675 15.8777 9.84091C15.7819 9.79507 15.6745 9.77844 15.5692 9.79312C15.4638 9.80781 15.3652 9.85315 15.2859 9.92341C15.2065 9.99367 15.1499 10.0857 15.1232 10.1879C15.0965 10.29 15.101 10.3978 15.136 10.4974C15.1711 10.5971 15.2351 10.6842 15.32 10.7477C15.4049 10.8113 15.507 10.8484 15.6132 10.8545C15.7557 10.8625 15.8956 10.814 16.0021 10.7197C16.1086 10.6255 16.173 10.4931 16.1812 10.3517Z" fill="white"/>
<path d="M17.6716 9.97158C17.6028 9.96765 17.5343 9.98405 17.4749 10.0187C17.4155 10.0534 17.3678 10.1047 17.3378 10.1663C17.3078 10.2278 17.2969 10.2968 17.3065 10.3646C17.316 10.4323 17.3456 10.4957 17.3914 10.5467C17.4373 10.5977 17.4974 10.6342 17.5641 10.6513C17.6308 10.6685 17.7011 10.6656 17.7662 10.6432C17.8313 10.6207 17.8882 10.5795 17.9297 10.5249C17.9712 10.4704 17.9955 10.4048 17.9995 10.3365C18.0046 10.2451 17.973 10.1553 17.9115 10.0869C17.8501 10.0185 17.7638 9.977 17.6716 9.97158Z" fill="white"/>
<path d="M16.2683 13.3993C16.195 13.3517 16.1091 13.3267 16.0214 13.3275C15.9338 13.3283 15.8483 13.3548 15.7759 13.4038C15.7035 13.4527 15.6473 13.5219 15.6145 13.6025C15.5816 13.6831 15.5737 13.7716 15.5915 13.8567C15.6094 13.9419 15.6523 14.0198 15.7148 14.0808C15.7773 14.1417 15.8566 14.1829 15.9427 14.1991C16.0288 14.2154 16.1178 14.2059 16.1985 14.172C16.2792 14.138 16.348 14.0811 16.396 14.0084C16.428 13.9601 16.45 13.906 16.4609 13.8492C16.4718 13.7925 16.4713 13.7342 16.4594 13.6776C16.4475 13.621 16.4246 13.5673 16.3918 13.5196C16.359 13.4719 16.317 13.431 16.2683 13.3993Z" fill="white"/>
<path d="M6.37939 16.6268C6.32178 16.5893 6.25424 16.5696 6.18533 16.5701C6.11642 16.5707 6.04923 16.5915 5.99225 16.63C5.93527 16.6684 5.89105 16.7228 5.8652 16.7861C5.83935 16.8495 5.83302 16.919 5.84701 16.986C5.861 17.0529 5.89468 17.1143 5.94379 17.1622C5.99291 17.2102 6.05526 17.2426 6.12295 17.2554C6.19064 17.2682 6.26064 17.2608 6.3241 17.2341C6.38756 17.2075 6.44162 17.1628 6.47946 17.1056C6.50459 17.0677 6.52194 17.0252 6.53052 16.9806C6.53909 16.936 6.53872 16.8901 6.52943 16.8456C6.52013 16.8012 6.5021 16.759 6.47636 16.7214C6.45061 16.6839 6.41767 16.6517 6.37939 16.6268Z" fill="white"/>
<path d="M13.6831 16.5906C13.6215 16.6214 13.5705 16.6696 13.5366 16.7291C13.5027 16.7886 13.4873 16.8567 13.4924 16.9249C13.4975 16.9931 13.5229 17.0583 13.5653 17.1121C13.6078 17.166 13.6654 17.2062 13.7308 17.2276C13.7963 17.249 13.8667 17.2507 13.9331 17.2324C13.9995 17.2141 14.059 17.1767 14.1039 17.1249C14.1489 17.0731 14.1774 17.0092 14.1858 16.9413C14.1942 16.8734 14.1821 16.8046 14.151 16.7436C14.1305 16.703 14.1021 16.6668 14.0674 16.6372C14.0327 16.6075 13.9925 16.5849 13.949 16.5707C13.9056 16.5565 13.8597 16.551 13.8141 16.5544C13.7684 16.5578 13.7239 16.5701 13.6831 16.5906Z" fill="white"/>
<path d="M9.63567 13.1021C9.76705 12.9032 9.8278 12.6665 9.80831 12.4295C9.78882 12.1925 9.69021 11.9687 9.52808 11.7936C9.36595 11.6185 9.14957 11.502 8.91319 11.4626C8.6768 11.4232 8.43393 11.4631 8.223 11.5761C8.01207 11.689 7.84515 11.8685 7.74865 12.0862C7.65215 12.3039 7.6316 12.5472 7.69023 12.7778C7.74886 13.0084 7.88334 13.213 8.07238 13.3592C8.26141 13.5054 8.4942 13.5848 8.7339 13.585C8.9129 13.5856 9.08921 13.5418 9.24673 13.4574C9.40424 13.373 9.53796 13.2509 9.63567 13.1021Z" fill="white"/>
<path d="M7.48307 14.7424C7.39404 14.6846 7.28974 14.6543 7.18337 14.6553C7.07699 14.6564 6.9733 14.6886 6.88541 14.7481C6.79752 14.8076 6.72937 14.8915 6.68958 14.9894C6.64979 15.0873 6.64014 15.1947 6.66186 15.298C6.68358 15.4013 6.73568 15.4959 6.81159 15.5699C6.8875 15.6438 6.9838 15.6938 7.08832 15.7134C7.19284 15.7331 7.30089 15.7216 7.39882 15.6803C7.49674 15.6391 7.58013 15.5699 7.63846 15.4817C7.71659 15.3632 7.74411 15.2188 7.71497 15.0801C7.68583 14.9415 7.60242 14.82 7.48307 14.7424Z" fill="white"/>
<path d="M9.99473 16.788C9.90722 16.783 9.8202 16.8039 9.74467 16.8481C9.66914 16.8922 9.60849 16.9575 9.57039 17.0358C9.53229 17.1141 9.51845 17.2019 9.53062 17.288C9.54279 17.3741 9.58043 17.4547 9.63877 17.5196C9.69711 17.5845 9.77353 17.6308 9.85838 17.6526C9.94323 17.6744 10.0327 17.6708 10.1155 17.6422C10.1982 17.6135 10.2706 17.5612 10.3234 17.4918C10.3762 17.4224 10.407 17.339 10.4121 17.2522C10.4154 17.1945 10.4073 17.1368 10.3881 17.0822C10.3689 17.0277 10.3391 16.9774 10.3004 16.9343C10.2616 16.8912 10.2147 16.8561 10.1622 16.831C10.1098 16.8058 10.0529 16.7912 9.99473 16.788Z" fill="white"/>
<path d="M9.99944 14.0212C9.8743 14.0137 9.74971 14.0432 9.64147 14.1059C9.53322 14.1687 9.44618 14.2619 9.39138 14.3737C9.33657 14.4856 9.31647 14.6111 9.33361 14.7343C9.35075 14.8575 9.40437 14.9729 9.48766 15.0659C9.57096 15.1588 9.6802 15.2252 9.80153 15.2565C9.92287 15.2878 10.0508 15.2827 10.1692 15.2418C10.2877 15.2009 10.3912 15.1261 10.4667 15.0268C10.5422 14.9275 10.5863 14.8082 10.5934 14.684C10.603 14.518 10.5459 14.355 10.4346 14.2308C10.3232 14.1065 10.1667 14.0312 9.99944 14.0212Z" fill="white"/>
<path d="M12.59 14.6998C12.4949 14.7476 12.4163 14.8224 12.3641 14.9145C12.3119 15.0067 12.2885 15.1122 12.2967 15.2176C12.305 15.323 12.3445 15.4236 12.4105 15.5067C12.4764 15.5898 12.5657 15.6516 12.667 15.6843C12.7683 15.7171 12.8772 15.7192 12.9798 15.6905C13.0824 15.6619 13.1741 15.6036 13.2433 15.5232C13.3125 15.4428 13.3561 15.3438 13.3686 15.2388C13.3811 15.1338 13.3619 15.0275 13.3134 14.9334C13.2814 14.8708 13.2373 14.8152 13.1836 14.7696C13.1299 14.724 13.0677 14.6894 13.0005 14.6677C12.9333 14.646 12.8625 14.6377 12.792 14.6432C12.7216 14.6487 12.6529 14.6679 12.59 14.6998Z" fill="white"/>
</g>
<defs>
<clipPath id="clip0_3928_6994">
<rect x="10" y="10" width="20" height="20" rx="10" fill="white"/>
</clipPath>
<clipPath id="clip1_3928_6994">
<rect width="20" height="20" rx="10" fill="white"/>
</clipPath>
</defs>
</svg>
