<svg width="30" height="30" viewBox="0 0 30 30" fill="none" xmlns="http://www.w3.org/2000/svg">
<g clip-path="url(#clip0_3909_6732)">
<path d="M10 15.3333C10 12.3878 12.3878 10 15.3333 10H24.6667C27.6122 10 30 12.3878 30 15.3333V24.6667C30 27.6122 27.6122 30 24.6667 30H15.3333C12.3878 30 10 27.6122 10 24.6667V15.3333Z" fill="#012169"/>
<mask id="mask0_3909_6732" style="mask-type:alpha" maskUnits="userSpaceOnUse" x="9" y="10" width="25" height="24">
<path d="M9.66663 16.3111C9.66663 12.8256 12.4922 10 15.9777 10H27.0222C30.5077 10 33.3333 12.8256 33.3333 16.3111V27.3556C33.3333 30.8411 30.5077 33.6667 27.0222 33.6667H15.9777C12.4922 33.6667 9.66663 30.8411 9.66663 27.3556V16.3111Z" fill="#2055AE"/>
</mask>
<g mask="url(#mask0_3909_6732)">
<rect x="8.48328" y="10" width="33.1333" height="23.6667" fill="white"/>
<path d="M8.48328 10H41.6166V11.5778H8.48328V10Z" fill="#D02F44"/>
<path d="M8.48328 13.1556H41.6166V14.7333H8.48328V13.1556Z" fill="#D02F44"/>
<path d="M8.48328 16.3111H41.6166V17.8889H8.48328V16.3111Z" fill="#D02F44"/>
<path d="M8.48328 19.4667H41.6166V21.0444H8.48328V19.4667Z" fill="#D02F44"/>
<path d="M8.48328 22.6222H41.6166V24.2H8.48328V22.6222Z" fill="#D02F44"/>
<path d="M8.48328 25.7778H41.6166V27.3556H8.48328V25.7778Z" fill="#D02F44"/>
<path d="M8.48328 28.9333H41.6166V30.5111H8.48328V28.9333Z" fill="#D02F44"/>
<path d="M8.48328 32.0889H41.6166V33.6667H8.48328V32.0889Z" fill="#D02F44"/>
<rect x="8.48328" y="10" width="14.2" height="11.0444" fill="#46467F"/>
<path fill-rule="evenodd" clip-rule="evenodd" d="M10.8499 13.1557C11.2856 13.1557 11.6388 12.8025 11.6388 12.3668C11.6388 11.9311 11.2856 11.5779 10.8499 11.5779C10.4142 11.5779 10.061 11.9311 10.061 12.3668C10.061 12.8025 10.4142 13.1557 10.8499 13.1557Z" fill="#DADADA"/>
<path fill-rule="evenodd" clip-rule="evenodd" d="M14.0055 13.1557C14.4412 13.1557 14.7944 12.8025 14.7944 12.3668C14.7944 11.9311 14.4412 11.5779 14.0055 11.5779C13.5698 11.5779 13.2166 11.9311 13.2166 12.3668C13.2166 12.8025 13.5698 13.1557 14.0055 13.1557Z" fill="#DADADA"/>
<path fill-rule="evenodd" clip-rule="evenodd" d="M17.161 13.1557C17.5967 13.1557 17.9499 12.8025 17.9499 12.3668C17.9499 11.9311 17.5967 11.5779 17.161 11.5779C16.7253 11.5779 16.3721 11.9311 16.3721 12.3668C16.3721 12.8025 16.7253 13.1557 17.161 13.1557Z" fill="#DADADA"/>
<path fill-rule="evenodd" clip-rule="evenodd" d="M20.3166 13.1557C20.7523 13.1557 21.1055 12.8025 21.1055 12.3668C21.1055 11.9311 20.7523 11.5779 20.3166 11.5779C19.8809 11.5779 19.5277 11.9311 19.5277 12.3668C19.5277 12.8025 19.8809 13.1557 20.3166 13.1557Z" fill="#DADADA"/>
<path fill-rule="evenodd" clip-rule="evenodd" d="M12.4277 14.7334C12.8634 14.7334 13.2166 14.3802 13.2166 13.9445C13.2166 13.5089 12.8634 13.1557 12.4277 13.1557C11.992 13.1557 11.6388 13.5089 11.6388 13.9445C11.6388 14.3802 11.992 14.7334 12.4277 14.7334Z" fill="#DADADA"/>
<path fill-rule="evenodd" clip-rule="evenodd" d="M15.5833 14.7335C16.0189 14.7335 16.3721 14.3803 16.3721 13.9446C16.3721 13.5089 16.0189 13.1557 15.5833 13.1557C15.1476 13.1557 14.7944 13.5089 14.7944 13.9446C14.7944 14.3803 15.1476 14.7335 15.5833 14.7335Z" fill="#DADADA"/>
<path fill-rule="evenodd" clip-rule="evenodd" d="M18.7388 14.7335C19.1745 14.7335 19.5277 14.3803 19.5277 13.9446C19.5277 13.5089 19.1745 13.1557 18.7388 13.1557C18.3031 13.1557 17.9499 13.5089 17.9499 13.9446C17.9499 14.3803 18.3031 14.7335 18.7388 14.7335Z" fill="#DADADA"/>
<path fill-rule="evenodd" clip-rule="evenodd" d="M20.3166 16.3112C20.7523 16.3112 21.1055 15.958 21.1055 15.5223C21.1055 15.0866 20.7523 14.7334 20.3166 14.7334C19.8809 14.7334 19.5277 15.0866 19.5277 15.5223C19.5277 15.958 19.8809 16.3112 20.3166 16.3112Z" fill="#DADADA"/>
<path fill-rule="evenodd" clip-rule="evenodd" d="M17.161 16.3112C17.5967 16.3112 17.9499 15.958 17.9499 15.5223C17.9499 15.0866 17.5967 14.7334 17.161 14.7334C16.7253 14.7334 16.3721 15.0866 16.3721 15.5223C16.3721 15.958 16.7253 16.3112 17.161 16.3112Z" fill="#DADADA"/>
<path fill-rule="evenodd" clip-rule="evenodd" d="M14.0055 16.3112C14.4412 16.3112 14.7944 15.958 14.7944 15.5223C14.7944 15.0866 14.4412 14.7334 14.0055 14.7334C13.5698 14.7334 13.2166 15.0866 13.2166 15.5223C13.2166 15.958 13.5698 16.3112 14.0055 16.3112Z" fill="#DADADA"/>
<path fill-rule="evenodd" clip-rule="evenodd" d="M10.8499 16.3112C11.2856 16.3112 11.6388 15.958 11.6388 15.5223C11.6388 15.0866 11.2856 14.7334 10.8499 14.7334C10.4142 14.7334 10.061 15.0866 10.061 15.5223C10.061 15.958 10.4142 16.3112 10.8499 16.3112Z" fill="#DADADA"/>
<path fill-rule="evenodd" clip-rule="evenodd" d="M12.4277 17.889C12.8634 17.889 13.2166 17.5358 13.2166 17.1001C13.2166 16.6644 12.8634 16.3112 12.4277 16.3112C11.992 16.3112 11.6388 16.6644 11.6388 17.1001C11.6388 17.5358 11.992 17.889 12.4277 17.889Z" fill="#DADADA"/>
<path fill-rule="evenodd" clip-rule="evenodd" d="M15.5833 17.889C16.0189 17.889 16.3721 17.5358 16.3721 17.1001C16.3721 16.6644 16.0189 16.3112 15.5833 16.3112C15.1476 16.3112 14.7944 16.6644 14.7944 17.1001C14.7944 17.5358 15.1476 17.889 15.5833 17.889Z" fill="#DADADA"/>
<path fill-rule="evenodd" clip-rule="evenodd" d="M18.7388 17.889C19.1745 17.889 19.5277 17.5358 19.5277 17.1001C19.5277 16.6644 19.1745 16.3112 18.7388 16.3112C18.3031 16.3112 17.9499 16.6644 17.9499 17.1001C17.9499 17.5358 18.3031 17.889 18.7388 17.889Z" fill="#DADADA"/>
<path fill-rule="evenodd" clip-rule="evenodd" d="M20.3166 19.4668C20.7523 19.4668 21.1055 19.1136 21.1055 18.6779C21.1055 18.2422 20.7523 17.889 20.3166 17.889C19.8809 17.889 19.5277 18.2422 19.5277 18.6779C19.5277 19.1136 19.8809 19.4668 20.3166 19.4668Z" fill="#DADADA"/>
<path fill-rule="evenodd" clip-rule="evenodd" d="M17.161 19.4668C17.5967 19.4668 17.9499 19.1136 17.9499 18.6779C17.9499 18.2422 17.5967 17.889 17.161 17.889C16.7253 17.889 16.3721 18.2422 16.3721 18.6779C16.3721 19.1136 16.7253 19.4668 17.161 19.4668Z" fill="#DADADA"/>
<path fill-rule="evenodd" clip-rule="evenodd" d="M14.0055 19.4668C14.4412 19.4668 14.7944 19.1136 14.7944 18.6779C14.7944 18.2422 14.4412 17.889 14.0055 17.889C13.5698 17.889 13.2166 18.2422 13.2166 18.6779C13.2166 19.1136 13.5698 19.4668 14.0055 19.4668Z" fill="#DADADA"/>
<path fill-rule="evenodd" clip-rule="evenodd" d="M10.8499 19.4668C11.2856 19.4668 11.6388 19.1136 11.6388 18.6779C11.6388 18.2422 11.2856 17.889 10.8499 17.889C10.4142 17.889 10.061 18.2422 10.061 18.6779C10.061 19.1136 10.4142 19.4668 10.8499 19.4668Z" fill="#DADADA"/>
</g>
</g>
<g clip-path="url(#clip1_3909_6732)">
<path d="M0 5.33333C0 2.38781 2.38781 0 5.33333 0H14.6667C17.6122 0 20 2.38781 20 5.33333V14.6667C20 17.6122 17.6122 20 14.6667 20H5.33333C2.38781 20 0 17.6122 0 14.6667V5.33333Z" fill="#3A2451"/>
<path d="M9.68266 2.12673C9.80258 2.02539 9.97124 1.96698 10.1251 2.01991C10.3246 2.08667 10.4629 2.2593 10.5757 2.42787C10.8246 2.8208 10.9713 3.26739 11.1008 3.71111C11.4089 4.82459 11.5597 5.97479 11.6631 7.12308C12.2341 6.85866 12.8122 6.60855 13.4011 6.38561C13.409 6.16029 13.5559 5.94475 13.7716 5.86988C13.9926 5.78405 14.2559 5.8613 14.4057 6.04203C14.9348 5.88681 15.4743 5.74566 16.0271 5.71538C16.277 5.70632 16.5429 5.7118 16.7684 5.83292C16.9158 5.9097 17.0085 6.0735 16.9994 6.23898C16.9903 6.48242 16.8706 6.70416 16.7462 6.90754C16.4803 7.32289 16.1379 7.68245 15.7867 8.02674C15.0263 8.75516 14.1876 9.39678 13.3256 10C14.0292 10.4919 14.7153 11.0103 15.3589 11.5789C15.7285 11.908 16.0866 12.2522 16.4052 12.6314C16.6207 12.8943 16.8305 13.1724 16.9473 13.495C17.0116 13.674 17.0347 13.8962 16.906 14.0534C16.7614 14.2241 16.5245 14.2665 16.3128 14.2835C15.8388 14.3083 15.3689 14.2105 14.9112 14.0984C13.7886 13.808 12.7133 13.3622 11.6634 12.8765C11.5728 13.891 11.4417 14.9048 11.2037 15.8962C11.0785 16.3998 10.9338 16.9038 10.6951 17.3669C10.5737 17.5915 10.4304 17.8261 10.1987 17.9508C10.0465 18.0357 9.85251 18.0054 9.71754 17.901C9.4999 17.7362 9.36325 17.4916 9.24571 17.2508C9.0276 16.7849 8.88784 16.287 8.76959 15.7877C8.53929 15.7477 8.34077 15.5615 8.30278 15.3287C8.25811 15.103 8.37254 14.8674 8.56485 14.7458C8.46332 14.1259 8.39046 13.5016 8.33599 12.876C7.4578 13.2823 6.56265 13.6571 5.63692 13.9427C5.14479 14.092 4.64334 14.2219 4.13019 14.2723C3.8404 14.2951 3.53246 14.3068 3.26251 14.1824C3.10436 14.1115 2.9947 13.9475 3.0002 13.7732C3.00665 13.5014 3.14784 13.2568 3.2907 13.0336C3.60413 12.5689 4.00118 12.1676 4.40994 11.7866C5.11707 11.1347 5.88418 10.5513 6.67158 10.0005C6.15652 9.64022 5.65197 9.26492 5.16438 8.86841C4.97135 8.96975 4.72218 8.95711 4.54921 8.82072C4.35164 8.67504 4.27711 8.39798 4.36335 8.17028C4.02292 7.85126 3.69491 7.51602 3.41445 7.14216C3.26131 6.93353 3.11678 6.7125 3.03842 6.46406C2.99494 6.31957 2.97726 6.15505 3.04917 6.01676C3.11654 5.88562 3.25367 5.80765 3.39103 5.76807C3.6371 5.69821 3.8975 5.70727 4.14978 5.72968C4.64692 5.78071 5.13284 5.90565 5.61016 6.04918C6.54521 6.33602 7.44944 6.71393 8.33599 7.12475C8.4208 6.16339 8.54455 5.20346 8.75836 4.26165C8.87805 3.74926 9.019 3.23806 9.24117 2.75929C9.35322 2.52753 9.4827 2.29458 9.68266 2.12673ZM9.78395 2.53755C9.58327 2.80626 9.4729 3.12624 9.35083 3.43477C9.26769 3.6856 9.1965 3.94048 9.13462 4.19728C8.89429 5.21133 8.76242 6.24804 8.67618 7.28546C9.12244 7.50124 9.56321 7.72799 10.0004 7.96141C10.4345 7.72393 10.8771 7.50315 11.3205 7.28403C11.3002 6.96858 11.2654 6.65409 11.2305 6.34007C11.1309 5.50246 10.998 4.66651 10.7754 3.85203C10.7207 3.66295 10.6679 3.47292 10.5919 3.29123C10.4839 3.01107 10.3697 2.72543 10.1777 2.49058C10.1256 2.4355 10.0694 2.36206 9.98725 2.35896C9.89981 2.39067 9.83961 2.46697 9.78395 2.53755ZM3.39605 6.15076C3.32916 6.19439 3.3638 6.28642 3.3767 6.34913C3.46748 6.63239 3.65263 6.87273 3.83539 7.10282C4.06759 7.38464 4.32393 7.64549 4.58911 7.89584C4.69709 7.83695 4.81988 7.79999 4.94387 7.81406C5.17704 7.83266 5.38583 8.0122 5.43768 8.2399C5.47088 8.36174 5.45129 8.4905 5.40638 8.60637C5.91738 9.02077 6.44368 9.41728 6.9898 9.78423C7.39616 9.50407 7.814 9.24108 8.23254 8.97976C8.24545 8.48692 8.27077 7.99432 8.30612 7.50267C7.29893 7.02986 6.26737 6.59782 5.19376 6.29835C4.75944 6.18223 4.31629 6.08042 3.86501 6.06969C3.70686 6.07183 3.53796 6.07303 3.39605 6.15076ZM14.5325 6.37584C14.5387 6.61951 14.3787 6.85699 14.1438 6.93115C13.9147 7.01174 13.6491 6.91803 13.506 6.72609C12.8908 6.95833 12.2883 7.2218 11.6932 7.50076C11.7281 7.99408 11.7532 8.48811 11.7673 8.98238C12.1877 9.2418 12.6041 9.50813 13.0127 9.7859C13.3736 9.53674 13.7294 9.28018 14.0777 9.01362C14.7074 8.52864 15.3202 8.01721 15.8675 7.43948C16.1097 7.17673 16.3467 6.90349 16.5199 6.58899C16.5804 6.47216 16.6432 6.3477 16.642 6.21322C16.6432 6.15505 16.5787 6.13478 16.535 6.11642C16.3398 6.05467 16.1312 6.0642 15.9296 6.07851C15.454 6.12167 14.9893 6.24088 14.5325 6.37584ZM8.6499 7.66862C8.61765 8.03199 8.60761 8.39703 8.59041 8.76136C8.93204 8.55964 9.27533 8.36103 9.6215 8.16718C9.30281 7.99098 8.9748 7.83242 8.6499 7.66862ZM10.3716 8.16647C10.7183 8.35912 11.0613 8.55845 11.4027 8.75992C11.4011 8.39512 11.3762 8.03104 11.3509 7.66719C11.0222 7.82884 10.6942 7.99241 10.3716 8.16647ZM8.59663 9.17337C8.56485 9.19077 8.58157 9.23631 8.5756 9.26564C8.57321 9.78161 8.5713 10.2976 8.57727 10.8135C9.04384 11.0992 9.51853 11.3712 9.99872 11.6335C10.4799 11.3712 10.9541 11.0968 11.4228 10.8133C11.429 10.2721 11.4269 9.73058 11.424 9.1891C10.9569 8.90298 10.4808 8.63165 10.0011 8.36723C9.52498 8.62187 9.05913 8.89512 8.59663 9.17337ZM7.3018 10.001C7.6052 10.2041 7.91099 10.4034 8.22179 10.5951C8.21725 10.1984 8.2163 9.80188 8.22227 9.40536C7.91051 9.59611 7.604 9.79544 7.3018 10.001ZM11.7768 9.40655C11.7823 9.80211 11.7826 10.1977 11.7768 10.5935C12.0881 10.4032 12.3944 10.2046 12.6961 10C12.3932 9.79687 12.0879 9.59706 11.7768 9.40655ZM5.10346 11.6454C4.66317 12.0231 4.2353 12.4192 3.86214 12.8645C3.69181 13.0725 3.52745 13.2899 3.41803 13.5367C3.38315 13.6259 3.34134 13.7234 3.365 13.8204C3.40824 13.8722 3.47919 13.8874 3.54154 13.9036C3.77901 13.9506 4.02316 13.9284 4.2611 13.8993C4.77043 13.8288 5.2671 13.6893 5.75589 13.5324C6.62858 13.246 7.47643 12.8889 8.30636 12.4964C8.26957 12.0043 8.24712 11.5114 8.23111 11.0184C7.81758 10.7651 7.4105 10.5014 7.00819 10.2311C7.00055 10.2289 6.98526 10.2246 6.97761 10.2225C6.329 10.6638 5.7019 11.1381 5.10346 11.6454ZM11.7663 11.0198C11.7537 11.5126 11.7288 12.0052 11.6923 12.4969C12.5998 12.9275 13.5296 13.3161 14.4905 13.6123C14.9301 13.7446 15.3773 13.86 15.8343 13.9127C16.0416 13.9332 16.2535 13.947 16.4592 13.9048C16.5204 13.8903 16.5861 13.8734 16.6315 13.8271C16.6544 13.7708 16.6372 13.7084 16.6229 13.6521C16.5653 13.4601 16.454 13.2901 16.3398 13.1273C16.0314 12.7024 15.6553 12.3319 15.2702 11.9769C14.5626 11.3355 13.7984 10.7587 13.0134 10.2153C12.6027 10.4912 12.1868 10.7589 11.7663 11.0198ZM8.58779 11.2365C8.60881 11.6011 8.61741 11.9666 8.64918 12.3305C8.97767 12.1714 9.30209 12.004 9.62556 11.835C9.27725 11.6397 8.93132 11.4404 8.58779 11.2365ZM10.3731 11.834C10.6958 12.0062 11.0214 12.1731 11.3504 12.3326C11.3757 11.9692 11.3994 11.6051 11.4032 11.2408C11.0623 11.4425 10.719 11.6407 10.3731 11.834ZM8.67498 12.7115C8.73041 13.3653 8.80136 14.0183 8.90934 14.6657C8.99821 14.6814 9.08756 14.7055 9.16353 14.7565C9.35728 14.8772 9.46 15.1235 9.4096 15.3459C9.37782 15.5119 9.26196 15.6521 9.11551 15.7329C9.18623 16.0145 9.25861 16.2963 9.35274 16.5712C9.47434 16.8812 9.58686 17.2019 9.78897 17.4708C9.8475 17.5409 9.91033 17.6268 10.0059 17.6444C10.1581 17.5807 10.2441 17.4258 10.3284 17.2922C10.5367 16.9127 10.6808 16.5009 10.7933 16.0839C10.9643 15.443 11.0797 14.7885 11.1705 14.1318C11.2319 13.6597 11.2916 13.1862 11.3177 12.7108C10.8712 12.5007 10.4338 12.2716 9.99896 12.0384C9.56153 12.2704 9.12435 12.5036 8.67498 12.7115Z" fill="white"/>
<path d="M9.77869 9.06822C10.0257 9.01028 10.2959 9.05463 10.5092 9.19268C10.897 9.42921 11.0618 9.95853 10.8736 10.3722C10.7737 10.6054 10.5766 10.7954 10.3389 10.8851C10.0979 10.9788 9.81811 10.969 9.58566 10.8557C9.37687 10.7578 9.20701 10.5804 9.11766 10.3684C9.01637 10.1333 9.01637 9.85672 9.11838 9.62186C9.23448 9.34718 9.48724 9.13426 9.77869 9.06822Z" fill="white"/>
</g>
<defs>
<clipPath id="clip0_3909_6732">
<rect x="10" y="10" width="20" height="20" rx="10" fill="white"/>
</clipPath>
<clipPath id="clip1_3909_6732">
<rect width="20" height="20" rx="10" fill="white"/>
</clipPath>
</defs>
</svg>
