<svg width="30" height="30" viewBox="0 0 30 30" fill="none" xmlns="http://www.w3.org/2000/svg">
<g clip-path="url(#clip0_3909_6811)">
<path d="M10 15.3333C10 12.3878 12.3878 10 15.3333 10H24.6667C27.6122 10 30 12.3878 30 15.3333V24.6667C30 27.6122 27.6122 30 24.6667 30H15.3333C12.3878 30 10 27.6122 10 24.6667V15.3333Z" fill="#012169"/>
<mask id="mask0_3909_6811" style="mask-type:alpha" maskUnits="userSpaceOnUse" x="9" y="10" width="25" height="24">
<path d="M9.66663 16.3111C9.66663 12.8256 12.4922 10 15.9777 10H27.0222C30.5077 10 33.3333 12.8256 33.3333 16.3111V27.3556C33.3333 30.8411 30.5077 33.6667 27.0222 33.6667H15.9777C12.4922 33.6667 9.66663 30.8411 9.66663 27.3556V16.3111Z" fill="#2055AE"/>
</mask>
<g mask="url(#mask0_3909_6811)">
<rect x="8.48328" y="10" width="33.1333" height="23.6667" fill="white"/>
<path d="M8.48328 10H41.6166V11.5778H8.48328V10Z" fill="#D02F44"/>
<path d="M8.48328 13.1556H41.6166V14.7333H8.48328V13.1556Z" fill="#D02F44"/>
<path d="M8.48328 16.3111H41.6166V17.8889H8.48328V16.3111Z" fill="#D02F44"/>
<path d="M8.48328 19.4667H41.6166V21.0444H8.48328V19.4667Z" fill="#D02F44"/>
<path d="M8.48328 22.6222H41.6166V24.2H8.48328V22.6222Z" fill="#D02F44"/>
<path d="M8.48328 25.7778H41.6166V27.3556H8.48328V25.7778Z" fill="#D02F44"/>
<path d="M8.48328 28.9333H41.6166V30.5111H8.48328V28.9333Z" fill="#D02F44"/>
<path d="M8.48328 32.0889H41.6166V33.6667H8.48328V32.0889Z" fill="#D02F44"/>
<rect x="8.48328" y="10" width="14.2" height="11.0444" fill="#46467F"/>
<path fill-rule="evenodd" clip-rule="evenodd" d="M10.8499 13.1555C11.2856 13.1555 11.6388 12.8023 11.6388 12.3666C11.6388 11.931 11.2856 11.5778 10.8499 11.5778C10.4142 11.5778 10.061 11.931 10.061 12.3666C10.061 12.8023 10.4142 13.1555 10.8499 13.1555Z" fill="#DADADA"/>
<path fill-rule="evenodd" clip-rule="evenodd" d="M14.0055 13.1555C14.4412 13.1555 14.7944 12.8023 14.7944 12.3666C14.7944 11.931 14.4412 11.5778 14.0055 11.5778C13.5698 11.5778 13.2166 11.931 13.2166 12.3666C13.2166 12.8023 13.5698 13.1555 14.0055 13.1555Z" fill="#DADADA"/>
<path fill-rule="evenodd" clip-rule="evenodd" d="M17.161 13.1555C17.5967 13.1555 17.9499 12.8023 17.9499 12.3666C17.9499 11.931 17.5967 11.5778 17.161 11.5778C16.7253 11.5778 16.3721 11.931 16.3721 12.3666C16.3721 12.8023 16.7253 13.1555 17.161 13.1555Z" fill="#DADADA"/>
<path fill-rule="evenodd" clip-rule="evenodd" d="M20.3166 13.1555C20.7523 13.1555 21.1055 12.8023 21.1055 12.3666C21.1055 11.931 20.7523 11.5778 20.3166 11.5778C19.8809 11.5778 19.5277 11.931 19.5277 12.3666C19.5277 12.8023 19.8809 13.1555 20.3166 13.1555Z" fill="#DADADA"/>
<path fill-rule="evenodd" clip-rule="evenodd" d="M12.4277 14.7333C12.8634 14.7333 13.2166 14.3801 13.2166 13.9444C13.2166 13.5087 12.8634 13.1555 12.4277 13.1555C11.992 13.1555 11.6388 13.5087 11.6388 13.9444C11.6388 14.3801 11.992 14.7333 12.4277 14.7333Z" fill="#DADADA"/>
<path fill-rule="evenodd" clip-rule="evenodd" d="M15.5833 14.7334C16.0189 14.7334 16.3721 14.3802 16.3721 13.9445C16.3721 13.5088 16.0189 13.1556 15.5833 13.1556C15.1476 13.1556 14.7944 13.5088 14.7944 13.9445C14.7944 14.3802 15.1476 14.7334 15.5833 14.7334Z" fill="#DADADA"/>
<path fill-rule="evenodd" clip-rule="evenodd" d="M18.7388 14.7334C19.1745 14.7334 19.5277 14.3802 19.5277 13.9445C19.5277 13.5088 19.1745 13.1556 18.7388 13.1556C18.3031 13.1556 17.9499 13.5088 17.9499 13.9445C17.9499 14.3802 18.3031 14.7334 18.7388 14.7334Z" fill="#DADADA"/>
<path fill-rule="evenodd" clip-rule="evenodd" d="M20.3166 16.311C20.7523 16.311 21.1055 15.9578 21.1055 15.5222C21.1055 15.0865 20.7523 14.7333 20.3166 14.7333C19.8809 14.7333 19.5277 15.0865 19.5277 15.5222C19.5277 15.9578 19.8809 16.311 20.3166 16.311Z" fill="#DADADA"/>
<path fill-rule="evenodd" clip-rule="evenodd" d="M17.161 16.311C17.5967 16.311 17.9499 15.9578 17.9499 15.5222C17.9499 15.0865 17.5967 14.7333 17.161 14.7333C16.7253 14.7333 16.3721 15.0865 16.3721 15.5222C16.3721 15.9578 16.7253 16.311 17.161 16.311Z" fill="#DADADA"/>
<path fill-rule="evenodd" clip-rule="evenodd" d="M14.0055 16.311C14.4412 16.311 14.7944 15.9578 14.7944 15.5222C14.7944 15.0865 14.4412 14.7333 14.0055 14.7333C13.5698 14.7333 13.2166 15.0865 13.2166 15.5222C13.2166 15.9578 13.5698 16.311 14.0055 16.311Z" fill="#DADADA"/>
<path fill-rule="evenodd" clip-rule="evenodd" d="M10.8499 16.311C11.2856 16.311 11.6388 15.9578 11.6388 15.5222C11.6388 15.0865 11.2856 14.7333 10.8499 14.7333C10.4142 14.7333 10.061 15.0865 10.061 15.5222C10.061 15.9578 10.4142 16.311 10.8499 16.311Z" fill="#DADADA"/>
<path fill-rule="evenodd" clip-rule="evenodd" d="M12.4277 17.8889C12.8634 17.8889 13.2166 17.5357 13.2166 17.1C13.2166 16.6643 12.8634 16.3111 12.4277 16.3111C11.992 16.3111 11.6388 16.6643 11.6388 17.1C11.6388 17.5357 11.992 17.8889 12.4277 17.8889Z" fill="#DADADA"/>
<path fill-rule="evenodd" clip-rule="evenodd" d="M15.5833 17.8889C16.0189 17.8889 16.3721 17.5357 16.3721 17.1C16.3721 16.6643 16.0189 16.3111 15.5833 16.3111C15.1476 16.3111 14.7944 16.6643 14.7944 17.1C14.7944 17.5357 15.1476 17.8889 15.5833 17.8889Z" fill="#DADADA"/>
<path fill-rule="evenodd" clip-rule="evenodd" d="M18.7388 17.8889C19.1745 17.8889 19.5277 17.5357 19.5277 17.1C19.5277 16.6643 19.1745 16.3111 18.7388 16.3111C18.3031 16.3111 17.9499 16.6643 17.9499 17.1C17.9499 17.5357 18.3031 17.8889 18.7388 17.8889Z" fill="#DADADA"/>
<path fill-rule="evenodd" clip-rule="evenodd" d="M20.3166 19.4667C20.7523 19.4667 21.1055 19.1135 21.1055 18.6778C21.1055 18.2421 20.7523 17.8889 20.3166 17.8889C19.8809 17.8889 19.5277 18.2421 19.5277 18.6778C19.5277 19.1135 19.8809 19.4667 20.3166 19.4667Z" fill="#DADADA"/>
<path fill-rule="evenodd" clip-rule="evenodd" d="M17.161 19.4667C17.5967 19.4667 17.9499 19.1135 17.9499 18.6778C17.9499 18.2421 17.5967 17.8889 17.161 17.8889C16.7253 17.8889 16.3721 18.2421 16.3721 18.6778C16.3721 19.1135 16.7253 19.4667 17.161 19.4667Z" fill="#DADADA"/>
<path fill-rule="evenodd" clip-rule="evenodd" d="M14.0055 19.4667C14.4412 19.4667 14.7944 19.1135 14.7944 18.6778C14.7944 18.2421 14.4412 17.8889 14.0055 17.8889C13.5698 17.8889 13.2166 18.2421 13.2166 18.6778C13.2166 19.1135 13.5698 19.4667 14.0055 19.4667Z" fill="#DADADA"/>
<path fill-rule="evenodd" clip-rule="evenodd" d="M10.8499 19.4667C11.2856 19.4667 11.6388 19.1135 11.6388 18.6778C11.6388 18.2421 11.2856 17.8889 10.8499 17.8889C10.4142 17.8889 10.061 18.2421 10.061 18.6778C10.061 19.1135 10.4142 19.4667 10.8499 19.4667Z" fill="#DADADA"/>
</g>
</g>
<g clip-path="url(#clip1_3909_6811)">
<path d="M0 5.33333C0 2.38781 2.38781 0 5.33333 0H14.6667C17.6122 0 20 2.38781 20 5.33333V14.6667C20 17.6122 17.6122 20 14.6667 20H5.33333C2.38781 20 0 17.6122 0 14.6667V5.33333Z" fill="#DD5148"/>
<path fill-rule="evenodd" clip-rule="evenodd" d="M6.68168 15.3182H4.43598C4.15171 15.3547 3.86269 15.3247 3.59243 15.2306C3.51364 15.1809 3.44869 15.1126 3.40346 15.0319C3.35823 14.9513 3.33414 14.8609 3.33337 14.7688C3.33337 14.6095 3.44185 14.404 3.67177 13.9995L9.21235 4.42145C9.21799 4.41173 9.22357 4.40211 9.22908 4.39261C9.45282 4.00697 9.5692 3.80638 9.72722 3.72866C9.80671 3.68791 9.89502 3.66663 9.98466 3.66663C10.0743 3.66663 10.1626 3.68791 10.2421 3.72866C10.3927 3.80192 10.5092 4.01056 10.7489 4.41508L11.8823 6.37083C12.0692 6.64998 12.2158 6.95337 12.3178 7.27226C12.3793 7.52671 12.3793 7.79182 12.3178 8.04628C12.2136 8.37249 12.0637 8.68285 11.8725 8.96841L8.95815 14.0409C8.81366 14.3442 8.62613 14.6257 8.40117 14.8771C8.20671 15.0607 7.97095 15.1965 7.71305 15.2736C7.37231 15.329 7.02605 15.344 6.68168 15.3182ZM15.556 15.3182C15.8435 15.3531 16.1353 15.3232 16.4093 15.2306C16.4872 15.1801 16.5513 15.1116 16.5962 15.0311C16.6411 14.9506 16.6653 14.8605 16.6667 14.7688C16.6667 14.6095 16.5631 14.4136 16.3429 14.0361V13.9995L14.7335 11.2921V11.265C14.5101 10.8875 14.3919 10.698 14.2656 10.6279C14.1861 10.5872 14.0978 10.5659 14.0081 10.5659C13.9185 10.5659 13.8302 10.5872 13.7507 10.6279C13.605 10.7012 13.4819 10.8987 13.2488 11.3L11.6038 14.0075C11.5977 14.0179 11.5917 14.0282 11.5857 14.0383C11.3629 14.4191 11.2509 14.6105 11.2557 14.7672C11.2585 14.8592 11.2838 14.9492 11.3294 15.0296C11.3751 15.11 11.4397 15.1784 11.518 15.229C11.7827 15.3204 12.0651 15.3509 12.3437 15.3182H15.556Z" fill="white"/>
<path d="M6.68168 15.3182H4.43598C4.15171 15.3547 3.86269 15.3247 3.59243 15.2306C3.51364 15.1809 3.44869 15.1126 3.40346 15.0319C3.35823 14.9513 3.33414 14.8609 3.33337 14.7688C3.33337 14.6095 3.44185 14.404 3.67177 13.9995L9.21235 4.42145L9.22908 4.39261C9.45282 4.00697 9.5692 3.80638 9.72722 3.72866C9.80671 3.68791 9.89502 3.66663 9.98466 3.66663C10.0743 3.66663 10.1626 3.68791 10.2421 3.72866C10.3927 3.80192 10.5092 4.01056 10.7489 4.41508L11.8823 6.37083C12.0692 6.64998 12.2158 6.95337 12.3178 7.27226C12.3793 7.52671 12.3793 7.79182 12.3178 8.04628C12.2136 8.37249 12.0637 8.68285 11.8725 8.96841L8.95815 14.0409C8.81366 14.3442 8.62613 14.6257 8.40117 14.8771C8.20671 15.0607 7.97095 15.1965 7.71305 15.2736C7.37231 15.329 7.02605 15.344 6.68168 15.3182Z" fill="white"/>
<path d="M15.556 15.3182C15.8435 15.3531 16.1353 15.3232 16.4093 15.2306C16.4872 15.1801 16.5513 15.1116 16.5962 15.0311C16.6411 14.9506 16.6653 14.8605 16.6667 14.7688C16.6667 14.6095 16.5631 14.4136 16.3429 14.0361V13.9995L14.7335 11.2921V11.265C14.5101 10.8875 14.3919 10.698 14.2656 10.6279C14.1861 10.5872 14.0978 10.5659 14.0081 10.5659C13.9185 10.5659 13.8302 10.5872 13.7507 10.6279C13.605 10.7012 13.4819 10.8987 13.2488 11.3L11.6038 14.0075L11.5857 14.0383C11.3629 14.4191 11.2509 14.6105 11.2557 14.7672C11.2585 14.8592 11.2838 14.9492 11.3294 15.0296C11.3751 15.11 11.4397 15.1784 11.518 15.229C11.7827 15.3204 12.0651 15.3509 12.3437 15.3182H15.556Z" fill="white"/>
</g>
<defs>
<clipPath id="clip0_3909_6811">
<rect x="10" y="10" width="20" height="20" rx="10" fill="white"/>
</clipPath>
<clipPath id="clip1_3909_6811">
<rect width="20" height="20" rx="10" fill="white"/>
</clipPath>
</defs>
</svg>
