<svg width="30" height="30" viewBox="0 0 30 30" fill="none" xmlns="http://www.w3.org/2000/svg">
<g clip-path="url(#clip0_3909_6941)">
<path d="M10 15.3333C10 12.3878 12.3878 10 15.3333 10H24.6667C27.6122 10 30 12.3878 30 15.3333V24.6667C30 27.6122 27.6122 30 24.6667 30H15.3333C12.3878 30 10 27.6122 10 24.6667V15.3333Z" fill="#F09730"/>
<path d="M24.3176 18.3849C24.5199 17.0319 23.4899 16.3046 22.0813 15.8195L22.5383 13.9868L21.4226 13.7088L20.9778 15.4932C20.6845 15.4201 20.3833 15.3512 20.084 15.2828L20.532 13.4866L19.4171 13.2086L18.9599 15.0407C18.7172 14.9855 18.4788 14.9309 18.2476 14.8733L18.2489 14.8675L16.7104 14.4834L16.4136 15.6749C16.4136 15.6749 17.2413 15.8646 17.2239 15.8763C17.6756 15.9891 17.7573 16.2881 17.7438 16.5252L17.2233 18.6131C17.2544 18.621 17.2947 18.6324 17.3393 18.6503C17.302 18.641 17.2624 18.6309 17.2213 18.6211L16.4918 21.5459C16.4366 21.6832 16.2964 21.8892 15.9806 21.8109C15.9918 21.8271 15.1697 21.6086 15.1697 21.6086L14.6158 22.8856L16.0676 23.2475C16.3377 23.3153 16.6024 23.3861 16.863 23.4528L16.4014 25.3065L17.5157 25.5845L17.9729 23.7504C18.2773 23.8331 18.5728 23.9093 18.862 23.9812L18.4063 25.8066L19.522 26.0846L19.9836 24.2343C21.886 24.5943 23.3164 24.4492 23.9185 22.7285C24.4037 21.3431 23.8944 20.5441 22.8935 20.023C23.6225 19.8549 24.1716 19.3754 24.3179 18.385L24.3176 18.3848L24.3176 18.3849ZM21.7686 21.9591C21.4238 23.3445 19.0913 22.5956 18.3351 22.4078L18.9477 19.952C19.7039 20.1407 22.1289 20.5143 21.7687 21.9591H21.7686ZM22.1136 18.3648C21.7991 19.6249 19.8577 18.9847 19.228 18.8277L19.7834 16.6004C20.4132 16.7574 22.4413 17.0504 22.1137 18.3648H22.1136Z" fill="white"/>
</g>
<g clip-path="url(#clip1_3909_6941)">
<path d="M0 6C0 2.68629 2.68629 0 6 0H14C17.3137 0 20 2.68629 20 6V14C20 17.3137 17.3137 20 14 20H6C2.68629 20 0 17.3137 0 14V6Z" fill="#BBC1D2"/>
<path d="M9.99918 2.46033L9.89722 2.80668V12.856L9.99918 12.9578L14.6639 10.2004L9.99918 2.46033Z" fill="#61688F"/>
<path d="M9.9982 2.46033L5.33337 10.2004L9.9982 12.9578V8.08008V2.46033Z" fill="#8992B1"/>
<path d="M9.99912 13.8414L9.94165 13.9114V17.4912L9.99912 17.6589L14.6667 11.0854L9.99912 13.8414Z" fill="#61688F"/>
<path d="M9.9982 17.6589V13.8414L5.33337 11.0854L9.9982 17.6589Z" fill="#8992B1"/>
<path d="M9.99756 12.9576L14.6623 10.2003L9.99756 8.07996V12.9576Z" fill="#454975"/>
<path d="M5.33337 10.2003L9.9982 12.9576V8.07996L5.33337 10.2003Z" fill="#61688F"/>
</g>
<defs>
<clipPath id="clip0_3909_6941">
<rect x="10" y="10" width="20" height="20" rx="10" fill="white"/>
</clipPath>
<clipPath id="clip1_3909_6941">
<rect width="20" height="20" rx="10" fill="white"/>
</clipPath>
</defs>
</svg>
