<svg width="30" height="30" viewBox="0 0 30 30" fill="none" xmlns="http://www.w3.org/2000/svg">
<g clip-path="url(#clip0_3909_7517)">
<path d="M10 15.3333C10 12.3878 12.3878 10 15.3333 10H24.6667C27.6122 10 30 12.3878 30 15.3333V24.6667C30 27.6122 27.6122 30 24.6667 30H15.3333C12.3878 30 10 27.6122 10 24.6667V15.3333Z" fill="#012169"/>
<mask id="mask0_3909_7517" style="mask-type:alpha" maskUnits="userSpaceOnUse" x="9" y="10" width="25" height="24">
<path d="M9.66669 16.3111C9.66669 12.8256 12.4923 10 15.9778 10H27.0222C30.5078 10 33.3334 12.8256 33.3334 16.3111V27.3556C33.3334 30.8411 30.5078 33.6667 27.0222 33.6667H15.9778C12.4923 33.6667 9.66669 30.8411 9.66669 27.3556V16.3111Z" fill="#2055AE"/>
</mask>
<g mask="url(#mask0_3909_7517)">
<rect x="8.48334" y="10" width="33.1333" height="23.6667" fill="white"/>
<path d="M8.48334 10H41.6167V11.5778H8.48334V10Z" fill="#D02F44"/>
<path d="M8.48334 13.1556H41.6167V14.7333H8.48334V13.1556Z" fill="#D02F44"/>
<path d="M8.48334 16.3111H41.6167V17.8889H8.48334V16.3111Z" fill="#D02F44"/>
<path d="M8.48334 19.4667H41.6167V21.0444H8.48334V19.4667Z" fill="#D02F44"/>
<path d="M8.48334 22.6222H41.6167V24.2H8.48334V22.6222Z" fill="#D02F44"/>
<path d="M8.48334 25.7778H41.6167V27.3556H8.48334V25.7778Z" fill="#D02F44"/>
<path d="M8.48334 28.9333H41.6167V30.5111H8.48334V28.9333Z" fill="#D02F44"/>
<path d="M8.48334 32.0889H41.6167V33.6667H8.48334V32.0889Z" fill="#D02F44"/>
<rect x="8.48334" y="10" width="14.2" height="11.0444" fill="#46467F"/>
<path fill-rule="evenodd" clip-rule="evenodd" d="M10.85 13.1557C11.2857 13.1557 11.6389 12.8025 11.6389 12.3668C11.6389 11.9311 11.2857 11.5779 10.85 11.5779C10.4143 11.5779 10.0611 11.9311 10.0611 12.3668C10.0611 12.8025 10.4143 13.1557 10.85 13.1557Z" fill="#DADADA"/>
<path fill-rule="evenodd" clip-rule="evenodd" d="M14.0055 13.1557C14.4412 13.1557 14.7944 12.8025 14.7944 12.3668C14.7944 11.9311 14.4412 11.5779 14.0055 11.5779C13.5699 11.5779 13.2167 11.9311 13.2167 12.3668C13.2167 12.8025 13.5699 13.1557 14.0055 13.1557Z" fill="#DADADA"/>
<path fill-rule="evenodd" clip-rule="evenodd" d="M17.1611 13.1557C17.5968 13.1557 17.95 12.8025 17.95 12.3668C17.95 11.9311 17.5968 11.5779 17.1611 11.5779C16.7254 11.5779 16.3722 11.9311 16.3722 12.3668C16.3722 12.8025 16.7254 13.1557 17.1611 13.1557Z" fill="#DADADA"/>
<path fill-rule="evenodd" clip-rule="evenodd" d="M20.3167 13.1557C20.7523 13.1557 21.1055 12.8025 21.1055 12.3668C21.1055 11.9311 20.7523 11.5779 20.3167 11.5779C19.881 11.5779 19.5278 11.9311 19.5278 12.3668C19.5278 12.8025 19.881 13.1557 20.3167 13.1557Z" fill="#DADADA"/>
<path fill-rule="evenodd" clip-rule="evenodd" d="M12.4278 14.7334C12.8635 14.7334 13.2167 14.3802 13.2167 13.9445C13.2167 13.5089 12.8635 13.1557 12.4278 13.1557C11.9921 13.1557 11.6389 13.5089 11.6389 13.9445C11.6389 14.3802 11.9921 14.7334 12.4278 14.7334Z" fill="#DADADA"/>
<path fill-rule="evenodd" clip-rule="evenodd" d="M15.5833 14.7335C16.019 14.7335 16.3722 14.3803 16.3722 13.9446C16.3722 13.5089 16.019 13.1557 15.5833 13.1557C15.1476 13.1557 14.7944 13.5089 14.7944 13.9446C14.7944 14.3803 15.1476 14.7335 15.5833 14.7335Z" fill="#DADADA"/>
<path fill-rule="evenodd" clip-rule="evenodd" d="M18.7389 14.7335C19.1746 14.7335 19.5278 14.3803 19.5278 13.9446C19.5278 13.5089 19.1746 13.1557 18.7389 13.1557C18.3032 13.1557 17.95 13.5089 17.95 13.9446C17.95 14.3803 18.3032 14.7335 18.7389 14.7335Z" fill="#DADADA"/>
<path fill-rule="evenodd" clip-rule="evenodd" d="M20.3167 16.3112C20.7523 16.3112 21.1055 15.958 21.1055 15.5223C21.1055 15.0866 20.7523 14.7334 20.3167 14.7334C19.881 14.7334 19.5278 15.0866 19.5278 15.5223C19.5278 15.958 19.881 16.3112 20.3167 16.3112Z" fill="#DADADA"/>
<path fill-rule="evenodd" clip-rule="evenodd" d="M17.1611 16.3112C17.5968 16.3112 17.95 15.958 17.95 15.5223C17.95 15.0866 17.5968 14.7334 17.1611 14.7334C16.7254 14.7334 16.3722 15.0866 16.3722 15.5223C16.3722 15.958 16.7254 16.3112 17.1611 16.3112Z" fill="#DADADA"/>
<path fill-rule="evenodd" clip-rule="evenodd" d="M14.0055 16.3112C14.4412 16.3112 14.7944 15.958 14.7944 15.5223C14.7944 15.0866 14.4412 14.7334 14.0055 14.7334C13.5699 14.7334 13.2167 15.0866 13.2167 15.5223C13.2167 15.958 13.5699 16.3112 14.0055 16.3112Z" fill="#DADADA"/>
<path fill-rule="evenodd" clip-rule="evenodd" d="M10.85 16.3112C11.2857 16.3112 11.6389 15.958 11.6389 15.5223C11.6389 15.0866 11.2857 14.7334 10.85 14.7334C10.4143 14.7334 10.0611 15.0866 10.0611 15.5223C10.0611 15.958 10.4143 16.3112 10.85 16.3112Z" fill="#DADADA"/>
<path fill-rule="evenodd" clip-rule="evenodd" d="M12.4278 17.889C12.8634 17.889 13.2166 17.5358 13.2166 17.1001C13.2166 16.6644 12.8634 16.3112 12.4278 16.3112C11.9921 16.3112 11.6389 16.6644 11.6389 17.1001C11.6389 17.5358 11.9921 17.889 12.4278 17.889Z" fill="#DADADA"/>
<path fill-rule="evenodd" clip-rule="evenodd" d="M15.5833 17.889C16.019 17.889 16.3722 17.5358 16.3722 17.1001C16.3722 16.6644 16.019 16.3112 15.5833 16.3112C15.1476 16.3112 14.7944 16.6644 14.7944 17.1001C14.7944 17.5358 15.1476 17.889 15.5833 17.889Z" fill="#DADADA"/>
<path fill-rule="evenodd" clip-rule="evenodd" d="M18.7389 17.889C19.1746 17.889 19.5278 17.5358 19.5278 17.1001C19.5278 16.6644 19.1746 16.3112 18.7389 16.3112C18.3032 16.3112 17.95 16.6644 17.95 17.1001C17.95 17.5358 18.3032 17.889 18.7389 17.889Z" fill="#DADADA"/>
<path fill-rule="evenodd" clip-rule="evenodd" d="M20.3167 19.4668C20.7523 19.4668 21.1055 19.1136 21.1055 18.6779C21.1055 18.2422 20.7523 17.889 20.3167 17.889C19.881 17.889 19.5278 18.2422 19.5278 18.6779C19.5278 19.1136 19.881 19.4668 20.3167 19.4668Z" fill="#DADADA"/>
<path fill-rule="evenodd" clip-rule="evenodd" d="M17.1611 19.4668C17.5968 19.4668 17.95 19.1136 17.95 18.6779C17.95 18.2422 17.5968 17.889 17.1611 17.889C16.7254 17.889 16.3722 18.2422 16.3722 18.6779C16.3722 19.1136 16.7254 19.4668 17.1611 19.4668Z" fill="#DADADA"/>
<path fill-rule="evenodd" clip-rule="evenodd" d="M14.0055 19.4668C14.4412 19.4668 14.7944 19.1136 14.7944 18.6779C14.7944 18.2422 14.4412 17.889 14.0055 17.889C13.5699 17.889 13.2167 18.2422 13.2167 18.6779C13.2167 19.1136 13.5699 19.4668 14.0055 19.4668Z" fill="#DADADA"/>
<path fill-rule="evenodd" clip-rule="evenodd" d="M10.85 19.4668C11.2857 19.4668 11.6389 19.1136 11.6389 18.6779C11.6389 18.2422 11.2857 17.889 10.85 17.889C10.4143 17.889 10.0611 18.2422 10.0611 18.6779C10.0611 19.1136 10.4143 19.4668 10.85 19.4668Z" fill="#DADADA"/>
</g>
</g>
<g clip-path="url(#clip1_3909_7517)">
<path d="M0 5.33333C0 2.38781 2.38781 0 5.33333 0H14.6667C17.6122 0 20 2.38781 20 5.33333V14.6667C20 17.6122 17.6122 20 14.6667 20H5.33333C2.38781 20 0 17.6122 0 14.6667V5.33333Z" fill="#7950DD"/>
<path d="M13.2251 7.79555C12.9914 7.65178 12.6876 7.65178 12.4305 7.79555L10.6076 8.89771L9.36901 9.61653L7.54614 10.7187C7.31245 10.8625 7.00863 10.8625 6.75156 10.7187L5.3026 9.85616C5.0689 9.7124 4.90531 9.44883 4.90531 9.16128V7.4601C4.90531 7.17257 5.04553 6.90901 5.3026 6.76525L6.72819 5.92663C6.96189 5.78286 7.26569 5.78286 7.52278 5.92663L8.94836 6.76525C9.18205 6.90901 9.34564 7.17257 9.34564 7.4601V8.56228L10.5843 7.81951V6.71732C10.5843 6.4298 10.4441 6.16623 10.187 6.02247L7.54614 4.44107C7.31245 4.29731 7.00863 4.29731 6.75156 4.44107L4.06398 6.02247C3.80691 6.16623 3.66669 6.4298 3.66669 6.71732V9.90408C3.66669 10.1916 3.80691 10.4552 4.06398 10.5989L6.75156 12.1803C6.98526 12.3241 7.28909 12.3241 7.54614 12.1803L9.36901 11.1021L10.6076 10.3593L12.4305 9.2811C12.6642 9.13734 12.968 9.13734 13.2251 9.2811L14.6507 10.1197C14.8844 10.2635 15.048 10.5271 15.048 10.8146V12.5158C15.048 12.8033 14.9078 13.0669 14.6507 13.2106L13.2251 14.0732C12.9914 14.217 12.6876 14.217 12.4305 14.0732L11.005 13.2346C10.7712 13.0908 10.6076 12.8273 10.6076 12.5397V11.4375L9.36901 12.1803V13.2825C9.36901 13.57 9.50924 13.8336 9.76633 13.9773L12.4539 15.5588C12.6876 15.7025 12.9914 15.7025 13.2485 15.5588L15.9361 13.9773C16.1698 13.8336 16.3334 13.57 16.3334 13.2825V10.0958C16.3334 9.80824 16.1931 9.54467 15.9361 9.40091L13.2251 7.79555Z" fill="white"/>
</g>
<defs>
<clipPath id="clip0_3909_7517">
<rect x="10" y="10" width="20" height="20" rx="10" fill="white"/>
</clipPath>
<clipPath id="clip1_3909_7517">
<rect width="20" height="20" rx="10" fill="white"/>
</clipPath>
</defs>
</svg>
