<svg width="30" height="30" viewBox="0 0 30 30" fill="none" xmlns="http://www.w3.org/2000/svg">
<g clip-path="url(#clip0_3909_7523)">
<path d="M10 15.3333C10 12.3878 12.3878 10 15.3333 10H24.6667C27.6122 10 30 12.3878 30 15.3333V24.6667C30 27.6122 27.6122 30 24.6667 30H15.3333C12.3878 30 10 27.6122 10 24.6667V15.3333Z" fill="#012169"/>
<mask id="mask0_3909_7523" style="mask-type:alpha" maskUnits="userSpaceOnUse" x="9" y="10" width="25" height="24">
<path d="M9.66669 16.3111C9.66669 12.8256 12.4923 10 15.9778 10H27.0222C30.5078 10 33.3334 12.8256 33.3334 16.3111V27.3556C33.3334 30.8411 30.5078 33.6667 27.0222 33.6667H15.9778C12.4923 33.6667 9.66669 30.8411 9.66669 27.3556V16.3111Z" fill="#2055AE"/>
</mask>
<g mask="url(#mask0_3909_7523)">
<rect x="8.48334" y="10" width="33.1333" height="23.6667" fill="white"/>
<path d="M8.48334 10H41.6167V11.5778H8.48334V10Z" fill="#D02F44"/>
<path d="M8.48334 13.1556H41.6167V14.7333H8.48334V13.1556Z" fill="#D02F44"/>
<path d="M8.48334 16.3111H41.6167V17.8889H8.48334V16.3111Z" fill="#D02F44"/>
<path d="M8.48334 19.4667H41.6167V21.0444H8.48334V19.4667Z" fill="#D02F44"/>
<path d="M8.48334 22.6222H41.6167V24.2H8.48334V22.6222Z" fill="#D02F44"/>
<path d="M8.48334 25.7778H41.6167V27.3556H8.48334V25.7778Z" fill="#D02F44"/>
<path d="M8.48334 28.9333H41.6167V30.5111H8.48334V28.9333Z" fill="#D02F44"/>
<path d="M8.48334 32.0889H41.6167V33.6667H8.48334V32.0889Z" fill="#D02F44"/>
<rect x="8.48334" y="10" width="14.2" height="11.0444" fill="#46467F"/>
<path fill-rule="evenodd" clip-rule="evenodd" d="M10.85 13.1555C11.2857 13.1555 11.6389 12.8023 11.6389 12.3666C11.6389 11.931 11.2857 11.5778 10.85 11.5778C10.4143 11.5778 10.0611 11.931 10.0611 12.3666C10.0611 12.8023 10.4143 13.1555 10.85 13.1555Z" fill="#DADADA"/>
<path fill-rule="evenodd" clip-rule="evenodd" d="M14.0055 13.1555C14.4412 13.1555 14.7944 12.8023 14.7944 12.3666C14.7944 11.931 14.4412 11.5778 14.0055 11.5778C13.5699 11.5778 13.2167 11.931 13.2167 12.3666C13.2167 12.8023 13.5699 13.1555 14.0055 13.1555Z" fill="#DADADA"/>
<path fill-rule="evenodd" clip-rule="evenodd" d="M17.1611 13.1555C17.5968 13.1555 17.95 12.8023 17.95 12.3666C17.95 11.931 17.5968 11.5778 17.1611 11.5778C16.7254 11.5778 16.3722 11.931 16.3722 12.3666C16.3722 12.8023 16.7254 13.1555 17.1611 13.1555Z" fill="#DADADA"/>
<path fill-rule="evenodd" clip-rule="evenodd" d="M20.3167 13.1555C20.7523 13.1555 21.1055 12.8023 21.1055 12.3666C21.1055 11.931 20.7523 11.5778 20.3167 11.5778C19.881 11.5778 19.5278 11.931 19.5278 12.3666C19.5278 12.8023 19.881 13.1555 20.3167 13.1555Z" fill="#DADADA"/>
<path fill-rule="evenodd" clip-rule="evenodd" d="M12.4278 14.7333C12.8635 14.7333 13.2167 14.3801 13.2167 13.9444C13.2167 13.5087 12.8635 13.1555 12.4278 13.1555C11.9921 13.1555 11.6389 13.5087 11.6389 13.9444C11.6389 14.3801 11.9921 14.7333 12.4278 14.7333Z" fill="#DADADA"/>
<path fill-rule="evenodd" clip-rule="evenodd" d="M15.5833 14.7334C16.019 14.7334 16.3722 14.3802 16.3722 13.9445C16.3722 13.5088 16.019 13.1556 15.5833 13.1556C15.1476 13.1556 14.7944 13.5088 14.7944 13.9445C14.7944 14.3802 15.1476 14.7334 15.5833 14.7334Z" fill="#DADADA"/>
<path fill-rule="evenodd" clip-rule="evenodd" d="M18.7389 14.7334C19.1746 14.7334 19.5278 14.3802 19.5278 13.9445C19.5278 13.5088 19.1746 13.1556 18.7389 13.1556C18.3032 13.1556 17.95 13.5088 17.95 13.9445C17.95 14.3802 18.3032 14.7334 18.7389 14.7334Z" fill="#DADADA"/>
<path fill-rule="evenodd" clip-rule="evenodd" d="M20.3167 16.311C20.7523 16.311 21.1055 15.9578 21.1055 15.5222C21.1055 15.0865 20.7523 14.7333 20.3167 14.7333C19.881 14.7333 19.5278 15.0865 19.5278 15.5222C19.5278 15.9578 19.881 16.311 20.3167 16.311Z" fill="#DADADA"/>
<path fill-rule="evenodd" clip-rule="evenodd" d="M17.1611 16.311C17.5968 16.311 17.95 15.9578 17.95 15.5222C17.95 15.0865 17.5968 14.7333 17.1611 14.7333C16.7254 14.7333 16.3722 15.0865 16.3722 15.5222C16.3722 15.9578 16.7254 16.311 17.1611 16.311Z" fill="#DADADA"/>
<path fill-rule="evenodd" clip-rule="evenodd" d="M14.0055 16.311C14.4412 16.311 14.7944 15.9578 14.7944 15.5222C14.7944 15.0865 14.4412 14.7333 14.0055 14.7333C13.5699 14.7333 13.2167 15.0865 13.2167 15.5222C13.2167 15.9578 13.5699 16.311 14.0055 16.311Z" fill="#DADADA"/>
<path fill-rule="evenodd" clip-rule="evenodd" d="M10.85 16.311C11.2857 16.311 11.6389 15.9578 11.6389 15.5222C11.6389 15.0865 11.2857 14.7333 10.85 14.7333C10.4143 14.7333 10.0611 15.0865 10.0611 15.5222C10.0611 15.9578 10.4143 16.311 10.85 16.311Z" fill="#DADADA"/>
<path fill-rule="evenodd" clip-rule="evenodd" d="M12.4278 17.8889C12.8634 17.8889 13.2166 17.5357 13.2166 17.1C13.2166 16.6643 12.8634 16.3111 12.4278 16.3111C11.9921 16.3111 11.6389 16.6643 11.6389 17.1C11.6389 17.5357 11.9921 17.8889 12.4278 17.8889Z" fill="#DADADA"/>
<path fill-rule="evenodd" clip-rule="evenodd" d="M15.5833 17.8889C16.019 17.8889 16.3722 17.5357 16.3722 17.1C16.3722 16.6643 16.019 16.3111 15.5833 16.3111C15.1476 16.3111 14.7944 16.6643 14.7944 17.1C14.7944 17.5357 15.1476 17.8889 15.5833 17.8889Z" fill="#DADADA"/>
<path fill-rule="evenodd" clip-rule="evenodd" d="M18.7389 17.8889C19.1746 17.8889 19.5278 17.5357 19.5278 17.1C19.5278 16.6643 19.1746 16.3111 18.7389 16.3111C18.3032 16.3111 17.95 16.6643 17.95 17.1C17.95 17.5357 18.3032 17.8889 18.7389 17.8889Z" fill="#DADADA"/>
<path fill-rule="evenodd" clip-rule="evenodd" d="M20.3167 19.4667C20.7523 19.4667 21.1055 19.1135 21.1055 18.6778C21.1055 18.2421 20.7523 17.8889 20.3167 17.8889C19.881 17.8889 19.5278 18.2421 19.5278 18.6778C19.5278 19.1135 19.881 19.4667 20.3167 19.4667Z" fill="#DADADA"/>
<path fill-rule="evenodd" clip-rule="evenodd" d="M17.1611 19.4667C17.5968 19.4667 17.95 19.1135 17.95 18.6778C17.95 18.2421 17.5968 17.8889 17.1611 17.8889C16.7254 17.8889 16.3722 18.2421 16.3722 18.6778C16.3722 19.1135 16.7254 19.4667 17.1611 19.4667Z" fill="#DADADA"/>
<path fill-rule="evenodd" clip-rule="evenodd" d="M14.0055 19.4667C14.4412 19.4667 14.7944 19.1135 14.7944 18.6778C14.7944 18.2421 14.4412 17.8889 14.0055 17.8889C13.5699 17.8889 13.2167 18.2421 13.2167 18.6778C13.2167 19.1135 13.5699 19.4667 14.0055 19.4667Z" fill="#DADADA"/>
<path fill-rule="evenodd" clip-rule="evenodd" d="M10.85 19.4667C11.2857 19.4667 11.6389 19.1135 11.6389 18.6778C11.6389 18.2421 11.2857 17.8889 10.85 17.8889C10.4143 17.8889 10.0611 18.2421 10.0611 18.6778C10.0611 19.1135 10.4143 19.4667 10.85 19.4667Z" fill="#DADADA"/>
</g>
</g>
<g clip-path="url(#clip1_3909_7523)">
<path d="M0 5.33333C0 2.38781 2.38781 0 5.33333 0H14.6667C17.6122 0 20 2.38781 20 5.33333V14.6667C20 17.6122 17.6122 20 14.6667 20H5.33333C2.38781 20 0 17.6122 0 14.6667V5.33333Z" fill="#E6007A"/>
<path d="M0 5.33333C0 2.38781 2.38781 0 5.33333 0H14.6667C17.6122 0 20 2.38781 20 5.33333V14.6667C20 17.6122 17.6122 20 14.6667 20H5.33333C2.38781 20 0 17.6122 0 14.6667V5.33333Z" fill="url(#paint0_linear_3909_7523)"/>
<path d="M15.9372 13.0766L13.9562 15.1877C13.9133 15.2336 13.8614 15.2702 13.8037 15.2952C13.746 15.3203 13.6838 15.3332 13.6208 15.3333H4.23016C4.18538 15.3333 4.14157 15.3203 4.1041 15.2959C4.06664 15.2715 4.03714 15.2368 4.01922 15.196C4.00131 15.1552 3.99575 15.1101 4.00324 15.0662C4.01072 15.0223 4.03092 14.9815 4.06136 14.9488L6.0401 12.8377C6.08295 12.7919 6.13483 12.7553 6.19254 12.7303C6.25024 12.7052 6.31252 12.6923 6.37548 12.6922H15.7661C15.8113 12.6913 15.8558 12.7036 15.8939 12.7278C15.932 12.7519 15.9622 12.7867 15.9804 12.8278C15.9988 12.8689 16.0043 12.9145 15.9966 12.9587C15.9889 13.003 15.9682 13.044 15.9372 13.0766ZM13.9562 8.82443C13.9132 8.77879 13.8612 8.74234 13.8036 8.71731C13.7459 8.69229 13.6837 8.67921 13.6208 8.67889H4.23016C4.18538 8.67891 4.14157 8.69191 4.1041 8.71631C4.06664 8.7407 4.03714 8.77542 4.01922 8.81622C4.00131 8.85702 3.99575 8.90212 4.00324 8.94601C4.01072 8.9899 4.03092 9.03067 4.06136 9.06333L6.0401 11.1755C6.0831 11.2212 6.13503 11.2576 6.1927 11.2827C6.25036 11.3077 6.31256 11.3208 6.37548 11.3211H15.7661C15.8108 11.3209 15.8544 11.3077 15.8918 11.2832C15.9291 11.2587 15.9584 11.224 15.9762 11.1833C15.9939 11.1425 15.9994 11.0975 15.9918 11.0537C15.9843 11.0099 15.9642 10.9692 15.9338 10.9367L13.9562 8.82443ZM4.23016 7.30777H13.6208C13.6838 7.30771 13.746 7.29475 13.8037 7.2697C13.8614 7.24467 13.9133 7.20807 13.9562 7.16221L15.9372 5.05112C15.9682 5.01851 15.9889 4.97749 15.9966 4.93321C16.0043 4.88893 15.9988 4.84338 15.9804 4.80229C15.9622 4.76119 15.932 4.72639 15.8939 4.70226C15.8558 4.67813 15.8113 4.66575 15.7661 4.66667H6.37548C6.31252 4.66674 6.25024 4.6797 6.19254 4.70474C6.13483 4.72978 6.08295 4.76637 6.0401 4.81223L4.06136 6.92333C4.03092 6.95598 4.01072 6.99676 4.00324 7.04065C3.99575 7.08454 4.00131 7.12964 4.01922 7.17044C4.03714 7.21124 4.06664 7.24596 4.1041 7.27035C4.14157 7.29475 4.18538 7.30775 4.23016 7.30777Z" fill="white"/>
</g>
<defs>
<linearGradient id="paint0_linear_3909_7523" x1="1.68786" y1="20.4771" x2="20.1692" y2="1.84278" gradientUnits="userSpaceOnUse">
<stop offset="0.08" stop-color="#9945FF"/>
<stop offset="0.3" stop-color="#8752F3"/>
<stop offset="0.5" stop-color="#5497D5"/>
<stop offset="0.6" stop-color="#43B4CA"/>
<stop offset="0.72" stop-color="#28E0B9"/>
<stop offset="0.97" stop-color="#19FB9B"/>
</linearGradient>
<clipPath id="clip0_3909_7523">
<rect x="10" y="10" width="20" height="20" rx="10" fill="white"/>
</clipPath>
<clipPath id="clip1_3909_7523">
<rect width="20" height="20" rx="10" fill="white"/>
</clipPath>
</defs>
</svg>
