<svg width="30" height="30" viewBox="0 0 30 30" fill="none" xmlns="http://www.w3.org/2000/svg">
<g clip-path="url(#clip0_3909_7525)">
<path d="M10 15.3333C10 12.3878 12.3878 10 15.3333 10H24.6667C27.6122 10 30 12.3878 30 15.3333V24.6667C30 27.6122 27.6122 30 24.6667 30H15.3333C12.3878 30 10 27.6122 10 24.6667V15.3333Z" fill="#012169"/>
<mask id="mask0_3909_7525" style="mask-type:alpha" maskUnits="userSpaceOnUse" x="9" y="10" width="25" height="24">
<path d="M9.66669 16.3111C9.66669 12.8256 12.4923 10 15.9778 10H27.0222C30.5078 10 33.3334 12.8256 33.3334 16.3111V27.3556C33.3334 30.8411 30.5078 33.6667 27.0222 33.6667H15.9778C12.4923 33.6667 9.66669 30.8411 9.66669 27.3556V16.3111Z" fill="#2055AE"/>
</mask>
<g mask="url(#mask0_3909_7525)">
<rect x="8.48334" y="10" width="33.1333" height="23.6667" fill="white"/>
<path d="M8.48334 10H41.6167V11.5778H8.48334V10Z" fill="#D02F44"/>
<path d="M8.48334 13.1556H41.6167V14.7333H8.48334V13.1556Z" fill="#D02F44"/>
<path d="M8.48334 16.3111H41.6167V17.8889H8.48334V16.3111Z" fill="#D02F44"/>
<path d="M8.48334 19.4667H41.6167V21.0444H8.48334V19.4667Z" fill="#D02F44"/>
<path d="M8.48334 22.6222H41.6167V24.2H8.48334V22.6222Z" fill="#D02F44"/>
<path d="M8.48334 25.7778H41.6167V27.3556H8.48334V25.7778Z" fill="#D02F44"/>
<path d="M8.48334 28.9333H41.6167V30.5111H8.48334V28.9333Z" fill="#D02F44"/>
<path d="M8.48334 32.0889H41.6167V33.6667H8.48334V32.0889Z" fill="#D02F44"/>
<rect x="8.48334" y="10" width="14.2" height="11.0444" fill="#46467F"/>
<path fill-rule="evenodd" clip-rule="evenodd" d="M10.85 13.1555C11.2857 13.1555 11.6389 12.8023 11.6389 12.3666C11.6389 11.931 11.2857 11.5778 10.85 11.5778C10.4143 11.5778 10.0611 11.931 10.0611 12.3666C10.0611 12.8023 10.4143 13.1555 10.85 13.1555Z" fill="#DADADA"/>
<path fill-rule="evenodd" clip-rule="evenodd" d="M14.0055 13.1555C14.4412 13.1555 14.7944 12.8023 14.7944 12.3666C14.7944 11.931 14.4412 11.5778 14.0055 11.5778C13.5699 11.5778 13.2167 11.931 13.2167 12.3666C13.2167 12.8023 13.5699 13.1555 14.0055 13.1555Z" fill="#DADADA"/>
<path fill-rule="evenodd" clip-rule="evenodd" d="M17.1611 13.1555C17.5968 13.1555 17.95 12.8023 17.95 12.3666C17.95 11.931 17.5968 11.5778 17.1611 11.5778C16.7254 11.5778 16.3722 11.931 16.3722 12.3666C16.3722 12.8023 16.7254 13.1555 17.1611 13.1555Z" fill="#DADADA"/>
<path fill-rule="evenodd" clip-rule="evenodd" d="M20.3167 13.1555C20.7523 13.1555 21.1055 12.8023 21.1055 12.3666C21.1055 11.931 20.7523 11.5778 20.3167 11.5778C19.881 11.5778 19.5278 11.931 19.5278 12.3666C19.5278 12.8023 19.881 13.1555 20.3167 13.1555Z" fill="#DADADA"/>
<path fill-rule="evenodd" clip-rule="evenodd" d="M12.4278 14.7333C12.8635 14.7333 13.2167 14.3801 13.2167 13.9444C13.2167 13.5087 12.8635 13.1555 12.4278 13.1555C11.9921 13.1555 11.6389 13.5087 11.6389 13.9444C11.6389 14.3801 11.9921 14.7333 12.4278 14.7333Z" fill="#DADADA"/>
<path fill-rule="evenodd" clip-rule="evenodd" d="M15.5833 14.7334C16.019 14.7334 16.3722 14.3802 16.3722 13.9445C16.3722 13.5088 16.019 13.1556 15.5833 13.1556C15.1476 13.1556 14.7944 13.5088 14.7944 13.9445C14.7944 14.3802 15.1476 14.7334 15.5833 14.7334Z" fill="#DADADA"/>
<path fill-rule="evenodd" clip-rule="evenodd" d="M18.7389 14.7334C19.1746 14.7334 19.5278 14.3802 19.5278 13.9445C19.5278 13.5088 19.1746 13.1556 18.7389 13.1556C18.3032 13.1556 17.95 13.5088 17.95 13.9445C17.95 14.3802 18.3032 14.7334 18.7389 14.7334Z" fill="#DADADA"/>
<path fill-rule="evenodd" clip-rule="evenodd" d="M20.3167 16.311C20.7523 16.311 21.1055 15.9578 21.1055 15.5222C21.1055 15.0865 20.7523 14.7333 20.3167 14.7333C19.881 14.7333 19.5278 15.0865 19.5278 15.5222C19.5278 15.9578 19.881 16.311 20.3167 16.311Z" fill="#DADADA"/>
<path fill-rule="evenodd" clip-rule="evenodd" d="M17.1611 16.311C17.5968 16.311 17.95 15.9578 17.95 15.5222C17.95 15.0865 17.5968 14.7333 17.1611 14.7333C16.7254 14.7333 16.3722 15.0865 16.3722 15.5222C16.3722 15.9578 16.7254 16.311 17.1611 16.311Z" fill="#DADADA"/>
<path fill-rule="evenodd" clip-rule="evenodd" d="M14.0055 16.311C14.4412 16.311 14.7944 15.9578 14.7944 15.5222C14.7944 15.0865 14.4412 14.7333 14.0055 14.7333C13.5699 14.7333 13.2167 15.0865 13.2167 15.5222C13.2167 15.9578 13.5699 16.311 14.0055 16.311Z" fill="#DADADA"/>
<path fill-rule="evenodd" clip-rule="evenodd" d="M10.85 16.311C11.2857 16.311 11.6389 15.9578 11.6389 15.5222C11.6389 15.0865 11.2857 14.7333 10.85 14.7333C10.4143 14.7333 10.0611 15.0865 10.0611 15.5222C10.0611 15.9578 10.4143 16.311 10.85 16.311Z" fill="#DADADA"/>
<path fill-rule="evenodd" clip-rule="evenodd" d="M12.4278 17.8889C12.8634 17.8889 13.2166 17.5357 13.2166 17.1C13.2166 16.6643 12.8634 16.3111 12.4278 16.3111C11.9921 16.3111 11.6389 16.6643 11.6389 17.1C11.6389 17.5357 11.9921 17.8889 12.4278 17.8889Z" fill="#DADADA"/>
<path fill-rule="evenodd" clip-rule="evenodd" d="M15.5833 17.8889C16.019 17.8889 16.3722 17.5357 16.3722 17.1C16.3722 16.6643 16.019 16.3111 15.5833 16.3111C15.1476 16.3111 14.7944 16.6643 14.7944 17.1C14.7944 17.5357 15.1476 17.8889 15.5833 17.8889Z" fill="#DADADA"/>
<path fill-rule="evenodd" clip-rule="evenodd" d="M18.7389 17.8889C19.1746 17.8889 19.5278 17.5357 19.5278 17.1C19.5278 16.6643 19.1746 16.3111 18.7389 16.3111C18.3032 16.3111 17.95 16.6643 17.95 17.1C17.95 17.5357 18.3032 17.8889 18.7389 17.8889Z" fill="#DADADA"/>
<path fill-rule="evenodd" clip-rule="evenodd" d="M20.3167 19.4667C20.7523 19.4667 21.1055 19.1135 21.1055 18.6778C21.1055 18.2421 20.7523 17.8889 20.3167 17.8889C19.881 17.8889 19.5278 18.2421 19.5278 18.6778C19.5278 19.1135 19.881 19.4667 20.3167 19.4667Z" fill="#DADADA"/>
<path fill-rule="evenodd" clip-rule="evenodd" d="M17.1611 19.4667C17.5968 19.4667 17.95 19.1135 17.95 18.6778C17.95 18.2421 17.5968 17.8889 17.1611 17.8889C16.7254 17.8889 16.3722 18.2421 16.3722 18.6778C16.3722 19.1135 16.7254 19.4667 17.1611 19.4667Z" fill="#DADADA"/>
<path fill-rule="evenodd" clip-rule="evenodd" d="M14.0055 19.4667C14.4412 19.4667 14.7944 19.1135 14.7944 18.6778C14.7944 18.2421 14.4412 17.8889 14.0055 17.8889C13.5699 17.8889 13.2167 18.2421 13.2167 18.6778C13.2167 19.1135 13.5699 19.4667 14.0055 19.4667Z" fill="#DADADA"/>
<path fill-rule="evenodd" clip-rule="evenodd" d="M10.85 19.4667C11.2857 19.4667 11.6389 19.1135 11.6389 18.6778C11.6389 18.2421 11.2857 17.8889 10.85 17.8889C10.4143 17.8889 10.0611 18.2421 10.0611 18.6778C10.0611 19.1135 10.4143 19.4667 10.85 19.4667Z" fill="#DADADA"/>
</g>
</g>
<g clip-path="url(#clip1_3909_7525)">
<path d="M0 5.33333C0 2.38781 2.38781 0 5.33333 0H14.6667C17.6122 0 20 2.38781 20 5.33333V14.6667C20 17.6122 17.6122 20 14.6667 20H5.33333C2.38781 20 0 17.6122 0 14.6667V5.33333Z" fill="#FF007A"/>
<path fill-rule="evenodd" clip-rule="evenodd" d="M2.63218 1.0435C4.55877 3.39722 6.67413 6.3542 7.01627 6.83247C7.03452 6.85797 7.04772 6.87642 7.05558 6.88736C7.23797 7.14112 7.38854 7.32975 7.50288 7.473C7.75673 7.791 7.83205 7.88538 7.68059 7.97206C7.55842 8.04195 7.43238 8.065 7.30662 8.065C7.16438 8.065 7.00412 7.99605 6.88743 7.88463C6.80495 7.8059 6.24057 6.98083 5.47207 5.78055C4.88405 4.86213 4.39196 4.10026 4.37853 4.08751C4.34749 4.058 4.34803 4.059 5.41211 5.97546C6.08027 7.17887 6.53731 8.06816 6.53731 8.12505C6.53731 8.24078 6.50594 8.30161 6.36411 8.46085C6.12768 8.72639 6.02198 9.02471 5.94568 9.64209C5.86015 10.3342 5.61964 10.8231 4.9531 11.6598C4.56293 12.1496 4.49909 12.2394 4.40064 12.4368C4.27664 12.6854 4.24254 12.8247 4.22872 13.1386C4.21411 13.4705 4.24256 13.6849 4.3433 14.0022C4.4315 14.2801 4.52356 14.4636 4.7589 14.8305C4.96201 15.1471 5.07896 15.3824 5.07896 15.4745C5.07896 15.5477 5.09285 15.5478 5.40757 15.4763C6.16075 15.305 6.77233 15.004 7.11629 14.635C7.32917 14.4066 7.37915 14.2805 7.38076 13.9675C7.38183 13.7628 7.37467 13.7199 7.3197 13.6022C7.23021 13.4104 7.06729 13.2511 6.70821 13.004C6.23772 12.6802 6.03677 12.4196 5.98126 12.0612C5.93573 11.7671 5.98855 11.5596 6.24883 11.0105C6.51823 10.4421 6.58499 10.1999 6.63015 9.62696C6.65932 9.25682 6.69971 9.11086 6.80537 8.99373C6.91556 8.87155 7.01475 8.83016 7.28743 8.7926C7.732 8.73152 8.01507 8.61574 8.24776 8.39991C8.44962 8.21267 8.53409 8.03226 8.54705 7.76067L8.55689 7.55482L8.44409 7.42244C8.03559 6.943 2.35861 0.666626 2.33347 0.666626C2.3281 0.666626 2.46252 0.836232 2.63218 1.0435ZM5.30827 13.5142C5.40063 13.3495 5.35156 13.1379 5.19706 13.0344C5.05109 12.9367 4.82433 12.9828 4.82433 13.1101C4.82433 13.1489 4.84567 13.1772 4.89378 13.2022C4.97477 13.2441 4.98065 13.2913 4.91692 13.3877C4.85238 13.4853 4.85759 13.5712 4.93162 13.6295C5.05093 13.7235 5.21981 13.6718 5.30827 13.5142ZM8.08825 4.5357C7.906 4.50724 7.89832 4.50391 7.98408 4.49064C8.14843 4.46519 8.53651 4.49987 8.80395 4.56388C9.42828 4.71326 9.99639 5.09593 10.6028 5.77557L10.7639 5.95612L10.9944 5.91883C11.9653 5.76177 12.9531 5.88659 13.7792 6.27074C14.0065 6.37644 14.3648 6.58681 14.4096 6.64087C14.4238 6.6581 14.4501 6.76902 14.4678 6.88736C14.5291 7.2968 14.4985 7.61065 14.374 7.84505C14.3064 7.97261 14.3026 8.01303 14.348 8.1222C14.3844 8.20931 14.4857 8.27378 14.586 8.27364C14.7913 8.27336 15.0122 7.9393 15.1147 7.47448L15.1553 7.28984L15.2359 7.38171C15.6778 7.88571 16.025 8.57304 16.0846 9.06226L16.1001 9.18981L16.0258 9.07387C15.8979 8.87435 15.7695 8.73848 15.605 8.62893C15.3085 8.43144 14.995 8.36424 14.1647 8.32019C13.4148 8.28042 12.9904 8.21594 12.5696 8.07781C11.8535 7.84282 11.4926 7.52986 10.642 6.40661C10.2642 5.90769 10.0307 5.63165 9.79848 5.40935C9.27069 4.90425 8.7521 4.63935 8.08825 4.5357ZM14.5787 5.64965C14.5976 5.31534 14.6427 5.09482 14.7332 4.89344C14.769 4.81373 14.8026 4.74849 14.8078 4.74849C14.813 4.74849 14.7974 4.80733 14.7731 4.87922C14.7073 5.07467 14.6965 5.34198 14.7419 5.65299C14.7994 6.04761 14.8322 6.10455 15.2465 6.53083C15.4409 6.73077 15.667 6.98294 15.7489 7.0912L15.8979 7.28806L15.7489 7.14738C15.5667 6.97533 15.1476 6.63981 15.0551 6.59184C14.993 6.55968 14.9837 6.56023 14.9455 6.59859C14.9102 6.63394 14.9027 6.68705 14.8978 6.93813C14.8902 7.32946 14.8373 7.58063 14.7093 7.83178C14.6402 7.96762 14.6292 7.93863 14.6918 7.78531C14.7386 7.67083 14.7433 7.6205 14.743 7.24168C14.7423 6.48052 14.6525 6.29753 14.126 5.98406C13.9927 5.90466 13.7729 5.79013 13.6377 5.72955C13.5025 5.66897 13.3951 5.61621 13.399 5.61227C13.4139 5.59733 13.9274 5.74818 14.134 5.82819C14.4414 5.94721 14.4921 5.96264 14.5295 5.94828C14.5544 5.93865 14.5666 5.8653 14.5787 5.64965ZM7.89292 5.0653C7.84337 5.65295 8.07228 6.43906 8.44226 6.95177C8.72906 7.34922 9.17365 7.65807 9.50188 7.6879C9.71679 7.70743 9.78137 7.6397 9.68414 7.49679C9.54917 7.29836 9.38315 6.99282 9.33921 6.86201C9.31192 6.78075 9.25261 6.5407 9.20741 6.32859C9.05308 5.60441 8.90138 5.32239 8.55098 5.10818C8.42329 5.03011 8.15061 4.92795 7.99247 4.89892L7.90825 4.88344L7.89292 5.0653ZM14.13 10.7676C12.4009 10.0669 11.792 9.45866 11.792 8.43237C11.792 8.28135 11.7972 8.15777 11.8034 8.15777C11.8098 8.15777 11.8766 8.20761 11.9521 8.26854C12.3027 8.5516 12.6953 8.67251 13.7823 8.83208C14.4218 8.92607 14.7817 9.00189 15.1138 9.11278C16.1691 9.46507 16.822 10.18 16.9777 11.1538C17.023 11.4367 16.9965 11.9673 16.9231 12.247C16.8652 12.4679 16.6884 12.866 16.6416 12.8813C16.6286 12.8855 16.6158 12.8354 16.6125 12.7672C16.5947 12.4015 16.4112 12.0455 16.1029 11.7788C15.7524 11.4756 15.2814 11.2343 14.13 10.7676ZM12.8326 10.6905C12.8569 10.7633 12.8945 10.929 12.9161 11.0587C13.0546 11.8884 12.622 12.5587 11.7804 12.8184C11.6913 12.8459 11.3403 12.915 11.0005 12.972C10.3126 13.0873 10.0055 13.1689 9.69706 13.3185C9.47831 13.4246 9.21347 13.5834 9.22921 13.5992C9.23428 13.6043 9.28421 13.5923 9.34014 13.5725C9.72913 13.4351 10.162 13.3639 10.8197 13.3295C11.0808 13.3158 11.3776 13.2941 11.4795 13.2812C12.0654 13.2069 12.4716 13.0277 12.7874 12.7042C12.9631 12.5241 13.0679 12.3564 13.1523 12.1198C13.2058 11.9698 13.2131 11.9141 13.2135 11.6483C13.2139 11.3774 13.2074 11.3278 13.1494 11.1612C13.0735 10.9428 12.9839 10.7789 12.8705 10.6507L12.7885 10.5582L12.8326 10.6905ZM13.7088 12.4756C13.479 11.9785 13.4263 11.4986 13.5521 11.0511C13.5656 11.0032 13.5872 10.964 13.6003 10.964C13.6133 10.964 13.6675 10.9936 13.7207 11.0296C13.8265 11.1013 14.0389 11.2222 14.6045 11.5326C15.3104 11.9199 15.7128 12.2198 15.9865 12.5626C16.2261 12.8627 16.3744 13.2045 16.4458 13.6213C16.4863 13.8574 16.4626 14.4255 16.4024 14.6632C16.2126 15.4129 15.7716 16.0017 15.1425 16.3453C15.0503 16.3956 14.9676 16.4369 14.9586 16.4372C14.9497 16.4373 14.9832 16.3514 15.0332 16.2461C15.2448 15.8008 15.2689 15.3677 15.109 14.8856C15.011 14.5904 14.8112 14.2302 14.4079 13.6214C13.939 12.9136 13.8241 12.7252 13.7088 12.4756ZM9.38155 14.1061C8.65434 14.225 7.856 14.6123 7.21437 15.1576L7.02335 15.32L7.19123 15.3464C8.06728 15.4841 8.30318 15.6062 8.91085 16.2363C9.26055 16.5988 9.37866 16.6795 9.66871 16.7541C10.0947 16.8635 10.5147 16.6624 10.6587 16.2798C10.7231 16.1089 10.7145 15.8259 10.6406 15.6838C10.465 15.3453 9.95334 15.2359 9.70591 15.4838C9.49981 15.6903 9.55986 16.0014 9.81619 16.0548C9.87487 16.0672 9.8732 16.0645 9.80123 16.0318C9.68905 15.9807 9.64032 15.9099 9.6397 15.7973C9.63827 15.5331 9.93855 15.3849 10.2179 15.5117C10.4224 15.6046 10.5037 15.726 10.5037 15.9388C10.5037 16.2665 10.2266 16.5135 9.90412 16.4731C9.73176 16.4515 9.52097 16.3405 9.40794 16.2119C9.12354 15.8882 9.23433 15.3774 9.63141 15.1814C9.93371 15.0323 10.3355 15.069 10.6472 15.2744C11.0052 15.5104 11.1574 15.7261 11.4658 16.434C11.5662 16.6645 11.6954 16.924 11.7528 17.0107C12.045 17.4508 12.3949 17.6666 12.8165 17.6666C13.049 17.6666 13.2239 17.6239 13.444 17.5133C13.6075 17.4311 13.8392 17.2749 13.8225 17.2581C13.8178 17.2534 13.75 17.2746 13.6718 17.3053C13.2115 17.486 12.7436 17.4736 12.4719 17.2734C12.3008 17.1473 12.1627 16.8962 12.0918 16.5822C12.0795 16.5279 12.039 16.2878 12.0017 16.0488C11.9072 15.4428 11.8165 15.1705 11.605 14.8579C11.3886 14.5381 10.9725 14.2697 10.5073 14.1499C10.217 14.0751 9.69496 14.0548 9.38155 14.1061ZM8.36306 9.42127C8.42587 9.1878 8.62874 8.96514 8.83744 8.90061C8.97015 8.85962 9.24447 8.8858 9.37345 8.95177C9.6234 9.07972 9.80486 9.37107 9.76549 9.5814C9.71746 9.83785 9.30428 10.0431 8.829 10.0464C8.58624 10.0481 8.49658 10.0153 8.40388 9.89069C8.3465 9.81351 8.32475 9.56371 8.36306 9.42127ZM9.30963 9.04321C9.43428 9.11983 9.46634 9.23312 9.39305 9.33792C9.34257 9.41014 9.18627 9.47876 9.07205 9.47876C8.90046 9.47876 8.71326 9.3561 8.71326 9.24377C8.71326 9.01807 9.07224 8.89725 9.30963 9.04321Z" fill="white"/>
</g>
<defs>
<clipPath id="clip0_3909_7525">
<rect x="10" y="10" width="20" height="20" rx="10" fill="white"/>
</clipPath>
<clipPath id="clip1_3909_7525">
<rect width="20" height="20" rx="10" fill="white"/>
</clipPath>
</defs>
</svg>
