<svg width="30" height="30" viewBox="0 0 30 30" fill="none" xmlns="http://www.w3.org/2000/svg">
<g clip-path="url(#clip0_3909_7533)">
<path d="M10 15.3333C10 12.3878 12.3878 10 15.3333 10H24.6667C27.6122 10 30 12.3878 30 15.3333V24.6667C30 27.6122 27.6122 30 24.6667 30H15.3333C12.3878 30 10 27.6122 10 24.6667V15.3333Z" fill="#012169"/>
<mask id="mask0_3909_7533" style="mask-type:alpha" maskUnits="userSpaceOnUse" x="9" y="10" width="25" height="24">
<path d="M9.66669 16.3111C9.66669 12.8256 12.4923 10 15.9778 10H27.0222C30.5078 10 33.3334 12.8256 33.3334 16.3111V27.3556C33.3334 30.8411 30.5078 33.6667 27.0222 33.6667H15.9778C12.4923 33.6667 9.66669 30.8411 9.66669 27.3556V16.3111Z" fill="#2055AE"/>
</mask>
<g mask="url(#mask0_3909_7533)">
<rect x="8.48334" y="10" width="33.1333" height="23.6667" fill="white"/>
<path d="M8.48334 10H41.6167V11.5778H8.48334V10Z" fill="#D02F44"/>
<path d="M8.48334 13.1556H41.6167V14.7333H8.48334V13.1556Z" fill="#D02F44"/>
<path d="M8.48334 16.3111H41.6167V17.8889H8.48334V16.3111Z" fill="#D02F44"/>
<path d="M8.48334 19.4667H41.6167V21.0444H8.48334V19.4667Z" fill="#D02F44"/>
<path d="M8.48334 22.6222H41.6167V24.2H8.48334V22.6222Z" fill="#D02F44"/>
<path d="M8.48334 25.7778H41.6167V27.3556H8.48334V25.7778Z" fill="#D02F44"/>
<path d="M8.48334 28.9333H41.6167V30.5111H8.48334V28.9333Z" fill="#D02F44"/>
<path d="M8.48334 32.0889H41.6167V33.6667H8.48334V32.0889Z" fill="#D02F44"/>
<rect x="8.48334" y="10" width="14.2" height="11.0444" fill="#46467F"/>
<path fill-rule="evenodd" clip-rule="evenodd" d="M10.85 13.1555C11.2857 13.1555 11.6389 12.8023 11.6389 12.3666C11.6389 11.931 11.2857 11.5778 10.85 11.5778C10.4143 11.5778 10.0611 11.931 10.0611 12.3666C10.0611 12.8023 10.4143 13.1555 10.85 13.1555Z" fill="#DADADA"/>
<path fill-rule="evenodd" clip-rule="evenodd" d="M14.0055 13.1555C14.4412 13.1555 14.7944 12.8023 14.7944 12.3666C14.7944 11.931 14.4412 11.5778 14.0055 11.5778C13.5699 11.5778 13.2167 11.931 13.2167 12.3666C13.2167 12.8023 13.5699 13.1555 14.0055 13.1555Z" fill="#DADADA"/>
<path fill-rule="evenodd" clip-rule="evenodd" d="M17.1611 13.1555C17.5968 13.1555 17.95 12.8023 17.95 12.3666C17.95 11.931 17.5968 11.5778 17.1611 11.5778C16.7254 11.5778 16.3722 11.931 16.3722 12.3666C16.3722 12.8023 16.7254 13.1555 17.1611 13.1555Z" fill="#DADADA"/>
<path fill-rule="evenodd" clip-rule="evenodd" d="M20.3167 13.1555C20.7523 13.1555 21.1055 12.8023 21.1055 12.3666C21.1055 11.931 20.7523 11.5778 20.3167 11.5778C19.881 11.5778 19.5278 11.931 19.5278 12.3666C19.5278 12.8023 19.881 13.1555 20.3167 13.1555Z" fill="#DADADA"/>
<path fill-rule="evenodd" clip-rule="evenodd" d="M12.4278 14.7333C12.8635 14.7333 13.2167 14.3801 13.2167 13.9444C13.2167 13.5087 12.8635 13.1555 12.4278 13.1555C11.9921 13.1555 11.6389 13.5087 11.6389 13.9444C11.6389 14.3801 11.9921 14.7333 12.4278 14.7333Z" fill="#DADADA"/>
<path fill-rule="evenodd" clip-rule="evenodd" d="M15.5833 14.7334C16.019 14.7334 16.3722 14.3802 16.3722 13.9445C16.3722 13.5088 16.019 13.1556 15.5833 13.1556C15.1476 13.1556 14.7944 13.5088 14.7944 13.9445C14.7944 14.3802 15.1476 14.7334 15.5833 14.7334Z" fill="#DADADA"/>
<path fill-rule="evenodd" clip-rule="evenodd" d="M18.7389 14.7334C19.1746 14.7334 19.5278 14.3802 19.5278 13.9445C19.5278 13.5088 19.1746 13.1556 18.7389 13.1556C18.3032 13.1556 17.95 13.5088 17.95 13.9445C17.95 14.3802 18.3032 14.7334 18.7389 14.7334Z" fill="#DADADA"/>
<path fill-rule="evenodd" clip-rule="evenodd" d="M20.3167 16.311C20.7523 16.311 21.1055 15.9578 21.1055 15.5222C21.1055 15.0865 20.7523 14.7333 20.3167 14.7333C19.881 14.7333 19.5278 15.0865 19.5278 15.5222C19.5278 15.9578 19.881 16.311 20.3167 16.311Z" fill="#DADADA"/>
<path fill-rule="evenodd" clip-rule="evenodd" d="M17.1611 16.311C17.5968 16.311 17.95 15.9578 17.95 15.5222C17.95 15.0865 17.5968 14.7333 17.1611 14.7333C16.7254 14.7333 16.3722 15.0865 16.3722 15.5222C16.3722 15.9578 16.7254 16.311 17.1611 16.311Z" fill="#DADADA"/>
<path fill-rule="evenodd" clip-rule="evenodd" d="M14.0055 16.311C14.4412 16.311 14.7944 15.9578 14.7944 15.5222C14.7944 15.0865 14.4412 14.7333 14.0055 14.7333C13.5699 14.7333 13.2167 15.0865 13.2167 15.5222C13.2167 15.9578 13.5699 16.311 14.0055 16.311Z" fill="#DADADA"/>
<path fill-rule="evenodd" clip-rule="evenodd" d="M10.85 16.311C11.2857 16.311 11.6389 15.9578 11.6389 15.5222C11.6389 15.0865 11.2857 14.7333 10.85 14.7333C10.4143 14.7333 10.0611 15.0865 10.0611 15.5222C10.0611 15.9578 10.4143 16.311 10.85 16.311Z" fill="#DADADA"/>
<path fill-rule="evenodd" clip-rule="evenodd" d="M12.4278 17.8889C12.8634 17.8889 13.2166 17.5357 13.2166 17.1C13.2166 16.6643 12.8634 16.3111 12.4278 16.3111C11.9921 16.3111 11.6389 16.6643 11.6389 17.1C11.6389 17.5357 11.9921 17.8889 12.4278 17.8889Z" fill="#DADADA"/>
<path fill-rule="evenodd" clip-rule="evenodd" d="M15.5833 17.8889C16.019 17.8889 16.3722 17.5357 16.3722 17.1C16.3722 16.6643 16.019 16.3111 15.5833 16.3111C15.1476 16.3111 14.7944 16.6643 14.7944 17.1C14.7944 17.5357 15.1476 17.8889 15.5833 17.8889Z" fill="#DADADA"/>
<path fill-rule="evenodd" clip-rule="evenodd" d="M18.7389 17.8889C19.1746 17.8889 19.5278 17.5357 19.5278 17.1C19.5278 16.6643 19.1746 16.3111 18.7389 16.3111C18.3032 16.3111 17.95 16.6643 17.95 17.1C17.95 17.5357 18.3032 17.8889 18.7389 17.8889Z" fill="#DADADA"/>
<path fill-rule="evenodd" clip-rule="evenodd" d="M20.3167 19.4667C20.7523 19.4667 21.1055 19.1135 21.1055 18.6778C21.1055 18.2421 20.7523 17.8889 20.3167 17.8889C19.881 17.8889 19.5278 18.2421 19.5278 18.6778C19.5278 19.1135 19.881 19.4667 20.3167 19.4667Z" fill="#DADADA"/>
<path fill-rule="evenodd" clip-rule="evenodd" d="M17.1611 19.4667C17.5968 19.4667 17.95 19.1135 17.95 18.6778C17.95 18.2421 17.5968 17.8889 17.1611 17.8889C16.7254 17.8889 16.3722 18.2421 16.3722 18.6778C16.3722 19.1135 16.7254 19.4667 17.1611 19.4667Z" fill="#DADADA"/>
<path fill-rule="evenodd" clip-rule="evenodd" d="M14.0055 19.4667C14.4412 19.4667 14.7944 19.1135 14.7944 18.6778C14.7944 18.2421 14.4412 17.8889 14.0055 17.8889C13.5699 17.8889 13.2167 18.2421 13.2167 18.6778C13.2167 19.1135 13.5699 19.4667 14.0055 19.4667Z" fill="#DADADA"/>
<path fill-rule="evenodd" clip-rule="evenodd" d="M10.85 19.4667C11.2857 19.4667 11.6389 19.1135 11.6389 18.6778C11.6389 18.2421 11.2857 17.8889 10.85 17.8889C10.4143 17.8889 10.0611 18.2421 10.0611 18.6778C10.0611 19.1135 10.4143 19.4667 10.85 19.4667Z" fill="#DADADA"/>
</g>
</g>
<g clip-path="url(#clip1_3909_7533)">
<path d="M0 5.33333C0 2.38781 2.38781 0 5.33333 0H14.6667C17.6122 0 20 2.38781 20 5.33333V14.6667C20 17.6122 17.6122 20 14.6667 20H5.33333C2.38781 20 0 17.6122 0 14.6667V5.33333Z" fill="#4CBFDF"/>
<mask id="mask1_3909_7533" style="mask-type:alpha" maskUnits="userSpaceOnUse" x="0" y="0" width="20" height="20">
<path d="M0 5.33333C0 2.38781 2.38781 0 5.33333 0H14.6667C17.6122 0 20 2.38781 20 5.33333V14.6667C20 17.6122 17.6122 20 14.6667 20H5.33333C2.38781 20 0 17.6122 0 14.6667V5.33333Z" fill="#2055AE"/>
</mask>
<g mask="url(#mask1_3909_7533)">
<path d="M5.60422 4.3604C5.98093 4.29421 6.37941 4.34747 6.71052 4.54397C7.03179 4.69754 7.21263 5.02073 7.36704 5.32427C7.46498 5.50836 7.47379 5.71934 7.47379 5.92307C7.48622 6.58651 7.73806 7.26288 8.24328 7.70966C8.68735 8.18487 9.33558 8.44911 9.98485 8.43567C10.6792 8.46928 11.3575 8.1523 11.8466 7.67346C12.2477 7.24737 12.5213 6.67494 12.5094 6.08286C12.5198 5.62678 12.6275 5.14277 12.9669 4.81441C13.2742 4.5481 13.667 4.36453 14.0779 4.35109C14.4847 4.37591 14.9044 4.5088 15.1961 4.80458C15.8542 5.39615 15.8102 6.56376 15.1194 7.11344C14.8085 7.43197 14.3437 7.47283 13.9235 7.49092C13.3141 7.46352 12.7431 7.78257 12.3146 8.19263C11.8995 8.60476 11.5953 9.15702 11.5617 9.74807C11.5513 10.1147 11.5482 10.4968 11.6907 10.8417C11.8627 11.2549 12.114 11.6427 12.456 11.9354C12.8058 12.2183 13.2343 12.3977 13.6758 12.4778C13.9432 12.5332 14.222 12.4887 14.4873 12.5601C14.951 12.6511 15.3257 13.0027 15.5355 13.4133C15.6226 13.5715 15.6666 13.7504 15.6651 13.9309C15.664 14.1657 15.6858 14.4108 15.5951 14.6331C15.3391 15.2624 14.6717 15.7175 13.9841 15.6622C13.3141 15.5784 12.668 15.0675 12.5674 14.3782C12.5229 13.9464 12.5312 13.4945 12.342 13.0932C12.0886 12.4597 11.5663 11.9339 10.9217 11.7012C10.3968 11.4985 9.80298 11.4752 9.26667 11.6505C8.41945 11.8925 7.74946 12.6257 7.54322 13.4759C7.45565 13.752 7.48985 14.0436 7.46342 14.3275C7.3857 14.842 7.01883 15.3059 6.5333 15.4977C5.88559 15.7764 5.03786 15.5763 4.64249 14.9754C4.36371 14.613 4.31449 14.1321 4.38548 13.6936C4.52746 13.1459 4.96531 12.6966 5.50784 12.5342C5.91461 12.3905 6.36179 12.5425 6.76545 12.3811C7.34994 12.1547 7.88418 11.7441 8.16089 11.1716C8.45521 10.6447 8.51998 10.0139 8.40754 9.42695C8.16244 8.27382 7.01831 7.39992 5.84103 7.44387C5.39436 7.46869 4.99899 7.20652 4.70104 6.89884C4.16784 6.3047 4.21759 5.27877 4.83007 4.75753C5.05185 4.56879 5.31612 4.41934 5.60422 4.3604Z" fill="white"/>
</g>
</g>
<defs>
<clipPath id="clip0_3909_7533">
<rect x="10" y="10" width="20" height="20" rx="10" fill="white"/>
</clipPath>
<clipPath id="clip1_3909_7533">
<rect width="20" height="20" rx="10" fill="white"/>
</clipPath>
</defs>
</svg>
