<svg width="30" height="30" viewBox="0 0 30 30" fill="none" xmlns="http://www.w3.org/2000/svg">
<g clip-path="url(#clip0_3909_7534)">
<path d="M10 15.3333C10 12.3878 12.3878 10 15.3333 10H24.6667C27.6122 10 30 12.3878 30 15.3333V24.6667C30 27.6122 27.6122 30 24.6667 30H15.3333C12.3878 30 10 27.6122 10 24.6667V15.3333Z" fill="#012169"/>
<mask id="mask0_3909_7534" style="mask-type:alpha" maskUnits="userSpaceOnUse" x="9" y="10" width="25" height="24">
<path d="M9.66669 16.3111C9.66669 12.8256 12.4923 10 15.9778 10H27.0222C30.5078 10 33.3334 12.8256 33.3334 16.3111V27.3556C33.3334 30.8411 30.5078 33.6667 27.0222 33.6667H15.9778C12.4923 33.6667 9.66669 30.8411 9.66669 27.3556V16.3111Z" fill="#2055AE"/>
</mask>
<g mask="url(#mask0_3909_7534)">
<rect x="8.48334" y="10" width="33.1333" height="23.6667" fill="white"/>
<path d="M8.48334 10H41.6167V11.5778H8.48334V10Z" fill="#D02F44"/>
<path d="M8.48334 13.1556H41.6167V14.7333H8.48334V13.1556Z" fill="#D02F44"/>
<path d="M8.48334 16.3111H41.6167V17.8889H8.48334V16.3111Z" fill="#D02F44"/>
<path d="M8.48334 19.4667H41.6167V21.0444H8.48334V19.4667Z" fill="#D02F44"/>
<path d="M8.48334 22.6222H41.6167V24.2H8.48334V22.6222Z" fill="#D02F44"/>
<path d="M8.48334 25.7778H41.6167V27.3556H8.48334V25.7778Z" fill="#D02F44"/>
<path d="M8.48334 28.9333H41.6167V30.5111H8.48334V28.9333Z" fill="#D02F44"/>
<path d="M8.48334 32.0889H41.6167V33.6667H8.48334V32.0889Z" fill="#D02F44"/>
<rect x="8.48334" y="10" width="14.2" height="11.0444" fill="#46467F"/>
<path fill-rule="evenodd" clip-rule="evenodd" d="M10.85 13.1555C11.2857 13.1555 11.6389 12.8023 11.6389 12.3666C11.6389 11.931 11.2857 11.5778 10.85 11.5778C10.4143 11.5778 10.0611 11.931 10.0611 12.3666C10.0611 12.8023 10.4143 13.1555 10.85 13.1555Z" fill="#DADADA"/>
<path fill-rule="evenodd" clip-rule="evenodd" d="M14.0055 13.1555C14.4412 13.1555 14.7944 12.8023 14.7944 12.3666C14.7944 11.931 14.4412 11.5778 14.0055 11.5778C13.5699 11.5778 13.2167 11.931 13.2167 12.3666C13.2167 12.8023 13.5699 13.1555 14.0055 13.1555Z" fill="#DADADA"/>
<path fill-rule="evenodd" clip-rule="evenodd" d="M17.1611 13.1555C17.5968 13.1555 17.95 12.8023 17.95 12.3666C17.95 11.931 17.5968 11.5778 17.1611 11.5778C16.7254 11.5778 16.3722 11.931 16.3722 12.3666C16.3722 12.8023 16.7254 13.1555 17.1611 13.1555Z" fill="#DADADA"/>
<path fill-rule="evenodd" clip-rule="evenodd" d="M20.3167 13.1555C20.7523 13.1555 21.1055 12.8023 21.1055 12.3666C21.1055 11.931 20.7523 11.5778 20.3167 11.5778C19.881 11.5778 19.5278 11.931 19.5278 12.3666C19.5278 12.8023 19.881 13.1555 20.3167 13.1555Z" fill="#DADADA"/>
<path fill-rule="evenodd" clip-rule="evenodd" d="M12.4278 14.7333C12.8635 14.7333 13.2167 14.3801 13.2167 13.9444C13.2167 13.5087 12.8635 13.1555 12.4278 13.1555C11.9921 13.1555 11.6389 13.5087 11.6389 13.9444C11.6389 14.3801 11.9921 14.7333 12.4278 14.7333Z" fill="#DADADA"/>
<path fill-rule="evenodd" clip-rule="evenodd" d="M15.5833 14.7334C16.019 14.7334 16.3722 14.3802 16.3722 13.9445C16.3722 13.5088 16.019 13.1556 15.5833 13.1556C15.1476 13.1556 14.7944 13.5088 14.7944 13.9445C14.7944 14.3802 15.1476 14.7334 15.5833 14.7334Z" fill="#DADADA"/>
<path fill-rule="evenodd" clip-rule="evenodd" d="M18.7389 14.7334C19.1746 14.7334 19.5278 14.3802 19.5278 13.9445C19.5278 13.5088 19.1746 13.1556 18.7389 13.1556C18.3032 13.1556 17.95 13.5088 17.95 13.9445C17.95 14.3802 18.3032 14.7334 18.7389 14.7334Z" fill="#DADADA"/>
<path fill-rule="evenodd" clip-rule="evenodd" d="M20.3167 16.311C20.7523 16.311 21.1055 15.9578 21.1055 15.5222C21.1055 15.0865 20.7523 14.7333 20.3167 14.7333C19.881 14.7333 19.5278 15.0865 19.5278 15.5222C19.5278 15.9578 19.881 16.311 20.3167 16.311Z" fill="#DADADA"/>
<path fill-rule="evenodd" clip-rule="evenodd" d="M17.1611 16.311C17.5968 16.311 17.95 15.9578 17.95 15.5222C17.95 15.0865 17.5968 14.7333 17.1611 14.7333C16.7254 14.7333 16.3722 15.0865 16.3722 15.5222C16.3722 15.9578 16.7254 16.311 17.1611 16.311Z" fill="#DADADA"/>
<path fill-rule="evenodd" clip-rule="evenodd" d="M14.0055 16.311C14.4412 16.311 14.7944 15.9578 14.7944 15.5222C14.7944 15.0865 14.4412 14.7333 14.0055 14.7333C13.5699 14.7333 13.2167 15.0865 13.2167 15.5222C13.2167 15.9578 13.5699 16.311 14.0055 16.311Z" fill="#DADADA"/>
<path fill-rule="evenodd" clip-rule="evenodd" d="M10.85 16.311C11.2857 16.311 11.6389 15.9578 11.6389 15.5222C11.6389 15.0865 11.2857 14.7333 10.85 14.7333C10.4143 14.7333 10.0611 15.0865 10.0611 15.5222C10.0611 15.9578 10.4143 16.311 10.85 16.311Z" fill="#DADADA"/>
<path fill-rule="evenodd" clip-rule="evenodd" d="M12.4278 17.8889C12.8634 17.8889 13.2166 17.5357 13.2166 17.1C13.2166 16.6643 12.8634 16.3111 12.4278 16.3111C11.9921 16.3111 11.6389 16.6643 11.6389 17.1C11.6389 17.5357 11.9921 17.8889 12.4278 17.8889Z" fill="#DADADA"/>
<path fill-rule="evenodd" clip-rule="evenodd" d="M15.5833 17.8889C16.019 17.8889 16.3722 17.5357 16.3722 17.1C16.3722 16.6643 16.019 16.3111 15.5833 16.3111C15.1476 16.3111 14.7944 16.6643 14.7944 17.1C14.7944 17.5357 15.1476 17.8889 15.5833 17.8889Z" fill="#DADADA"/>
<path fill-rule="evenodd" clip-rule="evenodd" d="M18.7389 17.8889C19.1746 17.8889 19.5278 17.5357 19.5278 17.1C19.5278 16.6643 19.1746 16.3111 18.7389 16.3111C18.3032 16.3111 17.95 16.6643 17.95 17.1C17.95 17.5357 18.3032 17.8889 18.7389 17.8889Z" fill="#DADADA"/>
<path fill-rule="evenodd" clip-rule="evenodd" d="M20.3167 19.4667C20.7523 19.4667 21.1055 19.1135 21.1055 18.6778C21.1055 18.2421 20.7523 17.8889 20.3167 17.8889C19.881 17.8889 19.5278 18.2421 19.5278 18.6778C19.5278 19.1135 19.881 19.4667 20.3167 19.4667Z" fill="#DADADA"/>
<path fill-rule="evenodd" clip-rule="evenodd" d="M17.1611 19.4667C17.5968 19.4667 17.95 19.1135 17.95 18.6778C17.95 18.2421 17.5968 17.8889 17.1611 17.8889C16.7254 17.8889 16.3722 18.2421 16.3722 18.6778C16.3722 19.1135 16.7254 19.4667 17.1611 19.4667Z" fill="#DADADA"/>
<path fill-rule="evenodd" clip-rule="evenodd" d="M14.0055 19.4667C14.4412 19.4667 14.7944 19.1135 14.7944 18.6778C14.7944 18.2421 14.4412 17.8889 14.0055 17.8889C13.5699 17.8889 13.2167 18.2421 13.2167 18.6778C13.2167 19.1135 13.5699 19.4667 14.0055 19.4667Z" fill="#DADADA"/>
<path fill-rule="evenodd" clip-rule="evenodd" d="M10.85 19.4667C11.2857 19.4667 11.6389 19.1135 11.6389 18.6778C11.6389 18.2421 11.2857 17.8889 10.85 17.8889C10.4143 17.8889 10.0611 18.2421 10.0611 18.6778C10.0611 19.1135 10.4143 19.4667 10.85 19.4667Z" fill="#DADADA"/>
</g>
</g>
<g clip-path="url(#clip1_3909_7534)">
<path d="M0 5.33333C0 2.38781 2.38781 0 5.33333 0H14.6667C17.6122 0 20 2.38781 20 5.33333V14.6667C20 17.6122 17.6122 20 14.6667 20H5.33333C2.38781 20 0 17.6122 0 14.6667V5.33333Z" fill="#D4AF37"/>
<path fill-rule="evenodd" clip-rule="evenodd" d="M10 17.3333C14.0501 17.3333 17.3334 14.05 17.3334 9.99996C17.3334 5.94987 14.0501 2.66663 10 2.66663C5.94993 2.66663 2.66669 5.94987 2.66669 9.99996C2.66669 14.05 5.94993 17.3333 10 17.3333ZM10 18.3333C14.6024 18.3333 18.3334 14.6023 18.3334 9.99996C18.3334 5.39759 14.6024 1.66663 10 1.66663C5.39765 1.66663 1.66669 5.39759 1.66669 9.99996C1.66669 14.6023 5.39765 18.3333 10 18.3333Z" fill="#F3CB4A"/>
<mask id="mask1_3909_7534" style="mask-type:alpha" maskUnits="userSpaceOnUse" x="0" y="0" width="20" height="20">
<path d="M0 5.33333C0 2.38781 2.38781 0 5.33333 0H14.6667C17.6122 0 20 2.38781 20 5.33333V14.6667C20 17.6122 17.6122 20 14.6667 20H5.33333C2.38781 20 0 17.6122 0 14.6667V5.33333Z" fill="#2055AE"/>
</mask>
<g mask="url(#mask1_3909_7534)">
<path d="M5.52023 7.66663L6.20588 9.08758L6.89152 7.66663H8.04387L6.87424 9.78632L8.07556 11.9412H6.91169L6.20588 10.4939L5.50006 11.9412H4.33331L5.53752 9.78632L4.365 7.66663H5.52023Z" fill="white"/>
<path d="M10.1872 8.565L9.16453 11.9412H8.07844L9.61971 7.66663H10.3082L10.1872 8.565ZM11.0342 11.9412L10.0086 8.565L9.8761 7.66663H10.5733L12.1232 11.9412H11.0342ZM10.9939 10.3471V11.1427H8.84187V10.3471H10.9939Z" fill="white"/>
<path d="M14.6555 7.66663H15.6666V10.4586C15.6666 10.7914 15.5985 11.0732 15.4621 11.3042C15.3257 11.5332 15.1346 11.7064 14.8888 11.8238C14.643 11.9412 14.3539 12 14.0217 12C13.6933 12 13.4042 11.9412 13.1545 11.8238C12.9068 11.7064 12.7128 11.5332 12.5726 11.3042C12.4343 11.0732 12.3652 10.7914 12.3652 10.4586V7.66663H13.3792V10.4586C13.3792 10.6348 13.4042 10.7786 13.4541 10.8902C13.5041 10.9998 13.5771 11.0801 13.6731 11.1309C13.7691 11.1818 13.8853 11.2073 14.0217 11.2073C14.16 11.2073 14.2761 11.1818 14.3703 11.1309C14.4644 11.0801 14.5354 10.9998 14.5834 10.8902C14.6315 10.7786 14.6555 10.6348 14.6555 10.4586V7.66663Z" fill="white"/>
</g>
</g>
<defs>
<clipPath id="clip0_3909_7534">
<rect x="10" y="10" width="20" height="20" rx="10" fill="white"/>
</clipPath>
<clipPath id="clip1_3909_7534">
<rect width="20" height="20" rx="10" fill="white"/>
</clipPath>
</defs>
</svg>
