<svg width="30" height="30" viewBox="0 0 30 30" fill="none" xmlns="http://www.w3.org/2000/svg">
<g clip-path="url(#clip0_3909_6785)">
<path d="M10 15.3333C10 12.3878 12.3878 10 15.3333 10H24.6667C27.6122 10 30 12.3878 30 15.3333V24.6667C30 27.6122 27.6122 30 24.6667 30H15.3333C12.3878 30 10 27.6122 10 24.6667V15.3333Z" fill="#012169"/>
<mask id="mask0_3909_6785" style="mask-type:alpha" maskUnits="userSpaceOnUse" x="10" y="10" width="20" height="20">
<path d="M10 15.3333C10 12.3878 12.3878 10 15.3333 10H24.6667C27.6122 10 30 12.3878 30 15.3333V24.6667C30 27.6122 27.6122 30 24.6667 30H15.3333C12.3878 30 10 27.6122 10 24.6667V15.3333Z" fill="#2055AE"/>
</mask>
<g mask="url(#mask0_3909_6785)">
<path d="M20.1479 10H18.9728L12.7061 14.1058V10H10.1803L10.1805 22.8541H12.7062V18.7483L18.9729 22.8541H20.148C20.3275 22.8541 20.4995 22.7828 20.6264 22.6559C20.7533 22.529 20.8246 22.3569 20.8246 22.1775V21.6409L15.448 18.1184H20.8245V14.7357H15.448L20.8245 11.2132V10.6766C20.8245 10.4971 20.7532 10.325 20.6263 10.1982C20.4995 10.0713 20.3274 10 20.1479 10Z" fill="#F5F5F5"/>
<path d="M20.8245 15.4123H12.0295V10H10V22.8541H12.0295V17.4418H20.8245V15.4123Z" fill="#EA2C4B"/>
<path d="M13.9488 14.7357L20.7216 10.3393C20.6039 10.1401 20.3962 10 20.1479 10H20.0017L12.7062 14.7357H13.9488ZM20.8138 22.2306L14.4784 18.1184H13.2358L20.4302 22.7883C20.6457 22.6883 20.7935 22.4787 20.8138 22.2306Z" fill="#EA2C4B"/>
<path d="M25.187 24.1595L25.4787 25.0573H26.4227L25.659 25.6121L25.9507 26.5098L25.1871 25.955L24.4235 26.5098L24.7151 25.612L23.9515 25.0573H24.8953L25.187 24.1595Z" fill="white"/>
<path d="M25.1871 24.5565L25.3896 25.18H26.0452L25.5148 25.5653L25.7173 26.1887L25.1871 25.8034L24.6568 26.1887L24.8593 25.5653L24.3289 25.18H24.9845L25.1871 24.5565Z" fill="#C8102E"/>
<path d="M21.8536 18.8263L22.1453 19.724H23.0893L22.3256 20.2789L22.6173 21.1766L21.8537 20.6218L21.0901 21.1766L21.3817 20.2788L20.6182 19.724H21.562L21.8536 18.8263Z" fill="white"/>
<path d="M21.8537 19.2233L22.0562 19.8467H22.7118L22.1814 20.2321L22.3839 20.8554L21.8537 20.4702L21.3234 20.8554L21.5259 20.232L20.9955 19.8467H21.6511L21.8537 19.2233Z" fill="#C8102E"/>
<path d="M28.187 17.8263L28.4787 18.724H29.4227L28.659 19.2789L28.9507 20.1766L28.1871 19.6218L27.4235 20.1766L27.7151 19.2788L26.9515 18.724H27.8953L28.187 17.8263Z" fill="white"/>
<path d="M28.1871 18.2233L28.3896 18.8467H29.0452L28.5148 19.2321L28.7173 19.8554L28.1871 19.4702L27.6568 19.8554L27.8593 19.232L27.3289 18.8467H27.9845L28.1871 18.2233Z" fill="#C8102E"/>
<path d="M25.187 15.4929L25.4787 16.3906H26.4227L25.659 16.9455L25.9507 17.8432L25.1871 17.2884L24.4235 17.8432L24.7151 16.9454L23.9515 16.3906H24.8953L25.187 15.4929Z" fill="white"/>
<path d="M25.1871 15.8899L25.3896 16.5133H26.0452L25.5148 16.8987L25.7173 17.5221L25.1871 17.1368L24.6568 17.5221L24.8593 16.8987L24.3289 16.5133H24.9845L25.1871 15.8899Z" fill="#C8102E"/>
</g>
</g>
<g clip-path="url(#clip1_3909_6785)">
<path d="M0 5.33333C0 2.38781 2.38781 0 5.33333 0H14.6667C17.6122 0 20 2.38781 20 5.33333V14.6667C20 17.6122 17.6122 20 14.6667 20H5.33333C2.38781 20 0 17.6122 0 14.6667V5.33333Z" fill="#2055AE"/>
<mask id="mask1_3909_6785" style="mask-type:alpha" maskUnits="userSpaceOnUse" x="0" y="0" width="20" height="20">
<path d="M0 5.33333C0 2.38781 2.38781 0 5.33333 0H14.6667C17.6122 0 20 2.38781 20 5.33333V14.6667C20 17.6122 17.6122 20 14.6667 20H5.33333C2.38781 20 0 17.6122 0 14.6667V5.33333Z" fill="#2055AE"/>
</mask>
<g mask="url(#mask1_3909_6785)">
<path d="M10.1479 0H8.97277L2.70606 4.10582V0H0.180342L0.180496 12.8541H2.70622V8.74826L8.97285 12.8541H10.148C10.3275 12.8541 10.4995 12.7828 10.6264 12.6559C10.7533 12.529 10.8246 12.3569 10.8246 12.1775V11.6409L5.44803 8.11837H10.8245V4.73571H5.44795L10.8245 1.21318V0.676563C10.8245 0.497127 10.7532 0.325041 10.6263 0.198161C10.4995 0.0712806 10.3274 0 10.1479 0Z" fill="#F5F5F5"/>
<path d="M10.8245 5.41227H2.02953V0H0V12.8541H2.02953V7.44181H10.8245V5.41227Z" fill="#FF4B55"/>
<path d="M3.94879 4.73571L10.7216 0.339278C10.6039 0.140095 10.3962 0 10.1479 0H10.0017L2.70618 4.73571H3.94879ZM10.8138 12.2306L4.47844 8.11837H3.23583L10.4302 12.7883C10.6457 12.6883 10.7935 12.4787 10.8138 12.2306Z" fill="#FF4B55"/>
<path d="M5.21205 14.2653L5.50939 15.236L6.46229 14.8607C6.5436 14.8286 6.6175 14.9203 6.56787 14.9915L5.98577 15.8266L6.8766 16.3293C6.9526 16.3722 6.92622 16.4865 6.83893 16.4925L5.8157 16.5632L5.97372 17.5653C5.9872 17.6508 5.88037 17.7017 5.82119 17.6379L5.12734 16.8909L4.4335 17.6379C4.37432 17.7017 4.26749 17.6508 4.28097 17.5653L4.43899 16.5632L3.41576 16.4925C3.32847 16.4865 3.30209 16.3722 3.37809 16.3293L4.26892 15.8266L3.68681 14.9915C3.63719 14.9203 3.71109 14.8286 3.7924 14.8607L4.7453 15.236L5.04264 14.2653C5.06813 14.1825 5.1867 14.1825 5.21205 14.2653ZM15.4342 7.3636L15.5795 7.83776L16.0449 7.65445C16.0846 7.63883 16.1208 7.68357 16.0965 7.71839L15.8122 8.12636L16.2473 8.37193C16.2845 8.39285 16.2716 8.44871 16.2289 8.45162L15.7291 8.48613L15.8062 8.97565C15.8128 9.01743 15.7606 9.04228 15.7317 9.01112L15.3928 8.64623L15.0538 9.01112C15.0249 9.04223 14.9728 9.01739 14.9793 8.97565L15.0565 8.48613L14.5567 8.45162C14.514 8.44871 14.5011 8.39285 14.5382 8.37193L14.9734 8.12636L14.6891 7.71839C14.6648 7.68357 14.7009 7.63883 14.7406 7.65445L15.2061 7.83776L15.3513 7.3636C15.3639 7.32314 15.4219 7.32314 15.4342 7.3636ZM12.1954 11.0031L12.3407 11.4773L12.8061 11.294C12.8458 11.2783 12.8819 11.3231 12.8577 11.3579L12.5733 11.7659L13.0085 12.0114C13.0456 12.0324 13.0327 12.0882 12.9901 12.0911L12.4903 12.1256L12.5674 12.6152C12.574 12.6569 12.5218 12.6818 12.4929 12.6506L12.154 12.2857L11.815 12.6506C11.7861 12.6817 11.7339 12.6569 11.7405 12.6152L11.8177 12.1256L11.3178 12.0911C11.2752 12.0882 11.2623 12.0324 11.2994 12.0114L11.7346 11.7659L11.4502 11.3579C11.426 11.3231 11.4621 11.2783 11.5018 11.294L11.9672 11.4773L12.1125 11.0031C12.1251 10.9626 12.183 10.9626 12.1954 11.0031ZM18.4984 9.4449L18.6437 9.91906L19.1092 9.73575C19.1488 9.72013 19.185 9.76488 19.1607 9.79969L18.8764 10.2077L19.3115 10.4532C19.3487 10.4741 19.3358 10.53 19.2931 10.5329L18.7933 10.5674L18.8704 11.0569C18.8771 11.0987 18.8248 11.1236 18.796 11.0924L18.457 10.7275L18.1181 11.0924C18.0892 11.1235 18.037 11.0987 18.0436 11.0569L18.1207 10.5674L17.6209 10.5329C17.5783 10.53 17.5654 10.4741 17.6025 10.4532L18.0376 10.2077L17.7533 9.79969C17.729 9.76488 17.7652 9.72013 17.8049 9.73575L18.2703 9.91906L18.4156 9.4449C18.4281 9.40444 18.486 9.40444 18.4984 9.4449ZM15.4342 15.6776L15.5795 16.1518L16.0449 15.9685C16.0846 15.9528 16.1208 15.9976 16.0965 16.0324L15.8122 16.4404L16.2473 16.6859C16.2845 16.7068 16.2716 16.7627 16.2289 16.7656L15.7291 16.8001L15.8062 17.2896C15.8128 17.3314 15.7606 17.3563 15.7317 17.3251L15.3928 16.9602L15.0538 17.3251C15.0249 17.3562 14.9728 17.3314 14.9793 17.2896L15.0565 16.8001L14.5567 16.7656C14.514 16.7627 14.5011 16.7068 14.5382 16.6859L14.9734 16.4404L14.6891 16.0324C14.6648 15.9976 14.7009 15.9528 14.7406 15.9685L15.2061 16.1518L15.3513 15.6776C15.3639 15.6372 15.4219 15.6372 15.4342 15.6776ZM16.558 11.8551L16.4414 12.2009L16.0728 12.2037C16.0251 12.2041 16.0053 12.2643 16.0437 12.2924L16.3402 12.5089L16.229 12.8564C16.2147 12.9014 16.2665 12.9386 16.3053 12.9112L16.6051 12.6992L16.905 12.9112C16.9439 12.9386 16.9956 12.9014 16.9812 12.8564L16.87 12.5089L17.1665 12.2924C17.205 12.2643 17.1851 12.2041 17.1374 12.2037L16.7689 12.2009L16.6523 11.8551C16.6371 11.8103 16.5731 11.8103 16.558 11.8551Z" fill="#F5F5F5"/>
</g>
</g>
<defs>
<clipPath id="clip0_3909_6785">
<rect x="10" y="10" width="20" height="20" rx="10" fill="white"/>
</clipPath>
<clipPath id="clip1_3909_6785">
<rect width="20" height="20" rx="10" fill="white"/>
</clipPath>
</defs>
</svg>
