<svg width="30" height="30" viewBox="0 0 30 30" fill="none" xmlns="http://www.w3.org/2000/svg">
<g clip-path="url(#clip0_3909_6798)">
<path d="M10 15.3333C10 12.3878 12.3878 10 15.3333 10H24.6667C27.6122 10 30 12.3878 30 15.3333V24.6667C30 27.6122 27.6122 30 24.6667 30H15.3333C12.3878 30 10 27.6122 10 24.6667V15.3333Z" fill="#012169"/>
<mask id="mask0_3909_6798" style="mask-type:alpha" maskUnits="userSpaceOnUse" x="9" y="10" width="25" height="24">
<path d="M9.66663 16.3111C9.66663 12.8256 12.4922 10 15.9777 10H27.0222C30.5077 10 33.3333 12.8256 33.3333 16.3111V27.3556C33.3333 30.8411 30.5077 33.6667 27.0222 33.6667H15.9777C12.4922 33.6667 9.66663 30.8411 9.66663 27.3556V16.3111Z" fill="#2055AE"/>
</mask>
<g mask="url(#mask0_3909_6798)">
<rect x="8.48328" y="10" width="33.1333" height="23.6667" fill="white"/>
<path d="M8.48328 10H41.6166V11.5778H8.48328V10Z" fill="#D02F44"/>
<path d="M8.48328 13.1556H41.6166V14.7333H8.48328V13.1556Z" fill="#D02F44"/>
<path d="M8.48328 16.3111H41.6166V17.8889H8.48328V16.3111Z" fill="#D02F44"/>
<path d="M8.48328 19.4667H41.6166V21.0444H8.48328V19.4667Z" fill="#D02F44"/>
<path d="M8.48328 22.6222H41.6166V24.2H8.48328V22.6222Z" fill="#D02F44"/>
<path d="M8.48328 25.7778H41.6166V27.3556H8.48328V25.7778Z" fill="#D02F44"/>
<path d="M8.48328 28.9333H41.6166V30.5111H8.48328V28.9333Z" fill="#D02F44"/>
<path d="M8.48328 32.0889H41.6166V33.6667H8.48328V32.0889Z" fill="#D02F44"/>
<rect x="8.48328" y="10" width="14.2" height="11.0444" fill="#46467F"/>
<path fill-rule="evenodd" clip-rule="evenodd" d="M10.8499 13.1555C11.2856 13.1555 11.6388 12.8023 11.6388 12.3666C11.6388 11.931 11.2856 11.5778 10.8499 11.5778C10.4142 11.5778 10.061 11.931 10.061 12.3666C10.061 12.8023 10.4142 13.1555 10.8499 13.1555Z" fill="#DADADA"/>
<path fill-rule="evenodd" clip-rule="evenodd" d="M14.0055 13.1555C14.4412 13.1555 14.7944 12.8023 14.7944 12.3666C14.7944 11.931 14.4412 11.5778 14.0055 11.5778C13.5698 11.5778 13.2166 11.931 13.2166 12.3666C13.2166 12.8023 13.5698 13.1555 14.0055 13.1555Z" fill="#DADADA"/>
<path fill-rule="evenodd" clip-rule="evenodd" d="M17.161 13.1555C17.5967 13.1555 17.9499 12.8023 17.9499 12.3666C17.9499 11.931 17.5967 11.5778 17.161 11.5778C16.7253 11.5778 16.3721 11.931 16.3721 12.3666C16.3721 12.8023 16.7253 13.1555 17.161 13.1555Z" fill="#DADADA"/>
<path fill-rule="evenodd" clip-rule="evenodd" d="M20.3166 13.1555C20.7523 13.1555 21.1055 12.8023 21.1055 12.3666C21.1055 11.931 20.7523 11.5778 20.3166 11.5778C19.8809 11.5778 19.5277 11.931 19.5277 12.3666C19.5277 12.8023 19.8809 13.1555 20.3166 13.1555Z" fill="#DADADA"/>
<path fill-rule="evenodd" clip-rule="evenodd" d="M12.4277 14.7333C12.8634 14.7333 13.2166 14.3801 13.2166 13.9444C13.2166 13.5087 12.8634 13.1555 12.4277 13.1555C11.992 13.1555 11.6388 13.5087 11.6388 13.9444C11.6388 14.3801 11.992 14.7333 12.4277 14.7333Z" fill="#DADADA"/>
<path fill-rule="evenodd" clip-rule="evenodd" d="M15.5833 14.7334C16.0189 14.7334 16.3721 14.3802 16.3721 13.9445C16.3721 13.5088 16.0189 13.1556 15.5833 13.1556C15.1476 13.1556 14.7944 13.5088 14.7944 13.9445C14.7944 14.3802 15.1476 14.7334 15.5833 14.7334Z" fill="#DADADA"/>
<path fill-rule="evenodd" clip-rule="evenodd" d="M18.7388 14.7334C19.1745 14.7334 19.5277 14.3802 19.5277 13.9445C19.5277 13.5088 19.1745 13.1556 18.7388 13.1556C18.3031 13.1556 17.9499 13.5088 17.9499 13.9445C17.9499 14.3802 18.3031 14.7334 18.7388 14.7334Z" fill="#DADADA"/>
<path fill-rule="evenodd" clip-rule="evenodd" d="M20.3166 16.311C20.7523 16.311 21.1055 15.9578 21.1055 15.5222C21.1055 15.0865 20.7523 14.7333 20.3166 14.7333C19.8809 14.7333 19.5277 15.0865 19.5277 15.5222C19.5277 15.9578 19.8809 16.311 20.3166 16.311Z" fill="#DADADA"/>
<path fill-rule="evenodd" clip-rule="evenodd" d="M17.161 16.311C17.5967 16.311 17.9499 15.9578 17.9499 15.5222C17.9499 15.0865 17.5967 14.7333 17.161 14.7333C16.7253 14.7333 16.3721 15.0865 16.3721 15.5222C16.3721 15.9578 16.7253 16.311 17.161 16.311Z" fill="#DADADA"/>
<path fill-rule="evenodd" clip-rule="evenodd" d="M14.0055 16.311C14.4412 16.311 14.7944 15.9578 14.7944 15.5222C14.7944 15.0865 14.4412 14.7333 14.0055 14.7333C13.5698 14.7333 13.2166 15.0865 13.2166 15.5222C13.2166 15.9578 13.5698 16.311 14.0055 16.311Z" fill="#DADADA"/>
<path fill-rule="evenodd" clip-rule="evenodd" d="M10.8499 16.311C11.2856 16.311 11.6388 15.9578 11.6388 15.5222C11.6388 15.0865 11.2856 14.7333 10.8499 14.7333C10.4142 14.7333 10.061 15.0865 10.061 15.5222C10.061 15.9578 10.4142 16.311 10.8499 16.311Z" fill="#DADADA"/>
<path fill-rule="evenodd" clip-rule="evenodd" d="M12.4277 17.8889C12.8634 17.8889 13.2166 17.5357 13.2166 17.1C13.2166 16.6643 12.8634 16.3111 12.4277 16.3111C11.992 16.3111 11.6388 16.6643 11.6388 17.1C11.6388 17.5357 11.992 17.8889 12.4277 17.8889Z" fill="#DADADA"/>
<path fill-rule="evenodd" clip-rule="evenodd" d="M15.5833 17.8889C16.0189 17.8889 16.3721 17.5357 16.3721 17.1C16.3721 16.6643 16.0189 16.3111 15.5833 16.3111C15.1476 16.3111 14.7944 16.6643 14.7944 17.1C14.7944 17.5357 15.1476 17.8889 15.5833 17.8889Z" fill="#DADADA"/>
<path fill-rule="evenodd" clip-rule="evenodd" d="M18.7388 17.8889C19.1745 17.8889 19.5277 17.5357 19.5277 17.1C19.5277 16.6643 19.1745 16.3111 18.7388 16.3111C18.3031 16.3111 17.9499 16.6643 17.9499 17.1C17.9499 17.5357 18.3031 17.8889 18.7388 17.8889Z" fill="#DADADA"/>
<path fill-rule="evenodd" clip-rule="evenodd" d="M20.3166 19.4667C20.7523 19.4667 21.1055 19.1135 21.1055 18.6778C21.1055 18.2421 20.7523 17.8889 20.3166 17.8889C19.8809 17.8889 19.5277 18.2421 19.5277 18.6778C19.5277 19.1135 19.8809 19.4667 20.3166 19.4667Z" fill="#DADADA"/>
<path fill-rule="evenodd" clip-rule="evenodd" d="M17.161 19.4667C17.5967 19.4667 17.9499 19.1135 17.9499 18.6778C17.9499 18.2421 17.5967 17.8889 17.161 17.8889C16.7253 17.8889 16.3721 18.2421 16.3721 18.6778C16.3721 19.1135 16.7253 19.4667 17.161 19.4667Z" fill="#DADADA"/>
<path fill-rule="evenodd" clip-rule="evenodd" d="M14.0055 19.4667C14.4412 19.4667 14.7944 19.1135 14.7944 18.6778C14.7944 18.2421 14.4412 17.8889 14.0055 17.8889C13.5698 17.8889 13.2166 18.2421 13.2166 18.6778C13.2166 19.1135 13.5698 19.4667 14.0055 19.4667Z" fill="#DADADA"/>
<path fill-rule="evenodd" clip-rule="evenodd" d="M10.8499 19.4667C11.2856 19.4667 11.6388 19.1135 11.6388 18.6778C11.6388 18.2421 11.2856 17.8889 10.8499 17.8889C10.4142 17.8889 10.061 18.2421 10.061 18.6778C10.061 19.1135 10.4142 19.4667 10.8499 19.4667Z" fill="#DADADA"/>
</g>
</g>
<g clip-path="url(#clip1_3909_6798)">
<path d="M0 5.33333C0 2.38781 2.38781 0 5.33333 0H14.6667C17.6122 0 20 2.38781 20 5.33333V14.6667C20 17.6122 17.6122 20 14.6667 20H5.33333C2.38781 20 0 17.6122 0 14.6667V5.33333Z" fill="#2055AE"/>
<mask id="mask1_3909_6798" style="mask-type:alpha" maskUnits="userSpaceOnUse" x="0" y="0" width="20" height="20">
<path d="M0 5.33333C0 2.38781 2.38781 0 5.33333 0H14.6667C17.6122 0 20 2.38781 20 5.33333V14.6667C20 17.6122 17.6122 20 14.6667 20H5.33333C2.38781 20 0 17.6122 0 14.6667V5.33333Z" fill="#2055AE"/>
</mask>
<g mask="url(#mask1_3909_6798)">
<path d="M10.1479 0H8.97277L2.70606 4.10582V0H0.180342L0.180496 12.8541H2.70622V8.74826L8.97285 12.8541H10.148C10.3275 12.8541 10.4995 12.7828 10.6264 12.6559C10.7533 12.529 10.8246 12.3569 10.8246 12.1775V11.6409L5.44803 8.11837H10.8245V4.73571H5.44795L10.8245 1.21318V0.676563C10.8245 0.497127 10.7532 0.325041 10.6263 0.198161C10.4995 0.0712806 10.3274 0 10.1479 0Z" fill="#F5F5F5"/>
<path d="M10.8245 5.41227H2.02953V0H0V12.8541H2.02953V7.44181H10.8245V5.41227Z" fill="#FF4B55"/>
<path d="M3.94879 4.73571L10.7216 0.339278C10.6039 0.140095 10.3962 0 10.1479 0H10.0017L2.70618 4.73571H3.94879ZM10.8138 12.2306L4.47844 8.11837H3.23583L10.4302 12.7883C10.6457 12.6883 10.7935 12.4787 10.8138 12.2306Z" fill="#FF4B55"/>
<path d="M5.21205 14.2654L5.50939 15.2361L6.46229 14.8608C6.5436 14.8287 6.6175 14.9204 6.56787 14.9917L5.98577 15.8267L6.8766 16.3294C6.9526 16.3723 6.92622 16.4866 6.83893 16.4926L5.8157 16.5633L5.97372 17.5654C5.9872 17.651 5.88037 17.7018 5.82119 17.6381L5.12734 16.8911L4.4335 17.6381C4.37432 17.7018 4.26749 17.6509 4.28097 17.5654L4.43899 16.5633L3.41576 16.4926C3.32847 16.4866 3.30209 16.3723 3.37809 16.3294L4.26892 15.8267L3.68681 14.9917C3.63719 14.9204 3.71109 14.8287 3.7924 14.8608L4.7453 15.2361L5.04264 14.2654C5.06813 14.1826 5.1867 14.1826 5.21205 14.2654ZM15.4342 7.36372L15.5795 7.83788L16.0449 7.65457C16.0846 7.63895 16.1208 7.6837 16.0965 7.71851L15.8122 8.12648L16.2473 8.37205C16.2845 8.39297 16.2716 8.44883 16.2289 8.45175L15.7291 8.48625L15.8062 8.97577C15.8128 9.01756 15.7606 9.0424 15.7317 9.01125L15.3928 8.64635L15.0538 9.01125C15.0249 9.04236 14.9728 9.01751 14.9793 8.97577L15.0565 8.48625L14.5567 8.45175C14.514 8.44883 14.5011 8.39297 14.5382 8.37205L14.9734 8.12648L14.6891 7.71851C14.6648 7.6837 14.7009 7.63895 14.7406 7.65457L15.2061 7.83788L15.3513 7.36372C15.3639 7.32326 15.4219 7.32326 15.4342 7.36372ZM12.1954 11.0032L12.3407 11.4774L12.8061 11.2941C12.8458 11.2785 12.8819 11.3232 12.8577 11.358L12.5733 11.766L13.0085 12.0116C13.0456 12.0325 13.0327 12.0883 12.9901 12.0913L12.4903 12.1258L12.5674 12.6153C12.574 12.6571 12.5218 12.6819 12.4929 12.6508L12.154 12.2859L11.815 12.6508C11.7861 12.6819 11.7339 12.657 11.7405 12.6153L11.8177 12.1258L11.3178 12.0913C11.2752 12.0883 11.2623 12.0325 11.2994 12.0116L11.7346 11.766L11.4502 11.358C11.426 11.3232 11.4621 11.2785 11.5018 11.2941L11.9672 11.4774L12.1125 11.0032C12.1251 10.9628 12.183 10.9628 12.1954 11.0032ZM18.4984 9.44503L18.6437 9.91918L19.1092 9.73587C19.1488 9.72025 19.185 9.765 19.1607 9.79982L18.8764 10.2078L19.3115 10.4534C19.3487 10.4743 19.3358 10.5301 19.2931 10.533L18.7933 10.5676L18.8704 11.0571C18.8771 11.0989 18.8248 11.1237 18.796 11.0925L18.457 10.7277L18.1181 11.0925C18.0892 11.1237 18.037 11.0988 18.0436 11.0571L18.1207 10.5676L17.6209 10.533C17.5783 10.5301 17.5654 10.4743 17.6025 10.4534L18.0376 10.2078L17.7533 9.79982C17.729 9.765 17.7652 9.72025 17.8049 9.73587L18.2703 9.91918L18.4156 9.44503C18.4281 9.40456 18.486 9.40456 18.4984 9.44503ZM15.4342 15.6778L15.5795 16.1519L16.0449 15.9686C16.0846 15.953 16.1208 15.9977 16.0965 16.0325L15.8122 16.4405L16.2473 16.6861C16.2845 16.707 16.2716 16.7628 16.2289 16.7657L15.7291 16.8003L15.8062 17.2898C15.8128 17.3316 15.7606 17.3564 15.7317 17.3252L15.3928 16.9604L15.0538 17.3252C15.0249 17.3564 14.9728 17.3315 14.9793 17.2898L15.0565 16.8003L14.5567 16.7657C14.514 16.7628 14.5011 16.707 14.5382 16.6861L14.9734 16.4405L14.6891 16.0325C14.6648 15.9977 14.7009 15.953 14.7406 15.9686L15.2061 16.1519L15.3513 15.6778C15.3639 15.6373 15.4219 15.6373 15.4342 15.6778ZM16.558 11.8553L16.4414 12.201L16.0728 12.2039C16.0251 12.2043 16.0053 12.2645 16.0437 12.2925L16.3402 12.509L16.229 12.8565C16.2147 12.9015 16.2665 12.9387 16.3053 12.9113L16.6051 12.6993L16.905 12.9113C16.9439 12.9387 16.9956 12.9015 16.9812 12.8565L16.87 12.509L17.1665 12.2925C17.205 12.2644 17.1851 12.2043 17.1374 12.2039L16.7689 12.201L16.6523 11.8553C16.6371 11.8105 16.5731 11.8105 16.558 11.8553Z" fill="#F5F5F5"/>
</g>
</g>
<defs>
<clipPath id="clip0_3909_6798">
<rect x="10" y="10" width="20" height="20" rx="10" fill="white"/>
</clipPath>
<clipPath id="clip1_3909_6798">
<rect width="20" height="20" rx="10" fill="white"/>
</clipPath>
</defs>
</svg>
