<svg width="30" height="30" viewBox="0 0 30 30" fill="none" xmlns="http://www.w3.org/2000/svg">
<g clip-path="url(#clip0_3909_6876)">
<path d="M10 15.3333C10 12.3878 12.3878 10 15.3333 10H24.6667C27.6122 10 30 12.3878 30 15.3333V24.6667C30 27.6122 27.6122 30 24.6667 30H15.3333C12.3878 30 10 27.6122 10 24.6667V15.3333Z" fill="white"/>
<path d="M10 15.3333C10 12.3878 12.3878 10 15.3333 10H24.6667C27.6122 10 30 12.3878 30 15.3333V24.6667C30 27.6122 27.6122 30 24.6667 30H15.3333C12.3878 30 10 27.6122 10 24.6667V15.3333Z" stroke="#E6E6E6"/>
<mask id="mask0_3909_6876" style="mask-type:alpha" maskUnits="userSpaceOnUse" x="10" y="10" width="20" height="20">
<path d="M10 15.3333C10 12.3878 12.3878 10 15.3333 10H24.6667C27.6122 10 30 12.3878 30 15.3333V24.6667C30 27.6122 27.6122 30 24.6667 30H15.3333C12.3878 30 10 27.6122 10 24.6667V15.3333Z" fill="#2055AE"/>
</mask>
<g mask="url(#mask0_3909_6876)">
<circle cx="20" cy="20" r="5" fill="#BC002D"/>
</g>
</g>
<rect x="10.5" y="10.5" width="19" height="19" rx="9.5" stroke="#E6E6E6"/>
<g clip-path="url(#clip1_3909_6876)">
<path d="M0 5.33333C0 2.38781 2.38781 0 5.33333 0H14.6667C17.6122 0 20 2.38781 20 5.33333V14.6667C20 17.6122 17.6122 20 14.6667 20H5.33333C2.38781 20 0 17.6122 0 14.6667V5.33333Z" fill="white"/>
<path d="M0 5.33333C0 2.38781 2.38781 0 5.33333 0H14.6667C17.6122 0 20 2.38781 20 5.33333V14.6667C20 17.6122 17.6122 20 14.6667 20H5.33333C2.38781 20 0 17.6122 0 14.6667V5.33333Z" stroke="#E6E6E6"/>
<mask id="mask1_3909_6876" style="mask-type:alpha" maskUnits="userSpaceOnUse" x="0" y="0" width="20" height="20">
<path d="M0 5.33333C0 2.38781 2.38781 0 5.33333 0H14.6667C17.6122 0 20 2.38781 20 5.33333V14.6667C20 17.6122 17.6122 20 14.6667 20H5.33333C2.38781 20 0 17.6122 0 14.6667V5.33333Z" fill="#2055AE"/>
</mask>
<g mask="url(#mask1_3909_6876)">
<path d="M9.10429 7.06333C9.4039 6.48723 9.70057 5.90966 10 5.33337C10.297 5.90601 10.5928 6.4792 10.8893 7.05202C10.9192 7.11846 10.9935 7.16118 11.0665 7.15278C11.1198 7.14676 11.1639 7.11371 11.2098 7.08871C11.4784 6.93555 11.7471 6.7824 12.0162 6.62998C11.8335 7.55766 11.6504 8.48516 11.4683 9.41284C11.4473 9.50119 11.5105 9.59539 11.599 9.61419C11.6642 9.63025 11.7342 9.60415 11.7771 9.55377C12.152 9.15655 12.5281 8.76043 12.9031 8.36322C12.9963 8.57862 13.0891 8.79439 13.1823 9.00979C13.2124 9.09138 13.3069 9.13866 13.3913 9.11566C13.8736 9.0149 14.3559 8.91395 14.8384 8.81337C14.6728 9.31828 14.5048 9.82229 14.3392 10.3272C14.3096 10.4081 14.3534 10.5039 14.4328 10.5373C14.6215 10.6249 14.811 10.7111 15 10.7985C14.16 11.4679 13.3207 12.138 12.4803 12.807C12.4189 12.8505 12.3879 12.9339 12.4158 13.0051C12.5191 13.2888 12.6246 13.5717 12.7283 13.8554C11.9596 13.7229 11.1911 13.5891 10.4222 13.4565C10.2667 13.422 10.1046 13.5617 10.1217 13.7201C10.1608 14.4801 10.2022 15.24 10.2419 15.9999C10.0807 16.0001 9.91931 16.0001 9.75811 15.9999C9.79781 15.2398 9.83935 14.4799 9.87832 13.7198C9.89504 13.5619 9.73384 13.4228 9.57889 13.4564C8.80965 13.5889 8.04077 13.7229 7.27171 13.8554C7.37538 13.5717 7.48088 13.2888 7.58419 13.0049C7.6101 12.9381 7.58492 12.8582 7.52849 12.8147C6.68591 12.1424 5.84277 11.4705 5 10.7985C5.18822 10.7115 5.37699 10.6255 5.56522 10.5384C5.61576 10.5161 5.65602 10.4703 5.66631 10.4157C5.67918 10.3553 5.65032 10.298 5.63304 10.242C5.47588 9.7657 5.31818 9.28981 5.16157 8.81337C5.61393 8.90775 6.0661 9.0023 6.51827 9.09686C6.56349 9.10599 6.60852 9.11895 6.65484 9.12077C6.72616 9.12296 6.79307 9.07459 6.81806 9.00906C6.91107 8.79384 7.00371 8.57844 7.0969 8.36322C7.475 8.76317 7.85328 9.16294 8.23175 9.56253C8.29204 9.63062 8.40618 9.63737 8.47438 9.57713C8.52198 9.53843 8.54459 9.4729 8.53173 9.41321C8.34975 8.48534 8.16649 7.55766 7.98379 6.62998C8.27696 6.79554 8.56886 6.9633 8.86185 7.12905C8.94272 7.1798 9.06147 7.1484 9.10429 7.06333Z" fill="#D52B1E"/>
<rect x="15.6666" width="4.33333" height="20" fill="#D52B1E"/>
<rect width="4.33333" height="20" fill="#D52B1E"/>
</g>
</g>
<rect x="0.5" y="0.5" width="19" height="19" rx="9.5" stroke="#E6E6E6"/>
<defs>
<clipPath id="clip0_3909_6876">
<rect x="10" y="10" width="20" height="20" rx="10" fill="white"/>
</clipPath>
<clipPath id="clip1_3909_6876">
<rect width="20" height="20" rx="10" fill="white"/>
</clipPath>
</defs>
</svg>
