<svg width="30" height="30" viewBox="0 0 30 30" fill="none" xmlns="http://www.w3.org/2000/svg">
<g clip-path="url(#clip0_3909_6889)">
<path d="M10 15.3333C10 12.3878 12.3878 10 15.3333 10H24.6667C27.6122 10 30 12.3878 30 15.3333V24.6667C30 27.6122 27.6122 30 24.6667 30H15.3333C12.3878 30 10 27.6122 10 24.6667V15.3333Z" fill="white"/>
<path d="M10 15.3333C10 12.3878 12.3878 10 15.3333 10H24.6667C27.6122 10 30 12.3878 30 15.3333V24.6667C30 27.6122 27.6122 30 24.6667 30H15.3333C12.3878 30 10 27.6122 10 24.6667V15.3333Z" stroke="#E6E6E6"/>
<mask id="mask0_3909_6889" style="mask-type:alpha" maskUnits="userSpaceOnUse" x="10" y="10" width="20" height="20">
<path d="M10 15.3333C10 12.3878 12.3878 10 15.3333 10H24.6667C27.6122 10 30 12.3878 30 15.3333V24.6667C30 27.6122 27.6122 30 24.6667 30H15.3333C12.3878 30 10 27.6122 10 24.6667V15.3333Z" fill="#2055AE"/>
</mask>
<g mask="url(#mask0_3909_6889)">
<circle cx="20" cy="20" r="5" fill="#BC002D"/>
</g>
</g>
<rect x="10.5" y="10.5" width="19" height="19" rx="9.5" stroke="#E6E6E6"/>
<g clip-path="url(#clip1_3909_6889)">
<path d="M0 5.33333C0 2.38781 2.38781 0 5.33333 0H14.6667C17.6122 0 20 2.38781 20 5.33333V14.6667C20 17.6122 17.6122 20 14.6667 20H5.33333C2.38781 20 0 17.6122 0 14.6667V5.33333Z" fill="#F44848"/>
<path d="M11.7 4.33337H8.30004V8.30004H4.33337V11.7H8.30004V15.6667H11.7V11.7H15.6667V8.30004H11.7V4.33337Z" fill="white"/>
</g>
<defs>
<clipPath id="clip0_3909_6889">
<rect x="10" y="10" width="20" height="20" rx="10" fill="white"/>
</clipPath>
<clipPath id="clip1_3909_6889">
<rect width="20" height="20" rx="10" fill="white"/>
</clipPath>
</defs>
</svg>
