<svg width="30" height="30" viewBox="0 0 30 30" fill="none" xmlns="http://www.w3.org/2000/svg">
<g clip-path="url(#clip0_3909_6967)">
<path d="M10 15.3333C10 12.3878 12.3878 10 15.3333 10H24.6667C27.6122 10 30 12.3878 30 15.3333V24.6667C30 27.6122 27.6122 30 24.6667 30H15.3333C12.3878 30 10 27.6122 10 24.6667V15.3333Z" fill="#2055AE"/>
<mask id="mask0_3909_6967" style="mask-type:alpha" maskUnits="userSpaceOnUse" x="10" y="10" width="20" height="20">
<path d="M10 15.3333C10 12.3878 12.3878 10 15.3333 10H24.6667C27.6122 10 30 12.3878 30 15.3333V24.6667C30 27.6122 27.6122 30 24.6667 30H15.3333C12.3878 30 10 27.6122 10 24.6667V15.3333Z" fill="#2055AE"/>
</mask>
<g mask="url(#mask0_3909_6967)">
<path d="M20.1479 10H18.9728L12.7061 14.1058V10H10.1803L10.1805 22.8541H12.7062V18.7483L18.9729 22.8541H20.148C20.3275 22.8541 20.4995 22.7828 20.6264 22.6559C20.7533 22.529 20.8246 22.3569 20.8246 22.1775V21.6409L15.448 18.1184H20.8245V14.7357H15.448L20.8245 11.2132V10.6766C20.8245 10.4971 20.7532 10.325 20.6263 10.1982C20.4995 10.0713 20.3274 10 20.1479 10Z" fill="#F5F5F5"/>
<path d="M20.8245 15.4123H12.0295V10H10V22.8541H12.0295V17.4418H20.8245V15.4123Z" fill="#FF4B55"/>
<path d="M13.9488 14.7357L20.7216 10.3393C20.6039 10.1401 20.3962 10 20.1479 10H20.0017L12.7062 14.7357H13.9488ZM20.8138 22.2306L14.4784 18.1184H13.2358L20.4302 22.7883C20.6457 22.6883 20.7935 22.4787 20.8138 22.2306Z" fill="#FF4B55"/>
<path d="M15.212 24.2654L15.5094 25.2361L16.4623 24.8608C16.5436 24.8287 16.6175 24.9204 16.5679 24.9917L15.9858 25.8267L16.8766 26.3294C16.9526 26.3723 16.9262 26.4866 16.8389 26.4926L15.8157 26.5633L15.9737 27.5654C15.9872 27.651 15.8804 27.7018 15.8212 27.6381L15.1273 26.8911L14.4335 27.6381C14.3743 27.7018 14.2675 27.6509 14.281 27.5654L14.439 26.5633L13.4158 26.4926C13.3285 26.4866 13.3021 26.3723 13.3781 26.3294L14.2689 25.8267L13.6868 24.9917C13.6372 24.9204 13.7111 24.8287 13.7924 24.8608L14.7453 25.2361L15.0426 24.2654C15.0681 24.1826 15.1867 24.1826 15.212 24.2654ZM25.4342 17.3637L25.5795 17.8379L26.0449 17.6546C26.0846 17.639 26.1208 17.6837 26.0965 17.7185L25.8122 18.1265L26.2473 18.3721C26.2845 18.393 26.2716 18.4488 26.2289 18.4517L25.7291 18.4863L25.8062 18.9758C25.8128 19.0176 25.7606 19.0424 25.7317 19.0112L25.3928 18.6464L25.0538 19.0112C25.0249 19.0424 24.9728 19.0175 24.9793 18.9758L25.0565 18.4863L24.5567 18.4517C24.514 18.4488 24.5011 18.393 24.5382 18.3721L24.9734 18.1265L24.6891 17.7185C24.6648 17.6837 24.7009 17.639 24.7406 17.6546L25.2061 17.8379L25.3513 17.3637C25.3639 17.3233 25.4219 17.3233 25.4342 17.3637ZM22.1954 21.0032L22.3407 21.4774L22.8061 21.2941C22.8458 21.2785 22.8819 21.3232 22.8577 21.358L22.5733 21.766L23.0085 22.0116C23.0456 22.0325 23.0327 22.0883 22.9901 22.0913L22.4903 22.1258L22.5674 22.6153C22.574 22.6571 22.5218 22.6819 22.4929 22.6508L22.154 22.2859L21.815 22.6508C21.7861 22.6819 21.7339 22.657 21.7405 22.6153L21.8177 22.1258L21.3178 22.0913C21.2752 22.0883 21.2623 22.0325 21.2994 22.0116L21.7346 21.766L21.4502 21.358C21.426 21.3232 21.4621 21.2785 21.5018 21.2941L21.9672 21.4774L22.1125 21.0032C22.1251 20.9628 22.183 20.9628 22.1954 21.0032ZM28.4984 19.445L28.6437 19.9192L29.1092 19.7359C29.1488 19.7203 29.185 19.765 29.1607 19.7998L28.8764 20.2078L29.3115 20.4534C29.3487 20.4743 29.3358 20.5301 29.2931 20.533L28.7933 20.5676L28.8704 21.0571C28.8771 21.0989 28.8248 21.1237 28.796 21.0925L28.457 20.7277L28.1181 21.0925C28.0892 21.1237 28.037 21.0988 28.0436 21.0571L28.1207 20.5676L27.6209 20.533C27.5783 20.5301 27.5654 20.4743 27.6025 20.4534L28.0376 20.2078L27.7533 19.7998C27.729 19.765 27.7652 19.7203 27.8049 19.7359L28.2703 19.9192L28.4156 19.445C28.4281 19.4046 28.486 19.4046 28.4984 19.445ZM25.4342 25.6778L25.5795 26.1519L26.0449 25.9686C26.0846 25.953 26.1208 25.9977 26.0965 26.0325L25.8122 26.4405L26.2473 26.6861C26.2845 26.707 26.2716 26.7628 26.2289 26.7657L25.7291 26.8003L25.8062 27.2898C25.8128 27.3316 25.7606 27.3564 25.7317 27.3252L25.3928 26.9604L25.0538 27.3252C25.0249 27.3564 24.9728 27.3315 24.9793 27.2898L25.0565 26.8003L24.5567 26.7657C24.514 26.7628 24.5011 26.707 24.5382 26.6861L24.9734 26.4405L24.6891 26.0325C24.6648 25.9977 24.7009 25.953 24.7406 25.9686L25.2061 26.1519L25.3513 25.6778C25.3639 25.6373 25.4219 25.6373 25.4342 25.6778ZM26.558 21.8553L26.4414 22.201L26.0728 22.2039C26.0251 22.2043 26.0053 22.2645 26.0437 22.2925L26.3402 22.509L26.229 22.8565C26.2147 22.9015 26.2665 22.9387 26.3053 22.9113L26.6051 22.6993L26.905 22.9113C26.9439 22.9387 26.9956 22.9015 26.9812 22.8565L26.87 22.509L27.1665 22.2925C27.205 22.2644 27.1851 22.2043 27.1374 22.2039L26.7689 22.201L26.6523 21.8553C26.6371 21.8105 26.5731 21.8105 26.558 21.8553Z" fill="#F5F5F5"/>
</g>
</g>
<g clip-path="url(#clip1_3909_6967)">
<path d="M0 6C0 2.68629 2.68629 0 6 0H14C17.3137 0 20 2.68629 20 6V14C20 17.3137 17.3137 20 14 20H6C2.68629 20 0 17.3137 0 14V6Z" fill="#2454FF"/>
<path d="M12.4863 6.02405L12.1406 7.64709C11.8086 7.31506 11.3242 7.14905 10.6875 7.14905C10.0508 7.14905 9.53516 7.37756 9.14063 7.83459C8.91797 8.09241 8.75977 8.41467 8.66602 8.80139H11.8887L11.7012 9.70959H8.54883C8.54492 9.79944 8.54297 9.91467 8.54297 10.0553C8.54297 10.192 8.54688 10.3346 8.55469 10.483H11.5371L11.3496 11.3912H8.67773C8.77539 11.8092 8.92578 12.1373 9.12891 12.3756C9.51953 12.8365 10.0273 13.067 10.6523 13.067C11.4023 13.067 12 12.8365 12.4453 12.3756V14.1686C11.9375 14.4225 11.3457 14.5494 10.6699 14.5494C9.5293 14.5494 8.5918 14.1588 7.85742 13.3776C7.35742 12.8463 7.02734 12.1842 6.86719 11.3912H6L6.1875 10.483H6.76172C6.75781 10.3893 6.75586 10.2897 6.75586 10.1842C6.75586 10.0045 6.75977 9.84631 6.76758 9.70959H6L6.1875 8.80139H6.88477C7.04883 8.02405 7.375 7.37366 7.86328 6.85022C8.60156 6.06116 9.57227 5.66663 10.7754 5.66663C11.4316 5.66663 12.002 5.78577 12.4863 6.02405Z" fill="white"/>
</g>
<defs>
<clipPath id="clip0_3909_6967">
<rect x="10" y="10" width="20" height="20" rx="10" fill="white"/>
</clipPath>
<clipPath id="clip1_3909_6967">
<rect width="20" height="20" rx="10" fill="white"/>
</clipPath>
</defs>
</svg>
