<svg width="30" height="30" viewBox="0 0 30 30" fill="none" xmlns="http://www.w3.org/2000/svg">
<g clip-path="url(#clip0_3909_6993)">
<path d="M10 15.3333C10 12.3878 12.3878 10 15.3333 10H24.6667C27.6122 10 30 12.3878 30 15.3333V24.6667C30 27.6122 27.6122 30 24.6667 30H15.3333C12.3878 30 10 27.6122 10 24.6667V15.3333Z" fill="#F44848"/>
<path d="M21.7 14.3334H18.3V18.3H14.3334V21.7H18.3V25.6667H21.7V21.7H25.6667V18.3H21.7V14.3334Z" fill="white"/>
</g>
<g clip-path="url(#clip1_3909_6993)">
<path d="M0 6C0 2.68629 2.68629 0 6 0H14C17.3137 0 20 2.68629 20 6V14C20 17.3137 17.3137 20 14 20H6C2.68629 20 0 17.3137 0 14V6Z" fill="#2454FF"/>
<path d="M12.4863 6.02405L12.1406 7.64709C11.8086 7.31506 11.3242 7.14905 10.6875 7.14905C10.0508 7.14905 9.53516 7.37756 9.14063 7.83459C8.91797 8.09241 8.75977 8.41467 8.66602 8.80139H11.8887L11.7012 9.70959H8.54883C8.54492 9.79944 8.54297 9.91467 8.54297 10.0553C8.54297 10.192 8.54688 10.3346 8.55469 10.483H11.5371L11.3496 11.3912H8.67773C8.77539 11.8092 8.92578 12.1373 9.12891 12.3756C9.51953 12.8365 10.0273 13.067 10.6523 13.067C11.4023 13.067 12 12.8365 12.4453 12.3756V14.1686C11.9375 14.4225 11.3457 14.5494 10.6699 14.5494C9.5293 14.5494 8.5918 14.1588 7.85742 13.3776C7.35742 12.8463 7.02734 12.1842 6.86719 11.3912H6L6.1875 10.483H6.76172C6.75781 10.3893 6.75586 10.2897 6.75586 10.1842C6.75586 10.0045 6.75977 9.84631 6.76758 9.70959H6L6.1875 8.80139H6.88477C7.04883 8.02405 7.375 7.37366 7.86328 6.85022C8.60156 6.06116 9.57227 5.66663 10.7754 5.66663C11.4316 5.66663 12.002 5.78577 12.4863 6.02405Z" fill="white"/>
</g>
<defs>
<clipPath id="clip0_3909_6993">
<rect x="10" y="10" width="20" height="20" rx="10" fill="white"/>
</clipPath>
<clipPath id="clip1_3909_6993">
<rect width="20" height="20" rx="10" fill="white"/>
</clipPath>
</defs>
</svg>
