<svg width="30" height="30" viewBox="0 0 30 30" fill="none" xmlns="http://www.w3.org/2000/svg">
<g clip-path="url(#clip0_3909_6980)">
<path d="M10 15.3333C10 12.3878 12.3878 10 15.3333 10H24.6667C27.6122 10 30 12.3878 30 15.3333V24.6667C30 27.6122 27.6122 30 24.6667 30H15.3333C12.3878 30 10 27.6122 10 24.6667V15.3333Z" fill="white"/>
<path d="M10 15.3333C10 12.3878 12.3878 10 15.3333 10H24.6667C27.6122 10 30 12.3878 30 15.3333V24.6667C30 27.6122 27.6122 30 24.6667 30H15.3333C12.3878 30 10 27.6122 10 24.6667V15.3333Z" stroke="#E6E6E6"/>
<mask id="mask0_3909_6980" style="mask-type:alpha" maskUnits="userSpaceOnUse" x="10" y="10" width="20" height="20">
<path d="M10 15.3333C10 12.3878 12.3878 10 15.3333 10H24.6667C27.6122 10 30 12.3878 30 15.3333V24.6667C30 27.6122 27.6122 30 24.6667 30H15.3333C12.3878 30 10 27.6122 10 24.6667V15.3333Z" fill="#2055AE"/>
</mask>
<g mask="url(#mask0_3909_6980)">
<path d="M19.1043 17.0633C19.4039 16.4872 19.7006 15.9097 20 15.3334C20.297 15.906 20.5928 16.4792 20.8893 17.052C20.9192 17.1185 20.9935 17.1612 21.0665 17.1528C21.1198 17.1468 21.1639 17.1137 21.2098 17.0887C21.4784 16.9356 21.7471 16.7824 22.0162 16.63C21.8335 17.5577 21.6504 18.4852 21.4683 19.4128C21.4473 19.5012 21.5105 19.5954 21.599 19.6142C21.6642 19.6303 21.7342 19.6041 21.7771 19.5538C22.152 19.1566 22.5281 18.7604 22.9031 18.3632C22.9963 18.5786 23.0891 18.7944 23.1823 19.0098C23.2124 19.0914 23.3069 19.1387 23.3913 19.1157C23.8736 19.0149 24.3559 18.914 24.8384 18.8134C24.6728 19.3183 24.5048 19.8223 24.3392 20.3272C24.3096 20.4081 24.3534 20.5039 24.4328 20.5373C24.6215 20.6249 24.811 20.7111 25 20.7985C24.16 21.4679 23.3207 22.138 22.4803 22.807C22.4189 22.8505 22.3879 22.9339 22.4158 23.0051C22.5191 23.2888 22.6246 23.5717 22.7283 23.8554C21.9596 23.7229 21.1911 23.5891 20.4222 23.4565C20.2667 23.422 20.1046 23.5617 20.1217 23.7201C20.1608 24.4801 20.2022 25.24 20.2419 25.9999C20.0807 26.0001 19.9193 26.0001 19.7581 25.9999C19.7978 25.2398 19.8393 24.4799 19.8783 23.7198C19.895 23.5619 19.7338 23.4228 19.5789 23.4564C18.8096 23.5889 18.0408 23.7229 17.2717 23.8554C17.3754 23.5717 17.4809 23.2888 17.5842 23.0049C17.6101 22.9381 17.5849 22.8582 17.5285 22.8147C16.6859 22.1424 15.8428 21.4705 15 20.7985C15.1882 20.7115 15.377 20.6255 15.5652 20.5384C15.6158 20.5161 15.656 20.4703 15.6663 20.4157C15.6792 20.3553 15.6503 20.298 15.633 20.242C15.4759 19.7657 15.3182 19.2898 15.1616 18.8134C15.6139 18.9077 16.0661 19.0023 16.5183 19.0969C16.5635 19.106 16.6085 19.1189 16.6548 19.1208C16.7262 19.123 16.7931 19.0746 16.8181 19.0091C16.9111 18.7938 17.0037 18.5784 17.0969 18.3632C17.475 18.7632 17.8533 19.1629 18.2317 19.5625C18.292 19.6306 18.4062 19.6374 18.4744 19.5771C18.522 19.5384 18.5446 19.4729 18.5317 19.4132C18.3498 18.4853 18.1665 17.5577 17.9838 16.63C18.277 16.7955 18.5689 16.9633 18.8618 17.129C18.9427 17.1798 19.0615 17.1484 19.1043 17.0633Z" fill="#D52B1E"/>
<rect x="25.6666" y="10" width="4.33333" height="20" fill="#D52B1E"/>
<rect x="10" y="10" width="4.33333" height="20" fill="#D52B1E"/>
</g>
</g>
<rect x="10.5" y="10.5" width="19" height="19" rx="9.5" stroke="#E6E6E6"/>
<g clip-path="url(#clip1_3909_6980)">
<path d="M0 6C0 2.68629 2.68629 0 6 0H14C17.3137 0 20 2.68629 20 6V14C20 17.3137 17.3137 20 14 20H6C2.68629 20 0 17.3137 0 14V6Z" fill="#2454FF"/>
<path d="M12.4863 6.02405L12.1406 7.64709C11.8086 7.31506 11.3242 7.14905 10.6875 7.14905C10.0508 7.14905 9.53516 7.37756 9.14063 7.83459C8.91797 8.09241 8.75977 8.41467 8.66602 8.80139H11.8887L11.7012 9.70959H8.54883C8.54492 9.79944 8.54297 9.91467 8.54297 10.0553C8.54297 10.192 8.54688 10.3346 8.55469 10.483H11.5371L11.3496 11.3912H8.67773C8.77539 11.8092 8.92578 12.1373 9.12891 12.3756C9.51953 12.8365 10.0273 13.067 10.6523 13.067C11.4023 13.067 12 12.8365 12.4453 12.3756V14.1686C11.9375 14.4225 11.3457 14.5494 10.6699 14.5494C9.5293 14.5494 8.5918 14.1588 7.85742 13.3776C7.35742 12.8463 7.02734 12.1842 6.86719 11.3912H6L6.1875 10.483H6.76172C6.75781 10.3893 6.75586 10.2897 6.75586 10.1842C6.75586 10.0045 6.75977 9.84631 6.76758 9.70959H6L6.1875 8.80139H6.88477C7.04883 8.02405 7.375 7.37366 7.86328 6.85022C8.60156 6.06116 9.57227 5.66663 10.7754 5.66663C11.4316 5.66663 12.002 5.78577 12.4863 6.02405Z" fill="white"/>
</g>
<defs>
<clipPath id="clip0_3909_6980">
<rect x="10" y="10" width="20" height="20" rx="10" fill="white"/>
</clipPath>
<clipPath id="clip1_3909_6980">
<rect width="20" height="20" rx="10" fill="white"/>
</clipPath>
</defs>
</svg>
