<svg width="30" height="30" viewBox="0 0 30 30" fill="none" xmlns="http://www.w3.org/2000/svg">
<g clip-path="url(#clip0_3909_7230)">
<path d="M15.3333 10H16.9566V15.104L12.6144 10.7614C13.4223 10.2765 14.3581 10 15.3333 10Z" fill="#0052B4"/>
<path d="M10 15.3333V16.9565H14.1047L10.4191 13.271C10.1504 13.9019 10 14.5976 10 15.3333Z" fill="#0052B4"/>
<path d="M23.0435 16.0719V10.0001H24.7022C25.9047 10.0084 27.0454 10.4365 27.9582 11.1568L23.0435 16.0719Z" fill="#0052B4"/>
<path d="M29.8277 13.9919L26.8631 16.9565H29.9999V15.297C29.9968 14.8447 29.937 14.4078 29.8277 13.9919Z" fill="#0052B4"/>
<path d="M30 24.6731V23.0434H25.8953L29.5809 26.729C29.8489 26.0999 29.9991 25.4064 30 24.6731Z" fill="#0052B4"/>
<path d="M27.3857 29.2386C26.5854 29.719 25.6596 29.9948 24.6943 29.9999H23.0434V24.8959L27.3857 29.2386Z" fill="#0052B4"/>
<path d="M16.9564 23.928V29.9998H15.2882C14.0892 29.9893 12.9521 29.5615 12.0417 28.8431L16.9564 23.928Z" fill="#0052B4"/>
<path d="M10 24.6667V23.0434H13.1368L10.1723 26.0079C10.0601 25.581 10 25.1319 10 24.6667Z" fill="#0052B4"/>
<path d="M10.7149 12.6821L14.9894 16.9566H16.9566L11.5728 11.5728C11.2418 11.902 10.9522 12.2745 10.7149 12.6821Z" fill="#D80027"/>
<path d="M29.2852 12.6819L25.0107 16.9565H23.0435L28.4273 11.5728C28.7583 11.902 29.0478 12.2744 29.2852 12.6819Z" fill="#D80027"/>
<path d="M28.4274 28.4274C28.7584 28.0982 29.0479 27.7257 29.2853 27.3181L25.0107 23.0435H23.0435L28.4274 28.4274Z" fill="#D80027"/>
<path d="M11.5727 28.4273L16.9564 23.0436H14.9893L10.7148 27.3181C10.9522 27.7256 11.2418 28.0981 11.5727 28.4273Z" fill="#D80027"/>
<path d="M21.875 10H18.125V18.125H10V21.875H18.125V29.9999H21.875V21.875H29.9999V18.125H21.875V10Z" fill="#D80027"/>
<path d="M12.6144 10.7614C12.2361 10.9885 11.8859 11.2612 11.5727 11.5727L16.9565 16.9565H14.9893L10.7148 12.682C10.6047 12.871 10.5058 13.0676 10.4191 13.271L14.1047 16.9565H10V18.125H18.125V10H16.9566V15.104L12.6144 10.7614Z" fill="white"/>
<path d="M21.875 10H24.6667C24.6785 10 24.6903 10 24.7022 10.0001H23.0435V16.0719L27.9582 11.1568C28.1222 11.2862 28.2789 11.4251 28.4272 11.5727L23.0435 16.9564H25.0106L29.2851 12.6818C29.521 13.0867 29.7053 13.526 29.8277 13.9919L26.8631 16.9565H29.9999V15.297C29.9999 15.2996 29.9999 15.3021 29.9999 15.3046V18.125H21.875V10Z" fill="white"/>
<path d="M30 23.0434L29.9999 21.875H21.875V29.9999L23.0434 29.9999V24.8959L27.3857 29.2386C27.7639 29.0115 28.1142 28.7388 28.4273 28.4273L23.0434 23.0434H25.0106L29.2852 27.318C29.3953 27.1289 29.4943 26.9323 29.5809 26.729L25.8953 23.0434H30Z" fill="white"/>
<path d="M11.5727 28.4273L16.9564 23.0435H14.9892L10.7148 27.318C10.479 26.9132 10.2946 26.4738 10.1723 26.0079L13.1368 23.0434H10V21.875H18.125V29.9999H15.305C15.2994 29.9999 15.2938 29.9999 15.2882 29.9998H16.9564V23.928L12.0417 28.8431C11.8777 28.7137 11.721 28.5748 11.5727 28.4273Z" fill="white"/>
</g>
<g clip-path="url(#clip1_3909_7230)">
<path d="M0 6C0 2.68629 2.68629 0 6 0H14C17.3137 0 20 2.68629 20 6V14C20 17.3137 17.3137 20 14 20H6C2.68629 20 0 17.3137 0 14V6Z" fill="#2454FF"/>
<path d="M12.4863 6.02417L12.1406 7.64722C11.8086 7.31519 11.3242 7.14917 10.6875 7.14917C10.0508 7.14917 9.53516 7.37769 9.14063 7.83472C8.91797 8.09253 8.75977 8.4148 8.66602 8.80151H11.8887L11.7012 9.70972H8.54883C8.54492 9.79956 8.54297 9.9148 8.54297 10.0554C8.54297 10.1921 8.54688 10.3347 8.55469 10.4832H11.5371L11.3496 11.3914H8.67773C8.77539 11.8093 8.92578 12.1375 9.12891 12.3757C9.51953 12.8367 10.0273 13.0671 10.6523 13.0671C11.4023 13.0671 12 12.8367 12.4453 12.3757V14.1687C11.9375 14.4226 11.3457 14.5496 10.6699 14.5496C9.5293 14.5496 8.5918 14.1589 7.85742 13.3777C7.35742 12.8464 7.02734 12.1843 6.86719 11.3914H6L6.1875 10.4832H6.76172C6.75781 10.3894 6.75586 10.2898 6.75586 10.1843C6.75586 10.0046 6.75977 9.84644 6.76758 9.70972H6L6.1875 8.80151H6.88477C7.04883 8.02417 7.375 7.37378 7.86328 6.85034C8.60156 6.06128 9.57227 5.66675 10.7754 5.66675C11.4316 5.66675 12.002 5.78589 12.4863 6.02417Z" fill="white"/>
</g>
<defs>
<clipPath id="clip0_3909_7230">
<rect x="10" y="10" width="20" height="20" rx="10" fill="white"/>
</clipPath>
<clipPath id="clip1_3909_7230">
<rect width="20" height="20" rx="10" fill="white"/>
</clipPath>
</defs>
</svg>
