<svg width="30" height="30" viewBox="0 0 30 30" fill="none" xmlns="http://www.w3.org/2000/svg">
<g clip-path="url(#clip0_3909_7231)">
<path d="M10 15.3333C10 12.3878 12.3878 10 15.3333 10H24.6667C27.6122 10 30 12.3878 30 15.3333V24.6667C30 27.6122 27.6122 30 24.6667 30H15.3333C12.3878 30 10 27.6122 10 24.6667V15.3333Z" fill="white"/>
<path d="M10 15.3333C10 12.3878 12.3878 10 15.3333 10H24.6667C27.6122 10 30 12.3878 30 15.3333V24.6667C30 27.6122 27.6122 30 24.6667 30H15.3333C12.3878 30 10 27.6122 10 24.6667V15.3333Z" stroke="#E6E6E6"/>
<mask id="mask0_3909_7231" style="mask-type:alpha" maskUnits="userSpaceOnUse" x="10" y="10" width="20" height="20">
<path d="M10 15.3333C10 12.3878 12.3878 10 15.3333 10H24.6667C27.6122 10 30 12.3878 30 15.3333V24.6667C30 27.6122 27.6122 30 24.6667 30H15.3333C12.3878 30 10 27.6122 10 24.6667V15.3333Z" fill="#2055AE"/>
</mask>
<g mask="url(#mask0_3909_7231)">
<circle cx="20" cy="20" r="5" fill="#BC002D"/>
</g>
</g>
<rect x="10.5" y="10.5" width="19" height="19" rx="9.5" stroke="#E6E6E6"/>
<g clip-path="url(#clip1_3909_7231)">
<path d="M0 6C0 2.68629 2.68629 0 6 0H14C17.3137 0 20 2.68629 20 6V14C20 17.3137 17.3137 20 14 20H6C2.68629 20 0 17.3137 0 14V6Z" fill="#2454FF"/>
<path d="M12.4863 6.02417L12.1406 7.64722C11.8086 7.31519 11.3242 7.14917 10.6875 7.14917C10.0508 7.14917 9.53516 7.37769 9.14063 7.83472C8.91797 8.09253 8.75977 8.4148 8.66602 8.80151H11.8887L11.7012 9.70972H8.54883C8.54492 9.79956 8.54297 9.9148 8.54297 10.0554C8.54297 10.1921 8.54688 10.3347 8.55469 10.4832H11.5371L11.3496 11.3914H8.67773C8.77539 11.8093 8.92578 12.1375 9.12891 12.3757C9.51953 12.8367 10.0273 13.0671 10.6523 13.0671C11.4023 13.0671 12 12.8367 12.4453 12.3757V14.1687C11.9375 14.4226 11.3457 14.5496 10.6699 14.5496C9.5293 14.5496 8.5918 14.1589 7.85742 13.3777C7.35742 12.8464 7.02734 12.1843 6.86719 11.3914H6L6.1875 10.4832H6.76172C6.75781 10.3894 6.75586 10.2898 6.75586 10.1843C6.75586 10.0046 6.75977 9.84644 6.76758 9.70972H6L6.1875 8.80151H6.88477C7.04883 8.02417 7.375 7.37378 7.86328 6.85034C8.60156 6.06128 9.57227 5.66675 10.7754 5.66675C11.4316 5.66675 12.002 5.78589 12.4863 6.02417Z" fill="white"/>
</g>
<defs>
<clipPath id="clip0_3909_7231">
<rect x="10" y="10" width="20" height="20" rx="10" fill="white"/>
</clipPath>
<clipPath id="clip1_3909_7231">
<rect width="20" height="20" rx="10" fill="white"/>
</clipPath>
</defs>
</svg>
