<svg width="30" height="30" viewBox="0 0 30 30" fill="none" xmlns="http://www.w3.org/2000/svg">
<g clip-path="url(#clip0_3909_7233)">
<path d="M10 15.3333C10 12.3878 12.3878 10 15.3333 10H24.6667C27.6122 10 30 12.3878 30 15.3333V24.6667C30 27.6122 27.6122 30 24.6667 30H15.3333C12.3878 30 10 27.6122 10 24.6667V15.3333Z" fill="#012169"/>
<mask id="mask0_3909_7233" style="mask-type:alpha" maskUnits="userSpaceOnUse" x="10" y="10" width="20" height="20">
<path d="M10 15.3333C10 12.3878 12.3878 10 15.3333 10H24.6667C27.6122 10 30 12.3878 30 15.3333V24.6667C30 27.6122 27.6122 30 24.6667 30H15.3333C12.3878 30 10 27.6122 10 24.6667V15.3333Z" fill="#2055AE"/>
</mask>
<g mask="url(#mask0_3909_7233)">
<path d="M20.1479 10H18.9728L12.7061 14.1058V10H10.1803L10.1805 22.8541H12.7062V18.7483L18.9729 22.8541H20.148C20.3275 22.8541 20.4995 22.7828 20.6264 22.6559C20.7533 22.529 20.8246 22.3569 20.8246 22.1775V21.6409L15.448 18.1184H20.8245V14.7357H15.448L20.8245 11.2132V10.6766C20.8245 10.4971 20.7532 10.325 20.6263 10.1982C20.4995 10.0713 20.3274 10 20.1479 10Z" fill="#F5F5F5"/>
<path d="M20.8245 15.4123H12.0295V10H10V22.8541H12.0295V17.4418H20.8245V15.4123Z" fill="#EA2C4B"/>
<path d="M13.9488 14.7357L20.7216 10.3393C20.6039 10.1401 20.3962 10 20.1479 10H20.0017L12.7062 14.7357H13.9488ZM20.8138 22.2306L14.4784 18.1184H13.2358L20.4302 22.7883C20.6457 22.6883 20.7935 22.4787 20.8138 22.2306Z" fill="#EA2C4B"/>
<path d="M25.187 24.1597L25.4787 25.0574H26.4227L25.659 25.6122L25.9507 26.51L25.1871 25.9551L24.4235 26.51L24.7151 25.6122L23.9515 25.0574H24.8953L25.187 24.1597Z" fill="white"/>
<path d="M25.1871 24.5567L25.3896 25.1801H26.0452L25.5148 25.5654L25.7173 26.1888L25.1871 25.8035L24.6568 26.1888L24.8593 25.5654L24.3289 25.1801H24.9845L25.1871 24.5567Z" fill="#C8102E"/>
<path d="M21.8536 18.8262L22.1453 19.7239H23.0893L22.3256 20.2787L22.6173 21.1765L21.8537 20.6216L21.0901 21.1765L21.3817 20.2787L20.6182 19.7239H21.562L21.8536 18.8262Z" fill="white"/>
<path d="M21.8537 19.2232L22.0562 19.8466H22.7118L22.1814 20.232L22.3839 20.8553L21.8537 20.47L21.3234 20.8553L21.5259 20.2319L20.9955 19.8466H21.6511L21.8537 19.2232Z" fill="#C8102E"/>
<path d="M28.187 17.8262L28.4787 18.7239H29.4227L28.659 19.2787L28.9507 20.1765L28.1871 19.6216L27.4235 20.1765L27.7151 19.2787L26.9515 18.7239H27.8953L28.187 17.8262Z" fill="white"/>
<path d="M28.1871 18.2232L28.3896 18.8466H29.0452L28.5148 19.232L28.7173 19.8553L28.1871 19.47L27.6568 19.8553L27.8593 19.2319L27.3289 18.8466H27.9845L28.1871 18.2232Z" fill="#C8102E"/>
<path d="M25.187 15.4929L25.4787 16.3906H26.4227L25.659 16.9455L25.9507 17.8432L25.1871 17.2884L24.4235 17.8432L24.7151 16.9454L23.9515 16.3906H24.8953L25.187 15.4929Z" fill="white"/>
<path d="M25.1871 15.8899L25.3896 16.5133H26.0452L25.5148 16.8987L25.7173 17.5221L25.1871 17.1368L24.6568 17.5221L24.8593 16.8987L24.3289 16.5133H24.9845L25.1871 15.8899Z" fill="#C8102E"/>
</g>
</g>
<g clip-path="url(#clip1_3909_7233)">
<path d="M0 6C0 2.68629 2.68629 0 6 0H14C17.3137 0 20 2.68629 20 6V14C20 17.3137 17.3137 20 14 20H6C2.68629 20 0 17.3137 0 14V6Z" fill="#2454FF"/>
<path d="M12.4863 6.02417L12.1406 7.64722C11.8086 7.31519 11.3242 7.14917 10.6875 7.14917C10.0508 7.14917 9.53516 7.37769 9.14063 7.83472C8.91797 8.09253 8.75977 8.4148 8.66602 8.80151H11.8887L11.7012 9.70972H8.54883C8.54492 9.79956 8.54297 9.9148 8.54297 10.0554C8.54297 10.1921 8.54688 10.3347 8.55469 10.4832H11.5371L11.3496 11.3914H8.67773C8.77539 11.8093 8.92578 12.1375 9.12891 12.3757C9.51953 12.8367 10.0273 13.0671 10.6523 13.0671C11.4023 13.0671 12 12.8367 12.4453 12.3757V14.1687C11.9375 14.4226 11.3457 14.5496 10.6699 14.5496C9.5293 14.5496 8.5918 14.1589 7.85742 13.3777C7.35742 12.8464 7.02734 12.1843 6.86719 11.3914H6L6.1875 10.4832H6.76172C6.75781 10.3894 6.75586 10.2898 6.75586 10.1843C6.75586 10.0046 6.75977 9.84644 6.76758 9.70972H6L6.1875 8.80151H6.88477C7.04883 8.02417 7.375 7.37378 7.86328 6.85034C8.60156 6.06128 9.57227 5.66675 10.7754 5.66675C11.4316 5.66675 12.002 5.78589 12.4863 6.02417Z" fill="white"/>
</g>
<defs>
<clipPath id="clip0_3909_7233">
<rect x="10" y="10" width="20" height="20" rx="10" fill="white"/>
</clipPath>
<clipPath id="clip1_3909_7233">
<rect width="20" height="20" rx="10" fill="white"/>
</clipPath>
</defs>
</svg>
