<svg width="30" height="30" viewBox="0 0 30 30" fill="none" xmlns="http://www.w3.org/2000/svg">
<g clip-path="url(#clip0_3909_7234)">
<path d="M10 15.3333C10 12.3878 12.3878 10 15.3333 10H24.6667C27.6122 10 30 12.3878 30 15.3333V24.6667C30 27.6122 27.6122 30 24.6667 30H15.3333C12.3878 30 10 27.6122 10 24.6667V15.3333Z" fill="#012169"/>
<mask id="mask0_3909_7234" style="mask-type:alpha" maskUnits="userSpaceOnUse" x="9" y="10" width="25" height="24">
<path d="M9.66663 16.3111C9.66663 12.8256 12.4922 10 15.9777 10H27.0222C30.5077 10 33.3333 12.8256 33.3333 16.3111V27.3556C33.3333 30.8411 30.5077 33.6667 27.0222 33.6667H15.9777C12.4922 33.6667 9.66663 30.8411 9.66663 27.3556V16.3111Z" fill="#2055AE"/>
</mask>
<g mask="url(#mask0_3909_7234)">
<rect x="8.48328" y="10" width="33.1333" height="23.6667" fill="white"/>
<path d="M8.48328 10H41.6166V11.5778H8.48328V10Z" fill="#D02F44"/>
<path d="M8.48328 13.1556H41.6166V14.7333H8.48328V13.1556Z" fill="#D02F44"/>
<path d="M8.48328 16.3111H41.6166V17.8889H8.48328V16.3111Z" fill="#D02F44"/>
<path d="M8.48328 19.4667H41.6166V21.0444H8.48328V19.4667Z" fill="#D02F44"/>
<path d="M8.48328 22.6222H41.6166V24.2H8.48328V22.6222Z" fill="#D02F44"/>
<path d="M8.48328 25.7778H41.6166V27.3556H8.48328V25.7778Z" fill="#D02F44"/>
<path d="M8.48328 28.9333H41.6166V30.5111H8.48328V28.9333Z" fill="#D02F44"/>
<path d="M8.48328 32.0889H41.6166V33.6667H8.48328V32.0889Z" fill="#D02F44"/>
<rect x="8.48328" y="10" width="14.2" height="11.0444" fill="#46467F"/>
<path fill-rule="evenodd" clip-rule="evenodd" d="M10.8499 13.1557C11.2856 13.1557 11.6388 12.8025 11.6388 12.3668C11.6388 11.9311 11.2856 11.5779 10.8499 11.5779C10.4142 11.5779 10.061 11.9311 10.061 12.3668C10.061 12.8025 10.4142 13.1557 10.8499 13.1557Z" fill="#DADADA"/>
<path fill-rule="evenodd" clip-rule="evenodd" d="M14.0055 13.1557C14.4412 13.1557 14.7944 12.8025 14.7944 12.3668C14.7944 11.9311 14.4412 11.5779 14.0055 11.5779C13.5698 11.5779 13.2166 11.9311 13.2166 12.3668C13.2166 12.8025 13.5698 13.1557 14.0055 13.1557Z" fill="#DADADA"/>
<path fill-rule="evenodd" clip-rule="evenodd" d="M17.161 13.1557C17.5967 13.1557 17.9499 12.8025 17.9499 12.3668C17.9499 11.9311 17.5967 11.5779 17.161 11.5779C16.7253 11.5779 16.3721 11.9311 16.3721 12.3668C16.3721 12.8025 16.7253 13.1557 17.161 13.1557Z" fill="#DADADA"/>
<path fill-rule="evenodd" clip-rule="evenodd" d="M20.3166 13.1557C20.7523 13.1557 21.1055 12.8025 21.1055 12.3668C21.1055 11.9311 20.7523 11.5779 20.3166 11.5779C19.8809 11.5779 19.5277 11.9311 19.5277 12.3668C19.5277 12.8025 19.8809 13.1557 20.3166 13.1557Z" fill="#DADADA"/>
<path fill-rule="evenodd" clip-rule="evenodd" d="M12.4277 14.7334C12.8634 14.7334 13.2166 14.3802 13.2166 13.9445C13.2166 13.5089 12.8634 13.1557 12.4277 13.1557C11.992 13.1557 11.6388 13.5089 11.6388 13.9445C11.6388 14.3802 11.992 14.7334 12.4277 14.7334Z" fill="#DADADA"/>
<path fill-rule="evenodd" clip-rule="evenodd" d="M15.5833 14.7335C16.0189 14.7335 16.3721 14.3803 16.3721 13.9446C16.3721 13.5089 16.0189 13.1557 15.5833 13.1557C15.1476 13.1557 14.7944 13.5089 14.7944 13.9446C14.7944 14.3803 15.1476 14.7335 15.5833 14.7335Z" fill="#DADADA"/>
<path fill-rule="evenodd" clip-rule="evenodd" d="M18.7388 14.7335C19.1745 14.7335 19.5277 14.3803 19.5277 13.9446C19.5277 13.5089 19.1745 13.1557 18.7388 13.1557C18.3031 13.1557 17.9499 13.5089 17.9499 13.9446C17.9499 14.3803 18.3031 14.7335 18.7388 14.7335Z" fill="#DADADA"/>
<path fill-rule="evenodd" clip-rule="evenodd" d="M20.3166 16.3112C20.7523 16.3112 21.1055 15.958 21.1055 15.5223C21.1055 15.0866 20.7523 14.7334 20.3166 14.7334C19.8809 14.7334 19.5277 15.0866 19.5277 15.5223C19.5277 15.958 19.8809 16.3112 20.3166 16.3112Z" fill="#DADADA"/>
<path fill-rule="evenodd" clip-rule="evenodd" d="M17.161 16.3112C17.5967 16.3112 17.9499 15.958 17.9499 15.5223C17.9499 15.0866 17.5967 14.7334 17.161 14.7334C16.7253 14.7334 16.3721 15.0866 16.3721 15.5223C16.3721 15.958 16.7253 16.3112 17.161 16.3112Z" fill="#DADADA"/>
<path fill-rule="evenodd" clip-rule="evenodd" d="M14.0055 16.3112C14.4412 16.3112 14.7944 15.958 14.7944 15.5223C14.7944 15.0866 14.4412 14.7334 14.0055 14.7334C13.5698 14.7334 13.2166 15.0866 13.2166 15.5223C13.2166 15.958 13.5698 16.3112 14.0055 16.3112Z" fill="#DADADA"/>
<path fill-rule="evenodd" clip-rule="evenodd" d="M10.8499 16.3112C11.2856 16.3112 11.6388 15.958 11.6388 15.5223C11.6388 15.0866 11.2856 14.7334 10.8499 14.7334C10.4142 14.7334 10.061 15.0866 10.061 15.5223C10.061 15.958 10.4142 16.3112 10.8499 16.3112Z" fill="#DADADA"/>
<path fill-rule="evenodd" clip-rule="evenodd" d="M12.4277 17.889C12.8634 17.889 13.2166 17.5358 13.2166 17.1001C13.2166 16.6644 12.8634 16.3112 12.4277 16.3112C11.992 16.3112 11.6388 16.6644 11.6388 17.1001C11.6388 17.5358 11.992 17.889 12.4277 17.889Z" fill="#DADADA"/>
<path fill-rule="evenodd" clip-rule="evenodd" d="M15.5833 17.889C16.0189 17.889 16.3721 17.5358 16.3721 17.1001C16.3721 16.6644 16.0189 16.3112 15.5833 16.3112C15.1476 16.3112 14.7944 16.6644 14.7944 17.1001C14.7944 17.5358 15.1476 17.889 15.5833 17.889Z" fill="#DADADA"/>
<path fill-rule="evenodd" clip-rule="evenodd" d="M18.7388 17.889C19.1745 17.889 19.5277 17.5358 19.5277 17.1001C19.5277 16.6644 19.1745 16.3112 18.7388 16.3112C18.3031 16.3112 17.9499 16.6644 17.9499 17.1001C17.9499 17.5358 18.3031 17.889 18.7388 17.889Z" fill="#DADADA"/>
<path fill-rule="evenodd" clip-rule="evenodd" d="M20.3166 19.4668C20.7523 19.4668 21.1055 19.1136 21.1055 18.6779C21.1055 18.2422 20.7523 17.889 20.3166 17.889C19.8809 17.889 19.5277 18.2422 19.5277 18.6779C19.5277 19.1136 19.8809 19.4668 20.3166 19.4668Z" fill="#DADADA"/>
<path fill-rule="evenodd" clip-rule="evenodd" d="M17.161 19.4668C17.5967 19.4668 17.9499 19.1136 17.9499 18.6779C17.9499 18.2422 17.5967 17.889 17.161 17.889C16.7253 17.889 16.3721 18.2422 16.3721 18.6779C16.3721 19.1136 16.7253 19.4668 17.161 19.4668Z" fill="#DADADA"/>
<path fill-rule="evenodd" clip-rule="evenodd" d="M14.0055 19.4668C14.4412 19.4668 14.7944 19.1136 14.7944 18.6779C14.7944 18.2422 14.4412 17.889 14.0055 17.889C13.5698 17.889 13.2166 18.2422 13.2166 18.6779C13.2166 19.1136 13.5698 19.4668 14.0055 19.4668Z" fill="#DADADA"/>
<path fill-rule="evenodd" clip-rule="evenodd" d="M10.8499 19.4668C11.2856 19.4668 11.6388 19.1136 11.6388 18.6779C11.6388 18.2422 11.2856 17.889 10.8499 17.889C10.4142 17.889 10.061 18.2422 10.061 18.6779C10.061 19.1136 10.4142 19.4668 10.8499 19.4668Z" fill="#DADADA"/>
</g>
</g>
<g clip-path="url(#clip1_3909_7234)">
<path d="M0 6C0 2.68629 2.68629 0 6 0H14C17.3137 0 20 2.68629 20 6V14C20 17.3137 17.3137 20 14 20H6C2.68629 20 0 17.3137 0 14V6Z" fill="#2454FF"/>
<path d="M12.4863 6.02417L12.1406 7.64722C11.8086 7.31519 11.3242 7.14917 10.6875 7.14917C10.0508 7.14917 9.53516 7.37769 9.14063 7.83472C8.91797 8.09253 8.75977 8.4148 8.66602 8.80151H11.8887L11.7012 9.70972H8.54883C8.54492 9.79956 8.54297 9.9148 8.54297 10.0554C8.54297 10.1921 8.54688 10.3347 8.55469 10.4832H11.5371L11.3496 11.3914H8.67773C8.77539 11.8093 8.92578 12.1375 9.12891 12.3757C9.51953 12.8367 10.0273 13.0671 10.6523 13.0671C11.4023 13.0671 12 12.8367 12.4453 12.3757V14.1687C11.9375 14.4226 11.3457 14.5496 10.6699 14.5496C9.5293 14.5496 8.5918 14.1589 7.85742 13.3777C7.35742 12.8464 7.02734 12.1843 6.86719 11.3914H6L6.1875 10.4832H6.76172C6.75781 10.3894 6.75586 10.2898 6.75586 10.1843C6.75586 10.0046 6.75977 9.84644 6.76758 9.70972H6L6.1875 8.80151H6.88477C7.04883 8.02417 7.375 7.37378 7.86328 6.85034C8.60156 6.06128 9.57227 5.66675 10.7754 5.66675C11.4316 5.66675 12.002 5.78589 12.4863 6.02417Z" fill="white"/>
</g>
<defs>
<clipPath id="clip0_3909_7234">
<rect x="10" y="10" width="20" height="20" rx="10" fill="white"/>
</clipPath>
<clipPath id="clip1_3909_7234">
<rect width="20" height="20" rx="10" fill="white"/>
</clipPath>
</defs>
</svg>
