<svg width="30" height="30" viewBox="0 0 30 30" fill="none" xmlns="http://www.w3.org/2000/svg">
<g clip-path="url(#clip0_3909_7246)">
<path d="M10 15.3333C10 12.3878 12.3878 10 15.3333 10H24.6667C27.6122 10 30 12.3878 30 15.3333V24.6667C30 27.6122 27.6122 30 24.6667 30H15.3333C12.3878 30 10 27.6122 10 24.6667V15.3333Z" fill="#F44848"/>
<path d="M21.7 14.3334H18.3V18.3H14.3334V21.7H18.3V25.6667H21.7V21.7H25.6667V18.3H21.7V14.3334Z" fill="white"/>
</g>
<g clip-path="url(#clip1_3909_7246)">
<path d="M5.33333 0H6.95656V5.104L2.61437 0.761408C3.42228 0.27646 4.35806 0 5.33333 0Z" fill="#0052B4"/>
<path d="M0 5.33333V6.9565H4.10467L0.419144 3.27097C0.150368 3.90194 0 4.59759 0 5.33333Z" fill="#0052B4"/>
<path d="M13.0435 6.07189V0.00012207H14.7022C15.9047 0.00839304 17.0454 0.436549 17.9582 1.15679L13.0435 6.07189Z" fill="#0052B4"/>
<path d="M19.8277 3.9919L16.8631 6.9565H19.9999V5.29704C19.9968 4.84471 19.937 4.40775 19.8277 3.9919Z" fill="#0052B4"/>
<path d="M20 14.6731V13.0434H15.8953L19.5809 16.729C19.8489 16.0999 19.9991 15.4064 20 14.6731Z" fill="#0052B4"/>
<path d="M17.3857 19.2386C16.5854 19.719 15.6596 19.9948 14.6943 19.9999H13.0434V14.8959L17.3857 19.2386Z" fill="#0052B4"/>
<path d="M6.95639 13.928V19.9998H5.28823C4.08919 19.9893 2.95206 19.5615 2.04169 18.8431L6.95639 13.928Z" fill="#0052B4"/>
<path d="M0 14.6667V13.0434H3.13678L0.172261 16.0079C0.060113 15.581 0 15.1319 0 14.6667Z" fill="#0052B4"/>
<path d="M0.71486 2.68194L4.98938 6.95647H6.95656L1.57278 1.57268C1.24179 1.90191 0.952246 2.27442 0.71486 2.68194Z" fill="#D80027"/>
<path d="M19.2852 2.68182L15.0107 6.95635H13.0435L18.4273 1.57263C18.7583 1.90184 19.0478 2.27432 19.2852 2.68182Z" fill="#D80027"/>
<path d="M18.4274 18.4273C18.7584 18.098 19.0479 17.7255 19.2853 17.318L15.0107 13.0434H13.0435L18.4274 18.4273Z" fill="#D80027"/>
<path d="M1.57274 18.4272L6.95645 13.0435H4.98927L0.714844 17.318C0.952223 17.7255 1.24176 18.098 1.57274 18.4272Z" fill="#D80027"/>
<path d="M11.875 0H8.12497V8.12497H0V11.875H8.12497V19.9999H11.875V11.875H19.9999V8.12497H11.875V0Z" fill="#D80027"/>
<path d="M2.61437 0.761408C2.23609 0.988462 1.88585 1.26122 1.57271 1.57271L6.9565 6.9565H4.98932L0.714792 2.68197C0.60466 2.87104 0.505754 3.06765 0.419144 3.27097L4.10467 6.9565H0V8.12497H8.12497V0H6.95656V5.104L2.61437 0.761408Z" fill="white"/>
<path d="M11.875 0H14.6667C14.6785 0 14.6903 4.07306e-05 14.7022 0.00012207H13.0435V6.07189L17.9582 1.15679C18.1222 1.28623 18.2789 1.4251 18.4272 1.57266L13.0435 6.95638H15.0106L19.2851 2.68185C19.521 3.08666 19.7053 3.52603 19.8277 3.9919L16.8631 6.9565H19.9999V5.29704C19.9999 5.29957 19.9999 5.3021 19.9999 5.30464V8.12497H11.875V0Z" fill="white"/>
<path d="M20 13.0434L19.9999 11.875H11.875V19.9999L13.0434 19.9999V14.8959L17.3857 19.2386C17.7639 19.0115 18.1142 18.7388 18.4273 18.4273L13.0434 13.0434H15.0106L19.2852 17.318C19.3953 17.1289 19.4943 16.9323 19.5809 16.729L15.8953 13.0434H20Z" fill="white"/>
<path d="M1.57267 18.4273L6.95638 13.0435H4.9892L0.714775 17.318C0.478975 16.9132 0.294638 16.4738 0.172261 16.0079L3.13678 13.0434H0V11.875H8.12497V19.9999H5.30504C5.29943 19.9999 5.29383 19.9999 5.28823 19.9998H6.95638V13.928L2.04169 18.8431C1.87767 18.7137 1.72101 18.5748 1.57267 18.4273Z" fill="white"/>
</g>
<defs>
<clipPath id="clip0_3909_7246">
<rect x="10" y="10" width="20" height="20" rx="10" fill="white"/>
</clipPath>
<clipPath id="clip1_3909_7246">
<rect width="20" height="20" rx="10" fill="white"/>
</clipPath>
</defs>
</svg>
