<svg width="30" height="30" viewBox="0 0 30 30" fill="none" xmlns="http://www.w3.org/2000/svg">
<g clip-path="url(#clip0_3909_7236)">
<path d="M10 15.3333C10 12.3878 12.3878 10 15.3333 10H24.6667C27.6122 10 30 12.3878 30 15.3333V24.6667C30 27.6122 27.6122 30 24.6667 30H15.3333C12.3878 30 10 27.6122 10 24.6667V15.3333Z" fill="white"/>
<path d="M10 15.3333C10 12.3878 12.3878 10 15.3333 10H24.6667C27.6122 10 30 12.3878 30 15.3333V24.6667C30 27.6122 27.6122 30 24.6667 30H15.3333C12.3878 30 10 27.6122 10 24.6667V15.3333Z" stroke="#E6E6E6"/>
<mask id="mask0_3909_7236" style="mask-type:alpha" maskUnits="userSpaceOnUse" x="10" y="10" width="20" height="20">
<path d="M10 15.3333C10 12.3878 12.3878 10 15.3333 10H24.6667C27.6122 10 30 12.3878 30 15.3333V24.6667C30 27.6122 27.6122 30 24.6667 30H15.3333C12.3878 30 10 27.6122 10 24.6667V15.3333Z" fill="#2055AE"/>
</mask>
<g mask="url(#mask0_3909_7236)">
<path d="M19.1043 17.0633C19.4039 16.4872 19.7006 15.9097 20 15.3334C20.297 15.906 20.5928 16.4792 20.8893 17.052C20.9192 17.1185 20.9935 17.1612 21.0665 17.1528C21.1198 17.1468 21.1639 17.1137 21.2098 17.0887C21.4784 16.9356 21.7471 16.7824 22.0162 16.63C21.8335 17.5577 21.6504 18.4852 21.4683 19.4128C21.4473 19.5012 21.5105 19.5954 21.599 19.6142C21.6642 19.6303 21.7342 19.6041 21.7771 19.5538C22.152 19.1566 22.5281 18.7604 22.9031 18.3632C22.9963 18.5786 23.0891 18.7944 23.1823 19.0098C23.2124 19.0914 23.3069 19.1387 23.3913 19.1157C23.8736 19.0149 24.3559 18.914 24.8384 18.8134C24.6728 19.3183 24.5048 19.8223 24.3392 20.3272C24.3096 20.4081 24.3534 20.5039 24.4328 20.5373C24.6215 20.6249 24.811 20.7111 25 20.7985C24.16 21.4679 23.3207 22.138 22.4803 22.807C22.4189 22.8505 22.3879 22.9339 22.4158 23.0051C22.5191 23.2888 22.6246 23.5717 22.7283 23.8554C21.9596 23.7229 21.1911 23.5891 20.4222 23.4565C20.2667 23.422 20.1046 23.5617 20.1217 23.7201C20.1608 24.4801 20.2022 25.24 20.2419 25.9999C20.0807 26.0001 19.9193 26.0001 19.7581 25.9999C19.7978 25.2398 19.8393 24.4799 19.8783 23.7198C19.895 23.5619 19.7338 23.4228 19.5789 23.4564C18.8096 23.5889 18.0408 23.7229 17.2717 23.8554C17.3754 23.5717 17.4809 23.2888 17.5842 23.0049C17.6101 22.9381 17.5849 22.8582 17.5285 22.8147C16.6859 22.1424 15.8428 21.4705 15 20.7985C15.1882 20.7115 15.377 20.6255 15.5652 20.5384C15.6158 20.5161 15.656 20.4703 15.6663 20.4157C15.6792 20.3553 15.6503 20.298 15.633 20.242C15.4759 19.7657 15.3182 19.2898 15.1616 18.8134C15.6139 18.9077 16.0661 19.0023 16.5183 19.0969C16.5635 19.106 16.6085 19.1189 16.6548 19.1208C16.7262 19.123 16.7931 19.0746 16.8181 19.0091C16.9111 18.7938 17.0037 18.5784 17.0969 18.3632C17.475 18.7632 17.8533 19.1629 18.2317 19.5625C18.292 19.6306 18.4062 19.6374 18.4744 19.5771C18.522 19.5384 18.5446 19.4729 18.5317 19.4132C18.3498 18.4853 18.1665 17.5577 17.9838 16.63C18.277 16.7955 18.5689 16.9633 18.8618 17.129C18.9427 17.1798 19.0615 17.1484 19.1043 17.0633Z" fill="#D52B1E"/>
<rect x="25.6666" y="10" width="4.33333" height="20" fill="#D52B1E"/>
<rect x="10" y="10" width="4.33333" height="20" fill="#D52B1E"/>
</g>
</g>
<rect x="10.5" y="10.5" width="19" height="19" rx="9.5" stroke="#E6E6E6"/>
<g clip-path="url(#clip1_3909_7236)">
<path d="M5.33333 0H6.95656V5.104L2.61437 0.761408C3.42228 0.27646 4.35806 0 5.33333 0Z" fill="#0052B4"/>
<path d="M0 5.33333V6.9565H4.10467L0.419144 3.27097C0.150368 3.90194 0 4.59759 0 5.33333Z" fill="#0052B4"/>
<path d="M13.0435 6.07189V0.00012207H14.7022C15.9047 0.00839304 17.0454 0.436549 17.9582 1.15679L13.0435 6.07189Z" fill="#0052B4"/>
<path d="M19.8277 3.9919L16.8631 6.9565H19.9999V5.29704C19.9968 4.84471 19.937 4.40775 19.8277 3.9919Z" fill="#0052B4"/>
<path d="M20 14.6731V13.0434H15.8953L19.5809 16.729C19.8489 16.0999 19.9991 15.4064 20 14.6731Z" fill="#0052B4"/>
<path d="M17.3857 19.2386C16.5854 19.719 15.6596 19.9948 14.6943 19.9999H13.0434V14.8959L17.3857 19.2386Z" fill="#0052B4"/>
<path d="M6.95639 13.928V19.9998H5.28823C4.08919 19.9893 2.95206 19.5615 2.04169 18.8431L6.95639 13.928Z" fill="#0052B4"/>
<path d="M0 14.6667V13.0434H3.13678L0.172261 16.0079C0.060113 15.581 0 15.1319 0 14.6667Z" fill="#0052B4"/>
<path d="M0.71486 2.68194L4.98938 6.95647H6.95656L1.57278 1.57268C1.24179 1.90191 0.952246 2.27442 0.71486 2.68194Z" fill="#D80027"/>
<path d="M19.2852 2.68182L15.0107 6.95635H13.0435L18.4273 1.57263C18.7583 1.90184 19.0478 2.27432 19.2852 2.68182Z" fill="#D80027"/>
<path d="M18.4274 18.4273C18.7584 18.098 19.0479 17.7255 19.2853 17.318L15.0107 13.0434H13.0435L18.4274 18.4273Z" fill="#D80027"/>
<path d="M1.57274 18.4272L6.95645 13.0435H4.98927L0.714844 17.318C0.952223 17.7255 1.24176 18.098 1.57274 18.4272Z" fill="#D80027"/>
<path d="M11.875 0H8.12497V8.12497H0V11.875H8.12497V19.9999H11.875V11.875H19.9999V8.12497H11.875V0Z" fill="#D80027"/>
<path d="M2.61437 0.761408C2.23609 0.988462 1.88585 1.26122 1.57271 1.57271L6.9565 6.9565H4.98932L0.714792 2.68197C0.60466 2.87104 0.505754 3.06765 0.419144 3.27097L4.10467 6.9565H0V8.12497H8.12497V0H6.95656V5.104L2.61437 0.761408Z" fill="white"/>
<path d="M11.875 0H14.6667C14.6785 0 14.6903 4.07306e-05 14.7022 0.00012207H13.0435V6.07189L17.9582 1.15679C18.1222 1.28623 18.2789 1.4251 18.4272 1.57266L13.0435 6.95638H15.0106L19.2851 2.68185C19.521 3.08666 19.7053 3.52603 19.8277 3.9919L16.8631 6.9565H19.9999V5.29704C19.9999 5.29957 19.9999 5.3021 19.9999 5.30464V8.12497H11.875V0Z" fill="white"/>
<path d="M20 13.0434L19.9999 11.875H11.875V19.9999L13.0434 19.9999V14.8959L17.3857 19.2386C17.7639 19.0115 18.1142 18.7388 18.4273 18.4273L13.0434 13.0434H15.0106L19.2852 17.318C19.3953 17.1289 19.4943 16.9323 19.5809 16.729L15.8953 13.0434H20Z" fill="white"/>
<path d="M1.57267 18.4273L6.95638 13.0435H4.9892L0.714775 17.318C0.478975 16.9132 0.294638 16.4738 0.172261 16.0079L3.13678 13.0434H0V11.875H8.12497V19.9999H5.30504C5.29943 19.9999 5.29383 19.9999 5.28823 19.9998H6.95638V13.928L2.04169 18.8431C1.87767 18.7137 1.72101 18.5748 1.57267 18.4273Z" fill="white"/>
</g>
<defs>
<clipPath id="clip0_3909_7236">
<rect x="10" y="10" width="20" height="20" rx="10" fill="white"/>
</clipPath>
<clipPath id="clip1_3909_7236">
<rect width="20" height="20" rx="10" fill="white"/>
</clipPath>
</defs>
</svg>
