<svg width="30" height="30" viewBox="0 0 30 30" fill="none" xmlns="http://www.w3.org/2000/svg">
<g clip-path="url(#clip0_3909_7248)">
<path d="M10 15.3333C10 12.3878 12.3878 10 15.3333 10H24.6667C27.6122 10 30 12.3878 30 15.3333V24.6667C30 27.6122 27.6122 30 24.6667 30H15.3333C12.3878 30 10 27.6122 10 24.6667V15.3333Z" fill="#012169"/>
<mask id="mask0_3909_7248" style="mask-type:alpha" maskUnits="userSpaceOnUse" x="10" y="10" width="20" height="20">
<path d="M10 15.3333C10 12.3878 12.3878 10 15.3333 10H24.6667C27.6122 10 30 12.3878 30 15.3333V24.6667C30 27.6122 27.6122 30 24.6667 30H15.3333C12.3878 30 10 27.6122 10 24.6667V15.3333Z" fill="#2055AE"/>
</mask>
<g mask="url(#mask0_3909_7248)">
<path d="M20.1479 10H18.9728L12.7061 14.1058V10H10.1803L10.1805 22.8541H12.7062V18.7483L18.9729 22.8541H20.148C20.3275 22.8541 20.4995 22.7828 20.6264 22.6559C20.7533 22.529 20.8246 22.3569 20.8246 22.1775V21.6409L15.448 18.1184H20.8245V14.7357H15.448L20.8245 11.2132V10.6766C20.8245 10.4971 20.7532 10.325 20.6263 10.1982C20.4995 10.0713 20.3274 10 20.1479 10Z" fill="#F5F5F5"/>
<path d="M20.8245 15.4123H12.0295V10H10V22.8541H12.0295V17.4418H20.8245V15.4123Z" fill="#EA2C4B"/>
<path d="M13.9488 14.7357L20.7216 10.3393C20.6039 10.1401 20.3962 10 20.1479 10H20.0017L12.7062 14.7357H13.9488ZM20.8138 22.2306L14.4784 18.1184H13.2358L20.4302 22.7883C20.6457 22.6883 20.7935 22.4787 20.8138 22.2306Z" fill="#EA2C4B"/>
<path d="M25.187 24.1595L25.4787 25.0573H26.4227L25.659 25.6121L25.9507 26.5098L25.1871 25.955L24.4235 26.5098L24.7151 25.612L23.9515 25.0573H24.8953L25.187 24.1595Z" fill="white"/>
<path d="M25.1871 24.5565L25.3896 25.18H26.0452L25.5148 25.5653L25.7173 26.1887L25.1871 25.8034L24.6568 26.1887L24.8593 25.5653L24.3289 25.18H24.9845L25.1871 24.5565Z" fill="#C8102E"/>
<path d="M21.8536 18.8263L22.1453 19.724H23.0893L22.3256 20.2789L22.6173 21.1766L21.8537 20.6218L21.0901 21.1766L21.3817 20.2788L20.6182 19.724H21.562L21.8536 18.8263Z" fill="white"/>
<path d="M21.8537 19.2233L22.0562 19.8467H22.7118L22.1814 20.2321L22.3839 20.8554L21.8537 20.4702L21.3234 20.8554L21.5259 20.232L20.9955 19.8467H21.6511L21.8537 19.2233Z" fill="#C8102E"/>
<path d="M28.187 17.8263L28.4787 18.724H29.4227L28.659 19.2789L28.9507 20.1766L28.1871 19.6218L27.4235 20.1766L27.7151 19.2788L26.9515 18.724H27.8953L28.187 17.8263Z" fill="white"/>
<path d="M28.1871 18.2233L28.3896 18.8467H29.0452L28.5148 19.2321L28.7173 19.8554L28.1871 19.4702L27.6568 19.8554L27.8593 19.232L27.3289 18.8467H27.9845L28.1871 18.2233Z" fill="#C8102E"/>
<path d="M25.187 15.4929L25.4787 16.3906H26.4227L25.659 16.9455L25.9507 17.8432L25.1871 17.2884L24.4235 17.8432L24.7151 16.9454L23.9515 16.3906H24.8953L25.187 15.4929Z" fill="white"/>
<path d="M25.1871 15.8899L25.3896 16.5133H26.0452L25.5148 16.8987L25.7173 17.5221L25.1871 17.1368L24.6568 17.5221L24.8593 16.8987L24.3289 16.5133H24.9845L25.1871 15.8899Z" fill="#C8102E"/>
</g>
</g>
<g clip-path="url(#clip1_3909_7248)">
<path d="M5.33333 0H6.95656V5.104L2.61437 0.761408C3.42228 0.27646 4.35806 0 5.33333 0Z" fill="#0052B4"/>
<path d="M0 5.33333V6.9565H4.10467L0.419144 3.27097C0.150368 3.90194 0 4.59759 0 5.33333Z" fill="#0052B4"/>
<path d="M13.0435 6.07189V0.00012207H14.7022C15.9047 0.00839304 17.0454 0.436549 17.9582 1.15679L13.0435 6.07189Z" fill="#0052B4"/>
<path d="M19.8277 3.9919L16.8631 6.9565H19.9999V5.29704C19.9968 4.84471 19.937 4.40775 19.8277 3.9919Z" fill="#0052B4"/>
<path d="M20 14.6731V13.0434H15.8953L19.5809 16.729C19.8489 16.0999 19.9991 15.4064 20 14.6731Z" fill="#0052B4"/>
<path d="M17.3857 19.2386C16.5854 19.719 15.6596 19.9948 14.6943 19.9999H13.0434V14.8959L17.3857 19.2386Z" fill="#0052B4"/>
<path d="M6.95639 13.928V19.9998H5.28823C4.08919 19.9893 2.95206 19.5615 2.04169 18.8431L6.95639 13.928Z" fill="#0052B4"/>
<path d="M0 14.6667V13.0434H3.13678L0.172261 16.0079C0.060113 15.581 0 15.1319 0 14.6667Z" fill="#0052B4"/>
<path d="M0.71486 2.68194L4.98938 6.95647H6.95656L1.57278 1.57268C1.24179 1.90191 0.952246 2.27442 0.71486 2.68194Z" fill="#D80027"/>
<path d="M19.2852 2.68182L15.0107 6.95635H13.0435L18.4273 1.57263C18.7583 1.90184 19.0478 2.27432 19.2852 2.68182Z" fill="#D80027"/>
<path d="M18.4274 18.4273C18.7584 18.098 19.0479 17.7255 19.2853 17.318L15.0107 13.0434H13.0435L18.4274 18.4273Z" fill="#D80027"/>
<path d="M1.57274 18.4272L6.95645 13.0435H4.98927L0.714844 17.318C0.952223 17.7255 1.24176 18.098 1.57274 18.4272Z" fill="#D80027"/>
<path d="M11.875 0H8.12497V8.12497H0V11.875H8.12497V19.9999H11.875V11.875H19.9999V8.12497H11.875V0Z" fill="#D80027"/>
<path d="M2.61437 0.761408C2.23609 0.988462 1.88585 1.26122 1.57271 1.57271L6.9565 6.9565H4.98932L0.714792 2.68197C0.60466 2.87104 0.505754 3.06765 0.419144 3.27097L4.10467 6.9565H0V8.12497H8.12497V0H6.95656V5.104L2.61437 0.761408Z" fill="white"/>
<path d="M11.875 0H14.6667C14.6785 0 14.6903 4.07306e-05 14.7022 0.00012207H13.0435V6.07189L17.9582 1.15679C18.1222 1.28623 18.2789 1.4251 18.4272 1.57266L13.0435 6.95638H15.0106L19.2851 2.68185C19.521 3.08666 19.7053 3.52603 19.8277 3.9919L16.8631 6.9565H19.9999V5.29704C19.9999 5.29957 19.9999 5.3021 19.9999 5.30464V8.12497H11.875V0Z" fill="white"/>
<path d="M20 13.0434L19.9999 11.875H11.875V19.9999L13.0434 19.9999V14.8959L17.3857 19.2386C17.7639 19.0115 18.1142 18.7388 18.4273 18.4273L13.0434 13.0434H15.0106L19.2852 17.318C19.3953 17.1289 19.4943 16.9323 19.5809 16.729L15.8953 13.0434H20Z" fill="white"/>
<path d="M1.57267 18.4273L6.95638 13.0435H4.9892L0.714775 17.318C0.478975 16.9132 0.294638 16.4738 0.172261 16.0079L3.13678 13.0434H0V11.875H8.12497V19.9999H5.30504C5.29943 19.9999 5.29383 19.9999 5.28823 19.9998H6.95638V13.928L2.04169 18.8431C1.87767 18.7137 1.72101 18.5748 1.57267 18.4273Z" fill="white"/>
</g>
<defs>
<clipPath id="clip0_3909_7248">
<rect x="10" y="10" width="20" height="20" rx="10" fill="white"/>
</clipPath>
<clipPath id="clip1_3909_7248">
<rect width="20" height="20" rx="10" fill="white"/>
</clipPath>
</defs>
</svg>
