<svg width="30" height="30" viewBox="0 0 30 30" fill="none" xmlns="http://www.w3.org/2000/svg">
<g clip-path="url(#clip0_3909_7240)">
<path d="M10 15.3333C10 12.3878 12.3878 10 15.3333 10H24.6667C27.6122 10 30 12.3878 30 15.3333V24.6667C30 27.6122 27.6122 30 24.6667 30H15.3333C12.3878 30 10 27.6122 10 24.6667V15.3333Z" fill="#012169"/>
<mask id="mask0_3909_7240" style="mask-type:alpha" maskUnits="userSpaceOnUse" x="9" y="10" width="25" height="24">
<path d="M9.66663 16.3111C9.66663 12.8256 12.4922 10 15.9777 10H27.0222C30.5077 10 33.3333 12.8256 33.3333 16.3111V27.3556C33.3333 30.8411 30.5077 33.6667 27.0222 33.6667H15.9777C12.4922 33.6667 9.66663 30.8411 9.66663 27.3556V16.3111Z" fill="#2055AE"/>
</mask>
<g mask="url(#mask0_3909_7240)">
<rect x="8.48328" y="10" width="33.1333" height="23.6667" fill="white"/>
<path d="M8.48328 10H41.6166V11.5778H8.48328V10Z" fill="#D02F44"/>
<path d="M8.48328 13.1556H41.6166V14.7333H8.48328V13.1556Z" fill="#D02F44"/>
<path d="M8.48328 16.3111H41.6166V17.8889H8.48328V16.3111Z" fill="#D02F44"/>
<path d="M8.48328 19.4667H41.6166V21.0444H8.48328V19.4667Z" fill="#D02F44"/>
<path d="M8.48328 22.6222H41.6166V24.2H8.48328V22.6222Z" fill="#D02F44"/>
<path d="M8.48328 25.7778H41.6166V27.3556H8.48328V25.7778Z" fill="#D02F44"/>
<path d="M8.48328 28.9333H41.6166V30.5111H8.48328V28.9333Z" fill="#D02F44"/>
<path d="M8.48328 32.0889H41.6166V33.6667H8.48328V32.0889Z" fill="#D02F44"/>
<rect x="8.48328" y="10" width="14.2" height="11.0444" fill="#46467F"/>
<path fill-rule="evenodd" clip-rule="evenodd" d="M10.8499 13.1555C11.2856 13.1555 11.6388 12.8023 11.6388 12.3666C11.6388 11.931 11.2856 11.5778 10.8499 11.5778C10.4142 11.5778 10.061 11.931 10.061 12.3666C10.061 12.8023 10.4142 13.1555 10.8499 13.1555Z" fill="#DADADA"/>
<path fill-rule="evenodd" clip-rule="evenodd" d="M14.0055 13.1555C14.4412 13.1555 14.7944 12.8023 14.7944 12.3666C14.7944 11.931 14.4412 11.5778 14.0055 11.5778C13.5698 11.5778 13.2166 11.931 13.2166 12.3666C13.2166 12.8023 13.5698 13.1555 14.0055 13.1555Z" fill="#DADADA"/>
<path fill-rule="evenodd" clip-rule="evenodd" d="M17.161 13.1555C17.5967 13.1555 17.9499 12.8023 17.9499 12.3666C17.9499 11.931 17.5967 11.5778 17.161 11.5778C16.7253 11.5778 16.3721 11.931 16.3721 12.3666C16.3721 12.8023 16.7253 13.1555 17.161 13.1555Z" fill="#DADADA"/>
<path fill-rule="evenodd" clip-rule="evenodd" d="M20.3166 13.1555C20.7523 13.1555 21.1055 12.8023 21.1055 12.3666C21.1055 11.931 20.7523 11.5778 20.3166 11.5778C19.8809 11.5778 19.5277 11.931 19.5277 12.3666C19.5277 12.8023 19.8809 13.1555 20.3166 13.1555Z" fill="#DADADA"/>
<path fill-rule="evenodd" clip-rule="evenodd" d="M12.4277 14.7333C12.8634 14.7333 13.2166 14.3801 13.2166 13.9444C13.2166 13.5087 12.8634 13.1555 12.4277 13.1555C11.992 13.1555 11.6388 13.5087 11.6388 13.9444C11.6388 14.3801 11.992 14.7333 12.4277 14.7333Z" fill="#DADADA"/>
<path fill-rule="evenodd" clip-rule="evenodd" d="M15.5833 14.7334C16.0189 14.7334 16.3721 14.3802 16.3721 13.9445C16.3721 13.5088 16.0189 13.1556 15.5833 13.1556C15.1476 13.1556 14.7944 13.5088 14.7944 13.9445C14.7944 14.3802 15.1476 14.7334 15.5833 14.7334Z" fill="#DADADA"/>
<path fill-rule="evenodd" clip-rule="evenodd" d="M18.7388 14.7334C19.1745 14.7334 19.5277 14.3802 19.5277 13.9445C19.5277 13.5088 19.1745 13.1556 18.7388 13.1556C18.3031 13.1556 17.9499 13.5088 17.9499 13.9445C17.9499 14.3802 18.3031 14.7334 18.7388 14.7334Z" fill="#DADADA"/>
<path fill-rule="evenodd" clip-rule="evenodd" d="M20.3166 16.311C20.7523 16.311 21.1055 15.9578 21.1055 15.5222C21.1055 15.0865 20.7523 14.7333 20.3166 14.7333C19.8809 14.7333 19.5277 15.0865 19.5277 15.5222C19.5277 15.9578 19.8809 16.311 20.3166 16.311Z" fill="#DADADA"/>
<path fill-rule="evenodd" clip-rule="evenodd" d="M17.161 16.311C17.5967 16.311 17.9499 15.9578 17.9499 15.5222C17.9499 15.0865 17.5967 14.7333 17.161 14.7333C16.7253 14.7333 16.3721 15.0865 16.3721 15.5222C16.3721 15.9578 16.7253 16.311 17.161 16.311Z" fill="#DADADA"/>
<path fill-rule="evenodd" clip-rule="evenodd" d="M14.0055 16.311C14.4412 16.311 14.7944 15.9578 14.7944 15.5222C14.7944 15.0865 14.4412 14.7333 14.0055 14.7333C13.5698 14.7333 13.2166 15.0865 13.2166 15.5222C13.2166 15.9578 13.5698 16.311 14.0055 16.311Z" fill="#DADADA"/>
<path fill-rule="evenodd" clip-rule="evenodd" d="M10.8499 16.311C11.2856 16.311 11.6388 15.9578 11.6388 15.5222C11.6388 15.0865 11.2856 14.7333 10.8499 14.7333C10.4142 14.7333 10.061 15.0865 10.061 15.5222C10.061 15.9578 10.4142 16.311 10.8499 16.311Z" fill="#DADADA"/>
<path fill-rule="evenodd" clip-rule="evenodd" d="M12.4277 17.8889C12.8634 17.8889 13.2166 17.5357 13.2166 17.1C13.2166 16.6643 12.8634 16.3111 12.4277 16.3111C11.992 16.3111 11.6388 16.6643 11.6388 17.1C11.6388 17.5357 11.992 17.8889 12.4277 17.8889Z" fill="#DADADA"/>
<path fill-rule="evenodd" clip-rule="evenodd" d="M15.5833 17.8889C16.0189 17.8889 16.3721 17.5357 16.3721 17.1C16.3721 16.6643 16.0189 16.3111 15.5833 16.3111C15.1476 16.3111 14.7944 16.6643 14.7944 17.1C14.7944 17.5357 15.1476 17.8889 15.5833 17.8889Z" fill="#DADADA"/>
<path fill-rule="evenodd" clip-rule="evenodd" d="M18.7388 17.8889C19.1745 17.8889 19.5277 17.5357 19.5277 17.1C19.5277 16.6643 19.1745 16.3111 18.7388 16.3111C18.3031 16.3111 17.9499 16.6643 17.9499 17.1C17.9499 17.5357 18.3031 17.8889 18.7388 17.8889Z" fill="#DADADA"/>
<path fill-rule="evenodd" clip-rule="evenodd" d="M20.3166 19.4667C20.7523 19.4667 21.1055 19.1135 21.1055 18.6778C21.1055 18.2421 20.7523 17.8889 20.3166 17.8889C19.8809 17.8889 19.5277 18.2421 19.5277 18.6778C19.5277 19.1135 19.8809 19.4667 20.3166 19.4667Z" fill="#DADADA"/>
<path fill-rule="evenodd" clip-rule="evenodd" d="M17.161 19.4667C17.5967 19.4667 17.9499 19.1135 17.9499 18.6778C17.9499 18.2421 17.5967 17.8889 17.161 17.8889C16.7253 17.8889 16.3721 18.2421 16.3721 18.6778C16.3721 19.1135 16.7253 19.4667 17.161 19.4667Z" fill="#DADADA"/>
<path fill-rule="evenodd" clip-rule="evenodd" d="M14.0055 19.4667C14.4412 19.4667 14.7944 19.1135 14.7944 18.6778C14.7944 18.2421 14.4412 17.8889 14.0055 17.8889C13.5698 17.8889 13.2166 18.2421 13.2166 18.6778C13.2166 19.1135 13.5698 19.4667 14.0055 19.4667Z" fill="#DADADA"/>
<path fill-rule="evenodd" clip-rule="evenodd" d="M10.8499 19.4667C11.2856 19.4667 11.6388 19.1135 11.6388 18.6778C11.6388 18.2421 11.2856 17.8889 10.8499 17.8889C10.4142 17.8889 10.061 18.2421 10.061 18.6778C10.061 19.1135 10.4142 19.4667 10.8499 19.4667Z" fill="#DADADA"/>
</g>
</g>
<g clip-path="url(#clip1_3909_7240)">
<path d="M5.33333 0H6.95656V5.104L2.61437 0.761408C3.42228 0.27646 4.35806 0 5.33333 0Z" fill="#0052B4"/>
<path d="M0 5.33333V6.9565H4.10467L0.419144 3.27097C0.150368 3.90194 0 4.59759 0 5.33333Z" fill="#0052B4"/>
<path d="M13.0435 6.07189V0.00012207H14.7022C15.9047 0.00839304 17.0454 0.436549 17.9582 1.15679L13.0435 6.07189Z" fill="#0052B4"/>
<path d="M19.8277 3.9919L16.8631 6.9565H19.9999V5.29704C19.9968 4.84471 19.937 4.40775 19.8277 3.9919Z" fill="#0052B4"/>
<path d="M20 14.6731V13.0434H15.8953L19.5809 16.729C19.8489 16.0999 19.9991 15.4064 20 14.6731Z" fill="#0052B4"/>
<path d="M17.3857 19.2386C16.5854 19.719 15.6596 19.9948 14.6943 19.9999H13.0434V14.8959L17.3857 19.2386Z" fill="#0052B4"/>
<path d="M6.95639 13.928V19.9998H5.28823C4.08919 19.9893 2.95206 19.5615 2.04169 18.8431L6.95639 13.928Z" fill="#0052B4"/>
<path d="M0 14.6667V13.0434H3.13678L0.172261 16.0079C0.060113 15.581 0 15.1319 0 14.6667Z" fill="#0052B4"/>
<path d="M0.71486 2.68194L4.98938 6.95647H6.95656L1.57278 1.57268C1.24179 1.90191 0.952246 2.27442 0.71486 2.68194Z" fill="#D80027"/>
<path d="M19.2852 2.68182L15.0107 6.95635H13.0435L18.4273 1.57263C18.7583 1.90184 19.0478 2.27432 19.2852 2.68182Z" fill="#D80027"/>
<path d="M18.4274 18.4273C18.7584 18.098 19.0479 17.7255 19.2853 17.318L15.0107 13.0434H13.0435L18.4274 18.4273Z" fill="#D80027"/>
<path d="M1.57274 18.4272L6.95645 13.0435H4.98927L0.714844 17.318C0.952223 17.7255 1.24176 18.098 1.57274 18.4272Z" fill="#D80027"/>
<path d="M11.875 0H8.12497V8.12497H0V11.875H8.12497V19.9999H11.875V11.875H19.9999V8.12497H11.875V0Z" fill="#D80027"/>
<path d="M2.61437 0.761408C2.23609 0.988462 1.88585 1.26122 1.57271 1.57271L6.9565 6.9565H4.98932L0.714792 2.68197C0.60466 2.87104 0.505754 3.06765 0.419144 3.27097L4.10467 6.9565H0V8.12497H8.12497V0H6.95656V5.104L2.61437 0.761408Z" fill="white"/>
<path d="M11.875 0H14.6667C14.6785 0 14.6903 4.07306e-05 14.7022 0.00012207H13.0435V6.07189L17.9582 1.15679C18.1222 1.28623 18.2789 1.4251 18.4272 1.57266L13.0435 6.95638H15.0106L19.2851 2.68185C19.521 3.08666 19.7053 3.52603 19.8277 3.9919L16.8631 6.9565H19.9999V5.29704C19.9999 5.29957 19.9999 5.3021 19.9999 5.30464V8.12497H11.875V0Z" fill="white"/>
<path d="M20 13.0434L19.9999 11.875H11.875V19.9999L13.0434 19.9999V14.8959L17.3857 19.2386C17.7639 19.0115 18.1142 18.7388 18.4273 18.4273L13.0434 13.0434H15.0106L19.2852 17.318C19.3953 17.1289 19.4943 16.9323 19.5809 16.729L15.8953 13.0434H20Z" fill="white"/>
<path d="M1.57267 18.4273L6.95638 13.0435H4.9892L0.714775 17.318C0.478975 16.9132 0.294638 16.4738 0.172261 16.0079L3.13678 13.0434H0V11.875H8.12497V19.9999H5.30504C5.29943 19.9999 5.29383 19.9999 5.28823 19.9998H6.95638V13.928L2.04169 18.8431C1.87767 18.7137 1.72101 18.5748 1.57267 18.4273Z" fill="white"/>
</g>
<defs>
<clipPath id="clip0_3909_7240">
<rect x="10" y="10" width="20" height="20" rx="10" fill="white"/>
</clipPath>
<clipPath id="clip1_3909_7240">
<rect width="20" height="20" rx="10" fill="white"/>
</clipPath>
</defs>
</svg>
