<svg width="30" height="30" viewBox="0 0 30 30" fill="none" xmlns="http://www.w3.org/2000/svg">
<g clip-path="url(#clip0_3909_7245)">
<path d="M10 15.3333C10 12.3878 12.3878 10 15.3333 10H24.6667C27.6122 10 30 12.3878 30 15.3333V24.6667C30 27.6122 27.6122 30 24.6667 30H15.3333C12.3878 30 10 27.6122 10 24.6667V15.3333Z" fill="white"/>
<path d="M10 15.3333C10 12.3878 12.3878 10 15.3333 10H24.6667C27.6122 10 30 12.3878 30 15.3333V24.6667C30 27.6122 27.6122 30 24.6667 30H15.3333C12.3878 30 10 27.6122 10 24.6667V15.3333Z" stroke="#E6E6E6"/>
<mask id="mask0_3909_7245" style="mask-type:alpha" maskUnits="userSpaceOnUse" x="10" y="10" width="20" height="20">
<path d="M10 15.3333C10 12.3878 12.3878 10 15.3333 10H24.6667C27.6122 10 30 12.3878 30 15.3333V24.6667C30 27.6122 27.6122 30 24.6667 30H15.3333C12.3878 30 10 27.6122 10 24.6667V15.3333Z" fill="#2055AE"/>
</mask>
<g mask="url(#mask0_3909_7245)">
<path d="M19.1043 17.0633C19.4039 16.4872 19.7006 15.9097 20 15.3334C20.297 15.906 20.5928 16.4792 20.8893 17.052C20.9192 17.1185 20.9935 17.1612 21.0665 17.1528C21.1198 17.1468 21.1639 17.1137 21.2098 17.0887C21.4784 16.9356 21.7471 16.7824 22.0162 16.63C21.8335 17.5577 21.6504 18.4852 21.4683 19.4128C21.4473 19.5012 21.5105 19.5954 21.599 19.6142C21.6642 19.6303 21.7342 19.6041 21.7771 19.5538C22.152 19.1566 22.5281 18.7604 22.9031 18.3632C22.9963 18.5786 23.0891 18.7944 23.1823 19.0098C23.2124 19.0914 23.3069 19.1387 23.3913 19.1157C23.8736 19.0149 24.3559 18.914 24.8384 18.8134C24.6728 19.3183 24.5048 19.8223 24.3392 20.3272C24.3096 20.4081 24.3534 20.5039 24.4328 20.5373C24.6215 20.6249 24.811 20.7111 25 20.7985C24.16 21.4679 23.3207 22.138 22.4803 22.807C22.4189 22.8505 22.3879 22.9339 22.4158 23.0051C22.5191 23.2888 22.6246 23.5717 22.7283 23.8554C21.9596 23.7229 21.1911 23.5891 20.4222 23.4565C20.2667 23.422 20.1046 23.5617 20.1217 23.7201C20.1608 24.4801 20.2022 25.24 20.2419 25.9999C20.0807 26.0001 19.9193 26.0001 19.7581 25.9999C19.7978 25.2398 19.8393 24.4799 19.8783 23.7198C19.895 23.5619 19.7338 23.4228 19.5789 23.4564C18.8096 23.5889 18.0408 23.7229 17.2717 23.8554C17.3754 23.5717 17.4809 23.2888 17.5842 23.0049C17.6101 22.9381 17.5849 22.8582 17.5285 22.8147C16.6859 22.1424 15.8428 21.4705 15 20.7985C15.1882 20.7115 15.377 20.6255 15.5652 20.5384C15.6158 20.5161 15.656 20.4703 15.6663 20.4157C15.6792 20.3553 15.6503 20.298 15.633 20.242C15.4759 19.7657 15.3182 19.2898 15.1616 18.8134C15.6139 18.9077 16.0661 19.0023 16.5183 19.0969C16.5635 19.106 16.6085 19.1189 16.6548 19.1208C16.7262 19.123 16.7931 19.0746 16.8181 19.0091C16.9111 18.7938 17.0037 18.5784 17.0969 18.3632C17.475 18.7632 17.8533 19.1629 18.2317 19.5625C18.292 19.6306 18.4062 19.6374 18.4744 19.5771C18.522 19.5384 18.5446 19.4729 18.5317 19.4132C18.3498 18.4853 18.1665 17.5577 17.9838 16.63C18.277 16.7955 18.5689 16.9633 18.8618 17.129C18.9427 17.1798 19.0615 17.1484 19.1043 17.0633Z" fill="#D52B1E"/>
<rect x="25.6666" y="10" width="4.33333" height="20" fill="#D52B1E"/>
<rect x="10" y="10" width="4.33333" height="20" fill="#D52B1E"/>
</g>
</g>
<rect x="10.5" y="10.5" width="19" height="19" rx="9.5" stroke="#E6E6E6"/>
<g clip-path="url(#clip1_3909_7245)">
<path d="M0 5.33333C0 2.38781 2.38781 0 5.33333 0H14.6667C17.6122 0 20 2.38781 20 5.33333V14.6667C20 17.6122 17.6122 20 14.6667 20H5.33333C2.38781 20 0 17.6122 0 14.6667V5.33333Z" fill="#012169"/>
<mask id="mask1_3909_7245" style="mask-type:alpha" maskUnits="userSpaceOnUse" x="0" y="0" width="20" height="20">
<path d="M0 5.33333C0 2.38781 2.38781 0 5.33333 0H14.6667C17.6122 0 20 2.38781 20 5.33333V14.6667C20 17.6122 17.6122 20 14.6667 20H5.33333C2.38781 20 0 17.6122 0 14.6667V5.33333Z" fill="#2055AE"/>
</mask>
<g mask="url(#mask1_3909_7245)">
<path d="M10.1479 0H8.97277L2.70606 4.10582V0H0.180342L0.180496 12.8541H2.70622V8.74826L8.97285 12.8541H10.148C10.3275 12.8541 10.4995 12.7828 10.6264 12.6559C10.7533 12.529 10.8246 12.3569 10.8246 12.1775V11.6409L5.44803 8.11837H10.8245V4.73571H5.44795L10.8245 1.21318V0.676563C10.8245 0.497127 10.7532 0.325041 10.6263 0.198161C10.4995 0.0712806 10.3274 0 10.1479 0Z" fill="#F5F5F5"/>
<path d="M10.8245 5.41227H2.02953V0H0V12.8541H2.02953V7.44181H10.8245V5.41227Z" fill="#EA2C4B"/>
<path d="M3.94879 4.73571L10.7216 0.339278C10.6039 0.140095 10.3962 0 10.1479 0H10.0017L2.70618 4.73571H3.94879ZM10.8138 12.2306L4.47844 8.11837H3.23583L10.4302 12.7883C10.6457 12.6883 10.7935 12.4787 10.8138 12.2306Z" fill="#EA2C4B"/>
<path d="M15.187 14.1595L15.4787 15.0573H16.4227L15.659 15.6121L15.9507 16.5098L15.1871 15.955L14.4235 16.5098L14.7151 15.612L13.9515 15.0573H14.8953L15.187 14.1595Z" fill="white"/>
<path d="M15.1871 14.5565L15.3896 15.18H16.0452L15.5148 15.5653L15.7173 16.1887L15.1871 15.8034L14.6568 16.1887L14.8593 15.5653L14.3289 15.18H14.9845L15.1871 14.5565Z" fill="#C8102E"/>
<path d="M11.8536 8.82629L12.1453 9.72401H13.0893L12.3256 10.2789L12.6173 11.1766L11.8537 10.6218L11.0901 11.1766L11.3817 10.2788L10.6182 9.72401H11.562L11.8536 8.82629Z" fill="white"/>
<path d="M11.8537 9.22329L12.0562 9.84672H12.7118L12.1814 10.2321L12.3839 10.8554L11.8537 10.4702L11.3234 10.8554L11.5259 10.232L10.9955 9.84672H11.6511L11.8537 9.22329Z" fill="#C8102E"/>
<path d="M18.187 7.82629L18.4787 8.72401H19.4227L18.659 9.27887L18.9507 10.1766L18.1871 9.62175L17.4235 10.1766L17.7151 9.2788L16.9515 8.72401H17.8953L18.187 7.82629Z" fill="white"/>
<path d="M18.1871 8.22329L18.3896 8.84672H19.0452L18.5148 9.23207L18.7173 9.85542L18.1871 9.47017L17.6568 9.85542L17.8593 9.23205L17.3289 8.84672H17.9845L18.1871 8.22329Z" fill="#C8102E"/>
<path d="M15.187 5.49292L15.4787 6.39064H16.4227L15.659 6.94549L15.9507 7.84322L15.1871 7.28838L14.4235 7.84322L14.7151 6.94542L13.9515 6.39064H14.8953L15.187 5.49292Z" fill="white"/>
<path d="M15.1871 5.88992L15.3896 6.51335H16.0452L15.5148 6.8987L15.7173 7.52205L15.1871 7.1368L14.6568 7.52205L14.8593 6.89867L14.3289 6.51335H14.9845L15.1871 5.88992Z" fill="#C8102E"/>
</g>
</g>
<defs>
<clipPath id="clip0_3909_7245">
<rect x="10" y="10" width="20" height="20" rx="10" fill="white"/>
</clipPath>
<clipPath id="clip1_3909_7245">
<rect width="20" height="20" rx="10" fill="white"/>
</clipPath>
</defs>
</svg>
