<svg width="30" height="30" viewBox="0 0 30 30" fill="none" xmlns="http://www.w3.org/2000/svg">
<g clip-path="url(#clip0_3909_7521)">
<path d="M10 15.3333C10 12.3878 12.3878 10 15.3333 10H24.6667C27.6122 10 30 12.3878 30 15.3333V24.6667C30 27.6122 27.6122 30 24.6667 30H15.3333C12.3878 30 10 27.6122 10 24.6667V15.3333Z" fill="white"/>
<path d="M10 15.3333C10 12.3878 12.3878 10 15.3333 10H24.6667C27.6122 10 30 12.3878 30 15.3333V24.6667C30 27.6122 27.6122 30 24.6667 30H15.3333C12.3878 30 10 27.6122 10 24.6667V15.3333Z" stroke="#E6E6E6"/>
<mask id="mask0_3909_7521" style="mask-type:alpha" maskUnits="userSpaceOnUse" x="10" y="10" width="20" height="20">
<path d="M10 15.3333C10 12.3878 12.3878 10 15.3333 10H24.6667C27.6122 10 30 12.3878 30 15.3333V24.6667C30 27.6122 27.6122 30 24.6667 30H15.3333C12.3878 30 10 27.6122 10 24.6667V15.3333Z" fill="#2055AE"/>
</mask>
<g mask="url(#mask0_3909_7521)">
<circle cx="20" cy="20" r="5" fill="#BC002D"/>
</g>
</g>
<rect x="10.5" y="10.5" width="19" height="19" rx="9.5" stroke="#E6E6E6"/>
<g clip-path="url(#clip1_3909_7521)">
<path d="M0 5.33333C0 2.38781 2.38781 0 5.33333 0H14.6667C17.6122 0 20 2.38781 20 5.33333V14.6667C20 17.6122 17.6122 20 14.6667 20H5.33333C2.38781 20 0 17.6122 0 14.6667V5.33333Z" fill="#012169"/>
<mask id="mask1_3909_7521" style="mask-type:alpha" maskUnits="userSpaceOnUse" x="0" y="0" width="20" height="20">
<path d="M0 5.33333C0 2.38781 2.38781 0 5.33333 0H14.6667C17.6122 0 20 2.38781 20 5.33333V14.6667C20 17.6122 17.6122 20 14.6667 20H5.33333C2.38781 20 0 17.6122 0 14.6667V5.33333Z" fill="#2055AE"/>
</mask>
<g mask="url(#mask1_3909_7521)">
<path d="M10.1479 0H8.97277L2.70606 4.10582V0H0.180342L0.180496 12.8541H2.70622V8.74826L8.97285 12.8541H10.148C10.3275 12.8541 10.4995 12.7828 10.6264 12.6559C10.7533 12.529 10.8246 12.3569 10.8246 12.1775V11.6409L5.44803 8.11837H10.8245V4.73571H5.44795L10.8245 1.21318V0.676563C10.8245 0.497127 10.7532 0.325041 10.6263 0.198161C10.4995 0.0712806 10.3274 0 10.1479 0Z" fill="#F5F5F5"/>
<path d="M10.8245 5.41227H2.02953V0H0V12.8541H2.02953V7.44181H10.8245V5.41227Z" fill="#EA2C4B"/>
<path d="M3.94879 4.73571L10.7216 0.339278C10.6039 0.140095 10.3962 0 10.1479 0H10.0017L2.70618 4.73571H3.94879ZM10.8138 12.2306L4.47844 8.11837H3.23583L10.4302 12.7883C10.6457 12.6883 10.7935 12.4787 10.8138 12.2306Z" fill="#EA2C4B"/>
<path d="M15.187 14.1597L15.4787 15.0574H16.4226L15.659 15.6122L15.9506 16.51L15.187 15.9551L14.4235 16.51L14.715 15.6122L13.9515 15.0574H14.8953L15.187 14.1597Z" fill="white"/>
<path d="M15.187 14.5567L15.3895 15.1801H16.0451L15.5147 15.5654L15.7173 16.1888L15.187 15.8035L14.6567 16.1888L14.8592 15.5654L14.3288 15.1801H14.9844L15.187 14.5567Z" fill="#C8102E"/>
<path d="M11.8536 8.82617L12.1453 9.72389H13.0893L12.3256 10.2787L12.6173 11.1765L11.8537 10.6216L11.0901 11.1765L11.3817 10.2787L10.6182 9.72389H11.562L11.8536 8.82617Z" fill="white"/>
<path d="M11.8537 9.22317L12.0562 9.8466H12.7118L12.1814 10.232L12.3839 10.8553L11.8537 10.47L11.3234 10.8553L11.5259 10.2319L10.9955 9.8466H11.6511L11.8537 9.22317Z" fill="#C8102E"/>
<path d="M18.187 7.82617L18.4787 8.72389H19.4226L18.6589 9.27875L18.9506 10.1765L18.187 9.62163L17.4235 10.1765L17.715 9.27868L16.9515 8.72389H17.8953L18.187 7.82617Z" fill="white"/>
<path d="M18.187 8.22317L18.3895 8.8466H19.0451L18.5147 9.23195L18.7172 9.8553L18.187 9.47005L17.6567 9.8553L17.8592 9.23193L17.3288 8.8466H17.9844L18.187 8.22317Z" fill="#C8102E"/>
<path d="M15.187 5.49292L15.4787 6.39064H16.4226L15.659 6.94549L15.9506 7.84322L15.187 7.28838L14.4235 7.84322L14.715 6.94542L13.9515 6.39064H14.8953L15.187 5.49292Z" fill="white"/>
<path d="M15.187 5.88992L15.3895 6.51335H16.0451L15.5147 6.8987L15.7173 7.52205L15.187 7.1368L14.6567 7.52205L14.8592 6.89867L14.3288 6.51335H14.9844L15.187 5.88992Z" fill="#C8102E"/>
</g>
</g>
<defs>
<clipPath id="clip0_3909_7521">
<rect x="10" y="10" width="20" height="20" rx="10" fill="white"/>
</clipPath>
<clipPath id="clip1_3909_7521">
<rect width="20" height="20" rx="10" fill="white"/>
</clipPath>
</defs>
</svg>
