<svg width="30" height="30" viewBox="0 0 30 30" fill="none" xmlns="http://www.w3.org/2000/svg">
<g clip-path="url(#clip0_3909_7522)">
<path d="M10 15.3333C10 12.3878 12.3878 10 15.3333 10H24.6667C27.6122 10 30 12.3878 30 15.3333V24.6667C30 27.6122 27.6122 30 24.6667 30H15.3333C12.3878 30 10 27.6122 10 24.6667V15.3333Z" fill="#012169"/>
<mask id="mask0_3909_7522" style="mask-type:alpha" maskUnits="userSpaceOnUse" x="9" y="10" width="25" height="24">
<path d="M9.66669 16.3111C9.66669 12.8256 12.4923 10 15.9778 10H27.0222C30.5078 10 33.3334 12.8256 33.3334 16.3111V27.3556C33.3334 30.8411 30.5078 33.6667 27.0222 33.6667H15.9778C12.4923 33.6667 9.66669 30.8411 9.66669 27.3556V16.3111Z" fill="#2055AE"/>
</mask>
<g mask="url(#mask0_3909_7522)">
<rect x="8.48334" y="10" width="33.1333" height="23.6667" fill="white"/>
<path d="M8.48334 10H41.6167V11.5778H8.48334V10Z" fill="#D02F44"/>
<path d="M8.48334 13.1556H41.6167V14.7333H8.48334V13.1556Z" fill="#D02F44"/>
<path d="M8.48334 16.3111H41.6167V17.8889H8.48334V16.3111Z" fill="#D02F44"/>
<path d="M8.48334 19.4667H41.6167V21.0444H8.48334V19.4667Z" fill="#D02F44"/>
<path d="M8.48334 22.6222H41.6167V24.2H8.48334V22.6222Z" fill="#D02F44"/>
<path d="M8.48334 25.7778H41.6167V27.3556H8.48334V25.7778Z" fill="#D02F44"/>
<path d="M8.48334 28.9333H41.6167V30.5111H8.48334V28.9333Z" fill="#D02F44"/>
<path d="M8.48334 32.0889H41.6167V33.6667H8.48334V32.0889Z" fill="#D02F44"/>
<rect x="8.48334" y="10" width="14.2" height="11.0444" fill="#46467F"/>
<path fill-rule="evenodd" clip-rule="evenodd" d="M10.85 13.1557C11.2857 13.1557 11.6389 12.8025 11.6389 12.3668C11.6389 11.9311 11.2857 11.5779 10.85 11.5779C10.4143 11.5779 10.0611 11.9311 10.0611 12.3668C10.0611 12.8025 10.4143 13.1557 10.85 13.1557Z" fill="#DADADA"/>
<path fill-rule="evenodd" clip-rule="evenodd" d="M14.0055 13.1557C14.4412 13.1557 14.7944 12.8025 14.7944 12.3668C14.7944 11.9311 14.4412 11.5779 14.0055 11.5779C13.5699 11.5779 13.2167 11.9311 13.2167 12.3668C13.2167 12.8025 13.5699 13.1557 14.0055 13.1557Z" fill="#DADADA"/>
<path fill-rule="evenodd" clip-rule="evenodd" d="M17.1611 13.1557C17.5968 13.1557 17.95 12.8025 17.95 12.3668C17.95 11.9311 17.5968 11.5779 17.1611 11.5779C16.7254 11.5779 16.3722 11.9311 16.3722 12.3668C16.3722 12.8025 16.7254 13.1557 17.1611 13.1557Z" fill="#DADADA"/>
<path fill-rule="evenodd" clip-rule="evenodd" d="M20.3167 13.1557C20.7523 13.1557 21.1055 12.8025 21.1055 12.3668C21.1055 11.9311 20.7523 11.5779 20.3167 11.5779C19.881 11.5779 19.5278 11.9311 19.5278 12.3668C19.5278 12.8025 19.881 13.1557 20.3167 13.1557Z" fill="#DADADA"/>
<path fill-rule="evenodd" clip-rule="evenodd" d="M12.4278 14.7334C12.8635 14.7334 13.2167 14.3802 13.2167 13.9445C13.2167 13.5089 12.8635 13.1557 12.4278 13.1557C11.9921 13.1557 11.6389 13.5089 11.6389 13.9445C11.6389 14.3802 11.9921 14.7334 12.4278 14.7334Z" fill="#DADADA"/>
<path fill-rule="evenodd" clip-rule="evenodd" d="M15.5833 14.7335C16.019 14.7335 16.3722 14.3803 16.3722 13.9446C16.3722 13.5089 16.019 13.1557 15.5833 13.1557C15.1476 13.1557 14.7944 13.5089 14.7944 13.9446C14.7944 14.3803 15.1476 14.7335 15.5833 14.7335Z" fill="#DADADA"/>
<path fill-rule="evenodd" clip-rule="evenodd" d="M18.7389 14.7335C19.1746 14.7335 19.5278 14.3803 19.5278 13.9446C19.5278 13.5089 19.1746 13.1557 18.7389 13.1557C18.3032 13.1557 17.95 13.5089 17.95 13.9446C17.95 14.3803 18.3032 14.7335 18.7389 14.7335Z" fill="#DADADA"/>
<path fill-rule="evenodd" clip-rule="evenodd" d="M20.3167 16.3112C20.7523 16.3112 21.1055 15.958 21.1055 15.5223C21.1055 15.0866 20.7523 14.7334 20.3167 14.7334C19.881 14.7334 19.5278 15.0866 19.5278 15.5223C19.5278 15.958 19.881 16.3112 20.3167 16.3112Z" fill="#DADADA"/>
<path fill-rule="evenodd" clip-rule="evenodd" d="M17.1611 16.3112C17.5968 16.3112 17.95 15.958 17.95 15.5223C17.95 15.0866 17.5968 14.7334 17.1611 14.7334C16.7254 14.7334 16.3722 15.0866 16.3722 15.5223C16.3722 15.958 16.7254 16.3112 17.1611 16.3112Z" fill="#DADADA"/>
<path fill-rule="evenodd" clip-rule="evenodd" d="M14.0055 16.3112C14.4412 16.3112 14.7944 15.958 14.7944 15.5223C14.7944 15.0866 14.4412 14.7334 14.0055 14.7334C13.5699 14.7334 13.2167 15.0866 13.2167 15.5223C13.2167 15.958 13.5699 16.3112 14.0055 16.3112Z" fill="#DADADA"/>
<path fill-rule="evenodd" clip-rule="evenodd" d="M10.85 16.3112C11.2857 16.3112 11.6389 15.958 11.6389 15.5223C11.6389 15.0866 11.2857 14.7334 10.85 14.7334C10.4143 14.7334 10.0611 15.0866 10.0611 15.5223C10.0611 15.958 10.4143 16.3112 10.85 16.3112Z" fill="#DADADA"/>
<path fill-rule="evenodd" clip-rule="evenodd" d="M12.4278 17.889C12.8634 17.889 13.2166 17.5358 13.2166 17.1001C13.2166 16.6644 12.8634 16.3112 12.4278 16.3112C11.9921 16.3112 11.6389 16.6644 11.6389 17.1001C11.6389 17.5358 11.9921 17.889 12.4278 17.889Z" fill="#DADADA"/>
<path fill-rule="evenodd" clip-rule="evenodd" d="M15.5833 17.889C16.019 17.889 16.3722 17.5358 16.3722 17.1001C16.3722 16.6644 16.019 16.3112 15.5833 16.3112C15.1476 16.3112 14.7944 16.6644 14.7944 17.1001C14.7944 17.5358 15.1476 17.889 15.5833 17.889Z" fill="#DADADA"/>
<path fill-rule="evenodd" clip-rule="evenodd" d="M18.7389 17.889C19.1746 17.889 19.5278 17.5358 19.5278 17.1001C19.5278 16.6644 19.1746 16.3112 18.7389 16.3112C18.3032 16.3112 17.95 16.6644 17.95 17.1001C17.95 17.5358 18.3032 17.889 18.7389 17.889Z" fill="#DADADA"/>
<path fill-rule="evenodd" clip-rule="evenodd" d="M20.3167 19.4668C20.7523 19.4668 21.1055 19.1136 21.1055 18.6779C21.1055 18.2422 20.7523 17.889 20.3167 17.889C19.881 17.889 19.5278 18.2422 19.5278 18.6779C19.5278 19.1136 19.881 19.4668 20.3167 19.4668Z" fill="#DADADA"/>
<path fill-rule="evenodd" clip-rule="evenodd" d="M17.1611 19.4668C17.5968 19.4668 17.95 19.1136 17.95 18.6779C17.95 18.2422 17.5968 17.889 17.1611 17.889C16.7254 17.889 16.3722 18.2422 16.3722 18.6779C16.3722 19.1136 16.7254 19.4668 17.1611 19.4668Z" fill="#DADADA"/>
<path fill-rule="evenodd" clip-rule="evenodd" d="M14.0055 19.4668C14.4412 19.4668 14.7944 19.1136 14.7944 18.6779C14.7944 18.2422 14.4412 17.889 14.0055 17.889C13.5699 17.889 13.2167 18.2422 13.2167 18.6779C13.2167 19.1136 13.5699 19.4668 14.0055 19.4668Z" fill="#DADADA"/>
<path fill-rule="evenodd" clip-rule="evenodd" d="M10.85 19.4668C11.2857 19.4668 11.6389 19.1136 11.6389 18.6779C11.6389 18.2422 11.2857 17.889 10.85 17.889C10.4143 17.889 10.0611 18.2422 10.0611 18.6779C10.0611 19.1136 10.4143 19.4668 10.85 19.4668Z" fill="#DADADA"/>
</g>
</g>
<g clip-path="url(#clip1_3909_7522)">
<path d="M0 5.33333C0 2.38781 2.38781 0 5.33333 0H14.6667C17.6122 0 20 2.38781 20 5.33333V14.6667C20 17.6122 17.6122 20 14.6667 20H5.33333C2.38781 20 0 17.6122 0 14.6667V5.33333Z" fill="#012169"/>
<mask id="mask1_3909_7522" style="mask-type:alpha" maskUnits="userSpaceOnUse" x="0" y="0" width="20" height="20">
<path d="M0 5.33333C0 2.38781 2.38781 0 5.33333 0H14.6667C17.6122 0 20 2.38781 20 5.33333V14.6667C20 17.6122 17.6122 20 14.6667 20H5.33333C2.38781 20 0 17.6122 0 14.6667V5.33333Z" fill="#2055AE"/>
</mask>
<g mask="url(#mask1_3909_7522)">
<path d="M10.1479 0H8.97277L2.70606 4.10582V0H0.180342L0.180496 12.8541H2.70622V8.74826L8.97285 12.8541H10.148C10.3275 12.8541 10.4995 12.7828 10.6264 12.6559C10.7533 12.529 10.8246 12.3569 10.8246 12.1775V11.6409L5.44803 8.11837H10.8245V4.73571H5.44795L10.8245 1.21318V0.676563C10.8245 0.497127 10.7532 0.325041 10.6263 0.198161C10.4995 0.0712806 10.3274 0 10.1479 0Z" fill="#F5F5F5"/>
<path d="M10.8245 5.41227H2.02953V0H0V12.8541H2.02953V7.44181H10.8245V5.41227Z" fill="#EA2C4B"/>
<path d="M3.94879 4.73571L10.7216 0.339278C10.6039 0.140095 10.3962 0 10.1479 0H10.0017L2.70618 4.73571H3.94879ZM10.8138 12.2306L4.47844 8.11837H3.23583L10.4302 12.7883C10.6457 12.6883 10.7935 12.4787 10.8138 12.2306Z" fill="#EA2C4B"/>
<path d="M15.187 14.1597L15.4787 15.0574H16.4226L15.659 15.6122L15.9506 16.51L15.187 15.9551L14.4235 16.51L14.715 15.6122L13.9515 15.0574H14.8953L15.187 14.1597Z" fill="white"/>
<path d="M15.187 14.5567L15.3895 15.1801H16.0451L15.5147 15.5654L15.7173 16.1888L15.187 15.8035L14.6567 16.1888L14.8592 15.5654L14.3288 15.1801H14.9844L15.187 14.5567Z" fill="#C8102E"/>
<path d="M11.8536 8.82617L12.1453 9.72389H13.0893L12.3256 10.2787L12.6173 11.1765L11.8537 10.6216L11.0901 11.1765L11.3817 10.2787L10.6182 9.72389H11.562L11.8536 8.82617Z" fill="white"/>
<path d="M11.8537 9.22317L12.0562 9.8466H12.7118L12.1814 10.232L12.3839 10.8553L11.8537 10.47L11.3234 10.8553L11.5259 10.2319L10.9955 9.8466H11.6511L11.8537 9.22317Z" fill="#C8102E"/>
<path d="M18.187 7.82617L18.4787 8.72389H19.4226L18.6589 9.27875L18.9506 10.1765L18.187 9.62163L17.4235 10.1765L17.715 9.27868L16.9515 8.72389H17.8953L18.187 7.82617Z" fill="white"/>
<path d="M18.187 8.22317L18.3895 8.8466H19.0451L18.5147 9.23195L18.7172 9.8553L18.187 9.47005L17.6567 9.8553L17.8592 9.23193L17.3288 8.8466H17.9844L18.187 8.22317Z" fill="#C8102E"/>
<path d="M15.187 5.49292L15.4787 6.39064H16.4226L15.659 6.94549L15.9506 7.84322L15.187 7.28838L14.4235 7.84322L14.715 6.94542L13.9515 6.39064H14.8953L15.187 5.49292Z" fill="white"/>
<path d="M15.187 5.88992L15.3895 6.51335H16.0451L15.5147 6.8987L15.7173 7.52205L15.187 7.1368L14.6567 7.52205L14.8592 6.89867L14.3288 6.51335H14.9844L15.187 5.88992Z" fill="#C8102E"/>
</g>
</g>
<defs>
<clipPath id="clip0_3909_7522">
<rect x="10" y="10" width="20" height="20" rx="10" fill="white"/>
</clipPath>
<clipPath id="clip1_3909_7522">
<rect width="20" height="20" rx="10" fill="white"/>
</clipPath>
</defs>
</svg>
