<svg width="30" height="30" viewBox="0 0 30 30" fill="none" xmlns="http://www.w3.org/2000/svg">
<g clip-path="url(#clip0_3909_7527)">
<path d="M10 15.3333C10 12.3878 12.3878 10 15.3333 10H24.6667C27.6122 10 30 12.3878 30 15.3333V24.6667C30 27.6122 27.6122 30 24.6667 30H15.3333C12.3878 30 10 27.6122 10 24.6667V15.3333Z" fill="#F44848"/>
<path d="M21.7 14.3334H18.3V18.3H14.3333V21.7H18.3V25.6667H21.7V21.7H25.6666V18.3H21.7V14.3334Z" fill="white"/>
</g>
<g clip-path="url(#clip1_3909_7527)">
<path d="M0 5.33333C0 2.38781 2.38781 0 5.33333 0H14.6667C17.6122 0 20 2.38781 20 5.33333V14.6667C20 17.6122 17.6122 20 14.6667 20H5.33333C2.38781 20 0 17.6122 0 14.6667V5.33333Z" fill="#012169"/>
<mask id="mask0_3909_7527" style="mask-type:alpha" maskUnits="userSpaceOnUse" x="-1" y="0" width="25" height="24">
<path d="M-0.333313 6.31111C-0.333313 2.82558 2.49227 0 5.9778 0H17.0222C20.5078 0 23.3334 2.82558 23.3334 6.31111V17.3556C23.3334 20.8411 20.5078 23.6667 17.0222 23.6667H5.9778C2.49227 23.6667 -0.333313 20.8411 -0.333313 17.3556V6.31111Z" fill="#2055AE"/>
</mask>
<g mask="url(#mask0_3909_7527)">
<rect x="-1.51666" width="33.1333" height="23.6667" fill="white"/>
<path d="M-1.51666 0H31.6167V1.57778H-1.51666V0Z" fill="#D02F44"/>
<path d="M-1.51666 3.15556H31.6167V4.73333H-1.51666V3.15556Z" fill="#D02F44"/>
<path d="M-1.51666 6.31111H31.6167V7.88889H-1.51666V6.31111Z" fill="#D02F44"/>
<path d="M-1.51666 9.46667H31.6167V11.0444H-1.51666V9.46667Z" fill="#D02F44"/>
<path d="M-1.51666 12.6222H31.6167V14.2H-1.51666V12.6222Z" fill="#D02F44"/>
<path d="M-1.51666 15.7778H31.6167V17.3556H-1.51666V15.7778Z" fill="#D02F44"/>
<path d="M-1.51666 18.9333H31.6167V20.5111H-1.51666V18.9333Z" fill="#D02F44"/>
<path d="M-1.51666 22.0889H31.6167V23.6667H-1.51666V22.0889Z" fill="#D02F44"/>
<rect x="-1.51666" width="14.2" height="11.0444" fill="#46467F"/>
<path fill-rule="evenodd" clip-rule="evenodd" d="M0.849985 3.15554C1.28568 3.15554 1.63887 2.80234 1.63887 2.36665C1.63887 1.93096 1.28568 1.57776 0.849985 1.57776C0.414294 1.57776 0.0610962 1.93096 0.0610962 2.36665C0.0610962 2.80234 0.414294 3.15554 0.849985 3.15554Z" fill="#DADADA"/>
<path fill-rule="evenodd" clip-rule="evenodd" d="M4.00555 3.15554C4.44124 3.15554 4.79444 2.80234 4.79444 2.36665C4.79444 1.93096 4.44124 1.57776 4.00555 1.57776C3.56986 1.57776 3.21666 1.93096 3.21666 2.36665C3.21666 2.80234 3.56986 3.15554 4.00555 3.15554Z" fill="#DADADA"/>
<path fill-rule="evenodd" clip-rule="evenodd" d="M7.16109 3.15554C7.59678 3.15554 7.94998 2.80234 7.94998 2.36665C7.94998 1.93096 7.59678 1.57776 7.16109 1.57776C6.7254 1.57776 6.3722 1.93096 6.3722 2.36665C6.3722 2.80234 6.7254 3.15554 7.16109 3.15554Z" fill="#DADADA"/>
<path fill-rule="evenodd" clip-rule="evenodd" d="M10.3167 3.15554C10.7523 3.15554 11.1055 2.80234 11.1055 2.36665C11.1055 1.93096 10.7523 1.57776 10.3167 1.57776C9.88096 1.57776 9.52776 1.93096 9.52776 2.36665C9.52776 2.80234 9.88096 3.15554 10.3167 3.15554Z" fill="#DADADA"/>
<path fill-rule="evenodd" clip-rule="evenodd" d="M2.42776 4.73331C2.86345 4.73331 3.21665 4.38012 3.21665 3.94443C3.21665 3.50873 2.86345 3.15554 2.42776 3.15554C1.99207 3.15554 1.63887 3.50873 1.63887 3.94443C1.63887 4.38012 1.99207 4.73331 2.42776 4.73331Z" fill="#DADADA"/>
<path fill-rule="evenodd" clip-rule="evenodd" d="M5.58332 4.73336C6.01901 4.73336 6.37221 4.38017 6.37221 3.94447C6.37221 3.50878 6.01901 3.15558 5.58332 3.15558C5.14763 3.15558 4.79443 3.50878 4.79443 3.94447C4.79443 4.38017 5.14763 4.73336 5.58332 4.73336Z" fill="#DADADA"/>
<path fill-rule="evenodd" clip-rule="evenodd" d="M8.73888 4.73336C9.17457 4.73336 9.52777 4.38017 9.52777 3.94447C9.52777 3.50878 9.17457 3.15558 8.73888 3.15558C8.30319 3.15558 7.94999 3.50878 7.94999 3.94447C7.94999 4.38017 8.30319 4.73336 8.73888 4.73336Z" fill="#DADADA"/>
<path fill-rule="evenodd" clip-rule="evenodd" d="M10.3167 6.31104C10.7523 6.31104 11.1055 5.95785 11.1055 5.52216C11.1055 5.08646 10.7523 4.73327 10.3167 4.73327C9.88096 4.73327 9.52776 5.08646 9.52776 5.52216C9.52776 5.95785 9.88096 6.31104 10.3167 6.31104Z" fill="#DADADA"/>
<path fill-rule="evenodd" clip-rule="evenodd" d="M7.16109 6.31104C7.59678 6.31104 7.94998 5.95785 7.94998 5.52216C7.94998 5.08646 7.59678 4.73327 7.16109 4.73327C6.7254 4.73327 6.3722 5.08646 6.3722 5.52216C6.3722 5.95785 6.7254 6.31104 7.16109 6.31104Z" fill="#DADADA"/>
<path fill-rule="evenodd" clip-rule="evenodd" d="M4.00555 6.31104C4.44124 6.31104 4.79444 5.95785 4.79444 5.52216C4.79444 5.08646 4.44124 4.73327 4.00555 4.73327C3.56986 4.73327 3.21666 5.08646 3.21666 5.52216C3.21666 5.95785 3.56986 6.31104 4.00555 6.31104Z" fill="#DADADA"/>
<path fill-rule="evenodd" clip-rule="evenodd" d="M0.849985 6.31104C1.28568 6.31104 1.63887 5.95785 1.63887 5.52216C1.63887 5.08646 1.28568 4.73327 0.849985 4.73327C0.414294 4.73327 0.0610962 5.08646 0.0610962 5.52216C0.0610962 5.95785 0.414294 6.31104 0.849985 6.31104Z" fill="#DADADA"/>
<path fill-rule="evenodd" clip-rule="evenodd" d="M2.42776 7.88887C2.86345 7.88887 3.21665 7.53567 3.21665 7.09998C3.21665 6.66429 2.86345 6.31109 2.42776 6.31109C1.99207 6.31109 1.63887 6.66429 1.63887 7.09998C1.63887 7.53567 1.99207 7.88887 2.42776 7.88887Z" fill="#DADADA"/>
<path fill-rule="evenodd" clip-rule="evenodd" d="M5.58332 7.88887C6.01901 7.88887 6.37221 7.53567 6.37221 7.09998C6.37221 6.66429 6.01901 6.31109 5.58332 6.31109C5.14763 6.31109 4.79443 6.66429 4.79443 7.09998C4.79443 7.53567 5.14763 7.88887 5.58332 7.88887Z" fill="#DADADA"/>
<path fill-rule="evenodd" clip-rule="evenodd" d="M8.73888 7.88887C9.17457 7.88887 9.52777 7.53567 9.52777 7.09998C9.52777 6.66429 9.17457 6.31109 8.73888 6.31109C8.30319 6.31109 7.94999 6.66429 7.94999 7.09998C7.94999 7.53567 8.30319 7.88887 8.73888 7.88887Z" fill="#DADADA"/>
<path fill-rule="evenodd" clip-rule="evenodd" d="M10.3167 9.4667C10.7523 9.4667 11.1055 9.1135 11.1055 8.67781C11.1055 8.24212 10.7523 7.88892 10.3167 7.88892C9.88096 7.88892 9.52776 8.24212 9.52776 8.67781C9.52776 9.1135 9.88096 9.4667 10.3167 9.4667Z" fill="#DADADA"/>
<path fill-rule="evenodd" clip-rule="evenodd" d="M7.16109 9.4667C7.59678 9.4667 7.94998 9.1135 7.94998 8.67781C7.94998 8.24212 7.59678 7.88892 7.16109 7.88892C6.7254 7.88892 6.3722 8.24212 6.3722 8.67781C6.3722 9.1135 6.7254 9.4667 7.16109 9.4667Z" fill="#DADADA"/>
<path fill-rule="evenodd" clip-rule="evenodd" d="M4.00555 9.4667C4.44124 9.4667 4.79444 9.1135 4.79444 8.67781C4.79444 8.24212 4.44124 7.88892 4.00555 7.88892C3.56986 7.88892 3.21666 8.24212 3.21666 8.67781C3.21666 9.1135 3.56986 9.4667 4.00555 9.4667Z" fill="#DADADA"/>
<path fill-rule="evenodd" clip-rule="evenodd" d="M0.849985 9.4667C1.28568 9.4667 1.63887 9.1135 1.63887 8.67781C1.63887 8.24212 1.28568 7.88892 0.849985 7.88892C0.414294 7.88892 0.0610962 8.24212 0.0610962 8.67781C0.0610962 9.1135 0.414294 9.4667 0.849985 9.4667Z" fill="#DADADA"/>
</g>
</g>
<defs>
<clipPath id="clip0_3909_7527">
<rect x="10" y="10" width="20" height="20" rx="10" fill="white"/>
</clipPath>
<clipPath id="clip1_3909_7527">
<rect width="20" height="20" rx="10" fill="white"/>
</clipPath>
</defs>
</svg>
