<svg width="30" height="30" viewBox="0 0 30 30" fill="none" xmlns="http://www.w3.org/2000/svg">
<g clip-path="url(#clip0_3909_7526)">
<path d="M10 15.3333C10 12.3878 12.3878 10 15.3333 10H24.6667C27.6122 10 30 12.3878 30 15.3333V24.6667C30 27.6122 27.6122 30 24.6667 30H15.3333C12.3878 30 10 27.6122 10 24.6667V15.3333Z" fill="white"/>
<path d="M10 15.3333C10 12.3878 12.3878 10 15.3333 10H24.6667C27.6122 10 30 12.3878 30 15.3333V24.6667C30 27.6122 27.6122 30 24.6667 30H15.3333C12.3878 30 10 27.6122 10 24.6667V15.3333Z" stroke="#E6E6E6"/>
<mask id="mask0_3909_7526" style="mask-type:alpha" maskUnits="userSpaceOnUse" x="10" y="10" width="20" height="20">
<path d="M10 15.3333C10 12.3878 12.3878 10 15.3333 10H24.6667C27.6122 10 30 12.3878 30 15.3333V24.6667C30 27.6122 27.6122 30 24.6667 30H15.3333C12.3878 30 10 27.6122 10 24.6667V15.3333Z" fill="#2055AE"/>
</mask>
<g mask="url(#mask0_3909_7526)">
<path d="M19.1043 17.0633C19.4039 16.4872 19.7006 15.9097 20 15.3334C20.297 15.906 20.5928 16.4792 20.8893 17.052C20.9192 17.1185 20.9935 17.1612 21.0665 17.1528C21.1198 17.1468 21.1639 17.1137 21.2098 17.0887C21.4784 16.9356 21.7471 16.7824 22.0162 16.63C21.8335 17.5577 21.6504 18.4852 21.4683 19.4128C21.4473 19.5012 21.5105 19.5954 21.599 19.6142C21.6642 19.6303 21.7342 19.6041 21.7771 19.5538C22.152 19.1566 22.5281 18.7604 22.9031 18.3632C22.9963 18.5786 23.0891 18.7944 23.1823 19.0098C23.2124 19.0914 23.3069 19.1387 23.3913 19.1157C23.8736 19.0149 24.3559 18.914 24.8384 18.8134C24.6728 19.3183 24.5048 19.8223 24.3392 20.3272C24.3096 20.4081 24.3534 20.5039 24.4328 20.5373C24.6215 20.6249 24.811 20.7111 25 20.7985C24.16 21.4679 23.3207 22.138 22.4803 22.807C22.4189 22.8505 22.3879 22.9339 22.4158 23.0051C22.5191 23.2888 22.6246 23.5717 22.7283 23.8554C21.9596 23.7229 21.1911 23.5891 20.4222 23.4565C20.2667 23.422 20.1046 23.5617 20.1217 23.7201C20.1608 24.4801 20.2022 25.24 20.2419 25.9999C20.0807 26.0001 19.9193 26.0001 19.7581 25.9999C19.7978 25.2398 19.8393 24.4799 19.8783 23.7198C19.895 23.5619 19.7338 23.4228 19.5789 23.4564C18.8096 23.5889 18.0408 23.7229 17.2717 23.8554C17.3754 23.5717 17.4809 23.2888 17.5842 23.0049C17.6101 22.9381 17.5849 22.8582 17.5285 22.8147C16.6859 22.1424 15.8428 21.4705 15 20.7985C15.1882 20.7115 15.377 20.6255 15.5652 20.5384C15.6158 20.5161 15.656 20.4703 15.6663 20.4157C15.6792 20.3553 15.6503 20.298 15.633 20.242C15.4759 19.7657 15.3182 19.2898 15.1616 18.8134C15.6139 18.9077 16.0661 19.0023 16.5183 19.0969C16.5635 19.106 16.6085 19.1189 16.6548 19.1208C16.7262 19.123 16.7931 19.0746 16.8181 19.0091C16.9111 18.7938 17.0037 18.5784 17.0969 18.3632C17.475 18.7632 17.8533 19.1629 18.2317 19.5625C18.292 19.6306 18.4062 19.6374 18.4744 19.5771C18.522 19.5384 18.5446 19.4729 18.5317 19.4132C18.3498 18.4853 18.1665 17.5577 17.9838 16.63C18.277 16.7955 18.5689 16.9633 18.8618 17.129C18.9427 17.1798 19.0615 17.1484 19.1043 17.0633Z" fill="#D52B1E"/>
<rect x="25.6667" y="10" width="4.33333" height="20" fill="#D52B1E"/>
<rect x="10" y="10" width="4.33333" height="20" fill="#D52B1E"/>
</g>
</g>
<rect x="10.5" y="10.5" width="19" height="19" rx="9.5" stroke="#E6E6E6"/>
<g clip-path="url(#clip1_3909_7526)">
<path d="M0 5.33333C0 2.38781 2.38781 0 5.33333 0H14.6667C17.6122 0 20 2.38781 20 5.33333V14.6667C20 17.6122 17.6122 20 14.6667 20H5.33333C2.38781 20 0 17.6122 0 14.6667V5.33333Z" fill="#012169"/>
<mask id="mask1_3909_7526" style="mask-type:alpha" maskUnits="userSpaceOnUse" x="-1" y="0" width="25" height="24">
<path d="M-0.333313 6.31111C-0.333313 2.82558 2.49227 0 5.9778 0H17.0222C20.5078 0 23.3334 2.82558 23.3334 6.31111V17.3556C23.3334 20.8411 20.5078 23.6667 17.0222 23.6667H5.9778C2.49227 23.6667 -0.333313 20.8411 -0.333313 17.3556V6.31111Z" fill="#2055AE"/>
</mask>
<g mask="url(#mask1_3909_7526)">
<rect x="-1.51666" width="33.1333" height="23.6667" fill="white"/>
<path d="M-1.51666 0H31.6167V1.57778H-1.51666V0Z" fill="#D02F44"/>
<path d="M-1.51666 3.15556H31.6167V4.73333H-1.51666V3.15556Z" fill="#D02F44"/>
<path d="M-1.51666 6.31111H31.6167V7.88889H-1.51666V6.31111Z" fill="#D02F44"/>
<path d="M-1.51666 9.46667H31.6167V11.0444H-1.51666V9.46667Z" fill="#D02F44"/>
<path d="M-1.51666 12.6222H31.6167V14.2H-1.51666V12.6222Z" fill="#D02F44"/>
<path d="M-1.51666 15.7778H31.6167V17.3556H-1.51666V15.7778Z" fill="#D02F44"/>
<path d="M-1.51666 18.9333H31.6167V20.5111H-1.51666V18.9333Z" fill="#D02F44"/>
<path d="M-1.51666 22.0889H31.6167V23.6667H-1.51666V22.0889Z" fill="#D02F44"/>
<rect x="-1.51666" width="14.2" height="11.0444" fill="#46467F"/>
<path fill-rule="evenodd" clip-rule="evenodd" d="M0.849985 3.15554C1.28568 3.15554 1.63887 2.80234 1.63887 2.36665C1.63887 1.93096 1.28568 1.57776 0.849985 1.57776C0.414294 1.57776 0.0610962 1.93096 0.0610962 2.36665C0.0610962 2.80234 0.414294 3.15554 0.849985 3.15554Z" fill="#DADADA"/>
<path fill-rule="evenodd" clip-rule="evenodd" d="M4.00555 3.15554C4.44124 3.15554 4.79444 2.80234 4.79444 2.36665C4.79444 1.93096 4.44124 1.57776 4.00555 1.57776C3.56986 1.57776 3.21666 1.93096 3.21666 2.36665C3.21666 2.80234 3.56986 3.15554 4.00555 3.15554Z" fill="#DADADA"/>
<path fill-rule="evenodd" clip-rule="evenodd" d="M7.16109 3.15554C7.59678 3.15554 7.94998 2.80234 7.94998 2.36665C7.94998 1.93096 7.59678 1.57776 7.16109 1.57776C6.7254 1.57776 6.3722 1.93096 6.3722 2.36665C6.3722 2.80234 6.7254 3.15554 7.16109 3.15554Z" fill="#DADADA"/>
<path fill-rule="evenodd" clip-rule="evenodd" d="M10.3167 3.15554C10.7523 3.15554 11.1055 2.80234 11.1055 2.36665C11.1055 1.93096 10.7523 1.57776 10.3167 1.57776C9.88096 1.57776 9.52776 1.93096 9.52776 2.36665C9.52776 2.80234 9.88096 3.15554 10.3167 3.15554Z" fill="#DADADA"/>
<path fill-rule="evenodd" clip-rule="evenodd" d="M2.42776 4.73331C2.86345 4.73331 3.21665 4.38012 3.21665 3.94443C3.21665 3.50873 2.86345 3.15554 2.42776 3.15554C1.99207 3.15554 1.63887 3.50873 1.63887 3.94443C1.63887 4.38012 1.99207 4.73331 2.42776 4.73331Z" fill="#DADADA"/>
<path fill-rule="evenodd" clip-rule="evenodd" d="M5.58332 4.73336C6.01901 4.73336 6.37221 4.38017 6.37221 3.94447C6.37221 3.50878 6.01901 3.15558 5.58332 3.15558C5.14763 3.15558 4.79443 3.50878 4.79443 3.94447C4.79443 4.38017 5.14763 4.73336 5.58332 4.73336Z" fill="#DADADA"/>
<path fill-rule="evenodd" clip-rule="evenodd" d="M8.73888 4.73336C9.17457 4.73336 9.52777 4.38017 9.52777 3.94447C9.52777 3.50878 9.17457 3.15558 8.73888 3.15558C8.30319 3.15558 7.94999 3.50878 7.94999 3.94447C7.94999 4.38017 8.30319 4.73336 8.73888 4.73336Z" fill="#DADADA"/>
<path fill-rule="evenodd" clip-rule="evenodd" d="M10.3167 6.31104C10.7523 6.31104 11.1055 5.95785 11.1055 5.52216C11.1055 5.08646 10.7523 4.73327 10.3167 4.73327C9.88096 4.73327 9.52776 5.08646 9.52776 5.52216C9.52776 5.95785 9.88096 6.31104 10.3167 6.31104Z" fill="#DADADA"/>
<path fill-rule="evenodd" clip-rule="evenodd" d="M7.16109 6.31104C7.59678 6.31104 7.94998 5.95785 7.94998 5.52216C7.94998 5.08646 7.59678 4.73327 7.16109 4.73327C6.7254 4.73327 6.3722 5.08646 6.3722 5.52216C6.3722 5.95785 6.7254 6.31104 7.16109 6.31104Z" fill="#DADADA"/>
<path fill-rule="evenodd" clip-rule="evenodd" d="M4.00555 6.31104C4.44124 6.31104 4.79444 5.95785 4.79444 5.52216C4.79444 5.08646 4.44124 4.73327 4.00555 4.73327C3.56986 4.73327 3.21666 5.08646 3.21666 5.52216C3.21666 5.95785 3.56986 6.31104 4.00555 6.31104Z" fill="#DADADA"/>
<path fill-rule="evenodd" clip-rule="evenodd" d="M0.849985 6.31104C1.28568 6.31104 1.63887 5.95785 1.63887 5.52216C1.63887 5.08646 1.28568 4.73327 0.849985 4.73327C0.414294 4.73327 0.0610962 5.08646 0.0610962 5.52216C0.0610962 5.95785 0.414294 6.31104 0.849985 6.31104Z" fill="#DADADA"/>
<path fill-rule="evenodd" clip-rule="evenodd" d="M2.42776 7.88887C2.86345 7.88887 3.21665 7.53567 3.21665 7.09998C3.21665 6.66429 2.86345 6.31109 2.42776 6.31109C1.99207 6.31109 1.63887 6.66429 1.63887 7.09998C1.63887 7.53567 1.99207 7.88887 2.42776 7.88887Z" fill="#DADADA"/>
<path fill-rule="evenodd" clip-rule="evenodd" d="M5.58332 7.88887C6.01901 7.88887 6.37221 7.53567 6.37221 7.09998C6.37221 6.66429 6.01901 6.31109 5.58332 6.31109C5.14763 6.31109 4.79443 6.66429 4.79443 7.09998C4.79443 7.53567 5.14763 7.88887 5.58332 7.88887Z" fill="#DADADA"/>
<path fill-rule="evenodd" clip-rule="evenodd" d="M8.73888 7.88887C9.17457 7.88887 9.52777 7.53567 9.52777 7.09998C9.52777 6.66429 9.17457 6.31109 8.73888 6.31109C8.30319 6.31109 7.94999 6.66429 7.94999 7.09998C7.94999 7.53567 8.30319 7.88887 8.73888 7.88887Z" fill="#DADADA"/>
<path fill-rule="evenodd" clip-rule="evenodd" d="M10.3167 9.4667C10.7523 9.4667 11.1055 9.1135 11.1055 8.67781C11.1055 8.24212 10.7523 7.88892 10.3167 7.88892C9.88096 7.88892 9.52776 8.24212 9.52776 8.67781C9.52776 9.1135 9.88096 9.4667 10.3167 9.4667Z" fill="#DADADA"/>
<path fill-rule="evenodd" clip-rule="evenodd" d="M7.16109 9.4667C7.59678 9.4667 7.94998 9.1135 7.94998 8.67781C7.94998 8.24212 7.59678 7.88892 7.16109 7.88892C6.7254 7.88892 6.3722 8.24212 6.3722 8.67781C6.3722 9.1135 6.7254 9.4667 7.16109 9.4667Z" fill="#DADADA"/>
<path fill-rule="evenodd" clip-rule="evenodd" d="M4.00555 9.4667C4.44124 9.4667 4.79444 9.1135 4.79444 8.67781C4.79444 8.24212 4.44124 7.88892 4.00555 7.88892C3.56986 7.88892 3.21666 8.24212 3.21666 8.67781C3.21666 9.1135 3.56986 9.4667 4.00555 9.4667Z" fill="#DADADA"/>
<path fill-rule="evenodd" clip-rule="evenodd" d="M0.849985 9.4667C1.28568 9.4667 1.63887 9.1135 1.63887 8.67781C1.63887 8.24212 1.28568 7.88892 0.849985 7.88892C0.414294 7.88892 0.0610962 8.24212 0.0610962 8.67781C0.0610962 9.1135 0.414294 9.4667 0.849985 9.4667Z" fill="#DADADA"/>
</g>
</g>
<defs>
<clipPath id="clip0_3909_7526">
<rect x="10" y="10" width="20" height="20" rx="10" fill="white"/>
</clipPath>
<clipPath id="clip1_3909_7526">
<rect width="20" height="20" rx="10" fill="white"/>
</clipPath>
</defs>
</svg>
