<svg width="30" height="30" viewBox="0 0 30 30" fill="none" xmlns="http://www.w3.org/2000/svg">
<g clip-path="url(#clip0_3909_7528)">
<path d="M10 15.3333C10 12.3878 12.3878 10 15.3333 10H24.6667C27.6122 10 30 12.3878 30 15.3333V24.6667C30 27.6122 27.6122 30 24.6667 30H15.3333C12.3878 30 10 27.6122 10 24.6667V15.3333Z" fill="#012169"/>
<mask id="mask0_3909_7528" style="mask-type:alpha" maskUnits="userSpaceOnUse" x="10" y="10" width="20" height="20">
<path d="M10 15.3333C10 12.3878 12.3878 10 15.3333 10H24.6667C27.6122 10 30 12.3878 30 15.3333V24.6667C30 27.6122 27.6122 30 24.6667 30H15.3333C12.3878 30 10 27.6122 10 24.6667V15.3333Z" fill="#2055AE"/>
</mask>
<g mask="url(#mask0_3909_7528)">
</g>
<g clip-path="url(#clip1_3909_7528)">
<path d="M2.66669 8.33337H37.3334V31.3334H2.66669V8.33337Z" fill="#EE1C25"/>
<path d="M21.6539 13.1326C21.4964 13.1827 21.3527 13.2684 21.2339 13.3828C21.1151 13.4972 21.0244 13.6374 20.9689 13.7923C20.9134 13.9473 20.8945 14.113 20.9137 14.2764C20.933 14.4398 20.9899 14.5966 21.0799 14.7346C21.2184 14.9468 21.3084 15.1866 21.3437 15.4372C21.379 15.6878 21.3587 15.9431 21.2842 16.185C21.2097 16.4269 21.0828 16.6497 20.9125 16.8375C20.7422 17.0254 20.5325 17.1739 20.2984 17.2724C20.0677 17.3695 19.8653 17.5229 19.7101 17.7185C19.5548 17.9141 19.4516 18.1455 19.4101 18.3913C19.3686 18.6371 19.39 18.8893 19.4724 19.1247C19.5549 19.36 19.6956 19.5709 19.8817 19.7377C19.3221 19.3415 18.9401 18.7433 18.8173 18.0708C18.6945 17.3983 18.8406 16.7046 19.2243 16.1377C19.2094 16.125 19.1952 16.1116 19.1816 16.0976C18.7889 16.6732 18.6367 17.3783 18.7571 18.0636C18.8776 18.749 19.2612 19.3608 19.8269 19.7696C19.0336 19.4534 18.3849 18.8577 18.0046 18.096C17.6242 17.3344 17.5388 16.4601 17.7646 15.6398C17.9904 14.8195 18.5116 14.1106 19.2289 13.6482C19.9462 13.1858 20.8093 13.0023 21.6539 13.1326Z" fill="white"/>
<path d="M20.0763 15.2755L19.0145 15.7363L20.1457 15.9846L19.3772 15.1221L19.4895 16.2694" fill="#EE1C25"/>
<path d="M26.9148 19.3332C26.8181 19.1994 26.6917 19.0896 26.5456 19.0123C26.3995 18.935 26.2375 18.8922 26.0723 18.8874C25.9071 18.8825 25.743 18.9157 25.5929 18.9843C25.4428 19.0529 25.3107 19.1551 25.2068 19.283C25.0471 19.4797 24.8459 19.6389 24.6176 19.7496C24.3892 19.8603 24.1391 19.9197 23.885 19.9237C23.6308 19.9277 23.3788 19.8761 23.1465 19.7725C22.9143 19.669 22.7075 19.5161 22.5408 19.3245C22.3766 19.1358 22.1673 18.9913 21.9324 18.9045C21.6975 18.8176 21.4445 18.7911 21.1969 18.8275C20.9492 18.8639 20.715 18.962 20.5157 19.1127C20.3165 19.2634 20.1588 19.4618 20.0571 19.6896C20.2621 19.037 20.7149 18.4906 21.3192 18.1669C21.9234 17.8432 22.6311 17.7678 23.2915 17.9568C23.299 17.9388 23.3074 17.9211 23.3166 17.9039C22.6451 17.7092 21.9245 17.7823 21.3073 18.1077C20.6901 18.4331 20.2248 18.9853 20.0097 19.6475C20.0657 18.7981 20.4336 17.9996 21.0431 17.4044C21.6525 16.8091 22.461 16.4587 23.3145 16.4198C24.1679 16.381 25.0065 16.6565 25.6705 17.1938C26.3345 17.7311 26.7774 18.4926 26.9148 19.3332Z" fill="white"/>
<path d="M24.3794 18.4979L23.6104 17.634L23.7239 18.7821L24.3092 17.7883L23.2486 18.2482" fill="#EE1C25"/>
<path d="M14.7046 24.2891C14.8615 24.3406 15.0283 24.3552 15.1919 24.332C15.3556 24.3089 15.5117 24.2484 15.6482 24.1554C15.7846 24.0624 15.8978 23.9394 15.9788 23.7959C16.0598 23.6523 16.1065 23.4922 16.1153 23.3279C16.1288 23.0752 16.1977 22.8284 16.3173 22.6049C16.4368 22.3815 16.6041 22.1868 16.8073 22.0345C17.0105 21.8822 17.2447 21.776 17.4934 21.7235C17.7421 21.671 17.9992 21.6733 18.2468 21.7304C18.4906 21.7867 18.7448 21.7807 18.9859 21.7131C19.227 21.6456 19.4471 21.5186 19.6259 21.3439C19.8048 21.1692 19.9365 20.9525 20.009 20.7138C20.0814 20.4751 20.0922 20.2222 20.0404 19.9784C20.2586 20.6262 20.2138 21.3336 19.9157 21.9497C19.6175 22.5659 19.0896 23.042 18.4444 23.2766C18.4489 23.2955 18.4525 23.3147 18.4552 23.3341C19.1127 23.0976 19.6525 22.6158 19.9601 21.9907C20.2678 21.3656 20.3192 20.6461 20.1036 19.9846C20.558 20.7042 20.7302 21.5655 20.5876 22.4043C20.4449 23.2431 19.9973 24.0007 19.33 24.5327C18.6628 25.0647 17.8225 25.3339 16.9695 25.289C16.1164 25.2441 15.3102 24.8882 14.7046 24.2891Z" fill="white"/>
<path d="M17.2464 23.4766L18.3773 23.7241L17.6095 22.862L17.7209 24.0094L18.3084 23.0149" fill="#EE1C25"/>
<path d="M22.6255 26.2217C22.723 26.0892 22.7884 25.936 22.8166 25.774C22.8449 25.612 22.8352 25.4456 22.7884 25.2877C22.7416 25.1298 22.6588 24.9846 22.5466 24.8635C22.4344 24.7424 22.2957 24.6486 22.1414 24.5894C21.904 24.4984 21.6894 24.3567 21.5127 24.1744C21.336 23.9921 21.2014 23.7735 21.1185 23.5341C21.0355 23.2947 21.0062 23.0403 21.0326 22.7887C21.0591 22.5372 21.1406 22.2947 21.2714 22.0782C21.4002 21.8649 21.4729 21.6226 21.4826 21.3736C21.4923 21.1246 21.4387 20.877 21.3269 20.6537C21.215 20.4304 21.0485 20.2387 20.8427 20.0962C20.6369 19.9537 20.3985 19.8651 20.1496 19.8386C20.8359 19.8329 21.4982 20.0944 21.9952 20.5673C22.4921 21.0402 22.7845 21.6872 22.81 22.3702C22.8295 22.3718 22.8489 22.3743 22.8682 22.3778C22.8448 21.6825 22.5507 21.0227 22.048 20.538C21.5453 20.0533 20.8736 19.7817 20.1749 19.7808C21.0027 19.5739 21.8789 19.6777 22.6366 20.0725C23.3943 20.4673 23.9804 21.1255 24.2833 21.9215C24.5862 22.7176 24.5846 23.5958 24.2788 24.3889C23.9731 25.182 23.3846 25.8344 22.6255 26.2217Z" fill="white"/>
<path d="M22.6314 23.5652L23.2165 22.572L22.1557 23.0313L23.287 23.2813L22.5173 22.4174" fill="#EE1C25"/>
<path d="M14.108 16.1976C14.1072 16.3621 14.1446 16.5245 14.2173 16.6723C14.2899 16.82 14.3958 16.9491 14.5268 17.0496C14.6578 17.15 14.8102 17.219 14.9724 17.2512C15.1345 17.2835 15.302 17.2781 15.4617 17.2355C15.7073 17.17 15.9644 17.1589 16.2148 17.2029C16.4652 17.2469 16.7029 17.345 16.9111 17.4902C17.1193 17.6354 17.293 17.8243 17.4199 18.0435C17.5468 18.2627 17.6239 18.5069 17.6457 18.759C17.6671 19.0073 17.7512 19.2461 17.8902 19.4535C18.0291 19.6608 18.2184 19.8299 18.4404 19.9451C18.6625 20.0604 18.9103 20.118 19.1607 20.1127C19.4111 20.1073 19.6562 20.0393 19.8732 19.9147C19.3214 20.3219 18.6316 20.4986 17.9509 20.4071C17.2701 20.3156 16.6523 19.9631 16.2291 19.4249C16.2124 19.4351 16.1952 19.4444 16.1775 19.4529C16.6063 20.0023 17.2332 20.3641 17.9254 20.4618C18.6177 20.5595 19.3211 20.3854 19.8867 19.9764C19.3392 20.6295 18.5693 21.0593 17.7238 21.184C16.8782 21.3087 16.0162 21.1195 15.302 20.6524C14.5878 20.1854 14.0713 19.4732 13.8511 18.6516C13.6309 17.83 13.7223 16.9565 14.108 16.1976Z" fill="white"/>
<path d="M15.6678 18.3526L15.7802 19.4999L16.367 18.5061L15.3052 18.9668L16.4365 19.2152" fill="#EE1C25"/>
</g>
</g>
<g clip-path="url(#clip2_3909_7528)">
<path d="M0 5.33333C0 2.38781 2.38781 0 5.33333 0H14.6667C17.6122 0 20 2.38781 20 5.33333V14.6667C20 17.6122 17.6122 20 14.6667 20H5.33333C2.38781 20 0 17.6122 0 14.6667V5.33333Z" fill="#012169"/>
<mask id="mask1_3909_7528" style="mask-type:alpha" maskUnits="userSpaceOnUse" x="-1" y="0" width="25" height="24">
<path d="M-0.333313 6.31111C-0.333313 2.82558 2.49227 0 5.9778 0H17.0222C20.5078 0 23.3334 2.82558 23.3334 6.31111V17.3556C23.3334 20.8411 20.5078 23.6667 17.0222 23.6667H5.9778C2.49227 23.6667 -0.333313 20.8411 -0.333313 17.3556V6.31111Z" fill="#2055AE"/>
</mask>
<g mask="url(#mask1_3909_7528)">
<rect x="-1.51666" width="33.1333" height="23.6667" fill="white"/>
<path d="M-1.51666 0H31.6167V1.57778H-1.51666V0Z" fill="#D02F44"/>
<path d="M-1.51666 3.15556H31.6167V4.73333H-1.51666V3.15556Z" fill="#D02F44"/>
<path d="M-1.51666 6.31111H31.6167V7.88889H-1.51666V6.31111Z" fill="#D02F44"/>
<path d="M-1.51666 9.46667H31.6167V11.0444H-1.51666V9.46667Z" fill="#D02F44"/>
<path d="M-1.51666 12.6222H31.6167V14.2H-1.51666V12.6222Z" fill="#D02F44"/>
<path d="M-1.51666 15.7778H31.6167V17.3556H-1.51666V15.7778Z" fill="#D02F44"/>
<path d="M-1.51666 18.9333H31.6167V20.5111H-1.51666V18.9333Z" fill="#D02F44"/>
<path d="M-1.51666 22.0889H31.6167V23.6667H-1.51666V22.0889Z" fill="#D02F44"/>
<rect x="-1.51666" width="14.2" height="11.0444" fill="#46467F"/>
<path fill-rule="evenodd" clip-rule="evenodd" d="M0.849985 3.15554C1.28568 3.15554 1.63887 2.80234 1.63887 2.36665C1.63887 1.93096 1.28568 1.57776 0.849985 1.57776C0.414294 1.57776 0.0610962 1.93096 0.0610962 2.36665C0.0610962 2.80234 0.414294 3.15554 0.849985 3.15554Z" fill="#DADADA"/>
<path fill-rule="evenodd" clip-rule="evenodd" d="M4.00555 3.15554C4.44124 3.15554 4.79444 2.80234 4.79444 2.36665C4.79444 1.93096 4.44124 1.57776 4.00555 1.57776C3.56986 1.57776 3.21666 1.93096 3.21666 2.36665C3.21666 2.80234 3.56986 3.15554 4.00555 3.15554Z" fill="#DADADA"/>
<path fill-rule="evenodd" clip-rule="evenodd" d="M7.16109 3.15554C7.59678 3.15554 7.94998 2.80234 7.94998 2.36665C7.94998 1.93096 7.59678 1.57776 7.16109 1.57776C6.7254 1.57776 6.3722 1.93096 6.3722 2.36665C6.3722 2.80234 6.7254 3.15554 7.16109 3.15554Z" fill="#DADADA"/>
<path fill-rule="evenodd" clip-rule="evenodd" d="M10.3167 3.15554C10.7523 3.15554 11.1055 2.80234 11.1055 2.36665C11.1055 1.93096 10.7523 1.57776 10.3167 1.57776C9.88096 1.57776 9.52776 1.93096 9.52776 2.36665C9.52776 2.80234 9.88096 3.15554 10.3167 3.15554Z" fill="#DADADA"/>
<path fill-rule="evenodd" clip-rule="evenodd" d="M2.42776 4.73331C2.86345 4.73331 3.21665 4.38012 3.21665 3.94443C3.21665 3.50873 2.86345 3.15554 2.42776 3.15554C1.99207 3.15554 1.63887 3.50873 1.63887 3.94443C1.63887 4.38012 1.99207 4.73331 2.42776 4.73331Z" fill="#DADADA"/>
<path fill-rule="evenodd" clip-rule="evenodd" d="M5.58332 4.73336C6.01901 4.73336 6.37221 4.38017 6.37221 3.94447C6.37221 3.50878 6.01901 3.15558 5.58332 3.15558C5.14763 3.15558 4.79443 3.50878 4.79443 3.94447C4.79443 4.38017 5.14763 4.73336 5.58332 4.73336Z" fill="#DADADA"/>
<path fill-rule="evenodd" clip-rule="evenodd" d="M8.73888 4.73336C9.17457 4.73336 9.52777 4.38017 9.52777 3.94447C9.52777 3.50878 9.17457 3.15558 8.73888 3.15558C8.30319 3.15558 7.94999 3.50878 7.94999 3.94447C7.94999 4.38017 8.30319 4.73336 8.73888 4.73336Z" fill="#DADADA"/>
<path fill-rule="evenodd" clip-rule="evenodd" d="M10.3167 6.31104C10.7523 6.31104 11.1055 5.95785 11.1055 5.52216C11.1055 5.08646 10.7523 4.73327 10.3167 4.73327C9.88096 4.73327 9.52776 5.08646 9.52776 5.52216C9.52776 5.95785 9.88096 6.31104 10.3167 6.31104Z" fill="#DADADA"/>
<path fill-rule="evenodd" clip-rule="evenodd" d="M7.16109 6.31104C7.59678 6.31104 7.94998 5.95785 7.94998 5.52216C7.94998 5.08646 7.59678 4.73327 7.16109 4.73327C6.7254 4.73327 6.3722 5.08646 6.3722 5.52216C6.3722 5.95785 6.7254 6.31104 7.16109 6.31104Z" fill="#DADADA"/>
<path fill-rule="evenodd" clip-rule="evenodd" d="M4.00555 6.31104C4.44124 6.31104 4.79444 5.95785 4.79444 5.52216C4.79444 5.08646 4.44124 4.73327 4.00555 4.73327C3.56986 4.73327 3.21666 5.08646 3.21666 5.52216C3.21666 5.95785 3.56986 6.31104 4.00555 6.31104Z" fill="#DADADA"/>
<path fill-rule="evenodd" clip-rule="evenodd" d="M0.849985 6.31104C1.28568 6.31104 1.63887 5.95785 1.63887 5.52216C1.63887 5.08646 1.28568 4.73327 0.849985 4.73327C0.414294 4.73327 0.0610962 5.08646 0.0610962 5.52216C0.0610962 5.95785 0.414294 6.31104 0.849985 6.31104Z" fill="#DADADA"/>
<path fill-rule="evenodd" clip-rule="evenodd" d="M2.42776 7.88887C2.86345 7.88887 3.21665 7.53567 3.21665 7.09998C3.21665 6.66429 2.86345 6.31109 2.42776 6.31109C1.99207 6.31109 1.63887 6.66429 1.63887 7.09998C1.63887 7.53567 1.99207 7.88887 2.42776 7.88887Z" fill="#DADADA"/>
<path fill-rule="evenodd" clip-rule="evenodd" d="M5.58332 7.88887C6.01901 7.88887 6.37221 7.53567 6.37221 7.09998C6.37221 6.66429 6.01901 6.31109 5.58332 6.31109C5.14763 6.31109 4.79443 6.66429 4.79443 7.09998C4.79443 7.53567 5.14763 7.88887 5.58332 7.88887Z" fill="#DADADA"/>
<path fill-rule="evenodd" clip-rule="evenodd" d="M8.73888 7.88887C9.17457 7.88887 9.52777 7.53567 9.52777 7.09998C9.52777 6.66429 9.17457 6.31109 8.73888 6.31109C8.30319 6.31109 7.94999 6.66429 7.94999 7.09998C7.94999 7.53567 8.30319 7.88887 8.73888 7.88887Z" fill="#DADADA"/>
<path fill-rule="evenodd" clip-rule="evenodd" d="M10.3167 9.4667C10.7523 9.4667 11.1055 9.1135 11.1055 8.67781C11.1055 8.24212 10.7523 7.88892 10.3167 7.88892C9.88096 7.88892 9.52776 8.24212 9.52776 8.67781C9.52776 9.1135 9.88096 9.4667 10.3167 9.4667Z" fill="#DADADA"/>
<path fill-rule="evenodd" clip-rule="evenodd" d="M7.16109 9.4667C7.59678 9.4667 7.94998 9.1135 7.94998 8.67781C7.94998 8.24212 7.59678 7.88892 7.16109 7.88892C6.7254 7.88892 6.3722 8.24212 6.3722 8.67781C6.3722 9.1135 6.7254 9.4667 7.16109 9.4667Z" fill="#DADADA"/>
<path fill-rule="evenodd" clip-rule="evenodd" d="M4.00555 9.4667C4.44124 9.4667 4.79444 9.1135 4.79444 8.67781C4.79444 8.24212 4.44124 7.88892 4.00555 7.88892C3.56986 7.88892 3.21666 8.24212 3.21666 8.67781C3.21666 9.1135 3.56986 9.4667 4.00555 9.4667Z" fill="#DADADA"/>
<path fill-rule="evenodd" clip-rule="evenodd" d="M0.849985 9.4667C1.28568 9.4667 1.63887 9.1135 1.63887 8.67781C1.63887 8.24212 1.28568 7.88892 0.849985 7.88892C0.414294 7.88892 0.0610962 8.24212 0.0610962 8.67781C0.0610962 9.1135 0.414294 9.4667 0.849985 9.4667Z" fill="#DADADA"/>
</g>
</g>
<defs>
<clipPath id="clip0_3909_7528">
<rect x="10" y="10" width="20" height="20" rx="10" fill="white"/>
</clipPath>
<clipPath id="clip1_3909_7528">
<rect width="34.6667" height="23" fill="white" transform="translate(2.66669 8.33337)"/>
</clipPath>
<clipPath id="clip2_3909_7528">
<rect width="20" height="20" rx="10" fill="white"/>
</clipPath>
</defs>
</svg>
