<svg width="558" height="460" viewBox="0 0 558 460" fill="none" xmlns="http://www.w3.org/2000/svg">
<path d="M399.688 460L558 302.152V304.734L402.273 460H399.688Z" fill="#D1EAFF"/>
<path d="M376.165 460L558 278.662V281.262L378.769 460H376.165Z" fill="#D1EAFF"/>
<path d="M352.66 460L558 255.19V257.771L355.246 460H352.66Z" fill="#D1EAFF"/>
<path d="M329.156 460L558 231.718V234.299L331.741 460H329.156Z" fill="#D1EAFF"/>
<path d="M305.633 460L558 208.228V210.827L308.236 460H305.633Z" fill="#D1EAFF"/>
<path d="M282.128 460L558 184.755V187.337L284.713 460H282.128Z" fill="#D1EAFF"/>
<path d="M258.624 460L558 161.283V163.865L261.209 460H258.624Z" fill="#D1EAFF"/>
<path d="M235.101 460L558 137.793V140.393L237.704 460H235.101Z" fill="#D1EAFF"/>
<path d="M211.596 460L558 114.321V116.903L214.181 460H211.596Z" fill="#D1EAFF"/>
<path d="M188.073 460L558 90.8489V93.4305L190.677 460H188.073Z" fill="#D1EAFF"/>
<path d="M164.569 460L558 67.3586V69.9584L167.172 460H164.569Z" fill="#D1EAFF"/>
<path d="M141.064 460L558 43.8865V46.4681L143.649 460H141.064Z" fill="#D1EAFF"/>
<path d="M117.541 460L558 20.3962V22.996L120.145 460H117.541Z" fill="#D1EAFF"/>
<path d="M557.523 0L96.6401 460H94.0367L554.938 0H557.523Z" fill="#D1EAFF"/>
<path d="M534.019 0L73.1172 460H70.5321L531.415 0H534.019Z" fill="#D1EAFF"/>
<path d="M510.496 0L49.6126 460H47.0092L507.911 0H510.496Z" fill="#D1EAFF"/>
<path d="M486.991 0L26.0897 460H23.5046L484.406 0H486.991Z" fill="#D1EAFF"/>
<path d="M463.487 0L2.58513 460H0L460.883 0H463.487Z" fill="#D1EAFF"/>
</svg>
