<svg width="1198" height="1100" viewBox="0 0 1198 1100" fill="none" xmlns="http://www.w3.org/2000/svg">
<path d="M399.688 1100L1198 302.152V304.734L402.273 1100H399.688Z" fill="#D1EAFF"/>
<path d="M376.165 1100L1198 278.662V281.262L378.769 1100H376.165Z" fill="#D1EAFF"/>
<path d="M352.66 1100L1198 255.19V257.771L355.246 1100H352.66Z" fill="#D1EAFF"/>
<path d="M329.156 1100L1198 231.718V234.299L331.741 1100H329.156Z" fill="#D1EAFF"/>
<path d="M305.633 1100L1198 208.228V210.827L308.236 1100H305.633Z" fill="#D1EAFF"/>
<path d="M282.128 1100L1198 184.755V187.337L284.713 1100H282.128Z" fill="#D1EAFF"/>
<path d="M258.624 1100L1198 161.283V163.865L261.209 1100H258.624Z" fill="#D1EAFF"/>
<path d="M235.101 1100L1198 137.793V140.393L237.704 1100H235.101Z" fill="#D1EAFF"/>
<path d="M211.596 1100L1198 114.321V116.903L214.181 1100H211.596Z" fill="#D1EAFF"/>
<path d="M188.073 1100L1198 90.8489V93.4305L190.677 1100H188.073Z" fill="#D1EAFF"/>
<path d="M164.569 1100L1198 67.3586V69.9584L167.172 1100H164.569Z" fill="#D1EAFF"/>
<path d="M141.064 1100L1198 43.8865V46.4681L143.649 1100H141.064Z" fill="#D1EAFF"/>
<path d="M117.541 1100L1198 20.3962V22.996L120.145 1100H117.541Z" fill="#D1EAFF"/>
<path d="M1197.52 0L96.6401 1100H94.0367L1194.94 0H1197.52Z" fill="#D1EAFF"/>
<path d="M1174.02 0L73.1172 1100H70.5321L1171.42 0H1174.02Z" fill="#D1EAFF"/>
<path d="M1150.5 0L49.6126 1100H47.0092L1147.91 0H1150.5Z" fill="#D1EAFF"/>
<path d="M1126.99 0L26.0897 1100H23.5046L1124.41 0H1126.99Z" fill="#D1EAFF"/>
<path d="M1103.49 0L2.58513 1100H0L1100.88 0H1103.49Z" fill="#D1EAFF"/>
</svg>
