<svg width="924" height="826" viewBox="0 0 924 826" fill="none" xmlns="http://www.w3.org/2000/svg">
<path d="M524.312 826L0 302.152V304.734L521.727 826H524.312Z" fill="#D1EAFF"/>
<path d="M547.835 826L0 278.662V281.262L545.231 826H547.835Z" fill="#D1EAFF"/>
<path d="M571.34 826L0 255.19V257.771L568.754 826H571.34Z" fill="#D1EAFF"/>
<path d="M594.844 826L0 231.718V234.299L592.259 826H594.844Z" fill="#D1EAFF"/>
<path d="M618.367 826L0 208.228V210.827L615.764 826H618.367Z" fill="#D1EAFF"/>
<path d="M641.872 826L0 184.755V187.337L639.287 826H641.872Z" fill="#D1EAFF"/>
<path d="M665.376 826L0 161.283V163.865L662.791 826H665.376Z" fill="#D1EAFF"/>
<path d="M688.899 826L0 137.793V140.393L686.296 826H688.899Z" fill="#D1EAFF"/>
<path d="M712.404 826L0 114.321V116.903L709.819 826H712.404Z" fill="#D1EAFF"/>
<path d="M735.927 826L0 90.8489V93.4305L733.323 826H735.927Z" fill="#D1EAFF"/>
<path d="M759.431 826L0 67.3586V69.9584L756.828 826H759.431Z" fill="#D1EAFF"/>
<path d="M782.936 826L0 43.8865V46.4681L780.351 826H782.936Z" fill="#D1EAFF"/>
<path d="M806.459 826L0 20.3962V22.996L803.855 826H806.459Z" fill="#D1EAFF"/>
<path d="M0.476746 0L827.36 826H829.963L3.06189 0H0.476746Z" fill="#D1EAFF"/>
<path d="M23.9813 0L850.883 826H853.468L26.5848 0H23.9813Z" fill="#D1EAFF"/>
<path d="M47.5043 0L874.387 826H876.991L50.0894 0H47.5043Z" fill="#D1EAFF"/>
<path d="M71.0088 0L897.91 826H900.495L73.5939 0H71.0088Z" fill="#D1EAFF"/>
<path d="M94.5134 0L921.415 826H924L97.1169 0H94.5134Z" fill="#D1EAFF"/>
</svg>
