<svg width="30" height="30" viewBox="0 0 30 30" fill="none" xmlns="http://www.w3.org/2000/svg">
<path d="M15.0006 1.99982C7.83239 1.99982 2.00061 7.8316 2.00061 14.9998C2.00061 22.168 7.83239 27.9998 15.0006 27.9998C22.1688 27.9998 28.0006 22.168 28.0006 14.9998C28.0006 7.8316 22.1686 1.99982 15.0006 1.99982ZM15.0006 25.2618C9.34204 25.2618 4.73845 20.6584 4.73845 14.9998C4.73845 9.34125 9.34204 4.73766 15.0006 4.73766C20.6592 4.73766 25.2628 9.34125 25.2628 14.9998C25.2628 20.6584 20.6592 25.2618 15.0006 25.2618Z" fill="#6691FF"/>
<path d="M20.4214 15.1444H15.0919V10.528C15.0919 9.77182 14.4791 9.15909 13.723 9.15909C12.9668 9.15909 12.354 9.77182 12.354 10.528V16.5133C12.354 17.2695 12.9668 17.8822 13.723 17.8822H20.4214C21.1775 17.8822 21.7903 17.2695 21.7903 16.5133C21.7903 15.7571 21.1774 15.1444 20.4214 15.1444Z" fill="#6691FF"/>
</svg>
