<svg width="40" height="40" viewBox="0 0 40 40" fill="none" xmlns="http://www.w3.org/2000/svg">
<path d="M33.3333 15H18.3333C16.4924 15 15 16.4924 15 18.3333V33.3333C15 35.1743 16.4924 36.6667 18.3333 36.6667H33.3333C35.1743 36.6667 36.6667 35.1743 36.6667 33.3333V18.3333C36.6667 16.4924 35.1743 15 33.3333 15Z" stroke="#FBC920" stroke-width="2" stroke-linecap="round" stroke-linejoin="round"/>
<path d="M8.33398 24.9999H6.66732C5.78326 24.9999 4.93542 24.6487 4.31029 24.0236C3.68517 23.3985 3.33398 22.5506 3.33398 21.6666V6.66659C3.33398 5.78253 3.68517 4.93468 4.31029 4.30956C4.93542 3.68444 5.78326 3.33325 6.66732 3.33325H21.6673C22.5514 3.33325 23.3992 3.68444 24.0243 4.30956C24.6495 4.93468 25.0007 5.78253 25.0007 6.66659V8.33325" stroke="#FBC920" stroke-width="2" stroke-linecap="round" stroke-linejoin="round"/>
</svg>
