<svg width="50" height="50" viewBox="0 0 50 50" fill="none" xmlns="http://www.w3.org/2000/svg">
<path fill-rule="evenodd" clip-rule="evenodd" d="M44.893 9.96242C45.4525 9.96242 45.9109 10.3915 45.9282 10.9315C46.0528 14.8262 46.1706 18.5047 44.8505 21.2335C43.5143 23.9959 40.859 25.6699 36.2757 26.6253C34.5669 29.8072 31.7279 32.3641 28.2196 33.7568V34.2537C28.2196 37.8634 31.0237 40.8693 34.742 41.2457C34.8866 41.2603 35.0319 41.2738 35.1781 41.2859C35.7137 41.3304 36.1251 41.7632 36.1251 42.2822V45C36.1251 45.5522 35.6614 46 35.0894 46H14.9105C14.3384 46 13.8747 45.5522 13.8747 45V42.2822C13.8747 41.7632 14.2861 41.3303 14.8218 41.2858C14.968 41.2737 15.1132 41.2603 15.2574 41.2457C18.9762 40.8693 21.7802 37.8633 21.7802 34.2537V33.7567C18.272 32.364 15.4329 29.8072 13.7241 26.6252C9.1409 25.6698 6.48557 23.9957 5.14936 21.2334C3.82946 18.505 3.94716 14.827 4.07178 10.9329L4.07183 10.9314C4.08909 10.3914 4.5475 9.96233 5.10707 9.96233H11.95V5C11.95 4.44775 12.4136 4 12.9857 4H37.0143C37.5864 4 38.0501 4.44775 38.0501 5V9.96242H44.893ZM11.95 11.9623H6.11322C5.9153 19.1917 6.34238 22.6023 12.7287 24.3309C12.2227 22.8337 11.95 21.2422 11.95 19.5998V11.9623ZM34.0537 44V43.1754C29.5708 42.5025 26.2324 38.8292 26.15 34.4204C25.8359 34.4984 25.5179 34.5682 25.1959 34.6282C25.1312 34.6402 25.0655 34.6462 24.9999 34.6462C24.9343 34.6462 24.8686 34.6402 24.8039 34.6282C24.4818 34.5682 24.1639 34.4985 23.8498 34.4204C23.7674 38.8289 20.429 42.5021 15.9463 43.1754V44H34.0537ZM14.0215 19.5999C14.0215 25.9005 18.6264 31.348 25 32.6265C31.3735 31.348 35.9785 25.9005 35.9785 19.5998V6H14.0215V19.5999ZM38.05 19.5998C38.05 21.2422 37.7772 22.8337 37.2713 24.3309C43.6576 22.6023 44.0846 19.1917 43.8867 11.9623H38.05V19.5998Z" fill="#5D94F1"/>
<path d="M29.3191 20.3254C29.3191 21.9967 27.9187 23.4029 26.0357 23.7868V24.4271C26.0357 24.9793 25.5721 25.4271 25 25.4271C24.4279 25.4271 23.9642 24.9793 23.9642 24.4271V23.789C22.6189 23.52 21.5016 22.7334 20.9798 21.6354C20.7411 21.1335 20.9692 20.5398 21.4891 20.3095C22.0091 20.079 22.6239 20.2993 22.8624 20.8013C23.1673 21.4426 24.0462 21.8905 25 21.8905C26.2183 21.8905 27.2476 21.1738 27.2476 20.3255C27.2476 19.4772 26.2183 18.7604 25 18.7604C22.6184 18.7604 20.6809 17.1612 20.6809 15.1954C20.6809 13.5242 22.0812 12.1179 23.9642 11.734V11.0938C23.9642 10.5415 24.4279 10.0937 25 10.0937C25.5721 10.0937 26.0357 10.5415 26.0357 11.0938V11.7342C27.5336 12.0395 28.7559 12.9928 29.1693 14.2582C29.3413 14.7849 29.0386 15.3466 28.4931 15.5127C27.9473 15.6792 27.3658 15.3866 27.1937 14.8599C26.961 14.1475 26.0383 13.6304 25 13.6304C23.7817 13.6304 22.7524 14.3472 22.7524 15.1954C22.7524 16.0437 23.7817 16.7604 25 16.7604C27.3815 16.7603 29.3191 18.3596 29.3191 20.3254Z" fill="#FBC920"/>
</svg>
