<svg width="26" height="26" viewBox="0 0 26 26" fill="none" xmlns="http://www.w3.org/2000/svg">
<path d="M13 25.9999C20.1682 25.9999 26 20.1682 26 13C26 5.83178 20.1682 -6.10352e-05 13 -6.10352e-05C5.8318 -6.10352e-05 0 5.83178 0 13C0 20.1682 5.8318 25.9999 13 25.9999ZM4.52416 19.4182C5.55423 19.0131 6.85116 18.6902 8.30889 18.469C8.50681 19.6572 8.76948 20.7587 9.0933 21.7304C9.26293 22.2393 9.44155 22.6884 9.62607 23.0875C7.57735 22.4005 5.80517 21.1057 4.52416 19.4182ZM2.36364 13C2.36364 11.4444 2.69943 9.96568 3.30208 8.6326C4.58025 9.17977 6.19485 9.6031 8.01375 9.87641C7.92519 10.8858 7.87879 11.933 7.87879 13C7.87879 14.067 7.92519 15.1143 8.01375 16.1235C6.19485 16.3969 4.58018 16.8203 3.30216 17.3674C2.69943 16.0344 2.36364 14.5557 2.36364 13ZM13 2.36356C13.2545 2.36356 13.9962 3.01206 14.6645 5.01696C14.9391 5.84108 15.165 6.77573 15.3393 7.78776C14.5795 7.84086 13.7961 7.86891 12.9997 7.86891C12.2035 7.86891 11.4203 7.84094 10.6607 7.78776C10.835 6.77573 11.0609 5.84116 11.3356 5.01704C12.0039 3.01206 12.7455 2.36356 13 2.36356ZM12.9997 10.2325C13.9 10.2325 14.7826 10.1994 15.6374 10.1363C15.7164 11.0585 15.7576 12.0186 15.7576 13C15.7576 13.9814 15.7164 14.9413 15.6375 15.8635C14.7827 15.8004 13.9002 15.7673 13 15.7673C12.0998 15.7673 11.2173 15.8004 10.3626 15.8635C10.2836 14.9413 10.2424 13.9813 10.2424 13C10.2424 12.0186 10.2836 11.0586 10.3626 10.1363C11.2173 10.1994 12.0996 10.2325 12.9997 10.2325ZM23.6364 13C23.6364 14.5556 23.3006 16.0342 22.6979 17.3673C21.4197 16.8201 19.8051 16.3969 17.9862 16.1235C18.0748 15.1143 18.1212 14.067 18.1212 13C18.1212 11.9329 18.0748 10.8857 17.9862 9.87633C19.8051 9.60302 21.4197 9.17962 22.6978 8.63236C23.3006 9.96552 23.6364 11.4443 23.6364 13ZM13 23.6363C12.7455 23.6363 12.0039 22.9877 11.3357 20.9829C11.061 20.1587 10.8351 19.2241 10.6607 18.2121C11.4205 18.1589 12.2037 18.131 13 18.131C13.7963 18.131 14.5796 18.1589 15.3393 18.2121C15.165 19.2241 14.9391 20.1588 14.6645 20.9829C13.9962 22.9878 13.2546 23.6363 13 23.6363ZM16.3741 23.0875C16.5585 22.6884 16.7371 22.2393 16.9068 21.7304C17.2307 20.7587 17.4934 19.6572 17.6913 18.469C19.1488 18.6902 20.4458 19.013 21.4758 19.4181C20.1949 21.1055 18.4228 22.4004 16.3741 23.0875ZM21.4757 6.5816C20.4458 6.98673 19.1488 7.30968 17.6912 7.53083C17.4933 6.34272 17.2307 5.24111 16.9068 4.26951C16.7372 3.76062 16.5585 3.31145 16.374 2.91232C18.4227 3.5995 20.1947 4.89421 21.4757 6.5816ZM9.62607 2.91239C9.44155 3.31137 9.26301 3.76062 9.0933 4.26951C8.76948 5.24127 8.50681 6.3428 8.30889 7.53099C6.85116 7.30976 5.55423 6.98688 4.52416 6.58184C5.80509 4.89437 7.57727 3.59942 9.62607 2.91239Z" fill="#6691FF"/>
</svg>
