<svg width="37" height="36" viewBox="0 0 37 36" fill="none" xmlns="http://www.w3.org/2000/svg">
<path d="M27.9746 20.0508C27.4083 20.0508 26.9492 19.5917 26.9492 19.0254C26.9492 18.4591 27.4083 18 27.9746 18C28.5409 18 29 18.4591 29 19.0254C29 19.5917 28.5409 20.0508 27.9746 20.0508Z" fill="#FBC920"/>
<path d="M18 0C20.2056 0 22 1.7944 22 4C22 6.2056 20.2056 8 18 8C15.7944 8 14 6.2056 14 4C14 1.7944 15.7944 0 18 0ZM18 6C19.1028 6 20 5.1028 20 4C20 2.8972 19.1028 2 18 2C16.8972 2 16 2.8972 16 4C16 5.1028 16.8972 6 18 6Z" fill="#FBC920"/>
<path d="M1.02539 14C1.59168 14 2 14.4337 2 15V16.2031C2 16.8884 2.39128 17.5258 2.9616 17.9083C3.24926 18.1012 3.80119 18.3614 4.54091 18.2098C5.89771 13.5033 10.2435 10 15.3809 10H24.232C24.5171 10 24.7854 9.93197 24.968 9.72498C25.9351 8.62877 27.3307 8 28.7969 8H31.873C32.1876 8 32.4847 8.14437 32.6791 8.39163C32.8736 8.63889 32.9437 8.96168 32.8695 9.26738L31.8311 13.5439C32.5899 14.3377 33.2224 15.2285 33.7195 16.2032H33.9238C35.62 16.2032 37 17.5832 37 19.2794V23.3186C37 24.3164 36.5134 25.2557 35.6983 25.8313L33.8899 27.1084C33.2553 28.4657 32.5211 30.0065 31.4038 31.0212C31.253 31.1582 31 31.4459 31 31.8335V34.2514C31 35.2156 30.2156 36 29.2514 36H25.6979C24.7336 36 24 35.2156 24 34.2514V34H15V34.284C15 35.2482 14.2663 36 13.3021 36H9.65433C8.69019 36 8 35.1213 8 34.1571V32.6054C8 31.8104 7.58406 31.1364 7 30.5364C5.86353 29.3688 5.27591 27.6033 4.73799 26.0736C4.31566 24.8728 4.10156 23.6133 4.10156 21.3301C4.10156 20.9844 4.11804 20.6425 4.14866 20.3046C4.13116 20.3048 4.11359 20.3059 4.09609 20.3059C3.29062 20.3059 2.50633 20.0722 1.81945 19.6117C0.680176 18.8476 0 17.5735 0 16.2031V15C0 14.4337 0.459103 14 1.02539 14ZM6.67256 25.3932C7.11245 26.644 7.53922 28.1502 8.46959 29.106C9.4284 30.0911 10 31.3674 10 32.6997V34H13C13 32.8825 13 32.0388 13 30.9057C13 30.3394 13.4591 29.8803 14.0254 29.8803C14.5917 29.8803 15 30.3394 15 30.9057V32H24V30.873C24 30.3068 24.4083 29.8477 24.9746 29.8477C25.5409 29.8477 26 30.3068 26 30.873C26 32.6857 26 32.8453 26 34H29V31.8335C29 30.9609 29.3313 30.1333 30.0249 29.5033C30.9854 28.6308 31.614 27.2044 32.131 26.0211C32.2059 25.8497 32.3263 25.702 32.4791 25.5941L34.5153 24.1562C34.787 23.9642 35 23.6511 35 23.3185V19.2793C35 18.7139 34.4892 18.2539 33.9238 18.2539C33.103 18.2539 32.8548 18.2819 32.6169 18.1481C32.4676 18.0883 32.2455 17.8995 32.132 17.6413L32.131 17.6391L32.1299 17.6366C31.6308 16.495 30.9164 15.4804 30.0064 14.6207L29.9954 14.6102C29.9853 14.6007 29.9754 14.591 29.9657 14.5811C29.7082 14.3186 29.6166 13.9449 29.7067 13.6021L30.5689 10H28.7969C27.9189 10 27.0839 10.4266 26.5059 11.0817C25.9341 11.7298 25.1053 12 24.232 12H15.3809C10.2923 12 6.15234 16.2415 6.15234 21.3301C6.15234 23.381 6.32741 24.4116 6.67256 25.3932Z" fill="#FBC920"/>
<path d="M14.898 15H21.102C21.5979 15 22 15.4477 22 16C22 16.5523 21.5979 17 21.102 17H14.898C14.4021 17 14 16.5523 14 16C14 15.4477 14.4021 15 14.898 15Z" fill="#FBC920"/>
</svg>
