<svg width="30" height="30" viewBox="0 0 30 30" fill="none" xmlns="http://www.w3.org/2000/svg">
<path fill-rule="evenodd" clip-rule="evenodd" d="M15.0009 25.869C10.0865 23.1763 6.82894 17.926 6.82894 11.9935V8.46286L15.0004 5.04339L23.1718 8.46286V11.9935C23.1718 17.7842 20.0321 23.1162 15.0009 25.869ZM26.0004 6.60307L15.0004 1.99994L4.00037 6.60307V11.9935C4.00037 19.4855 8.43074 26.0827 15.0004 28.9999C21.7504 26.0026 26.0004 19.2878 26.0004 11.9935V6.60307Z" fill="#6691FF"/>
<path d="M17.6555 11.5924L14.4595 14.804L13.3929 13.7323C12.806 13.1424 11.8542 13.1424 11.2672 13.7323C10.6802 14.3222 10.6802 15.2785 11.2672 15.8684L13.3966 18.0083C13.6901 18.3032 14.0748 18.4508 14.4594 18.4508C14.844 18.4508 15.2288 18.3033 15.5222 18.0083L19.781 13.7286C20.368 13.1387 20.368 12.1823 19.781 11.5924C19.1942 11.0024 18.2424 11.0024 17.6555 11.5924Z" fill="#6691FF"/>
</svg>
