<svg width="55" height="53" viewBox="0 0 55 53" fill="none" xmlns="http://www.w3.org/2000/svg">
<path d="M25.921 0.587696C26.3279 -0.0448506 27.2845 -0.195709 27.8687 0.277157C28.2093 0.519765 28.3602 0.929112 28.4211 1.32787C31.6289 2.00365 34.8385 2.67589 38.0472 3.34726C38.1716 3.0129 38.3437 2.67148 38.6623 2.48357C39.2597 2.07775 40.1572 2.26566 40.5366 2.88145C40.8252 3.29432 40.7943 3.83424 40.6116 4.28329C43.3067 6.69261 45.9948 9.11075 48.6881 11.521C49.0014 11.3992 49.3411 11.2933 49.6791 11.3745C50.3242 11.4945 50.814 12.1367 50.7566 12.7913C50.7496 13.1213 50.5695 13.4071 50.386 13.6674C51.3338 16.6272 52.2983 19.5809 53.2461 22.5398C53.6626 22.5054 54.1171 22.5548 54.4383 22.8503C55.0199 23.3153 55.0781 24.2716 54.5592 24.8044C54.2927 25.1167 53.8815 25.2279 53.4879 25.2632C53.2937 29.1811 53.0864 33.099 52.8904 37.0169C53.2355 37.1801 53.5788 37.4086 53.7279 37.7774C54.0509 38.4408 53.7085 39.3186 53.0219 39.5877C52.5489 39.8029 52.0036 39.6706 51.5897 39.3874C48.7799 41.9908 45.9674 44.5916 43.1549 47.1924C43.4118 47.4861 43.6227 47.8496 43.5927 48.2545C43.5997 48.9903 42.9079 49.6317 42.1754 49.5726C41.6512 49.5717 41.2214 49.2064 40.9726 48.7724C37.8124 49.7243 34.6523 50.6771 31.493 51.6316C31.4471 52.2095 31.0826 52.7591 30.5117 52.9276C29.7104 53.2276 28.8394 52.5491 28.737 51.7428C25.14 51.4129 21.5431 51.0794 17.9461 50.7477C17.7828 51.0635 17.5754 51.382 17.2401 51.5346C16.6153 51.8672 15.7655 51.6034 15.4398 50.9753C15.1733 50.5201 15.2563 49.951 15.514 49.5117C12.5303 46.8986 9.55018 44.281 6.57005 41.6644C6.26471 41.8541 5.92055 42.0235 5.54991 41.9767C4.8148 41.9397 4.21119 41.2162 4.30914 40.4858C4.33385 40.0676 4.60654 39.7279 4.91099 39.465C3.77965 36.1762 2.65714 32.8837 1.52933 29.594C1.21782 29.5728 0.886891 29.5525 0.62303 29.3664C0.284158 29.159 0.0856004 28.7912 0 28.4127V28.0651C0.0820705 27.4334 0.609792 26.9517 1.22664 26.8529C2.37387 22.9783 3.51844 19.1027 4.66478 15.228C4.3365 14.9986 4.03646 14.6863 3.96939 14.2761C3.80525 13.5668 4.3162 12.7958 5.03454 12.674C5.48284 12.5717 5.93114 12.7552 6.27795 13.0331C8.27147 10.5691 10.2712 8.10944 12.2629 5.64366C12.0308 5.1655 12.0052 4.56383 12.3415 4.12713C12.7659 3.50958 13.7225 3.38255 14.2935 3.86953C14.6112 4.10243 14.7436 4.48708 14.8186 4.85849C18.4517 3.82277 22.0875 2.79235 25.7216 1.75839C25.6625 1.36051 25.6704 0.923819 25.921 0.587696ZM28.3805 1.65694C28.2305 2.19685 27.7689 2.65119 27.1971 2.70148C26.6685 2.77735 26.1575 2.48622 25.8637 2.05923C22.4061 3.03495 18.9548 4.03185 15.4946 4.997C19.381 4.87701 23.2674 4.70057 27.1539 4.5603C27.3295 4.04773 27.7786 3.61986 28.3346 3.57663C28.9153 3.49812 29.4659 3.85629 29.7307 4.36004C32.3658 4.12096 34.9982 3.84835 37.635 3.62868C37.635 3.58016 37.6324 3.53164 37.6306 3.48312L37.5742 3.58545C34.5102 2.93879 31.4462 2.29566 28.3805 1.65694ZM29.8384 4.67499C29.8525 5.02258 29.796 5.37194 29.6274 5.67983C30.6626 6.5541 31.696 7.42837 32.7302 8.30265C34.5499 6.95551 36.3669 5.60484 38.1884 4.26035C38.1451 4.14125 38.1036 4.02215 38.0622 3.90393C35.3203 4.16066 32.5802 4.42356 29.8384 4.67499ZM32.9888 8.52408C36.3343 11.3507 39.6824 14.1755 43.0208 17.011C43.1964 16.9642 43.3712 16.9183 43.5477 16.876C42.3307 12.8857 41.1164 8.89461 39.9013 4.9026C39.3638 5.08345 38.7629 4.93701 38.3684 4.53295C36.5752 5.86421 34.7776 7.18841 32.9888 8.52408ZM40.1907 4.73498C41.4262 8.78875 42.6608 12.8425 43.8945 16.8972C44.0763 16.9624 44.2563 17.0357 44.4345 17.1124C45.7071 15.895 46.9937 14.6934 48.2707 13.4812C47.9265 12.9387 47.9883 12.2011 48.4339 11.7345C45.7583 9.3366 43.0835 6.93698 40.4078 4.53913C40.3354 4.60441 40.2631 4.66969 40.1907 4.73498ZM14.7409 5.36664C14.5971 5.70365 14.3509 5.98243 14.0323 6.16416C14.8089 9.22103 15.574 12.2814 16.3594 15.3374C17.7255 14.9369 19.0951 14.5487 20.4647 14.1605C20.6465 14.1014 20.868 14.082 20.98 13.9047C23.1086 11.1813 25.2415 8.46056 27.3683 5.73541C27.2147 5.47604 27.13 5.18579 27.1036 4.88672C22.9833 5.04816 18.8621 5.20343 14.7409 5.36664ZM12.4809 5.89597C10.4838 8.36793 8.47885 10.8337 6.4818 13.3048C6.74213 13.805 6.71831 14.4587 6.33178 14.8884C6.00703 15.2862 5.4643 15.4212 4.97188 15.3401C3.86437 19.1036 2.74186 22.8627 1.63964 26.6271C3.09397 24.2425 4.5227 21.8428 5.96555 19.4512C5.62315 18.9783 5.5702 18.2999 5.92319 17.8173C6.21882 17.37 6.77743 17.1856 7.29457 17.2439C9.0957 13.5201 10.9048 9.79888 12.7112 6.07771C12.6344 6.01771 12.5577 5.95684 12.4809 5.89597ZM21.4125 13.8853C22.7203 13.513 24.0272 13.1381 25.3351 12.7631C25.3359 12.1394 25.7534 11.5254 26.3773 11.3869C26.9262 11.2369 27.5016 11.491 27.844 11.9259C29.3803 10.7834 30.9203 9.64449 32.4593 8.50467C31.4453 7.6454 30.4305 6.78965 29.4174 5.93038C28.9082 6.37148 28.1281 6.39177 27.5969 5.97978C25.5345 8.61407 23.473 11.2492 21.4125 13.8853ZM12.9963 6.23033C11.2057 9.93739 9.40457 13.6392 7.60696 17.3418C7.76934 17.4547 7.9273 17.5747 8.07997 17.7009C10.7336 16.9439 13.3863 16.1826 16.039 15.4239C15.2686 12.3741 14.4921 9.32513 13.7252 6.27356C13.4807 6.28238 13.2372 6.26738 12.9963 6.23033ZM27.9904 12.2223C28.0204 12.3705 28.0505 12.5196 28.0805 12.6687C32.8803 14.2832 37.6765 15.9082 42.4754 17.5279C42.5655 17.4194 42.6581 17.3118 42.7517 17.2051C39.4071 14.3784 36.0616 11.5536 32.7214 8.72258C31.14 9.88269 29.5692 11.0587 27.9904 12.2223ZM28.0496 12.9995C27.9287 13.4212 27.6366 13.7653 27.25 13.9682C27.7442 15.4336 28.2252 16.9033 28.7264 18.3669C33.1829 18.2364 37.6403 18.1146 42.0969 17.992C42.2186 18.0088 42.3166 17.9488 42.3881 17.8552C37.6165 16.2161 32.8273 14.6237 28.0496 12.9995ZM21.3419 14.2443C21.2112 14.2867 21.0586 14.3105 20.98 14.4367C20.0323 15.6488 19.0836 16.8592 18.1376 18.0723C18.2505 18.2575 18.3476 18.4516 18.4306 18.6519C21.7469 18.5575 25.0633 18.4666 28.3787 18.3731C27.8943 16.9369 27.4177 15.4971 26.9376 14.0591C26.2678 14.1464 25.598 13.7371 25.3933 13.0895C24.0414 13.4689 22.6938 13.8641 21.3419 14.2443ZM48.4851 13.7274C47.2161 14.9316 45.9436 16.1323 44.6702 17.3321C44.9287 17.6691 45.0408 18.089 44.9879 18.5107C47.3979 20.1958 49.8132 21.8746 52.2224 23.5614C52.3477 23.1829 52.5984 22.8609 52.9443 22.6598C51.9912 19.7379 51.0708 16.8054 50.0956 13.8906C49.5767 14.157 48.9378 14.0953 48.4851 13.7274ZM16.4335 15.6524C16.6021 16.3008 16.7583 16.9536 16.9312 17.6012C17.2692 17.5915 17.6028 17.6673 17.8887 17.85C18.7747 16.7304 19.6493 15.6021 20.5309 14.479C19.1648 14.8698 17.7987 15.2598 16.4335 15.6524ZM8.26882 17.9876C8.40472 18.3519 8.45149 18.7675 8.28559 19.1309C8.16557 19.4362 7.90877 19.6523 7.64138 19.8279C9.00745 25.1114 10.3832 30.3933 11.7449 35.6777C11.947 35.6574 12.1491 35.6433 12.352 35.6362C13.7517 30.5009 15.1389 25.3629 16.5456 20.2302C16.1114 19.992 15.754 19.5676 15.7355 19.0551C15.679 18.4596 16.0743 17.9082 16.6082 17.6753C16.445 17.0295 16.2853 16.3837 16.1149 15.7397C13.501 16.4931 10.8845 17.2386 8.26882 17.9876ZM28.827 18.6872C29.4439 20.5275 30.0572 22.3678 30.6714 24.2081C31.0218 24.1366 31.3853 24.1595 31.7145 24.306C35.2585 22.4242 38.792 20.5239 42.3325 18.6369C42.3192 18.5557 42.2919 18.3925 42.2786 18.3105C37.7948 18.4366 33.3109 18.5601 28.827 18.6872ZM18.4597 18.973C18.4464 19.0542 18.4191 19.2165 18.4058 19.2977C22.2738 21.0912 26.1496 22.8697 30.0201 24.658C30.1357 24.553 30.254 24.4498 30.3731 24.3483C29.7475 22.4648 29.113 20.5839 28.4882 18.6995C25.1453 18.7825 21.8025 18.8892 18.4597 18.973ZM44.8837 18.8371C44.7593 19.0171 44.6199 19.1865 44.4654 19.3427C44.7928 21.0568 45.1317 22.7683 45.4591 24.4824C47.7182 24.3977 49.9765 24.3042 52.2356 24.2186C52.2233 24.126 52.2109 24.0334 52.1995 23.9416C49.7603 22.2416 47.3202 20.5416 44.8837 18.8371ZM32.0243 24.5168C32.1381 24.6721 32.2493 24.8309 32.3508 24.995C35.2629 24.8882 38.1734 24.7674 41.0855 24.6553C41.7395 22.9315 42.3925 21.2068 43.0473 19.482C42.8178 19.34 42.6184 19.1565 42.4569 18.9412C38.9791 20.8001 35.5021 22.6589 32.0243 24.5168ZM43.3535 19.5906C42.7199 21.2756 42.0774 22.9571 41.4412 24.6412C42.6714 24.5936 43.9015 24.5442 45.1317 24.4965C44.8105 22.8362 44.4831 21.1777 44.168 19.5165C43.9015 19.5844 43.6271 19.6117 43.3535 19.5906ZM6.20206 19.6876C4.75567 22.1093 3.29606 24.5212 1.84261 26.9385C2.11618 27.0841 2.3871 27.2649 2.53624 27.5472C2.79481 27.9716 2.75333 28.5124 2.53007 28.942C5.33458 31.4016 8.14527 33.8542 10.948 36.3147C11.0901 36.1268 11.2569 35.9591 11.4457 35.8171C10.0761 30.5238 8.70388 25.2314 7.33163 19.939C6.93451 19.9893 6.53828 19.9037 6.20206 19.6876ZM18.0193 19.9681C19.7384 22.3836 21.4486 24.8053 23.1606 27.2261C23.7404 27.1097 24.344 27.3514 24.675 27.841C26.3208 26.9535 27.9719 26.0766 29.6213 25.1944C29.728 25.1414 29.8066 25.0479 29.8851 24.9615C26.0287 23.1679 22.159 21.4035 18.3026 19.61C18.2091 19.7299 18.1137 19.849 18.0193 19.9681ZM16.8571 20.314C15.4593 25.4546 14.0623 30.5953 12.6636 35.7359C12.7174 35.7642 12.8233 35.8197 12.8771 35.8471C15.9958 33.5939 19.1145 31.3416 22.2332 29.0893C21.994 28.4497 22.249 27.6928 22.8482 27.3558C21.1574 24.9544 19.4551 22.5601 17.7581 20.1614C17.474 20.2857 17.166 20.336 16.8571 20.314ZM45.5235 24.8062C46.3107 28.8608 47.0952 32.9146 47.8841 36.9684C48.1312 36.9851 48.3757 37.031 48.6087 37.1157C50.0859 33.1299 51.5711 29.1476 53.0537 25.1635C52.7704 25.017 52.5269 24.8062 52.3521 24.538C50.0762 24.6289 47.7994 24.7171 45.5235 24.8062ZM41.315 24.9729C40.324 27.5887 39.3303 30.2036 38.3393 32.8193C38.9367 33.1599 39.2094 33.9133 38.9667 34.5591C41.5938 35.5613 44.2183 36.5696 46.8446 37.5727C47.037 37.3354 47.2823 37.1519 47.562 37.0319C46.7731 32.9614 45.9833 28.8908 45.1935 24.8203C43.9006 24.8706 42.6078 24.92 41.315 24.9729ZM32.4399 25.3205C32.4902 25.8349 32.2722 26.3465 31.8531 26.6518C31.8398 28.3051 31.8557 29.9583 31.8451 31.6125C33.3833 32.2238 34.9258 32.8264 36.4693 33.4237C36.764 32.8634 37.4171 32.5723 38.0339 32.7011C39.0091 30.1304 39.9842 27.5578 40.9593 24.9862C38.1195 25.0973 35.2797 25.2085 32.4399 25.3205ZM24.81 28.1383C24.8532 28.3818 24.8603 28.6297 24.8418 28.8758C27.0691 29.7466 29.2956 30.6191 31.5221 31.4916C31.5239 29.9354 31.5212 28.3792 31.5239 26.8229C31.125 26.9103 30.6838 26.8979 30.3378 26.6562C29.9443 26.4127 29.7439 25.961 29.7077 25.512C28.0813 26.3986 26.4408 27.2596 24.81 28.1383ZM53.1075 25.9116C51.73 29.7201 50.2863 33.5057 48.8858 37.3063C49.3941 37.7756 49.5017 38.6181 49.0587 39.1669C48.809 39.5268 48.3739 39.6521 47.9689 39.7359C46.3769 42.0438 44.7964 44.3613 43.2211 46.6807C45.9436 44.1725 48.6554 41.6529 51.3752 39.1404C51.1661 38.7822 51.0567 38.3473 51.1917 37.9415C51.3594 37.3469 51.9586 36.9587 52.5648 36.9701C52.6857 34.6102 52.8066 32.2512 52.9275 29.8913C52.9822 28.5644 53.0917 27.2393 53.1075 25.9116ZM1.84703 29.5093C2.96601 32.7832 4.08764 36.0553 5.20839 39.3283C5.75376 39.1669 6.35296 39.3371 6.72978 39.7632C8.10997 39.0089 9.49105 38.2564 10.8695 37.5012C10.7909 37.2181 10.7777 36.9225 10.8192 36.6331C7.98731 34.1585 5.1572 31.6822 2.32974 29.2014C2.17178 29.3081 2.01117 29.4105 1.84703 29.5093ZM24.7262 29.182C24.577 29.4052 24.3899 29.6001 24.1728 29.7581C26.4514 33.1758 28.7273 36.5961 31.0023 40.0164C31.1744 39.9556 31.3483 39.8982 31.523 39.8435C31.5221 37.1757 31.5239 34.5088 31.5221 31.8418C29.2559 30.957 26.9924 30.0677 24.7262 29.182ZM13.1489 36.0562C13.3087 36.2706 13.4287 36.5114 13.501 36.7699C19.1039 38.2035 24.7129 39.6133 30.3149 41.0504C30.3881 40.7407 30.5293 40.4514 30.7394 40.2114C28.4458 36.769 26.1575 33.3248 23.8631 29.8842C23.3204 30.0033 22.7485 29.8075 22.3999 29.3743C19.3148 31.6001 16.2323 33.8286 13.1489 36.0562ZM31.8486 31.9706C31.8478 34.5988 31.8486 37.2278 31.8478 39.8559C31.9819 39.8876 32.1169 39.922 32.2519 39.9547C33.8395 38.3764 35.4306 36.8025 37.0261 35.2331C36.5161 34.9181 36.2557 34.3173 36.3475 33.728C34.8447 33.1484 33.3489 32.5547 31.8486 31.9706ZM38.8008 34.8458C38.4549 35.2763 37.8918 35.4704 37.3518 35.3654C35.7483 36.956 34.1404 38.5423 32.5361 40.1311C32.7947 40.3755 32.9764 40.6869 33.0462 41.0372C37.6165 40.3473 42.1842 39.645 46.7555 38.9604C46.6169 38.6093 46.5887 38.2291 46.6919 37.8647C44.0613 36.8599 41.4324 35.8497 38.8008 34.8458ZM13.5178 37.1131C13.4684 37.2913 13.4146 37.4686 13.3563 37.645C16.7212 40.3596 20.0773 43.0856 23.443 45.8011C25.7066 44.401 27.9737 43.008 30.2372 41.6097C30.3678 41.5868 30.4226 41.3812 30.2549 41.3715C24.6785 39.945 19.0959 38.5352 13.5178 37.1131ZM6.90274 40.0429C7.08542 40.4964 7.02894 41.0036 6.78538 41.4236C9.68343 43.9546 12.5691 46.4989 15.4645 49.0335C14.4779 45.4632 13.4834 41.8955 12.495 38.3252C11.9452 38.4381 11.3734 38.2308 11.0274 37.7906C9.65166 38.5396 8.27676 39.2912 6.90274 40.0429ZM12.7986 38.1973C13.8134 41.862 14.8362 45.525 15.8458 49.1914C16.4026 48.8403 17.1633 48.91 17.6284 49.3829C19.4666 48.2528 21.3013 47.1165 23.1403 45.9873C19.8231 43.2877 16.4909 40.6057 13.1683 37.9124C13.0457 38.0076 12.923 38.1029 12.7986 38.1973ZM46.3336 39.3504C41.9054 40.0244 37.4771 40.6931 33.0488 41.3689C32.9923 41.5744 32.9182 41.7738 32.8317 41.9679C35.6133 43.7597 38.3984 45.5453 41.1747 47.345C41.5506 46.9418 42.1224 46.7645 42.659 46.9109C44.3136 44.4963 45.9577 42.0755 47.6176 39.6644C47.3723 39.5683 47.1649 39.4059 46.9452 39.2683C46.7387 39.2745 46.5366 39.3212 46.3336 39.3504ZM28.737 42.9207C27.0612 43.9537 25.3854 44.9859 23.7104 46.0199C24.1905 46.4081 24.6697 46.7962 25.1497 47.1835C25.6457 46.7777 26.3782 46.7636 26.8962 47.1385C27.9022 45.6847 28.9162 44.2369 29.9248 42.7857C30.1375 42.4716 30.3784 42.1743 30.5496 41.8338C29.9222 42.154 29.3442 42.5634 28.737 42.9207ZM27.13 47.3741C27.3665 47.734 27.4874 48.1875 27.3498 48.6083C27.175 49.2417 26.4929 49.674 25.8443 49.5593C25.3006 49.494 24.8735 49.0574 24.7147 48.5483C22.5191 49.1147 20.3226 49.6793 18.127 50.2466C17.9964 50.2148 17.8949 50.4706 18.0802 50.4318C21.6384 50.7635 25.1974 51.0882 28.7556 51.4182C28.8809 50.7424 29.4995 50.2342 30.1887 50.2519C30.577 47.6829 30.9617 45.1139 31.3483 42.5449C31.1303 42.4531 30.9229 42.3384 30.7314 42.2008C29.5321 43.9255 28.3293 45.6485 27.13 47.3741ZM31.6819 42.5943C31.2706 45.1615 30.9053 47.7384 30.5108 50.3092C30.9653 50.4724 31.3103 50.8447 31.4533 51.3043C34.5949 50.3489 37.7409 49.4076 40.8834 48.4566C40.8711 48.1716 40.902 47.8867 41.0026 47.6193C38.2087 45.8179 35.4112 44.0208 32.6182 42.2175C32.349 42.4381 32.0172 42.5325 31.6819 42.5943ZM17.8102 49.6564C17.8543 49.749 17.9002 49.8416 17.9487 49.9334C18.1843 49.914 18.4111 49.831 18.6406 49.7764C20.6526 49.2585 22.6629 48.738 24.675 48.2228C24.7032 47.9413 24.7915 47.6723 24.9247 47.4244C24.4208 47.0177 23.9178 46.6083 23.413 46.2025C21.5457 47.3547 19.6784 48.506 17.8102 49.6564Z" fill="#306BCF"/>
</svg>
