<svg width="36" height="36" viewBox="0 0 36 36" fill="none" xmlns="http://www.w3.org/2000/svg">
<path d="M26.0686 6.4646L23.9594 2.81118C23.8193 2.56917 23.5886 2.39198 23.3188 2.31991C23.0499 2.24883 22.7605 2.28595 22.5185 2.42496L19.2737 4.29835C19.2763 3.56247 19.1018 2.76449 18.724 2.11059C18.1606 1.13417 17.2512 0.435896 16.1625 0.144382C15.0759 -0.145023 13.9377 0.00326574 12.9614 0.565622C11.609 1.34735 10.8005 2.80267 10.854 4.3641L10.8613 4.58656C10.8613 4.59479 10.8613 4.60203 10.8623 4.61026L10.9653 7.72551L8.36468 6.10503L8.36053 6.10193L8.17104 5.98346C6.84445 5.15848 5.18205 5.12755 3.82769 5.90928C2.85126 6.47269 2.15299 7.38211 1.86147 8.47082C1.56996 9.55953 1.71937 10.6966 2.28271 11.673C2.66768 12.3385 3.20957 12.8559 3.83268 13.2134L0.527573 15.0811C0.0230103 15.3725 -0.149748 16.0175 0.141487 16.5221L2.32082 20.1758C2.61206 20.6802 3.25704 20.8531 3.7616 20.5618L25.6827 7.90537C26.1871 7.61421 26.3598 6.96916 26.0686 6.4646ZM6.99049 11.3902C5.98228 11.97 4.69043 11.6253 4.10979 10.6184C3.52788 9.61107 3.87494 8.3174 4.88224 7.73655C5.55893 7.34414 6.3922 7.36059 7.05447 7.7736L10.0359 9.63188L6.99049 11.3902ZM17.108 4.8361C16.9629 5.3794 16.614 5.83425 16.1265 6.11543L13.0802 7.87422L12.9614 4.29196C12.9356 3.51023 13.3404 2.78306 14.016 2.39268C14.5022 2.10947 15.0707 2.03634 15.6166 2.18154C16.1604 2.32779 16.6157 2.67696 16.8969 3.16513C17.1791 3.65345 17.2543 4.29125 17.108 4.8361Z" fill="#F95B81"/>
<path d="M17.2543 25.6919C17.6663 25.2799 18.3338 25.2799 18.7458 25.6919L19.0548 26.0009V16.9454H16.9454V26.0009L17.2543 25.6919Z" fill="#F95B81"/>
<path d="M28.5469 16.9454H21.1641V28.5469C21.1641 28.9733 20.9076 29.3586 20.5131 29.5213C20.3823 29.5758 20.2453 29.6016 20.1094 29.6016C19.8354 29.6016 19.5656 29.4945 19.3637 29.2926L18 27.9289L16.6363 29.2926C16.3335 29.5954 15.8823 29.685 15.4868 29.5213C15.0924 29.3586 14.8359 28.9733 14.8359 28.5469V16.9454H14.2445L6.39844 21.4754V34.9453C6.39844 35.5283 6.87016 36 7.45313 36H28.5469C29.1298 36 29.6016 35.5283 29.6016 34.9453V18.0001C29.6016 17.4172 29.1298 16.9454 28.5469 16.9454Z" fill="#F95B81"/>
<path d="M34.9453 12.7267H33.8907V11.672C33.8907 11.089 33.4189 10.6173 32.836 10.6173C32.253 10.6173 31.7813 11.089 31.7813 11.672V12.7267H30.7266C30.1436 12.7267 29.6719 13.1984 29.6719 13.7814C29.6719 14.3643 30.1436 14.836 30.7266 14.836H31.7813V15.8907C31.7813 16.4737 32.253 16.9454 32.836 16.9454C33.4189 16.9454 33.8907 16.4737 33.8907 15.8907V14.836H34.9453C35.5283 14.836 36 14.3643 36 13.7814C36 13.1984 35.5283 12.7267 34.9453 12.7267Z" fill="#FBAC36"/>
<path d="M30.6563 8.50794C31.2387 8.50794 31.711 8.03574 31.711 7.45325C31.711 6.87076 31.2387 6.39856 30.6563 6.39856C30.0738 6.39856 29.6016 6.87076 29.6016 7.45325C29.6016 8.03574 30.0738 8.50794 30.6563 8.50794Z" fill="#FBAC36"/>
<path d="M26.4375 14.836C27.02 14.836 27.4922 14.3638 27.4922 13.7813C27.4922 13.1989 27.02 12.7267 26.4375 12.7267C25.855 12.7267 25.3828 13.1989 25.3828 13.7813C25.3828 14.3638 25.855 14.836 26.4375 14.836Z" fill="#FBAC36"/>
</svg>
